<svg width="31" height="31" viewBox="0 0 31 31" fill="none" xmlns="http://www.w3.org/2000/svg">
<path d="M27.125 7.36114H3.41872C3.13569 7.36114 2.90625 7.1317 2.90625 6.84867C2.90625 6.58175 3.11113 6.35953 3.37718 6.33789L23.3198 4.7158C23.804 4.67641 24.2188 5.05878 24.2188 5.54463C24.2188 6.00389 24.5911 6.37619 25.0503 6.37619H25.6719C26.4744 6.37619 27.125 5.72561 27.125 4.92307V3.42134C27.125 1.25444 25.3987 -0.266326 23.2907 0.0390095L3.83625 2.86385C1.72631 3.17116 0 5.19425 0 7.36114V27.0602C0 28.1051 0.408258 29.1072 1.13496 29.8461C1.86166 30.5849 2.84729 31 3.875 31H27.125C28.1527 31 29.1383 30.5849 29.865 29.8461C30.5917 29.1072 31 28.1051 31 27.0602V11.301C31 10.2561 30.5917 9.25394 29.865 8.51509C29.1383 7.77623 28.1527 7.36114 27.125 7.36114ZM24.2188 21.1623C23.837 21.1622 23.459 21.0856 23.1063 20.9369C22.7536 20.7883 22.4332 20.5704 22.1633 20.2959C21.8934 20.0213 21.6794 19.6954 21.5334 19.3367C21.3874 18.978 21.3124 18.5936 21.3125 18.2055C21.3126 17.8173 21.388 17.433 21.5342 17.0744C21.6804 16.7158 21.8946 16.39 22.1647 16.1157C22.4347 15.8413 22.7553 15.6237 23.1081 15.4752C23.4608 15.3268 23.8389 15.2505 24.2207 15.2506C24.9917 15.2509 25.7311 15.5625 26.2761 16.1171C26.8211 16.6716 27.1272 17.4235 27.1269 18.2074C27.1267 18.9914 26.8201 19.7431 26.2747 20.2972C25.7294 20.8514 24.9898 21.1626 24.2188 21.1623Z" fill="#04111dbf"/>
</svg>
