<svg width="31" height="31" viewBox="0 0 31 31" fill="none" xmlns="http://www.w3.org/2000/svg">
<g filter="url(#filter0_d_0_1)">
<rect x="4" y="3" width="23" height="23" rx="11.5" fill="#EAC3F8"/>
</g>
<circle cx="15.5" cy="14.5" r="13.25" stroke="url(#paint0_linear_0_1)" stroke-width="0.5"/>
<path fill-rule="evenodd" clip-rule="evenodd" d="M17.8635 12.7274C17.8635 13.3543 17.6145 13.9555 17.1712 14.3987C16.7279 14.842 16.1267 15.091 15.4999 15.091C14.873 15.091 14.2718 14.842 13.8285 14.3987C13.3853 13.9555 13.1362 13.3543 13.1362 12.7274C13.1362 12.1005 13.3853 11.4993 13.8285 11.0561C14.2718 10.6128 14.873 10.3638 15.4999 10.3638C16.1267 10.3638 16.7279 10.6128 17.1712 11.0561C17.6145 11.4993 17.8635 12.1005 17.8635 12.7274ZM16.6817 12.7274C16.6817 13.0408 16.5572 13.3414 16.3355 13.5631C16.1139 13.7847 15.8133 13.9092 15.4999 13.9092C15.1864 13.9092 14.8858 13.7847 14.6642 13.5631C14.4426 13.3414 14.318 13.0408 14.318 12.7274C14.318 12.414 14.4426 12.1134 14.6642 11.8917C14.8858 11.6701 15.1864 11.5456 15.4999 11.5456C15.8133 11.5456 16.1139 11.6701 16.3355 11.8917C16.5572 12.1134 16.6817 12.414 16.6817 12.7274Z" fill="url(#paint1_linear_0_1)"/>
<path fill-rule="evenodd" clip-rule="evenodd" d="M15.5 8C11.9102 8 9 10.9102 9 14.5C9 18.0898 11.9102 21 15.5 21C19.0898 21 22 18.0898 22 14.5C22 10.9102 19.0898 8 15.5 8ZM10.1818 14.5C10.1818 15.735 10.6031 16.8719 11.3093 17.7748C11.8052 17.1236 12.4449 16.5958 13.1786 16.2327C13.9122 15.8697 14.7198 15.6811 15.5384 15.6818C16.3464 15.6811 17.1439 15.8647 17.8701 16.2188C18.5963 16.5729 19.2322 17.0881 19.7291 17.7252C20.2411 17.0537 20.5859 16.2699 20.7348 15.4387C20.8837 14.6075 20.8326 13.7528 20.5857 12.9453C20.3387 12.1378 19.903 11.4007 19.3146 10.795C18.7262 10.1893 18.0021 9.73246 17.202 9.46221C16.402 9.19196 15.5492 9.11609 14.714 9.24089C13.8789 9.36569 13.0854 9.68757 12.3994 10.1799C11.7133 10.6722 11.1543 11.3208 10.7687 12.0721C10.3831 12.8233 10.1819 13.6556 10.1818 14.5ZM15.5 19.8182C14.2792 19.82 13.0952 19.4 12.1484 18.6293C12.5295 18.0837 13.0367 17.6383 13.6269 17.3309C14.2172 17.0234 14.8729 16.8632 15.5384 16.8636C16.1956 16.8631 16.8434 17.0194 17.4281 17.3195C18.0128 17.6196 18.5174 18.0548 18.9001 18.5891C17.9459 19.3849 16.7424 19.8199 15.5 19.8182Z" fill="url(#paint2_linear_0_1)"/>
<defs>
<filter id="filter0_d_0_1" x="0" y="0" width="31" height="31" filterUnits="userSpaceOnUse" color-interpolation-filters="sRGB">
<feFlood flood-opacity="0" result="BackgroundImageFix"/>
<feColorMatrix in="SourceAlpha" type="matrix" values="0 0 0 0 0 0 0 0 0 0 0 0 0 0 0 0 0 0 127 0" result="hardAlpha"/>
<feOffset dy="1"/>
<feGaussianBlur stdDeviation="2"/>
<feComposite in2="hardAlpha" operator="out"/>
<feColorMatrix type="matrix" values="0 0 0 0 0.917647 0 0 0 0 0.764706 0 0 0 0 0.972549 0 0 0 0.2 0"/>
<feBlend mode="normal" in2="BackgroundImageFix" result="effect1_dropShadow_0_1"/>
<feBlend mode="normal" in="SourceGraphic" in2="effect1_dropShadow_0_1" result="shape"/>
</filter>
<linearGradient id="paint0_linear_0_1" x1="3.60714" y1="20.6071" x2="24.8214" y2="4.21429" gradientUnits="userSpaceOnUse">
<stop stop-color="#D054FB"/>
<stop offset="1" stop-color="#B02CDF"/>
</linearGradient>
<linearGradient id="paint1_linear_0_1" x1="16.7726" y1="10.7274" x2="13.8635" y2="14.7274" gradientUnits="userSpaceOnUse">
<stop stop-color="#B02CDF"/>
<stop offset="1" stop-color="#D054FB"/>
</linearGradient>
<linearGradient id="paint2_linear_0_1" x1="19" y1="9" x2="11" y2="20" gradientUnits="userSpaceOnUse">
<stop stop-color="#B02CDF"/>
<stop offset="1" stop-color="#D054FB"/>
</linearGradient>
</defs>
</svg>
