<svg width="50" height="50" viewBox="0 0 50 50" fill="none" xmlns="http://www.w3.org/2000/svg">
<path d="M43.75 11.8728H4.6875V10.2842L39.0625 7.48819V10.2842H43.75V5.51828C43.75 2.02329 40.9656 -0.429558 37.5656 0.0629185L6.1875 4.61912C2.78437 5.11477 0 8.37782 0 11.8728V43.6455C0 45.3308 0.65848 46.9471 1.83058 48.1388C3.00268 49.3305 4.5924 50 6.25 50H43.75C45.4076 50 46.9973 49.3305 48.1694 48.1388C49.3415 46.9471 50 45.3308 50 43.6455V18.2273C50 16.542 49.3415 14.9257 48.1694 13.734C46.9973 12.5423 45.4076 11.8728 43.75 11.8728ZM39.0625 34.1327C38.4467 34.1325 37.837 34.009 37.2682 33.7692C36.6994 33.5294 36.1826 33.1781 35.7473 32.7352C35.312 32.2924 34.9668 31.7667 34.7313 31.1882C34.4959 30.6097 34.3748 29.9897 34.375 29.3637C34.3752 28.7376 34.4967 28.1177 34.7325 27.5393C34.9684 26.961 35.3139 26.4356 35.7495 25.993C36.1851 25.5505 36.7021 25.1995 37.2711 24.9601C37.8401 24.7207 38.4499 24.5976 39.0656 24.5978C40.3092 24.5982 41.5018 25.1009 42.3808 25.9952C43.2599 26.8896 43.7535 28.1024 43.7531 29.3668C43.7527 30.6313 43.2583 31.8437 42.3786 32.7375C41.499 33.6313 40.3061 34.1332 39.0625 34.1327Z" fill="url(#paint0_linear_354_1839)"/>
<defs>
<linearGradient id="paint0_linear_354_1839" x1="45" y1="5" x2="2.5" y2="50" gradientUnits="userSpaceOnUse">
<stop stop-color="#B02CDF"/>
<stop offset="1" stop-color="#D054FB"/>
</linearGradient>
</defs>
</svg>
