<svg width="96" height="52" viewBox="0 0 96 52" fill="none" xmlns="http://www.w3.org/2000/svg">
<path d="M6.04936 51.3807C6.18255 51.773 6.60847 51.9829 7.00069 51.8498C7.3929 51.7166 7.60289 51.2906 7.4697 50.8984L6.04936 51.3807ZM89.5172 0.260287L87.6547 8.71789L95.9104 6.10206L89.5172 0.260287ZM7.4697 50.8984C3.96163 40.5677 2.21517 32.3583 2.18117 26.2383C2.14712 20.11 3.82333 16.2612 6.94433 14.3424C10.114 12.3937 15.0368 12.2598 21.9127 14.2433C28.7568 16.2176 37.3674 20.2413 47.7584 26.3466L48.5183 25.0533C38.0813 18.921 29.3467 14.8266 22.3285 12.8021C15.3421 10.7867 9.8855 10.7734 6.15873 13.0646C2.38326 15.3858 0.645906 19.8964 0.681189 26.2467C0.716519 32.6054 2.52229 40.9941 6.04936 51.3807L7.4697 50.8984ZM47.7584 26.3466C57.6326 32.1481 65.9813 36.1247 72.7935 38.2509C79.5787 40.3686 84.9749 40.6939 88.8466 38.9987C92.798 37.2686 94.9545 33.5369 95.4717 28.1012C95.9865 22.6902 94.8991 15.4689 92.2745 6.48022L90.8346 6.90064C93.4403 15.8245 94.4665 22.8297 93.9784 27.9591C93.4927 33.0639 91.5296 36.1865 88.245 37.6246C84.8807 39.0977 79.9243 38.9051 73.2404 36.819C66.5834 34.7413 58.3464 30.8278 48.5183 25.0533L47.7584 26.3466Z" fill="url(#paint0_linear_44_2568)"/>
<defs>
<linearGradient id="paint0_linear_44_2568" x1="6.5" y1="53.5" x2="91.5" y2="5.00001" gradientUnits="userSpaceOnUse">
<stop stop-color="#D054FB" stop-opacity="0.3"/>
<stop offset="1" stop-color="#B02CDF"/>
</linearGradient>
</defs>
</svg>
