<svg width="30" height="30" viewBox="0 0 30 30" fill="none" xmlns="http://www.w3.org/2000/svg">
<g filter="url(#filter0_d_0_1)">
<rect x="4.77783" y="3.77783" width="20.4444" height="20.4444" rx="10.2222" fill="#EAC3F8"/>
</g>
<circle cx="15" cy="14" r="11.75" stroke="url(#paint0_linear_0_1)" stroke-width="0.5"/>
<path d="M14.5972 10.0912C15.2546 10.31 13.3279 11.3842 14.5321 12.1047C15.2091 12.51 16.6866 10.6766 17.4287 10.2649C18.0601 9.91755 19.1666 9.84678 19.7264 11.0562C20.4359 12.5872 19.8175 16.5691 17.2594 18.1709C14.6753 19.7791 11.4208 18.9622 10.2947 16.4598C8.98636 13.5457 12.3255 9.32572 14.5972 10.0912ZM15.3848 14.2404C15.86 15.2954 18.4441 13.9188 17.8518 12.4392C17.4677 11.4807 14.9357 13.2433 15.3848 14.2404Z" fill="url(#paint1_linear_0_1)"/>
<defs>
<filter id="filter0_d_0_1" x="0.777832" y="0.777832" width="28.4443" height="28.4443" filterUnits="userSpaceOnUse" color-interpolation-filters="sRGB">
<feFlood flood-opacity="0" result="BackgroundImageFix"/>
<feColorMatrix in="SourceAlpha" type="matrix" values="0 0 0 0 0 0 0 0 0 0 0 0 0 0 0 0 0 0 127 0" result="hardAlpha"/>
<feOffset dy="1"/>
<feGaussianBlur stdDeviation="2"/>
<feComposite in2="hardAlpha" operator="out"/>
<feColorMatrix type="matrix" values="0 0 0 0 0.917647 0 0 0 0 0.764706 0 0 0 0 0.972549 0 0 0 0.2 0"/>
<feBlend mode="normal" in2="BackgroundImageFix" result="effect1_dropShadow_0_1"/>
<feBlend mode="normal" in="SourceGraphic" in2="effect1_dropShadow_0_1" result="shape"/>
</filter>
<linearGradient id="paint0_linear_0_1" x1="4.42857" y1="19.4286" x2="23.2857" y2="4.85714" gradientUnits="userSpaceOnUse">
<stop stop-color="#D054FB"/>
<stop offset="1" stop-color="#B02CDF"/>
</linearGradient>
<linearGradient id="paint1_linear_0_1" x1="20" y1="11" x2="11" y2="18.5" gradientUnits="userSpaceOnUse">
<stop stop-color="#B02CDF"/>
<stop offset="1" stop-color="#D054FB"/>
</linearGradient>
</defs>
</svg>
