<svg width="131" height="22" viewBox="0 0 131 22" fill="none" xmlns="http://www.w3.org/2000/svg">
<path d="M53.6377 11.2358C53.6377 9.13793 54.2598 7.0872 55.4253 5.34291C56.5908 3.59862 58.2473 2.23911 60.1855 1.43631C62.1236 0.633499 64.2563 0.423452 66.3138 0.83272C68.3714 1.24199 70.2613 2.2522 71.7447 3.73559C73.2281 5.21899 74.2383 7.10895 74.6476 9.16647C75.0569 11.224 74.8468 13.3567 74.044 15.2948C73.2412 17.233 71.8817 18.8895 70.1374 20.055C68.3931 21.2205 66.3424 21.8426 64.2446 21.8426C61.4314 21.8426 58.7335 20.7251 56.7444 18.7359C54.7552 16.7468 53.6377 14.0489 53.6377 11.2358Z" fill="#F2F2F2"/>
<path d="M61.7022 21.145C64.1664 21.1417 66.5526 20.2806 68.4509 18.7095C70.3493 17.1384 71.6414 14.9553 72.1054 12.5352C72.5694 10.1151 72.1762 7.60894 70.9935 5.44715C69.8108 3.28535 67.9122 1.60282 65.624 0.688477C67.1156 0.884949 68.5483 1.3965 69.8271 2.18915C71.1058 2.9818 72.2013 4.03741 73.0408 5.28591C73.8803 6.5344 74.4446 7.94721 74.6962 9.43051C74.9479 10.9138 74.8811 12.4337 74.5003 13.8892C74.1195 15.3447 73.4334 16.7026 72.4876 17.8726C71.5418 19.0426 70.3578 19.998 69.0145 20.6754C67.6711 21.3528 66.199 21.7367 64.6959 21.8015C63.1928 21.8663 61.6931 21.6106 60.2964 21.0515C60.7624 21.1137 61.232 21.1449 61.7022 21.145Z" fill="#CCCCCC"/>
<path d="M70.6107 17.2652C71.3015 17.591 72.3453 16.8278 72.9456 15.5577C73.5459 14.2877 73.4705 12.9965 72.7827 12.6707C72.0949 12.3449 71.0481 13.1112 70.4478 14.3782C69.8474 15.6452 69.9198 16.9394 70.6107 17.2652Z" fill="black"/>
<path d="M54.4927 8.91996C54.4927 7.37344 54.9513 5.86165 55.8105 4.57576C56.6697 3.28987 57.8909 2.28764 59.3197 1.69581C60.7485 1.10398 62.3207 0.949121 63.8375 1.25083C65.3544 1.55255 66.7476 2.29727 67.8412 3.39083C68.9348 4.48439 69.6795 5.87768 69.9812 7.39449C70.2829 8.9113 70.1281 10.4835 69.5362 11.9123C68.9444 13.3411 67.9422 14.5623 66.6563 15.4215C65.3704 16.2807 63.8586 16.7394 62.3121 16.7394C61.2851 16.7398 60.2681 16.5378 59.3192 16.1449C58.3704 15.7521 57.5082 15.1762 56.782 14.45C56.0559 13.7238 55.4799 12.8617 55.0871 11.9128C54.6943 10.9639 54.4923 9.94693 54.4927 8.91996Z" fill="black"/>
<path d="M59.3191 3.89686C59.5347 3.559 59.8443 3.29148 60.2099 3.12715C60.5754 2.96283 60.9811 2.90886 61.3769 2.97188C61.7727 3.0349 62.1415 3.21217 62.4379 3.48189C62.7344 3.75162 62.9456 4.10206 63.0457 4.49017C63.1457 4.87829 63.1302 5.28717 63.0011 5.6666C62.8719 6.04603 62.6348 6.37948 62.3188 6.62599C62.0027 6.8725 61.6216 7.02132 61.2221 7.0542C60.8227 7.08707 60.4223 7.00254 60.0702 6.81102C59.5845 6.52385 59.2327 6.05568 59.0918 5.50932C58.951 4.96295 59.0327 4.38303 59.3191 3.89686Z" fill="white"/>
<path d="M56.6371 5.5865C56.7286 5.44356 56.8598 5.33042 57.0146 5.26096C57.1694 5.1915 57.3412 5.16873 57.5087 5.19545C57.6763 5.22217 57.8325 5.29722 57.958 5.41139C58.0836 5.52556 58.1731 5.67388 58.2156 5.83818C58.258 6.00248 58.2516 6.1756 58.1972 6.33632C58.1427 6.49703 58.0425 6.63835 57.9088 6.74294C57.7752 6.84754 57.614 6.91087 57.4449 6.92515C57.2758 6.93944 57.1062 6.90407 56.9569 6.82337C56.7508 6.70144 56.6014 6.50281 56.5415 6.27099C56.4816 6.03916 56.5159 5.79303 56.6371 5.5865Z" fill="white"/>
<path d="M0.761072 17.2237C0.766562 17.189 0.779983 17.1559 0.800291 17.1272C0.810972 17.1164 0.818309 17.1028 0.82141 17.088C0.826624 17.0669 0.838208 17.0479 0.85459 17.0337C0.914918 16.9107 0.981361 16.7909 1.05369 16.6747C1.13514 16.5208 1.23469 16.3368 1.35536 16.1166C1.47603 15.8964 1.60575 15.655 1.75659 15.3865C2.05827 14.8435 2.38407 14.2251 2.75513 13.5373C3.12619 12.8495 3.51234 12.1405 3.91357 11.4074C4.31479 10.6744 4.713 9.95037 5.09914 9.23239L6.15802 7.27453L6.96348 5.7933C7.18069 5.39207 7.31643 5.14169 7.37074 5.04515C7.39762 4.99318 7.43453 4.94704 7.47933 4.9094C7.53578 4.8764 7.60144 4.86264 7.66639 4.87018H9.42211C9.49032 4.86957 9.5573 4.8884 9.61519 4.92448C9.66509 4.95171 9.70519 4.99392 9.72983 5.04515C9.78111 5.15074 9.91987 5.40415 10.1371 5.80236C10.3543 6.20057 10.6258 6.70737 10.9486 7.28055C11.2714 7.85373 11.6243 8.52346 12.0135 9.23843C12.4027 9.95339 12.7918 10.6774 13.184 11.4074C13.5762 12.1375 13.9774 12.8495 14.3515 13.5373C14.7255 14.2251 15.0604 14.8375 15.356 15.3745L15.7452 16.1105C15.8598 16.3338 15.9624 16.5208 16.0469 16.6747C16.1313 16.8285 16.1947 16.9552 16.246 17.0337L16.2731 17.088C16.2802 17.1002 16.2852 17.1134 16.2882 17.1272C16.3028 17.1394 16.3125 17.1566 16.3154 17.1755C16.3115 17.1913 16.3115 17.2079 16.3154 17.2237C16.3102 17.2363 16.3102 17.2504 16.3154 17.2629C16.3176 17.3067 16.3088 17.3504 16.2899 17.3899C16.2709 17.4294 16.2423 17.4636 16.2068 17.4892C16.1377 17.5426 16.0527 17.5713 15.9654 17.5707H13.3409C13.2784 17.5728 13.2167 17.5571 13.1629 17.5254C13.1197 17.4946 13.0853 17.453 13.0633 17.4047L8.53821 9.09965L4.05534 17.4047C4.0271 17.4597 3.98365 17.5054 3.93017 17.5365C3.8767 17.5675 3.81543 17.5825 3.75367 17.5797H1.09593C1.00641 17.5828 0.918718 17.5539 0.848551 17.4982C0.815236 17.4711 0.788837 17.4364 0.77153 17.3971C0.754224 17.3578 0.746498 17.3149 0.748993 17.272L0.761072 17.2237Z" fill="black"/>
<path d="M17.0635 8.91246C17.0604 8.37094 17.1629 7.83401 17.3652 7.3317C17.5581 6.85442 17.8431 6.41978 18.2039 6.05258C18.5657 5.68836 18.9937 5.39655 19.4649 5.19282C19.9615 4.9857 20.4955 4.88302 21.0336 4.89115H39.1823C39.2328 4.88829 39.2834 4.89715 39.3299 4.91704C39.3765 4.93692 39.4179 4.96729 39.4508 5.00579C39.5053 5.06208 39.5384 5.13575 39.5443 5.21394V7.49157C39.5428 7.53679 39.5321 7.58122 39.5129 7.62216C39.4936 7.66309 39.4662 7.69967 39.4323 7.72961C39.3984 7.75956 39.3587 7.78225 39.3157 7.7963C39.2727 7.81036 39.2273 7.81548 39.1823 7.81135H34.6572V17.2688C34.6591 17.3139 34.6502 17.3587 34.6313 17.3996C34.6124 17.4405 34.5841 17.4764 34.5486 17.5041C34.4758 17.5621 34.3852 17.5931 34.2921 17.5916H31.9512C31.9013 17.596 31.851 17.5888 31.8044 17.5705C31.7578 17.5522 31.7162 17.5232 31.6827 17.486C31.6324 17.4245 31.6038 17.3482 31.6012 17.2688V7.79929H20.9521C20.8345 7.79577 20.7177 7.82149 20.6124 7.87414C20.5072 7.92678 20.4166 8.00471 20.3488 8.10096C20.21 8.30235 20.1356 8.54117 20.1356 8.78577C20.1356 9.03036 20.21 9.26916 20.3488 9.47055C20.4158 9.5676 20.5062 9.64613 20.6117 9.69887C20.7172 9.75161 20.8343 9.77685 20.9521 9.77223H24.8286C25.2118 9.77223 25.622 9.77224 26.0564 9.79939C26.4891 9.81757 26.9198 9.86901 27.3446 9.95324C27.7603 10.0367 28.1652 10.1672 28.5513 10.3424C28.9357 10.5179 29.2821 10.7669 29.5709 11.0755C29.8916 11.4234 30.1361 11.8344 30.2889 12.2822C30.4345 12.7096 30.5089 13.158 30.5091 13.6095C30.5155 14.1504 30.4129 14.6869 30.2075 15.1873C30.0077 15.6678 29.7085 16.1006 29.3296 16.4573C28.9317 16.8259 28.4653 17.1129 27.957 17.302C27.3775 17.5136 26.7637 17.6159 26.1469 17.6037H18.0289C17.9782 17.6077 17.9272 17.6003 17.8797 17.582C17.8322 17.5637 17.7893 17.5351 17.7544 17.4981C17.7013 17.4378 17.6705 17.3611 17.6669 17.2809V14.964C17.6772 14.8888 17.7098 14.8184 17.7604 14.7619C17.7929 14.7227 17.8341 14.6916 17.8807 14.6712C17.9273 14.6508 17.9781 14.6415 18.0289 14.6443H26.5753C26.6993 14.6443 26.8215 14.6143 26.9313 14.5568C27.0452 14.4997 27.1475 14.422 27.233 14.3275C27.3153 14.2295 27.3806 14.1183 27.4261 13.9987C27.4735 13.8797 27.4981 13.7527 27.4984 13.6246C27.5004 13.4942 27.4636 13.3661 27.3929 13.2566C27.3214 13.1453 27.228 13.0499 27.1183 12.976C27.0042 12.8996 26.8805 12.8387 26.7503 12.795C26.629 12.7526 26.5017 12.7302 26.3732 12.7286H21.3383C19.9304 12.7286 18.8676 12.4018 18.1496 11.7482C17.4316 11.0946 17.0696 10.1493 17.0635 8.91246Z" fill="black"/>
<path d="M40.8715 9.85041C40.9035 9.81124 40.9449 9.78077 40.9918 9.76179C41.0387 9.74281 41.0897 9.73594 41.14 9.74181H48.5611C48.6765 9.74655 48.7913 9.72386 48.8962 9.67562C49.0011 9.62737 49.093 9.55495 49.1645 9.46428C49.3114 9.26802 49.3869 9.0275 49.3787 8.78249C49.3849 8.53587 49.3073 8.29442 49.1584 8.09768C49.0878 8.00572 48.9961 7.93199 48.8912 7.88266C48.7862 7.83333 48.671 7.80983 48.5551 7.81411H45.9155L45.9366 7.83825C45.945 7.85424 45.9562 7.86855 45.9698 7.88049C45.9948 7.9221 46.022 7.96237 46.0512 8.00115C46.0753 8.03433 46.1025 8.07356 46.1296 8.10674C46.146 8.121 46.1576 8.13996 46.1628 8.16104C46.1693 8.18157 46.1807 8.2002 46.196 8.21534C46.1985 8.23678 46.2057 8.25739 46.2171 8.27568C46.2329 8.30201 46.2403 8.33253 46.2382 8.36316C46.2294 8.43091 46.2035 8.49529 46.1628 8.5502C46.1342 8.5915 46.095 8.62444 46.0494 8.64565C46.0039 8.66685 45.9535 8.67556 45.9034 8.67087H43.3301C43.2536 8.67879 43.177 8.6572 43.1159 8.61053C43.0805 8.58162 43.049 8.54814 43.0224 8.51098L42.8474 8.25456C42.767 8.13992 42.6735 8.00416 42.5669 7.84729L42.2169 7.33746C42.0932 7.15344 41.9665 6.96943 41.8429 6.78239L41.4808 6.23938L41.1792 5.77781C41.1329 5.70541 41.0907 5.64206 41.0525 5.58776C41.0154 5.54159 40.9812 5.49324 40.9499 5.44296C40.9346 5.42782 40.9232 5.40918 40.9167 5.38866C40.9123 5.36964 40.9052 5.35135 40.8956 5.33436C40.8749 5.30402 40.8596 5.27034 40.8504 5.2348C40.8482 5.21879 40.8482 5.20254 40.8504 5.18653C40.8586 5.11915 40.8835 5.05489 40.9228 4.99949C40.9512 4.95722 40.9908 4.92361 41.037 4.90233C41.0833 4.88104 41.1346 4.87291 41.1852 4.87883H48.4978C49.0397 4.87321 49.5765 4.98326 50.0725 5.20162C50.5467 5.40664 50.9754 5.70403 51.3335 6.07647C51.6885 6.45223 51.9699 6.89121 52.1631 7.37066C52.366 7.86859 52.4685 8.40168 52.4648 8.93935C52.4627 9.29888 52.415 9.65671 52.323 10.0043C52.2282 10.3681 52.0797 10.7158 51.8825 11.036C51.6789 11.3647 51.4232 11.6581 51.1254 11.9048C50.8037 12.1703 50.4295 12.3647 50.0273 12.475C49.8917 12.5225 49.7525 12.5589 49.611 12.5836C49.4694 12.6078 49.3262 12.6209 49.1826 12.6228C49.2701 12.7736 49.3877 12.9516 49.5295 13.1598C49.6713 13.3679 49.8523 13.6304 50.0393 13.9079L50.6155 14.7647C50.8166 15.0503 51.0127 15.3338 51.2038 15.6154L51.7136 16.3726C51.786 16.4902 51.8524 16.5928 51.9157 16.6743C51.9791 16.7557 52.0304 16.8432 52.0756 16.9126L52.1299 17.0152C52.1451 17.0414 52.1633 17.0657 52.1842 17.0876C52.2191 17.1402 52.2417 17.2 52.2506 17.2625C52.2493 17.3031 52.2398 17.343 52.2226 17.3798C52.2055 17.4166 52.1812 17.4496 52.151 17.4767C52.0831 17.5395 51.9931 17.5731 51.9006 17.5702H49.3153C49.2399 17.5762 49.1646 17.5571 49.1011 17.5159C49.0626 17.488 49.0307 17.452 49.0076 17.4104C48.9546 17.3126 48.8962 17.218 48.8326 17.1268C48.7723 17.0393 48.7089 16.9458 48.6456 16.8462C48.362 16.4178 48.0784 15.9955 47.7949 15.5732L46.9442 14.3031L46.1417 13.0964L46.006 12.8883L45.8732 12.6831H43.8249V17.2354C43.8223 17.3148 43.7936 17.3911 43.7434 17.4526C43.7079 17.4906 43.6641 17.5199 43.6155 17.5382C43.5668 17.5565 43.5146 17.5633 43.4628 17.5582H41.1701C41.1184 17.5633 41.0662 17.5565 41.0175 17.5382C40.9688 17.5199 40.925 17.4906 40.8896 17.4526C40.8393 17.3911 40.8107 17.3148 40.8081 17.2354V10.0495C40.8075 9.97808 40.8296 9.90832 40.8715 9.85041Z" fill="black"/>
<path d="M76.05 8.92028C76.0453 8.37862 76.1479 7.8414 76.3516 7.33951C76.5428 6.86204 76.8268 6.42728 77.1873 6.06042C77.5478 5.69546 77.9761 5.40443 78.4482 5.20367C78.9434 4.99503 79.4767 4.89227 80.0139 4.902H88.0113C88.0929 4.90697 88.1727 4.92743 88.2466 4.96232C88.2932 4.98352 88.3319 5.0188 88.3573 5.06318C88.3828 5.10756 88.3936 5.15881 88.3884 5.20969V7.54164C88.3907 7.58524 88.3813 7.62865 88.3611 7.66738C88.341 7.70611 88.3108 7.73874 88.2738 7.76186C88.2049 7.81058 88.1228 7.83692 88.0385 7.83728H79.9204C79.805 7.83204 79.69 7.85451 79.585 7.90279C79.4801 7.95107 79.3882 8.02377 79.3171 8.11481C79.1719 8.3108 79.0965 8.54975 79.1029 8.79358C79.0971 9.03547 79.1679 9.273 79.305 9.47234C79.3714 9.57001 79.4617 9.64903 79.5674 9.70184C79.673 9.75465 79.7904 9.7795 79.9084 9.77402H83.7788C84.165 9.77402 84.5722 9.77403 85.0066 9.80118C85.4383 9.81931 85.868 9.87076 86.2918 9.95503C86.707 10.0403 87.1116 10.1708 87.4985 10.3442C87.8829 10.5197 88.2293 10.7687 88.5181 11.0773C88.8338 11.4214 89.077 11.8257 89.2331 12.2658C89.3818 12.6905 89.4573 13.1373 89.4563 13.5872C89.4607 14.1317 89.3582 14.6719 89.1547 15.177C88.9567 15.6573 88.662 16.0917 88.2889 16.4531C87.8943 16.8276 87.4271 17.1171 86.9162 17.3038C86.3362 17.5133 85.7228 17.6155 85.1062 17.6055H77.0123C76.9616 17.6093 76.9106 17.6018 76.8632 17.5835C76.8157 17.5652 76.7729 17.5367 76.7378 17.4999C76.6852 17.4405 76.6543 17.365 76.6503 17.2857V14.9658C76.6606 14.8915 76.6932 14.8221 76.7438 14.7667C76.7756 14.7266 76.8166 14.6947 76.8633 14.6737C76.9101 14.6527 76.9611 14.6432 77.0123 14.6461H85.5647C85.6886 14.6454 85.8106 14.6154 85.9207 14.5586C86.0356 14.5031 86.1382 14.4251 86.2224 14.3293C86.3041 14.232 86.3693 14.1219 86.4155 14.0035C86.4606 13.8759 86.4791 13.7403 86.4698 13.6053C86.4706 13.4746 86.4328 13.3466 86.3612 13.2372C86.2905 13.1254 86.197 13.0297 86.0866 12.9567C85.9725 12.8803 85.8488 12.8194 85.7186 12.7757C85.5984 12.7333 85.472 12.7109 85.3445 12.7093H80.3216C78.9138 12.7093 77.8509 12.3835 77.133 11.7319C76.412 11.0803 76.05 10.1451 76.05 8.92028Z" fill="black"/>
<path d="M90.1959 5.15909C90.1929 5.11648 90.2014 5.07383 90.2205 5.03562C90.2396 4.9974 90.2686 4.96504 90.3045 4.9419C90.3774 4.89825 90.4609 4.8753 90.5459 4.87552H93.1584C93.2269 4.87223 93.2947 4.89128 93.3514 4.92982C93.3937 4.96041 93.4321 4.99586 93.466 5.03541C93.635 5.33709 93.7949 5.61462 93.9488 5.91328C94.1026 6.21193 94.2504 6.51662 94.4163 6.79114L95.3485 8.5137L96.2777 10.2212C96.9232 11.3997 97.5577 12.5722 98.1812 13.7387C98.8047 14.9052 99.4392 16.0726 100.085 17.2411L100.272 17.576H97.1103C97.0488 17.5794 96.9876 17.565 96.9341 17.5345C96.8806 17.504 96.837 17.4587 96.8086 17.404C96.7543 17.2954 96.6186 17.042 96.3983 16.6378C96.1781 16.2335 95.9096 15.7328 95.5898 15.1596C95.2701 14.5864 94.9111 13.9227 94.5219 13.2108C94.1327 12.4988 93.7436 11.7718 93.3514 11.0387C92.9593 10.3056 92.561 9.59671 92.187 8.9089C91.8129 8.22108 91.4811 7.60566 91.1945 7.05963C91.0406 6.79114 90.8928 6.54981 90.7932 6.32959L90.4916 5.75942C90.4463 5.68099 90.4071 5.6116 90.3769 5.55126C90.3481 5.50187 90.3229 5.45045 90.3015 5.39741L90.2502 5.29183C90.2366 5.26162 90.2255 5.23034 90.217 5.19831C90.2082 5.18629 90.2011 5.17309 90.1959 5.15909ZM96.4134 5.30389C96.3993 5.27386 96.3882 5.24254 96.3802 5.21037C96.3779 5.1974 96.3779 5.18412 96.3802 5.17115C96.3786 5.12948 96.3874 5.08806 96.4059 5.05066C96.4243 5.01326 96.4518 4.98106 96.4858 4.95698C96.5548 4.90352 96.6399 4.87483 96.7272 4.87552H99.3397C99.4014 4.87273 99.4627 4.88773 99.5162 4.91875C99.5696 4.94977 99.6131 4.9955 99.6413 5.05049L104.166 13.3284L108.692 5.05049C108.712 4.99634 108.748 4.94921 108.794 4.91474C108.85 4.88565 108.912 4.8721 108.975 4.87552H111.642C111.724 4.8768 111.804 4.90546 111.868 4.95698C111.902 4.98106 111.93 5.01326 111.948 5.05066C111.967 5.08806 111.975 5.12948 111.974 5.17115C111.976 5.18412 111.976 5.1974 111.974 5.21037C111.966 5.24254 111.955 5.27386 111.941 5.30389L111.886 5.41251C111.865 5.46499 111.841 5.51633 111.814 5.56634L111.699 5.7745C111.612 5.92534 111.506 6.11239 111.398 6.33563C111.289 6.55887 111.147 6.80622 110.996 7.07471C110.067 8.81437 109.136 10.5399 108.203 12.2514C107.27 13.9629 106.329 15.6805 105.382 17.404C105.353 17.4582 105.31 17.5031 105.256 17.5336C105.203 17.564 105.142 17.5787 105.08 17.576H103.325C103.263 17.5787 103.202 17.564 103.149 17.5336C103.096 17.5031 103.052 17.4582 103.023 17.404C102.076 15.6785 101.136 13.9609 100.202 12.2514C99.2693 10.542 98.3381 8.81638 97.4089 7.07471C97.2581 6.80622 97.1224 6.55887 97.0077 6.33563C96.8931 6.11239 96.7935 5.92534 96.7061 5.7745C96.6596 5.70047 96.6173 5.62395 96.5793 5.54524C96.5009 5.47888 96.4587 5.39742 96.4255 5.31597L96.4134 5.30389Z" fill="black"/>
<path d="M107.949 17.2394C107.954 17.2056 107.968 17.1736 107.988 17.1459C107.998 17.1335 108.005 17.1191 108.009 17.1036C108.015 17.0835 108.026 17.0655 108.042 17.0524C108.101 16.9274 108.167 16.8065 108.241 16.6903L108.543 16.1323C108.658 15.915 108.793 15.6707 108.944 15.4022C109.24 14.8592 109.573 14.2428 109.943 13.5529C110.314 12.8681 110.7 12.1562 111.101 11.4231C111.502 10.6901 111.898 9.96604 112.287 9.24806L113.346 7.2902L114.151 5.81199C114.368 5.40976 114.504 5.15937 114.558 5.06082C114.585 5.00885 114.622 4.96271 114.667 4.92507C114.724 4.89427 114.789 4.88065 114.854 4.88585H117.304C117.386 4.88584 117.467 4.91227 117.533 4.96127C117.568 4.98549 117.597 5.0186 117.615 5.05725C117.634 5.09591 117.642 5.13876 117.638 5.1815V17.2786C117.635 17.3517 117.61 17.422 117.566 17.4807C117.534 17.5184 117.494 17.5478 117.448 17.5662C117.402 17.5846 117.353 17.5915 117.304 17.5863H114.92C114.856 17.5904 114.791 17.5768 114.733 17.5471C114.692 17.5243 114.657 17.4923 114.631 17.4536C114.61 17.4207 114.596 17.3836 114.592 17.345C114.592 17.3118 114.592 17.2877 114.592 17.2786V11.2451L111.255 17.4023C111.226 17.4565 111.182 17.5014 111.129 17.5318C111.076 17.5622 111.015 17.5769 110.953 17.5742H108.314C108.225 17.5765 108.138 17.5489 108.066 17.4958C108.033 17.4681 108.007 17.4328 107.989 17.393C107.972 17.3532 107.964 17.3099 107.967 17.2665L107.949 17.2394ZM119.268 10.0596C119.271 9.98592 119.297 9.91519 119.343 9.85744C119.374 9.81963 119.414 9.78997 119.459 9.77105C119.504 9.75213 119.554 9.74449 119.602 9.74883H127.039C127.153 9.75379 127.268 9.73184 127.373 9.68469C127.477 9.63755 127.57 9.56653 127.642 9.47733C127.791 9.28083 127.866 9.03873 127.856 8.79253C127.863 8.54584 127.785 8.30425 127.636 8.10774C127.566 8.01485 127.475 7.94026 127.369 7.89036C127.264 7.84045 127.149 7.81671 127.033 7.82114H119.596C119.515 7.82114 119.435 7.79468 119.37 7.74573C119.334 7.72187 119.305 7.68892 119.286 7.65024C119.267 7.61156 119.259 7.56852 119.261 7.52549V5.19356C119.257 5.14438 119.268 5.09512 119.292 5.05211C119.317 5.00911 119.353 4.97433 119.397 4.95223C119.467 4.91398 119.544 4.89132 119.624 4.88585H126.951C127.492 4.88197 128.027 4.99411 128.52 5.21468C128.99 5.4263 129.417 5.72404 129.778 6.09254C130.139 6.46369 130.424 6.90243 130.616 7.38371C130.818 7.87994 130.92 8.4108 130.918 8.94638C130.915 9.30386 130.867 9.65956 130.776 10.0053C130.584 10.7542 130.162 11.4242 129.57 11.9209C129.25 12.1881 128.875 12.3799 128.472 12.482C128.164 12.5766 127.848 12.6373 127.527 12.663C127.18 12.6962 126.867 12.7113 126.58 12.7113H122.266V17.2665C122.266 17.3118 122.256 17.3564 122.237 17.3975C122.218 17.4386 122.191 17.4754 122.157 17.5055C122.123 17.5356 122.084 17.5583 122.041 17.5722C121.998 17.5861 121.952 17.5909 121.907 17.5863H119.614C119.523 17.5889 119.433 17.559 119.361 17.5018C119.326 17.4728 119.298 17.4363 119.28 17.3951C119.261 17.3538 119.252 17.3089 119.252 17.2635L119.268 10.0596Z" fill="black"/>
</svg>
