<svg width="16" height="16" viewBox="0 0 16 16" fill="none" xmlns="http://www.w3.org/2000/svg">
<path d="M1 3.8H15M6.6 7.3V10.8M9.4 7.3V10.8M2.4 3.8H13.6L12.494 13.754C12.4561 14.0966 12.2931 14.4131 12.0364 14.643C11.7796 14.8729 11.4471 15 11.1024 15H4.8976C4.55294 15 4.22039 14.8729 3.96362 14.643C3.70685 14.4131 3.54391 14.0966 3.506 13.754L2.4 3.8ZM4.7415 1.8029C4.85473 1.56278 5.03389 1.3598 5.2581 1.21764C5.48231 1.07548 5.74232 0.999997 6.0078 1H9.9922C10.2578 0.999864 10.518 1.07528 10.7423 1.21745C10.9666 1.35962 11.1459 1.56267 11.2592 1.8029L12.2 3.8H3.8L4.7415 1.8029Z" stroke="#222222" stroke-opacity="0.67" stroke-linecap="round" stroke-linejoin="round"/>
</svg>
