<svg width="129" height="25" viewBox="0 0 129 25" fill="none" xmlns="http://www.w3.org/2000/svg">
<path d="M29.1592 19.6663V3.55664H36.6364C38.4931 3.55664 39.8964 4.03172 40.8463 4.98189C41.5789 5.71611 41.9452 6.64469 41.9452 7.76761C41.9452 9.28644 41.24 10.4454 39.8295 11.2444C40.8298 11.6259 41.5782 12.1297 42.082 12.7488C42.5857 13.3678 42.8376 14.2028 42.8376 15.2466C42.8376 16.6862 42.2979 17.7876 41.2256 18.5362C40.1533 19.2848 38.678 19.6663 36.8069 19.6663H29.1592ZM32.6063 10.0711H35.8735C37.5791 10.0711 38.4283 9.48799 38.4283 8.32188C38.4283 7.78201 38.2268 7.37171 37.831 7.09098C37.4352 6.81025 36.8595 6.66628 36.1038 6.66628H32.6063V10.0711ZM32.6063 16.5567H36.8163C38.4859 16.5567 39.3207 15.9592 39.3207 14.7643C39.3207 13.5982 38.4475 13.0151 36.7011 13.0151H32.6063V16.5567Z" fill="#1A1A1A"/>
<path d="M45.5605 19.6659V6.36358C45.5615 5.43605 45.9303 4.54679 46.586 3.89093C47.2417 3.23507 48.1308 2.86619 49.0581 2.86523V19.6659H45.5605Z" fill="#1A1A1A"/>
<path d="M56.4419 19.8953C55.125 19.8953 54.0959 19.4922 53.3618 18.6788C52.6278 17.8654 52.2607 16.7425 52.2607 15.3172V10.8255C52.2617 9.89797 52.6305 9.0087 53.2862 8.35284C53.9419 7.69698 54.8309 7.3281 55.7582 7.32715V14.2087C55.7582 15.0221 55.9454 15.6411 56.3124 16.073C56.6794 16.5049 57.2047 16.7209 57.874 16.7209C58.5433 16.7209 59.083 16.5049 59.4717 16.073C59.8603 15.6411 60.0618 15.0221 60.0618 14.2087V10.8255C60.0627 9.89797 60.4315 9.0087 61.0872 8.35284C61.7429 7.69698 62.632 7.3281 63.5593 7.32715V19.6649H60.0618V17.9158C59.0255 19.233 57.8236 19.8953 56.4419 19.8953Z" fill="#1A1A1A"/>
<path d="M72.5257 19.9393C70.6546 19.9393 69.1122 19.3443 67.8984 18.1542C66.6893 16.9665 66.0776 15.4188 66.0776 13.5185C66.0776 11.7261 66.6534 10.2073 67.8048 8.96201C68.9562 7.71671 70.4123 7.09526 72.1731 7.09766C74.1234 7.09766 75.6058 7.74551 76.6349 9.03399C77.664 10.3225 78.175 11.9133 78.175 13.7992C78.175 13.9864 78.1606 14.2887 78.1318 14.7206H69.5536C69.7191 15.5052 70.0645 16.1027 70.5899 16.513C71.108 16.9305 71.7701 17.132 72.5689 17.132C73.0273 17.1322 73.4824 17.0543 73.9147 16.9017C75.1237 16.4698 76.4694 16.6785 77.4338 17.5279L77.5633 17.6431C76.3193 19.1763 74.6401 19.9417 72.5257 19.9393ZM69.5082 12.5323H74.7761C74.6681 11.7333 74.3875 11.0999 73.9341 10.6248C73.4807 10.1497 72.8978 9.91218 72.1709 9.91218C71.4657 9.91218 70.8756 10.1497 70.4078 10.6176C69.94 11.0855 69.6471 11.7189 69.5082 12.5323Z" fill="#1A1A1A"/>
<path d="M80.6621 19.6663V16.9742L89.521 6.66628H80.9428C80.943 5.84161 81.2706 5.05077 81.8536 4.46764C82.4366 3.88451 83.2272 3.55683 84.0517 3.55664H94.0836V6.24878L85.2247 16.5567H90.9747C91.7992 16.5569 92.5899 16.8845 93.1728 17.4677C93.7558 18.0508 94.0834 18.8416 94.0836 19.6663H80.6621Z" fill="#1A1A1A"/>
<path d="M97.1377 5.97488V2.86523H100.822V5.97488H97.1377ZM97.2312 19.6659V7.32815H100.729V19.6659H97.2312Z" fill="#1A1A1A"/>
<path d="M104.183 19.6659V6.36358C104.184 5.43605 104.553 4.54679 105.209 3.89093C105.864 3.23507 106.753 2.86619 107.681 2.86523V19.6659H104.183Z" fill="#1A1A1A"/>
<path d="M111.126 19.6659V6.36358C111.127 5.43605 111.496 4.54679 112.152 3.89093C112.808 3.23507 113.697 2.86619 114.624 2.86523V19.6659H111.126Z" fill="#1A1A1A"/>
<path d="M121.411 19.8969C120.202 19.8969 119.187 19.5586 118.388 18.882C117.589 18.2053 117.179 17.2696 117.179 16.0747C117.179 14.7718 117.625 13.7856 118.525 13.1306C119.425 12.4755 120.634 12.1444 122.152 12.1444C123.178 12.1431 124.197 12.3134 125.167 12.6483V12.4395C125.167 10.9351 124.285 10.1841 122.519 10.1865C121.461 10.1865 120.324 10.4096 119.115 10.8559C118.59 9.25792 119.626 7.55193 121.288 7.32159C121.863 7.24069 122.443 7.1998 123.023 7.19922C124.879 7.19922 126.268 7.65991 127.19 8.58128C128.082 9.47386 128.521 10.7839 128.521 12.5187V19.6738H125.139V18.3421C124.201 19.3715 122.958 19.8969 121.411 19.8969ZM122.469 17.4783C123.282 17.4783 123.944 17.2768 124.448 16.8665C124.687 16.6854 124.881 16.4501 125.012 16.1799C125.144 15.9096 125.209 15.6121 125.203 15.3116V14.6926C124.541 14.3831 123.8 14.2319 122.972 14.2319C122.202 14.2319 121.612 14.3831 121.188 14.6782C120.763 14.9733 120.554 15.4124 120.554 15.9811C120.554 16.4418 120.727 16.8089 121.087 17.0752C121.447 17.3415 121.898 17.4783 122.469 17.4783Z" fill="#1A1A1A"/>
<path d="M14.6489 11.8861C16.464 10.7486 17.3706 9.04612 17.3687 6.77879C17.3687 4.75328 16.6593 3.11662 15.2407 1.86881C13.822 0.621006 11.9576 -0.00193009 9.64758 4.49207e-06H0.00162231V3.09341C0.00162231 4.14969 0.149558 5.1015 1.15666 5.35687C1.31621 5.39998 1.48099 5.41952 1.64598 5.41491C2.49376 5.35687 7.97306 3.80727 9.48087 3.72021C9.65422 3.71098 9.82627 3.75535 9.97449 3.84751C10.1227 3.93968 10.2402 4.07534 10.3116 4.23675C10.4652 4.57917 10.6985 5.00284 10.9716 5.0957C11.4439 5.25821 13.8108 4.98543 14.0953 6.03011C14.3684 7.04576 13.9588 8.20071 13.4296 8.4967L12.9232 9.39628L12.4225 8.8101C12.4071 8.80916 12.3917 8.81113 12.377 8.81591L11.9047 9.65165L11.404 9.06547C11.3756 9.06547 11.3699 9.07127 11.3414 9.07127L10.8578 9.93603L10.3457 9.33825C10.3322 9.33731 10.3186 9.33929 10.3059 9.34405L9.32155 9.65745C8.91189 9.80255 8.63308 9.94184 8.61601 10.0579C8.59894 10.1624 8.78671 10.4061 9.08827 10.7137L9.80519 11.4044C9.81657 11.4218 9.82226 11.4276 9.83364 11.445L10.7781 11.3928L10.5733 12.1124C10.5961 12.1415 10.6075 12.1531 10.6302 12.1821L11.5804 12.1299L11.3756 12.8495C11.3983 12.8785 11.4097 12.8959 11.4325 12.925L12.3884 12.8727L12.1665 13.6678C12.2196 13.7254 12.2586 13.7951 12.2803 13.871C12.3713 14.3817 11.9844 15.0782 10.6587 14.9621C9.33293 14.846 9.56621 13.8187 6.61889 14.7241C3.8707 15.5715 2.11824 16.7903 0.951823 19.2627C-0.082018 21.4391 0.00162231 24.666 0.00162231 24.666H10.2319C12.7013 24.666 14.6415 24.2887 16.0526 23.0293C17.4637 21.7699 18.1749 20.0288 18.1749 17.7885C18.1761 15.113 17.0007 13.1455 14.6489 11.8861Z" fill="#1788FB"/>
</svg>
