<svg width="23" height="23" viewBox="0 0 23 23" fill="none" xmlns="http://www.w3.org/2000/svg">
<g clip-path="url(#clip0_182_6648)">
<path d="M20.4364 8.92049C19.71 8.92049 19.0708 9.2262 18.6003 9.70249C16.8705 8.48732 14.5379 7.70533 11.9533 7.62195L13.2959 1.48287L17.571 2.45653C17.571 3.51837 18.4239 4.38566 19.4704 4.38566C20.537 4.38566 21.3948 3.49537 21.3948 2.43258C21.3948 1.36978 20.5428 0.479492 19.4714 0.479492C18.7248 0.479492 18.0808 0.936617 17.7598 1.56145L13.0381 0.499617C12.8004 0.435409 12.5675 0.607909 12.5043 0.849409L11.0304 7.61716C8.46588 7.72545 6.15821 8.50649 4.42267 9.72262C3.95213 9.2262 3.28801 8.92049 2.56159 8.92049C-0.133244 8.92049 -1.01587 12.59 1.45184 13.8444C1.36463 14.2325 1.32534 14.6465 1.32534 15.0596C1.32534 19.1814 5.90138 22.5212 11.5201 22.5212C17.1628 22.5212 21.7388 19.1814 21.7388 15.0596C21.7388 14.6465 21.6957 14.2134 21.5893 13.8243C24.0072 12.565 23.1169 8.92241 20.4364 8.92049ZM5.36759 14.1051C5.36759 13.0231 6.22051 12.152 7.29192 12.152C8.33842 12.152 9.1923 13.0174 9.1923 14.1051C9.1923 15.1679 8.33938 16.0342 7.29192 16.0342C6.2253 16.039 5.36759 15.1679 5.36759 14.1051ZM15.755 18.7032C13.9907 20.4933 9.01213 20.4933 7.24688 18.7032C7.05234 18.5307 7.05234 18.2259 7.24688 18.0294C7.4165 17.857 7.71742 17.857 7.88705 18.0294C9.23446 19.4315 13.7041 19.4555 15.11 18.0294C15.2796 17.857 15.5805 17.857 15.7502 18.0294C15.9485 18.2269 15.9485 18.5316 15.755 18.7032ZM15.7157 16.038C14.6692 16.038 13.8163 15.1727 13.8163 14.1108C13.8163 13.0289 14.6692 12.1577 15.7157 12.1577C16.7823 12.1577 17.64 13.0231 17.64 14.1108C17.6352 15.1679 16.7823 16.038 15.7157 16.038Z" fill="white"/>
</g>
<defs>
<clipPath id="clip0_182_6648">
<rect width="23" height="23" fill="white"/>
</clipPath>
</defs>
</svg>
