<svg width="42" height="42" viewBox="0 0 42 42" fill="none" xmlns="http://www.w3.org/2000/svg">
<circle cx="21" cy="21" r="20.75" stroke="url(#paint0_linear_357_3062)" stroke-width="0.5"/>
<rect x="3" y="3" width="36" height="36" rx="18" fill="#EAC3F8"/>
<path d="M13 26.5C13 26.8978 13.158 27.2794 13.4393 27.5607C13.7206 27.842 14.1022 28 14.5 28H27.5C27.8978 28 28.2794 27.842 28.5607 27.5607C28.842 27.2794 29 26.8978 29 26.5V19.5C29 19.1022 28.842 18.7206 28.5607 18.4393C28.2794 18.158 27.8978 18 27.5 18H14.5C14.1022 18 13.7206 18.158 13.4393 18.4393C13.158 18.7206 13 19.1022 13 19.5V26.5ZM15 16.5C15 16.6326 15.0527 16.7598 15.1464 16.8536C15.2402 16.9473 15.3674 17 15.5 17H26.5C26.6326 17 26.7598 16.9473 26.8536 16.8536C26.9473 16.7598 27 16.6326 27 16.5C27 16.3674 26.9473 16.2402 26.8536 16.1464C26.7598 16.0527 26.6326 16 26.5 16H15.5C15.3674 16 15.2402 16.0527 15.1464 16.1464C15.0527 16.2402 15 16.3674 15 16.5ZM17 14.5C17 14.6326 17.0527 14.7598 17.1464 14.8536C17.2402 14.9473 17.3674 15 17.5 15H24.5C24.6326 15 24.7598 14.9473 24.8536 14.8536C24.9473 14.7598 25 14.6326 25 14.5C25 14.3674 24.9473 14.2402 24.8536 14.1464C24.7598 14.0527 24.6326 14 24.5 14H17.5C17.3674 14 17.2402 14.0527 17.1464 14.1464C17.0527 14.2402 17 14.3674 17 14.5Z" fill="url(#paint1_linear_357_3062)"/>
<defs>
<linearGradient id="paint0_linear_357_3062" x1="2.5" y1="30.5" x2="35.5" y2="5" gradientUnits="userSpaceOnUse">
<stop stop-color="#D054FB"/>
<stop offset="1" stop-color="#B02CDF"/>
</linearGradient>
<linearGradient id="paint1_linear_357_3062" x1="14" y1="29" x2="29" y2="18.5" gradientUnits="userSpaceOnUse">
<stop stop-color="#D054FB"/>
<stop offset="1" stop-color="#B02CDF"/>
</linearGradient>
</defs>
</svg>
