<svg id="Layer_1" data-name="Layer 1" xmlns="http://www.w3.org/2000/svg" viewBox="0 0 1726.29 430.38"><defs><style>.cls-1{fill:#1e1e1e;}.cls-2{fill:none;}.cls-3{fill:#cd51f9;}.cls-4{fill:#a5595d;}.cls-5{fill:#b02cdf;}</style></defs><path class="cls-1" d="M587.09,320.88,539,257.64v63.24H504.07V177.68H539v62.83l47.74-62.83h41L572.2,247.85l57.53,73Z"/><path class="cls-1" d="M657,189.81a17.48,17.48,0,0,1-5.81-13.36A17.72,17.72,0,0,1,657,162.89q5.82-5.4,15-5.41,9,0,14.79,5.41a17.73,17.73,0,0,1,5.82,13.56,17.49,17.49,0,0,1-5.82,13.36q-5.81,5.41-14.79,5.41Q662.77,195.22,657,189.81Zm32.33,17.24V320.88H654.41V207.05Z"/><path class="cls-1" d="M786.19,291.3v29.58H768.44q-19,0-29.58-9.28t-10.61-30.29V236H714.38v-29h13.87V179.31h34.89v27.74H786v29H763.14v45.69q0,5.1,2.44,7.35t8.16,2.24Z"/><path class="cls-1" d="M814,233a50.3,50.3,0,0,1,20.2-20.4q12.94-7.14,29.68-7.14,21.42,0,35.8,11.22t18.87,31.62H881.45q-4.69-13-18.15-13.06a18.29,18.29,0,0,0-15.3,7.45q-5.71,7.44-5.72,21.32T848,285.28a18.27,18.27,0,0,0,15.3,7.45q13.46,0,18.15-13.06h37.13q-4.5,20-19,31.42t-35.7,11.42q-16.74,0-29.68-7.14A50.3,50.3,0,0,1,814,295q-7.24-13.26-7.24-31T814,233Z"/><path class="cls-1" d="M1046.68,218.78q11.83,13,11.83,35.6v66.5h-34.67V259.07q0-11.43-5.92-17.75T1002,235q-10,0-15.91,6.32t-5.92,17.75v61.81H945.3V169.93h34.88v52.42a37.29,37.29,0,0,1,14.48-12,46.33,46.33,0,0,1,20.61-4.49Q1034.84,205.83,1046.68,218.78Z"/><path class="cls-1" d="M1197.64,272.33h-79q.81,10.6,6.84,16.22a20.85,20.85,0,0,0,14.78,5.61q13.07,0,18.16-11h37.13a51,51,0,0,1-10.31,20.2,51.55,51.55,0,0,1-18.66,14.07,60,60,0,0,1-25.09,5.1q-16.72,0-29.78-7.14a50.71,50.71,0,0,1-20.4-20.4q-7.35-13.26-7.35-31t7.24-31a50.17,50.17,0,0,1,20.3-20.4q13-7.14,30-7.14,16.51,0,29.37,6.94a49.82,49.82,0,0,1,20.1,19.78q7.23,12.86,7.24,30A91,91,0,0,1,1197.64,272.33ZM1162.55,253q0-9-6.12-14.28t-15.3-5.3a22.09,22.09,0,0,0-14.79,5.1q-6,5.1-7.44,14.48Z"/><path class="cls-1" d="M1352.87,320.88H1318l-58.34-88.33v88.33h-34.88V177.68h34.88L1318,266.41V177.68h34.88Z"/><path class="cls-1" d="M1479.55,177.68v27.94h-58.34v30.2h43.66V263h-43.66v57.93h-34.88V177.68Z"/><path class="cls-1" d="M1609.09,177.68v27.94h-37.95V320.88h-34.88V205.62h-37.94V177.68Z"/><path class="cls-2" d="M271.72,326.18c-6.36-6.58-16.47-20-21.6-26.13q3,4.05,6.31,8C261.5,314.1,266.12,320.53,271.72,326.18Z"/><path class="cls-3" d="M431.53,186.26c-8.13-44.78-26.86-83.38-58.93-113.68H284.73c.71,1.25,1.41,2.51,2.08,3.79,4.17,7.95,7.74,16.15,9.46,25,7,11.65,14.47,23.12,17.84,36.9-1.77-.51-2.24-1.69-2.87-2.63-3.92-5.89-8-11.68-11.64-17.74-10.39-17.41-22.93-32.78-38.67-45.35H91.62c13.6,6.07,26.93,12.7,39.29,21.07,8.48,5.74,15.47,13.64,23.83,19.58,12.56,8.9,19.66,22,28.29,34,8.09,11.28,12.63,24.22,18.44,36.58,3.32,7,7,13.95,9.85,21.19a286.65,286.65,0,0,1,12,39.15c4.87,20.8,14.24,39.16,26.81,55.91,5.13,6.15,15.24,19.55,21.6,26.13.43.44.87.89,1.32,1.32,11.09,10.62,24.77,15.71,39.45,18.2a124.59,124.59,0,0,0,23.76,1.59c-.24-5.23-.45-10.44-.63-15.57-.62-17.36-12.51-31.8-29.1-34.81a37.23,37.23,0,0,1-29.89-31.8l-12-89a11.17,11.17,0,0,1,11.22-12.86l97.9-1.69c5.71-.09,11.05,4.81,12,11l12,78.23c2.17,14.14-4,28-15.55,34.44-13.12,7.34-19.74,24.27-15.63,40.44,1.45,5.7,2.9,11.5,4.32,17.32a85.74,85.74,0,0,0,12.3-3.74c2.56-1,5.09-2.35,8-2.26,2.3-1.6,4.74-3,6.86-4.82,24.36-20.52,35.34-47.66,38.19-78.54C438.34,231,435.55,208.42,431.53,186.26Z"/><path class="cls-3" d="M364.93,255c.6,4.09,4.14,7,7.87,6.55a6.21,6.21,0,0,0,4.4-2.74,7.58,7.58,0,0,0,1.17-5.41l-9.14-60.74c-.59-4-4.05-7-7.75-6.87s-6.29,3.54-5.7,7.56Z"/><path class="cls-3" d="M342.23,265.47a6.8,6.8,0,0,0,4.73-2.86,7.69,7.69,0,0,0,1.29-5.59l-9.15-62.78a8.26,8.26,0,0,0-8.2-7.08,6.58,6.58,0,0,0-6.16,7.82l9.15,63.74A7.69,7.69,0,0,0,342.23,265.47Z"/><path class="cls-3" d="M306.92,195.89a8.62,8.62,0,0,0-8.7-7.32,7,7,0,0,0-6.67,8.1l9.14,66a8,8,0,0,0,8.85,7,7.45,7.45,0,0,0,5.08-3,7.9,7.9,0,0,0,1.44-5.8Z"/><path class="cls-4" d="M370.91,343c.45,1.87.91,3.74,1.36,5.6A131.09,131.09,0,0,0,391.2,337c-2.9-.09-5.43,1.25-8,2.26A85.74,85.74,0,0,1,370.91,343Z"/><path class="cls-5" d="M312.49,343.4c-14.68-2.48-28.36-7.58-39.45-18.19-.45-.44-.89-.89-1.32-1.33-5.6-5.65-10.22-12.08-15.29-18.15q-3.28-3.93-6.31-8c-12.57-16.75-21.94-35.11-26.81-55.9a286.35,286.35,0,0,0-12-39.16c-2.82-7.24-6.53-14.14-9.85-21.19-5.81-12.36-10.35-25.3-18.44-36.58-8.63-12-15.73-25.09-28.29-34-8.36-5.93-15.35-13.84-23.83-19.58-12.36-8.37-25.69-15-39.29-21.07H62.54A226.67,226.67,0,0,1,142,120.66C169.16,147,186,179.83,198.89,214.88c7.83,21.32,12,43.71,17.77,65.61,7,26.31,20.29,48.69,43.28,64.24,12.46,8.43,26,15.21,41.3,15.34,11.84.09,23.84.15,35.63-2-.22-4.36-.43-8.75-.62-13.11A125.42,125.42,0,0,1,312.49,343.4Z"/><path class="cls-5" d="M284.73,72.58h-14.8a238.59,238.59,0,0,1,26.34,28.82c-1.72-8.88-5.29-17.08-9.46-25C286.14,75.09,285.44,73.83,284.73,72.58Z"/></svg>