<svg width="22" height="16" viewBox="0 0 22 16" fill="none" xmlns="http://www.w3.org/2000/svg">
<path d="M8.11027 0.500153C7.83027 0.502153 5.53627 0.567153 3.11427 2.37315C3.11427 2.37315 0.530273 7.03815 0.530273 12.7812C0.530273 12.7812 2.03727 15.3742 6.00327 15.5002C6.00327 15.5002 6.66727 14.7082 7.20527 14.0232C4.92727 13.3382 4.06527 11.9152 4.06527 11.9152C4.06527 11.9152 4.24527 12.0412 4.56727 12.2222C4.58527 12.2222 4.60227 12.2412 4.63727 12.2582C4.69227 12.2932 4.74527 12.3122 4.79927 12.3482C5.24727 12.6002 5.69527 12.7982 6.10927 12.9592C6.84527 13.2662 7.72427 13.5352 8.74827 13.7332C10.0943 13.9852 11.6733 14.0752 13.3943 13.7522C14.2867 13.5861 15.1591 13.3266 15.9973 12.9782C16.7231 12.704 17.415 12.3474 18.0593 11.9152C18.0593 11.9152 17.1633 13.3732 14.8123 14.0402C15.3503 14.7062 15.9973 15.4792 15.9973 15.4792C19.9623 15.3532 21.4703 12.7592 21.4703 12.7792C21.4703 7.03315 18.8863 2.37015 18.8863 2.37015C16.3203 0.446152 13.8613 0.500153 13.8613 0.500153L13.6103 0.788153C16.6603 1.70615 18.0783 3.05815 18.0783 3.05815C16.4047 2.14675 14.5714 1.56586 12.6783 1.34715C11.4726 1.21295 10.2551 1.22504 9.05227 1.38315C8.94527 1.38315 8.85527 1.40215 8.74627 1.41815C8.11827 1.49015 6.59327 1.70615 4.67327 2.55315C4.01027 2.84115 3.61427 3.05815 3.61427 3.05815C3.61427 3.05815 5.08827 1.63515 8.31727 0.717153L8.13727 0.500153H8.10927H8.11027ZM7.65327 7.14515C8.67527 7.14515 9.50227 8.02715 9.48327 9.12615C9.48327 10.2262 8.67527 11.1082 7.65327 11.1082C6.64827 11.1082 5.82327 10.2252 5.82327 9.12615C5.82327 8.02715 6.62927 7.14515 7.65327 7.14515ZM14.2033 7.14515C15.2073 7.14515 16.0333 8.02715 16.0333 9.12615C16.0333 10.2262 15.2243 11.1082 14.2033 11.1082C13.1973 11.1082 12.3733 10.2252 12.3733 9.12615C12.3733 8.02715 13.1793 7.14515 14.2033 7.14515Z" fill="white"/>
</svg>
