<svg width="20" height="14" viewBox="0 0 20 14" fill="none" xmlns="http://www.w3.org/2000/svg">
<g clip-path="url(#clip0_354_2076)">
<path d="M7.00599 0.431772C6.76411 0.4335 4.78244 0.48965 2.6902 2.04976C2.6902 2.04976 0.458008 6.07962 0.458008 11.0407C0.458008 11.0407 1.75983 13.2807 5.18586 13.3895C5.18586 13.3895 5.75945 12.7053 6.22421 12.1136C4.25636 11.5219 3.51172 10.2926 3.51172 10.2926C3.51172 10.2926 3.66721 10.4015 3.94537 10.5578C3.96092 10.5578 3.9756 10.5742 4.00584 10.5889C4.05335 10.6192 4.09913 10.6356 4.14578 10.6667C4.53279 10.8844 4.91979 11.0554 5.27743 11.1945C5.91322 11.4597 6.67254 11.6921 7.55713 11.8631C8.71987 12.0808 10.0839 12.1585 11.5706 11.8795C12.3415 11.736 13.0951 11.5119 13.8192 11.2109C14.4462 10.9741 15.0438 10.666 15.6004 10.2926C15.6004 10.2926 14.8264 11.5521 12.7955 12.1283C13.2603 12.7036 13.8192 13.3714 13.8192 13.3714C17.2443 13.2625 18.547 11.0217 18.547 11.039C18.547 6.0753 16.3148 2.04717 16.3148 2.04717C14.0982 0.385124 11.974 0.431772 11.974 0.431772L11.7572 0.680561C14.3919 1.47358 15.6168 2.6415 15.6168 2.6415C14.1711 1.85419 12.5874 1.35238 10.9521 1.16345C9.91051 1.04752 8.85877 1.05796 7.81974 1.19455C7.7273 1.19455 7.64956 1.21096 7.5554 1.22479C7.0129 1.28698 5.69553 1.47358 4.03694 2.20526C3.4642 2.45404 3.12212 2.6415 3.12212 2.6415C3.12212 2.6415 4.39544 1.41224 7.18481 0.619228L7.02931 0.431772H7.00513H7.00599ZM6.61121 6.17205C7.49406 6.17205 8.20847 6.93397 8.19205 7.88334C8.19205 8.83358 7.49406 9.59549 6.61121 9.59549C5.74304 9.59549 5.03036 8.83271 5.03036 7.88334C5.03036 6.93397 5.72663 6.17205 6.61121 6.17205ZM12.2694 6.17205C13.1367 6.17205 13.8503 6.93397 13.8503 7.88334C13.8503 8.83358 13.1514 9.59549 12.2694 9.59549C11.4004 9.59549 10.6886 8.83271 10.6886 7.88334C10.6886 6.93397 11.3848 6.17205 12.2694 6.17205Z" fill="#BBBBBB"/>
</g>
<defs>
<clipPath id="clip0_354_2076">
<rect width="19.0047" height="13.8216" fill="white"/>
</clipPath>
</defs>
</svg>
