<svg width="30" height="30" viewBox="0 0 30 30" fill="none" xmlns="http://www.w3.org/2000/svg">
<g filter="url(#filter0_d_189_1320)">
<rect x="4.77783" y="3.77783" width="20.4444" height="20.4444" rx="10.2222" fill="#EAC3F8"/>
</g>
<circle cx="15" cy="14" r="11.75" stroke="url(#paint0_linear_189_1320)" stroke-width="0.5"/>
<path d="M19.585 14.9008C19.8194 14.9296 20.0451 15.0073 20.2476 15.1288H20.2654C20.4758 14.1343 20.4004 13.1005 20.0481 12.147C20.0349 12.0996 20.012 12.0554 19.9809 12.0172C19.9497 11.9791 19.911 11.9478 19.8672 11.9254C19.8233 11.9029 19.7753 11.8898 19.7262 11.8869C19.677 11.8839 19.6278 11.8912 19.5816 11.9083C19.5354 11.9253 19.4932 11.9517 19.4577 11.9859C19.4222 12.0201 19.3943 12.0612 19.3755 12.1068C19.3567 12.1523 19.3476 12.2012 19.3487 12.2505C19.3498 12.2997 19.3611 12.3482 19.3819 12.3928C19.6763 13.1948 19.7465 14.0619 19.585 14.9008Z" fill="url(#paint1_linear_189_1320)"/>
<path d="M17.9711 17.6226C17.3503 18.1404 16.6048 18.4868 15.8087 18.6272C15.7142 18.6352 15.6268 18.6804 15.5657 18.7529C15.5045 18.8254 15.4747 18.9192 15.4827 19.0137C15.4908 19.1082 15.536 19.1956 15.6085 19.2567C15.681 19.3179 15.7748 19.3477 15.8693 19.3397H15.9334C16.8823 19.1723 17.7691 18.7541 18.5019 18.1284V18.1035C18.2923 17.9833 18.1113 17.8193 17.9711 17.6226Z" fill="url(#paint2_linear_189_1320)"/>
<path d="M14.1554 18.6055C13.6166 18.5043 13.0995 18.3103 12.6272 18.0319C12.4252 17.9129 12.2312 17.7808 12.0465 17.6365C11.9107 17.836 11.7332 18.0037 11.5264 18.1281C11.7577 18.3233 12.0043 18.4996 12.2638 18.6553C12.8079 18.9758 13.4033 19.2 14.0236 19.3179H14.0913C14.1858 19.3264 14.2798 19.2971 14.3526 19.2363C14.4254 19.1755 14.4711 19.0882 14.4796 18.9938C14.4881 18.8993 14.4588 18.8053 14.398 18.7325C14.3372 18.6596 14.2499 18.614 14.1554 18.6055Z" fill="url(#paint3_linear_189_1320)"/>
<path d="M10.2154 14.9755C10.2867 14.9755 10.3579 14.9648 10.4292 14.9434C10.2594 14.1034 10.326 13.2328 10.6216 12.4283C10.6541 12.3395 10.6501 12.2414 10.6104 12.1556C10.5706 12.0697 10.4984 12.0032 10.4096 11.9706C10.3208 11.938 10.2227 11.942 10.1368 11.9817C10.051 12.0215 9.98441 12.0937 9.95181 12.1825C9.59895 13.1438 9.52971 14.1862 9.75232 15.1857C9.89527 15.0928 10.0514 15.0219 10.2154 14.9755Z" fill="url(#paint4_linear_189_1320)"/>
<path d="M19.9555 15.6347C19.8283 15.5537 19.6863 15.4988 19.5377 15.4731C19.3891 15.4475 19.2369 15.4515 19.0899 15.4851C18.9038 15.5347 18.7326 15.6288 18.5911 15.7594L17.2125 14.9614C17.4296 14.425 17.4496 13.8289 17.269 13.2791C17.0883 12.7294 16.7187 12.2614 16.2257 11.9583L16.1865 11.9333C15.9201 11.783 15.6275 11.6851 15.3244 11.6448V10.291C15.6081 10.2058 15.848 10.0144 15.9941 9.75668C16.1515 9.49027 16.1975 9.17255 16.1221 8.87245C16.0468 8.57234 15.8561 8.31405 15.5916 8.15359C15.4627 8.07818 15.32 8.02926 15.172 8.00968C15.024 7.99011 14.8735 8.00028 14.7294 8.03959C14.5809 8.07745 14.4414 8.14452 14.3191 8.23688C14.1968 8.32924 14.0941 8.44504 14.017 8.57752C13.864 8.84264 13.8205 9.15696 13.8957 9.45366C13.9709 9.75036 14.1588 10.006 14.4195 10.1664C14.5013 10.2198 14.59 10.2617 14.6831 10.291V11.6448C14.3243 11.6938 13.9815 11.8246 13.6813 12.0272C13.3811 12.2298 13.1315 12.4988 12.9518 12.8133C12.7659 13.1347 12.6558 13.4943 12.6298 13.8647C12.6039 14.2351 12.6628 14.6065 12.8022 14.9507L11.3772 15.7665C11.3272 15.7185 11.2736 15.6745 11.2169 15.6347C11.0864 15.5605 10.9426 15.5128 10.7937 15.4943C10.6447 15.4758 10.4936 15.4869 10.349 15.5269C10.2043 15.567 10.069 15.6352 9.95081 15.7276C9.8326 15.8201 9.73381 15.935 9.66011 16.0658C9.50622 16.3296 9.46106 16.643 9.53421 16.9396C9.60735 17.2361 9.79305 17.4926 10.052 17.6546C10.2294 17.7615 10.4326 17.8181 10.6398 17.8185C10.7336 17.8191 10.827 17.8072 10.9176 17.7828C11.2138 17.7064 11.4677 17.516 11.6239 17.253C11.7801 16.99 11.8259 16.6759 11.7513 16.3792V16.3187L13.1335 15.5207C13.3187 15.7633 13.547 15.9697 13.8068 16.1299C14.3048 16.4439 14.9039 16.5561 15.4818 16.4436C16.0598 16.331 16.573 16.0022 16.9168 15.5243L18.2812 16.3116C18.2169 16.5545 18.2324 16.8117 18.3254 17.0452C18.4184 17.2787 18.584 17.4761 18.7977 17.6083C19.0567 17.7602 19.3653 17.8031 19.6559 17.7277C19.9464 17.6522 20.1952 17.4645 20.3474 17.2057C20.4959 16.9435 20.538 16.6343 20.465 16.342C20.3921 16.0496 20.2097 15.7965 19.9555 15.6347Z" fill="url(#paint5_linear_189_1320)"/>
<path d="M11.4586 11.0036C11.969 10.4007 12.6251 9.93833 13.3645 9.66052C13.2929 9.42166 13.2723 9.17043 13.304 8.9231C12.3776 9.2328 11.5527 9.78809 10.9171 10.5298C10.8543 10.6016 10.8226 10.6954 10.8289 10.7906C10.8353 10.8858 10.8792 10.9746 10.951 11.0374C11.0228 11.1002 11.1166 11.132 11.2118 11.1256C11.307 11.1193 11.3958 11.0754 11.4586 11.0036Z" fill="url(#paint6_linear_189_1320)"/>
<path d="M17.3805 10.0166C17.819 10.2797 18.2114 10.6131 18.5418 11.0034C18.5723 11.039 18.6094 11.0682 18.6511 11.0894C18.6928 11.1106 18.7382 11.1234 18.7849 11.127C18.8315 11.1307 18.8784 11.1251 18.9229 11.1106C18.9674 11.0961 19.0086 11.073 19.0441 11.0426C19.0797 11.0122 19.1089 10.9751 19.1301 10.9334C19.1513 10.8917 19.1641 10.8462 19.1678 10.7996C19.1714 10.7529 19.1658 10.706 19.1513 10.6615C19.1368 10.617 19.1137 10.5759 19.0833 10.5403C18.7029 10.0889 18.2503 9.70371 17.7439 9.40032C17.4117 9.20721 17.0608 9.04845 16.6965 8.92651C16.7323 9.17211 16.714 9.42255 16.6431 9.66037C16.8982 9.75885 17.1448 9.878 17.3805 10.0166Z" fill="url(#paint7_linear_189_1320)"/>
<defs>
<filter id="filter0_d_189_1320" x="0.777832" y="0.777832" width="28.4443" height="28.4443" filterUnits="userSpaceOnUse" color-interpolation-filters="sRGB">
<feFlood flood-opacity="0" result="BackgroundImageFix"/>
<feColorMatrix in="SourceAlpha" type="matrix" values="0 0 0 0 0 0 0 0 0 0 0 0 0 0 0 0 0 0 127 0" result="hardAlpha"/>
<feOffset dy="1"/>
<feGaussianBlur stdDeviation="2"/>
<feComposite in2="hardAlpha" operator="out"/>
<feColorMatrix type="matrix" values="0 0 0 0 0.917647 0 0 0 0 0.764706 0 0 0 0 0.972549 0 0 0 0.2 0"/>
<feBlend mode="normal" in2="BackgroundImageFix" result="effect1_dropShadow_189_1320"/>
<feBlend mode="normal" in="SourceGraphic" in2="effect1_dropShadow_189_1320" result="shape"/>
</filter>
<linearGradient id="paint0_linear_189_1320" x1="4.42857" y1="19.4286" x2="23.2857" y2="4.85714" gradientUnits="userSpaceOnUse">
<stop stop-color="#D054FB"/>
<stop offset="1" stop-color="#B02CDF"/>
</linearGradient>
<linearGradient id="paint1_linear_189_1320" x1="20.2411" y1="12.4581" x2="18.8149" y2="12.9559" gradientUnits="userSpaceOnUse">
<stop stop-color="#B02CDF"/>
<stop offset="1" stop-color="#D054FB"/>
</linearGradient>
<linearGradient id="paint2_linear_189_1320" x1="18.09" y1="17.9256" x2="17.0966" y2="19.8384" gradientUnits="userSpaceOnUse">
<stop stop-color="#B02CDF"/>
<stop offset="1" stop-color="#D054FB"/>
</linearGradient>
<linearGradient id="paint3_linear_189_1320" x1="14.0782" y1="17.9333" x2="13.1046" y2="19.8057" gradientUnits="userSpaceOnUse">
<stop stop-color="#B02CDF"/>
<stop offset="1" stop-color="#D054FB"/>
</linearGradient>
<linearGradient id="paint4_linear_189_1320" x1="10.5045" y1="12.5196" x2="9.09455" y2="13.0057" gradientUnits="userSpaceOnUse">
<stop stop-color="#B02CDF"/>
<stop offset="1" stop-color="#D054FB"/>
</linearGradient>
<linearGradient id="paint5_linear_189_1320" x1="19" y1="9.73151" x2="12.2042" y2="18.0717" gradientUnits="userSpaceOnUse">
<stop stop-color="#B02CDF"/>
<stop offset="1" stop-color="#D054FB"/>
</linearGradient>
<linearGradient id="paint6_linear_189_1320" x1="13.0187" y1="9.31165" x2="11.5025" y2="11.2236" gradientUnits="userSpaceOnUse">
<stop stop-color="#B02CDF"/>
<stop offset="1" stop-color="#D054FB"/>
</linearGradient>
<linearGradient id="paint7_linear_189_1320" x1="18.8244" y1="9.31477" x2="17.3083" y2="11.2201" gradientUnits="userSpaceOnUse">
<stop stop-color="#B02CDF"/>
<stop offset="1" stop-color="#D054FB"/>
</linearGradient>
</defs>
</svg>
