<svg width="24" height="24" viewBox="0 0 24 24" fill="none" xmlns="http://www.w3.org/2000/svg">
<path opacity="0.45" d="M12.0473 0.975098C5.90347 0.975098 0.921875 5.95931 0.921875 12.1063C0.921875 18.2534 5.90347 23.2376 12.0473 23.2376C18.1911 23.2376 23.1727 18.2534 23.1727 12.1063C23.1727 5.95931 18.1911 0.975098 12.0473 0.975098ZM12.8419 17.4732C12.8419 17.5825 12.7525 17.672 12.6433 17.672H11.4513C11.342 17.672 11.2526 17.5825 11.2526 17.4732V10.7149C11.2526 10.6056 11.342 10.5162 11.4513 10.5162H12.6433C12.7525 10.5162 12.8419 10.6056 12.8419 10.7149V17.4732ZM12.0473 8.92599C11.7353 8.91962 11.4383 8.79117 11.22 8.5682C11.0016 8.34523 10.8793 8.04551 10.8793 7.73336C10.8793 7.4212 11.0016 7.12148 11.22 6.89851C11.4383 6.67554 11.7353 6.54709 12.0473 6.54072C12.3592 6.54709 12.6562 6.67554 12.8745 6.89851C13.0929 7.12148 13.2152 7.4212 13.2152 7.73336C13.2152 8.04551 13.0929 8.34523 12.8745 8.5682C12.6562 8.79117 12.3592 8.91962 12.0473 8.92599Z" fill="#222222"/>
</svg>
