<svg width="31" height="31" viewBox="0 0 31 31" fill="none" xmlns="http://www.w3.org/2000/svg">
<g filter="url(#filter0_d_233_3851)">
<rect x="4" y="3" width="23" height="23" rx="11.5" fill="#EAC3F8"/>
</g>
<path d="M18.6441 11.3562C18.5826 11.2946 18.5051 11.2514 18.4204 11.2313C18.3357 11.2113 18.2471 11.2152 18.1645 11.2427L13.9458 12.649C13.8767 12.672 13.8139 12.7108 13.7624 12.7623C13.7109 12.8138 13.6721 12.8766 13.6491 12.9457L12.2428 17.1644C12.2153 17.247 12.2113 17.3357 12.2313 17.4204C12.2513 17.5051 12.2945 17.5826 12.356 17.6442C12.4176 17.7057 12.4951 17.749 12.5798 17.7689C12.6646 17.7889 12.7532 17.7849 12.8358 17.7574L17.0545 16.3512C17.1236 16.3281 17.1864 16.2893 17.2379 16.2378C17.2894 16.1863 17.3282 16.1235 17.3513 16.0544L18.7575 11.8357C18.785 11.7531 18.7889 11.6645 18.7689 11.5798C18.7489 11.4951 18.7056 11.4177 18.6441 11.3562ZM13.4288 16.5719L14.4647 13.4651L16.5361 15.5365L13.4288 16.5719Z" fill="url(#paint0_linear_233_3851)"/>
<path d="M15.5 21.0625C14.2021 21.0625 12.9333 20.6776 11.8541 19.9565C10.7749 19.2354 9.93374 18.2105 9.43704 17.0114C8.94034 15.8122 8.81038 14.4927 9.0636 13.2197C9.31682 11.9467 9.94183 10.7774 10.8596 9.85961C11.7774 8.94183 12.9467 8.31682 14.2197 8.0636C15.4927 7.81038 16.8122 7.94034 18.0114 8.43704C19.2105 8.93374 20.2354 9.77488 20.9565 10.8541C21.6776 11.9333 22.0625 13.2021 22.0625 14.5C22.0605 16.2399 21.3685 17.9079 20.1382 19.1382C18.9079 20.3685 17.2399 21.0605 15.5 21.0625ZM15.5 8.875C14.3875 8.875 13.2999 9.2049 12.3749 9.82299C11.4499 10.4411 10.7289 11.3196 10.3032 12.3474C9.87744 13.3752 9.76604 14.5062 9.98309 15.5974C10.2001 16.6885 10.7359 17.6908 11.5225 18.4775C12.3092 19.2641 13.3115 19.7999 14.4026 20.0169C15.4938 20.234 16.6248 20.1226 17.6526 19.6968C18.6804 19.2711 19.5589 18.5501 20.177 17.6251C20.7951 16.7001 21.125 15.6125 21.125 14.5C21.1233 13.0087 20.5301 11.579 19.4756 10.5244C18.421 9.46993 16.9913 8.87674 15.5 8.875Z" fill="url(#paint1_linear_233_3851)"/>
<circle cx="15.5" cy="14.5" r="13.25" stroke="url(#paint2_linear_233_3851)" stroke-width="0.5"/>
<defs>
<filter id="filter0_d_233_3851" x="0" y="0" width="31" height="31" filterUnits="userSpaceOnUse" color-interpolation-filters="sRGB">
<feFlood flood-opacity="0" result="BackgroundImageFix"/>
<feColorMatrix in="SourceAlpha" type="matrix" values="0 0 0 0 0 0 0 0 0 0 0 0 0 0 0 0 0 0 127 0" result="hardAlpha"/>
<feOffset dy="1"/>
<feGaussianBlur stdDeviation="2"/>
<feComposite in2="hardAlpha" operator="out"/>
<feColorMatrix type="matrix" values="0 0 0 0 0.917647 0 0 0 0 0.764706 0 0 0 0 0.972549 0 0 0 0.2 0"/>
<feBlend mode="normal" in2="BackgroundImageFix" result="effect1_dropShadow_233_3851"/>
<feBlend mode="normal" in="SourceGraphic" in2="effect1_dropShadow_233_3851" result="shape"/>
</filter>
<linearGradient id="paint0_linear_233_3851" x1="12.5" y1="17.5" x2="18.5" y2="11.5" gradientUnits="userSpaceOnUse">
<stop stop-color="#D054FB"/>
<stop offset="1" stop-color="#B02CDF"/>
</linearGradient>
<linearGradient id="paint1_linear_233_3851" x1="20.5" y1="9.5" x2="9" y2="18.5" gradientUnits="userSpaceOnUse">
<stop stop-color="#B02CDF"/>
<stop offset="0.992388" stop-color="#D054FB"/>
</linearGradient>
<linearGradient id="paint2_linear_233_3851" x1="3.60714" y1="20.6071" x2="24.8214" y2="4.21429" gradientUnits="userSpaceOnUse">
<stop stop-color="#D054FB"/>
<stop offset="1" stop-color="#B02CDF"/>
</linearGradient>
</defs>
</svg>
