<svg width="30" height="30" viewBox="0 0 30 30" fill="none" xmlns="http://www.w3.org/2000/svg">
<g filter="url(#filter0_d_0_1)">
<rect x="4.77783" y="3.77783" width="20.4444" height="20.4444" rx="10.2222" fill="#EAC3F8"/>
</g>
<circle cx="15" cy="14" r="11.75" stroke="url(#paint0_linear_0_1)" stroke-width="0.5"/>
<path d="M17.3132 10C16.6014 10 15.9253 10.288 15.427 10.792L15 11.224L14.6085 10.828C13.5765 9.748 11.8683 9.748 10.8363 10.792L10.8007 10.828C9.7331 11.908 9.7331 13.636 10.8007 14.716L15 19L19.1993 14.716C20.2669 13.636 20.2669 11.908 19.1993 10.828C18.7011 10.288 18.0249 10 17.3132 10Z" fill="url(#paint1_linear_0_1)"/>
<defs>
<filter id="filter0_d_0_1" x="0.777832" y="0.777832" width="28.4443" height="28.4443" filterUnits="userSpaceOnUse" color-interpolation-filters="sRGB">
<feFlood flood-opacity="0" result="BackgroundImageFix"/>
<feColorMatrix in="SourceAlpha" type="matrix" values="0 0 0 0 0 0 0 0 0 0 0 0 0 0 0 0 0 0 127 0" result="hardAlpha"/>
<feOffset dy="1"/>
<feGaussianBlur stdDeviation="2"/>
<feComposite in2="hardAlpha" operator="out"/>
<feColorMatrix type="matrix" values="0 0 0 0 0.917647 0 0 0 0 0.764706 0 0 0 0 0.972549 0 0 0 0.2 0"/>
<feBlend mode="normal" in2="BackgroundImageFix" result="effect1_dropShadow_0_1"/>
<feBlend mode="normal" in="SourceGraphic" in2="effect1_dropShadow_0_1" result="shape"/>
</filter>
<linearGradient id="paint0_linear_0_1" x1="4.42857" y1="19.4286" x2="23.2857" y2="4.85714" gradientUnits="userSpaceOnUse">
<stop stop-color="#D054FB"/>
<stop offset="1" stop-color="#B02CDF"/>
</linearGradient>
<linearGradient id="paint1_linear_0_1" x1="18.8968" y1="11.08" x2="12.4172" y2="17.4853" gradientUnits="userSpaceOnUse">
<stop stop-color="#B02CDF"/>
<stop offset="1" stop-color="#D054FB"/>
</linearGradient>
</defs>
</svg>
