<svg width="32" height="32" viewBox="0 0 32 32" xmlns="http://www.w3.org/2000/svg">
<path fill-rule="evenodd" clip-rule="evenodd" d="M21.2513 11.3332C21.2513 12.8361 20.6543 14.2774 19.5916 15.3401C18.5289 16.4028 17.0875 16.9998 15.5846 16.9998C14.0817 16.9998 12.6404 16.4028 11.5777 15.3401C10.515 14.2774 9.91797 12.8361 9.91797 11.3332C9.91797 9.83028 10.515 8.38894 11.5777 7.32623C12.6404 6.26353 14.0817 5.6665 15.5846 5.6665C17.0875 5.6665 18.5289 6.26353 19.5916 7.32623C20.6543 8.38894 21.2513 9.83028 21.2513 11.3332V11.3332ZM18.418 11.3332C18.418 12.0846 18.1195 12.8053 17.5881 13.3366C17.0568 13.868 16.3361 14.1665 15.5846 14.1665C14.8332 14.1665 14.1125 13.868 13.5812 13.3366C13.0498 12.8053 12.7513 12.0846 12.7513 11.3332C12.7513 10.5817 13.0498 9.86105 13.5812 9.3297C14.1125 8.79835 14.8332 8.49984 15.5846 8.49984C16.3361 8.49984 17.0568 8.79835 17.5881 9.3297C18.1195 9.86105 18.418 10.5817 18.418 11.3332V11.3332Z" fill="#04111dbf"/>
<path fill-rule="evenodd" clip-rule="evenodd" d="M15.5833 0C6.97708 0 0 6.97708 0 15.5833C0 24.1896 6.97708 31.1667 15.5833 31.1667C24.1896 31.1667 31.1667 24.1896 31.1667 15.5833C31.1667 6.97708 24.1896 0 15.5833 0ZM2.83333 15.5833C2.83333 18.5442 3.84342 21.2698 5.53633 23.4345C6.72524 21.8732 8.25902 20.6079 10.0179 19.7374C11.7767 18.867 13.713 18.415 15.6754 18.4167C17.6125 18.4148 19.5244 18.8552 21.2655 19.7041C23.0066 20.5531 24.5309 21.7882 25.7224 23.3155C26.9499 21.7056 27.7764 19.8266 28.1334 17.8338C28.4905 15.8411 28.3679 13.792 27.7759 11.8561C27.1838 9.92011 26.1392 8.15298 24.7286 6.70089C23.318 5.24879 21.5819 4.15347 19.6639 3.50555C17.7459 2.85764 15.7012 2.67576 13.699 2.97496C11.6967 3.27416 9.79454 4.04585 8.14976 5.22616C6.50497 6.40647 5.1649 7.96148 4.24041 9.76253C3.31592 11.5636 2.83359 13.5589 2.83333 15.5833V15.5833ZM15.5833 28.3333C12.6564 28.3377 9.81788 27.3308 7.548 25.483C8.46165 24.175 9.67773 23.1071 11.0928 22.3701C12.5078 21.6331 14.0799 21.2489 15.6754 21.25C17.251 21.2487 18.8041 21.6234 20.2058 22.3428C21.6075 23.0623 22.8174 24.1058 23.7348 25.3867C21.4473 27.2945 18.562 28.3375 15.5833 28.3333V28.3333Z" fill="#04111dbf" />
</svg>
