<svg id="Layer_1" data-name="Layer 1" xmlns="http://www.w3.org/2000/svg" viewBox="0 0 409.71 323.54"><defs><style>.cls-1{fill:none;}.cls-2{fill:#cd51f9;}.cls-3{fill:#a5595d;}.cls-4{fill:#b02cdf;}</style></defs><path class="cls-1" d="M226.75,277.84c-6.34-6.56-16.42-19.91-21.53-26q3,4,6.29,7.95C216.57,265.8,221.17,272.21,226.75,277.84Z"/><path class="cls-2" d="M386.05,138.37C378,93.73,359.28,55.26,327.31,25.06H239.72c.71,1.25,1.41,2.51,2.07,3.78,4.16,7.92,7.72,16.1,9.44,25,7,11.62,14.42,23.05,17.78,36.78-1.77-.51-2.24-1.68-2.86-2.63-3.91-5.87-8-11.63-11.61-17.68C244.19,52.91,231.69,37.59,216,25.06H47.24c13.55,6.06,26.84,12.66,39.16,21,8.45,5.72,15.42,13.6,23.76,19.52,12.52,8.87,19.59,21.9,28.19,33.88,8.07,11.24,12.59,24.14,18.38,36.47,3.31,7,7,13.9,9.82,21.12a285.72,285.72,0,0,1,11.95,39c4.86,20.73,14.19,39,26.72,55.73,5.11,6.13,15.19,19.48,21.53,26,.44.44.87.89,1.32,1.32,11.05,10.58,24.69,15.66,39.32,18.14a123.81,123.81,0,0,0,23.68,1.59c-.23-5.21-.44-10.41-.62-15.52-.62-17.31-12.47-31.7-29-34.71A37.11,37.11,0,0,1,231.65,217l-11.94-88.68a11.14,11.14,0,0,1,11.18-12.82l97.59-1.68c5.69-.1,11,4.78,11.95,10.92l12,78c2.17,14.1-4,27.87-15.49,34.32-13.08,7.32-19.68,24.19-15.58,40.31,1.45,5.68,2.89,11.47,4.31,17.27a87.22,87.22,0,0,0,12.25-3.72c2.55-1,5.08-2.35,8-2.26,2.29-1.6,4.72-3,6.84-4.81,24.28-20.45,35.22-47.5,38.06-78.28C392.83,182.94,390.06,160.46,386.05,138.37Z"/><path class="cls-2" d="M319.66,206.93c.61,4.08,4.13,7,7.85,6.54a6.24,6.24,0,0,0,4.39-2.74,7.52,7.52,0,0,0,1.16-5.39L324,144.79c-.6-3.94-4-7-7.73-6.84s-6.28,3.53-5.68,7.53Z"/><path class="cls-2" d="M297,217.33a6.8,6.8,0,0,0,4.71-2.85A7.7,7.7,0,0,0,303,208.9l-9.12-62.57a8.23,8.23,0,0,0-8.18-7.06,6.57,6.57,0,0,0-6.14,7.79l9.13,63.54A7.66,7.66,0,0,0,297,217.33Z"/><path class="cls-2" d="M261.84,148a8.59,8.59,0,0,0-8.67-7.29,6.94,6.94,0,0,0-6.65,8.07l9.11,65.78a8,8,0,0,0,8.82,6.94,7.45,7.45,0,0,0,5.07-3,7.84,7.84,0,0,0,1.43-5.79Z"/><path class="cls-3" d="M325.63,294.59l1.35,5.58a131.13,131.13,0,0,0,18.87-11.56c-2.89-.09-5.42,1.25-8,2.26A87.22,87.22,0,0,1,325.63,294.59Z"/><path class="cls-4" d="M267.39,295c-14.63-2.48-28.27-7.56-39.32-18.14-.45-.43-.88-.88-1.32-1.32-5.58-5.63-10.18-12-15.24-18.09q-3.27-3.91-6.29-7.95c-12.53-16.7-21.86-35-26.72-55.73a286.28,286.28,0,0,0-11.95-39c-2.81-7.21-6.51-14.09-9.82-21.12-5.79-12.32-10.31-25.22-18.38-36.46-8.6-12-15.67-25-28.19-33.88-8.34-5.92-15.31-13.8-23.76-19.52-12.32-8.34-25.61-15-39.16-21h-29A225.82,225.82,0,0,1,97.4,73c27.13,26.25,43.93,59,56.76,93.91,7.8,21.25,11.92,43.57,17.72,65.4,6.94,26.23,20.22,48.53,43.13,64,12.42,8.41,25.94,15.16,41.17,15.29,11.81.1,23.76.16,35.51-1.95-.22-4.35-.42-8.72-.62-13.07A123.81,123.81,0,0,1,267.39,295Z"/><path class="cls-4" d="M239.72,25.06H225a237.94,237.94,0,0,1,26.26,28.73c-1.72-8.85-5.28-17-9.44-24.95C241.13,27.57,240.43,26.31,239.72,25.06Z"/></svg>