<svg width="19" height="18" viewBox="0 0 19 18" fill="none" xmlns="http://www.w3.org/2000/svg">
<path d="M9.49275 4.8212C8.63848 4.8212 7.8034 5.07452 7.0931 5.54913C6.3828 6.02373 5.82919 6.69831 5.50228 7.48755C5.17537 8.27679 5.08983 9.14524 5.25649 9.98309C5.42315 10.8209 5.83452 11.5906 6.43858 12.1946C7.04263 12.7987 7.81225 13.21 8.6501 13.3767C9.48795 13.5434 10.3564 13.4578 11.1456 13.1309C11.9349 12.804 12.6095 12.2504 13.0841 11.5401C13.5587 10.8298 13.812 9.99472 13.812 9.14045C13.812 7.99491 13.3569 6.8963 12.5469 6.08628C11.7369 5.27626 10.6383 4.8212 9.49275 4.8212ZM9.49275 11.732C8.98019 11.732 8.47914 11.58 8.05296 11.2952C7.62678 11.0105 7.29461 10.6057 7.09847 10.1322C6.90232 9.65865 6.851 9.13758 6.95099 8.63486C7.05099 8.13215 7.29781 7.67038 7.66024 7.30795C8.02268 6.94551 8.48445 6.69869 8.98716 6.5987C9.48987 6.4987 10.0109 6.55002 10.4845 6.74617C10.958 6.94232 11.3628 7.27448 11.6475 7.70066C11.9323 8.12684 12.0843 8.62789 12.0843 9.14045C12.0843 9.82777 11.8113 10.4869 11.3252 10.973C10.8392 11.459 10.1801 11.732 9.49275 11.732ZM13.812 3.95735C13.6411 3.95735 13.4741 4.00802 13.3321 4.10294C13.19 4.19786 13.0793 4.33277 13.0139 4.49062C12.9485 4.64847 12.9314 4.82216 12.9647 4.98973C12.9981 5.1573 13.0803 5.31122 13.2012 5.43204C13.322 5.55285 13.4759 5.63512 13.6435 5.66845C13.811 5.70179 13.9847 5.68468 14.1426 5.6193C14.3004 5.55391 14.4353 5.44319 14.5303 5.30113C14.6252 5.15907 14.6758 4.99206 14.6758 4.8212C14.6758 4.59209 14.5848 4.37237 14.4228 4.21037C14.2608 4.04836 14.0411 3.95735 13.812 3.95735ZM18.0794 5.89238C18.0651 5.15415 17.9249 4.42378 17.6648 3.73275C17.4236 3.10393 17.0528 2.53286 16.5766 2.05662C16.1003 1.58039 15.5293 1.20963 14.9004 0.968432C14.2094 0.708326 13.479 0.568096 12.7408 0.553784C11.9029 0.501953 11.6265 0.501953 9.49275 0.501953C7.35904 0.501953 7.0826 0.501953 6.24467 0.553784C5.50644 0.568096 4.77608 0.708326 4.08505 0.968432C3.45622 1.20963 2.88515 1.58039 2.40892 2.05662C1.93268 2.53286 1.56193 3.10393 1.32073 3.73275C1.06062 4.42378 0.920391 5.15415 0.906079 5.89238C0.854248 6.73895 0.854248 7.01538 0.854248 9.14045C0.854248 11.2655 0.854248 11.542 0.906079 12.3885C0.920391 13.1268 1.06062 13.8571 1.32073 14.5482C1.56193 15.177 1.93268 15.748 2.40892 16.2243C2.88515 16.7005 3.45622 17.0713 4.08505 17.3125C4.77608 17.5726 5.50644 17.7128 6.24467 17.7271C7.10852 17.7271 7.35904 17.7789 9.49275 17.7789C11.6265 17.7789 11.9029 17.7789 12.7408 17.7271C13.479 17.7128 14.2094 17.5726 14.9004 17.3125C15.5293 17.0713 16.1003 16.7005 16.5766 16.2243C17.0528 15.748 17.4236 15.177 17.6648 14.5482C17.9249 13.8571 18.0651 13.1268 18.0794 12.3885C18.0794 11.5247 18.1312 11.2655 18.1312 9.14045C18.1312 7.01538 18.1312 6.73895 18.0794 5.89238ZM16.3517 12.3108C16.3366 12.859 16.2345 13.4013 16.0494 13.9175C15.8963 14.3256 15.6543 14.6944 15.341 14.9974C15.0399 15.3108 14.6703 15.5503 14.2612 15.6971C13.7438 15.8898 13.1978 15.9949 12.6458 16.0081C11.8338 16.0081 11.5833 16.0512 9.48411 16.0512C7.38495 16.0512 7.14307 16.0512 6.33106 16.0512C5.77994 16.037 5.23462 15.935 4.71566 15.7489C4.30762 15.5958 3.93877 15.3539 3.63584 15.0405C3.3224 14.7394 3.08291 14.3698 2.93613 13.9607C2.74418 13.4461 2.63909 12.9031 2.62514 12.354C2.62514 11.4901 2.62514 11.2742 2.62514 9.18364C2.62514 7.09313 2.62514 6.84261 2.62514 6.01331C2.64003 5.46149 2.74508 4.91582 2.93613 4.39792C3.08519 3.99245 3.32445 3.62617 3.63584 3.32674C3.93696 3.0133 4.30654 2.77381 4.71566 2.62702C5.23309 2.4343 5.77905 2.32919 6.33106 2.31604C7.14307 2.22965 7.39359 2.22965 9.49275 2.22965C11.5919 2.22965 11.8424 2.22965 12.6544 2.22965C13.2092 2.24376 13.7578 2.34882 14.2785 2.54064C14.6839 2.6897 15.0502 2.92897 15.3496 3.24036C15.6631 3.54147 15.9026 3.91106 16.0494 4.32017C16.2608 4.84588 16.3806 5.40394 16.4035 5.97012C16.4035 6.83397 16.4467 7.04993 16.4467 9.14045C16.4467 11.231 16.4035 11.4815 16.4035 12.3108H16.3517Z" fill="#BBBBBB"/>
</svg>
