<svg width="42" height="42" viewBox="0 0 42 42" fill="none" xmlns="http://www.w3.org/2000/svg">
<g filter="url(#filter0_d_34_263)">
<rect x="4" y="3" width="34" height="34" rx="17" fill="white"/>
<path d="M28 23.1547C28 26.9334 24.8641 30 20.9966 30C17.1359 29.9929 14 26.9334 14 23.1547C14 22.6613 14 20.1093 15.0972 18.0155C16.1403 16.0204 17.9758 14.688 17.9758 14.688C17.9758 14.688 18.0029 15.2732 18.0706 15.8865C18.1045 16.1755 18.2129 16.4998 18.2129 16.4998C18.2196 15.9711 18.4093 14.7021 19.1814 13.1794C20.0755 11.424 21.6875 10 21.6875 10C21.6875 10 21.5994 11.4029 21.7349 12.5943C21.8636 13.7716 22.3512 14.8854 22.4867 14.9912C22.4867 14.9912 22.5138 14.5823 22.6086 14.2439C22.7034 13.9126 22.9947 13.5319 22.9947 13.5319C23.0218 13.4121 23.0556 14.4766 23.4146 15.1392C24.2545 16.6761 26.3812 18.6852 26.8757 19.4325C27.5868 20.497 28 21.78 28 23.1547Z" fill="#CA404F"/>
<path d="M21.4572 29.161C17.5897 29.161 14.4606 26.0944 14.4606 22.3157C14.4606 21.8434 14.4606 19.4959 15.4156 17.4585C15.3072 17.6347 15.1988 17.818 15.0972 18.0084C14 20.1021 14 22.6612 14 23.1547C14 26.9333 17.1359 29.9999 21.0034 29.9999C23.8481 29.9999 26.2932 28.3432 27.3904 25.9604C26.1509 27.885 23.9565 29.161 21.4572 29.161Z" fill="#92384B"/>
<path d="M18.0775 15.9076C18.1114 16.1966 18.2197 16.5209 18.2197 16.5209C18.2265 16.0133 18.4433 14.7091 19.1409 13.271C19.0122 13.4825 18.8429 13.8138 18.7345 14.0324C18.4229 14.6457 18.2062 15.2167 18.064 15.7102C18.064 15.7807 18.0707 15.8441 18.0775 15.9076Z" fill="#92384B"/>
<path d="M22.27 21.0257C20.9018 22.767 18.9783 23.7962 19.4524 24.2756C19.9468 24.7761 22.8592 26.4117 25.1011 24.0218C26.2864 22.7599 26.1848 20.7719 25.5211 19.5594C25.5211 19.5594 25.9207 18.3609 25.9004 18.2763C25.8326 17.9873 24.4238 16.4293 24.2274 16.3376C24.2274 16.3376 24.0784 17.4656 23.821 18.2904C23.6381 18.8685 23.076 19.9964 22.27 21.0257Z" fill="#ECD0CF"/>
<path d="M23.0625 21.7237C22.182 22.8446 21.0305 23.606 21.3692 23.8668C21.7146 24.1277 22.9541 24.7974 24.3968 23.2535C25.4805 22.1044 25.0199 20.5746 24.6813 20.3209C24.3358 20.06 23.8007 20.7791 23.0625 21.7237Z" fill="#DAB2B5"/>
<path d="M23.408 22.3723C23.0491 22.887 22.8933 23.4086 23.0626 23.5355C23.2319 23.6624 23.6586 23.3452 24.0176 22.8306C24.3766 22.3159 24.5324 21.7943 24.363 21.6674C24.1937 21.5405 23.767 21.8577 23.408 22.3723Z" fill="#C9949C"/>
<path d="M23.4216 15.1393C23.3674 15.0406 23.32 14.9348 23.2793 14.822C23.2184 14.9207 22.4192 16.2038 20.8478 17.3458C19.6422 18.22 18.9649 18.8756 18.6262 20.7649C18.4501 21.766 15.8628 20.2714 15.0229 21.5474C14.664 22.0903 14.691 22.6331 14.4946 22.9785C14.5556 24.5436 15.5919 26.0451 15.5919 26.0451C15.4158 25.7843 15.5377 24.2122 16.1269 23.1689C16.6891 22.1819 18.6533 22.1044 19.5677 21.054C20.5227 19.9613 20.4888 18.9884 21.1661 18.1142C22.1279 16.8805 23.3809 15.7878 24.0786 16.1333C23.8212 15.7949 23.5909 15.4565 23.4216 15.1393Z" fill="#F4EAE6"/>
<path d="M28.0002 23.1548C27.9392 23.613 27.4583 24.5859 26.8352 24.7339C25.7041 25.0089 25.2435 24.2827 24.5255 25.0441C23.6518 25.9747 21.9585 26.7219 20.1501 26.1368C18.7549 25.6856 17.17 27.1238 16.1743 26.8065C16.9532 27.8569 18.7616 28.6465 18.9648 28.717C18.8158 28.5408 18.362 27.8217 18.7955 27.589C19.6286 27.1449 20.8681 28.012 21.7554 27.7512C22.8187 27.441 23.2725 26.5245 23.8347 26.165C24.1192 25.9817 25.6092 24.7339 27.3906 25.9394C27.7834 25.0864 28.0002 24.1417 28.0002 23.1548Z" fill="#F4EAE6"/>
<rect x="5" y="4" width="32" height="32" rx="16" stroke="white" stroke-width="2"/>
</g>
<defs>
<filter id="filter0_d_34_263" x="0" y="0" width="42" height="42" filterUnits="userSpaceOnUse" color-interpolation-filters="sRGB">
<feFlood flood-opacity="0" result="BackgroundImageFix"/>
<feColorMatrix in="SourceAlpha" type="matrix" values="0 0 0 0 0 0 0 0 0 0 0 0 0 0 0 0 0 0 127 0" result="hardAlpha"/>
<feOffset dy="1"/>
<feGaussianBlur stdDeviation="2"/>
<feComposite in2="hardAlpha" operator="out"/>
<feColorMatrix type="matrix" values="0 0 0 0 0.558333 0 0 0 0 0.558333 0 0 0 0 0.558333 0 0 0 0.15 0"/>
<feBlend mode="normal" in2="BackgroundImageFix" result="effect1_dropShadow_34_263"/>
<feBlend mode="normal" in="SourceGraphic" in2="effect1_dropShadow_34_263" result="shape"/>
</filter>
</defs>
</svg>
