<svg width="105" height="105" viewBox="0 0 105 105" fill="none" xmlns="http://www.w3.org/2000/svg">
<mask id="mask0_778_7730" style="mask-type:alpha" maskUnits="userSpaceOnUse" x="0" y="0" width="105" height="105">
<circle cx="52.4716" cy="52.2431" r="52.2431" fill="#FED1D1"/>
</mask>
<g mask="url(#mask0_778_7730)">
<rect x="0.228516" width="104.486" height="104.486" fill="#FED1D1"/>
</g>
<path d="M83.059 80.4598C83.059 78.03 70.4128 76.0608 54.822 76.0608C39.2311 76.0608 26.585 78.03 26.585 80.4598C26.585 82.8897 39.2311 84.8589 54.822 84.8589C70.4128 84.8589 83.059 82.8807 83.059 80.4598Z" fill="#E0787F"/>
<path d="M89.5808 76.3865C89.5808 75.9619 87.449 75.6277 84.8114 75.6277C82.1738 75.6277 80.042 75.9709 80.042 76.3865C80.042 76.811 82.1738 77.1452 84.8114 77.1452C87.449 77.1543 89.5808 76.811 89.5808 76.3865Z" fill="#E0787F"/>
<path d="M86.6283 81.797C86.6283 79.34 73.8557 77.3528 58.1022 77.3528C42.3488 77.3528 29.5762 79.34 29.5762 81.797C29.5762 84.254 42.3488 86.2412 58.1022 86.2412C73.8557 86.2412 86.6283 84.254 86.6283 81.797Z" stroke="#94374A" stroke-width="1.89895" stroke-miterlimit="10"/>
<path d="M48.4908 53.1628C48.4818 53.0454 48.4727 52.937 48.4547 52.8195C47.3888 44.4821 42.8452 39.9114 38.0758 40.6883C32.1141 41.6548 27.5795 49.5225 28.3293 55.3849C28.3473 55.5023 28.3654 55.6198 28.3835 55.7281L48.4908 53.1628Z" fill="#F8D475"/>
<path d="M38.8062 46.8673C41.5161 46.4157 44.1718 48.8817 45.5267 53.5427L45.599 53.5337C44.2982 48.5475 41.5432 45.8827 38.743 46.3525C35.4279 46.9125 32.8264 51.1128 32.2393 55.2318L32.3928 55.2138C33.1155 51.2664 35.6356 47.4003 38.8062 46.8673Z" fill="#FAA83A"/>
<path d="M38.9798 48.4296C36.2519 48.8903 34.0027 51.817 32.9639 55.1411L33.2078 55.105C34.3098 52.0157 36.4596 49.369 39.043 48.9355C41.3284 48.5561 43.5776 50.2543 45.0409 53.5965L45.1855 53.5784C43.7402 49.911 41.3826 48.0231 38.9798 48.4296Z" fill="#FAA83A"/>
<path d="M38.5097 45.1689C41.9061 44.6179 45.1579 47.7162 46.2238 53.4521L46.4225 53.425C45.465 47.3458 42.0506 44.0488 38.4735 44.6269C34.0564 45.3405 30.651 50.95 30.8768 55.4123L31.1117 55.3852C31.1478 51.0222 34.3635 45.8464 38.5097 45.1689Z" fill="#FAA83A"/>
<path d="M38.1128 42.2326C32.8195 43.0907 28.7998 50.0732 29.4683 55.2671C29.4773 55.3665 29.4954 55.4749 29.5134 55.5742L29.5676 55.5652C29.2786 50.4525 33.1266 43.994 38.1309 43.181C42.1867 42.5216 46.0618 46.3335 47.1458 53.325L47.3535 53.2979C47.3445 53.1986 47.3355 53.0992 47.3174 52.9908C46.378 45.6019 42.3493 41.5551 38.1128 42.2326Z" fill="#FAA83A"/>
<path opacity="0.5" d="M35.9257 51.5187C33.252 51.8619 30.7137 51.7264 28.5819 51.2296C28.2567 52.6478 28.1664 54.0659 28.329 55.3848C28.3471 55.5022 28.3651 55.6196 28.3832 55.728L48.4906 53.1627C48.4815 53.0452 48.4725 52.9368 48.4544 52.8194C48.1383 50.3263 47.506 48.1765 46.6569 46.406C44.9045 48.8449 40.8396 50.8863 35.9257 51.5187Z" fill="#FAA83F"/>
<path d="M35.6643 54.9246C36.685 53.6419 37.9406 52.7386 39.3226 52.5038C40.6505 52.2779 41.9783 52.8018 43.1255 53.9671L43.4868 53.9219C42.2403 52.4225 40.7589 51.736 39.2594 51.9889C37.6786 52.2599 36.2605 53.398 35.1675 54.9878L35.6643 54.9246Z" fill="#FAA83A"/>
<path d="M34.2639 55.0958C35.4201 52.8827 37.1274 51.1845 39.1056 50.8503C40.9212 50.5432 42.7097 51.6181 44.0918 53.8402L44.3085 53.8131C42.8994 51.2658 40.9844 50.0102 39.0423 50.3354C36.9106 50.6967 35.0769 52.6569 33.9297 55.1409L34.2639 55.0958Z" fill="#FAA83A"/>
<path d="M25.9538 18.422L48.4819 66.6941C48.4819 66.6941 48.9516 67.6245 49.2678 67.769C49.7465 67.9948 49.2588 66.8928 49.2588 66.8928L28.6727 17.3741C28.6727 17.3741 27.9952 16.7418 27.0106 17.1212C25.9176 17.5458 25.9538 18.422 25.9538 18.422Z" fill="#9E7663"/>
<path d="M29.2698 18.8013L49.2597 66.8927C49.2597 66.8927 49.7475 67.9857 49.2687 67.7689C49.1423 67.7147 48.9887 67.525 48.8532 67.3263C45.9265 61.1658 39.7932 47.0744 36.4961 39.9293C31.2841 28.6201 27.4451 19.1626 29.2698 18.8013Z" fill="#B48E7B"/>
<path d="M14.256 24.3111L47.705 65.7723C47.705 65.7723 48.3824 66.5582 48.7257 66.6304C49.2496 66.7298 48.5089 65.7813 48.5089 65.7813L16.6497 22.64C16.6497 22.64 15.8367 22.1883 14.9786 22.7935C14.0121 23.462 14.256 24.3111 14.256 24.3111Z" fill="#9E7663"/>
<path d="M17.5626 23.8867L48.5005 65.7816C48.5005 65.7816 49.2412 66.73 48.7173 66.6306C48.5818 66.6035 48.3921 66.459 48.2114 66.2964C43.8937 61.0212 34.5536 48.8086 29.6487 42.6662C21.8714 32.9287 15.8735 24.6726 17.5626 23.8867Z" fill="#B48E7B"/>
<path d="M54.9675 58.3202C54.4165 56.5317 53.6668 57.3175 53.4229 55.8994C53.2241 54.7341 54.2449 54.3005 53.9378 53.0269C53.5313 51.3287 52.1944 52.1507 51.815 50.7325C51.4808 49.486 52.6912 49.3324 52.348 47.6703C51.9144 45.5295 49.882 47.2639 49.7374 45.3398C49.6742 44.4907 51.1285 44.0301 50.7401 42.6842C50.2162 40.9047 49.2677 41.8712 48.7348 40.6608C48.3554 39.7846 49.0509 38.8723 49.1142 38.0593C49.1503 37.4812 48.9245 36.9573 48.7619 36.6592L36.6758 42.1783C36.6758 42.1783 37.2629 42.8919 37.2358 43.7771C37.2087 44.5811 36.5313 45.5115 36.9468 46.3606C37.5158 47.5258 38.4553 47.3723 38.7082 48.1672C38.916 48.8266 37.6604 49.5221 38.103 50.9222C38.663 52.6836 40.0089 51.4823 40.4516 52.8733C40.7858 53.9211 39.8102 54.6438 40.3522 56.1342C40.9393 57.7511 42.231 57.3446 42.5472 58.2931C42.9537 59.5125 41.7704 59.5758 42.1226 61.1565C42.4298 62.5386 43.3963 62.367 43.7486 63.469C44.0015 64.2819 43.5318 65.2575 43.7034 65.5014L54.832 60.1268C54.8681 59.7384 55.1753 58.9796 54.9675 58.3202Z" fill="#404463"/>
<path d="M54.1816 58.4835C53.6396 56.966 52.9441 57.6254 52.7092 56.2705C52.5105 55.1052 53.5312 54.6716 53.2241 53.398C52.8176 51.6998 51.4807 52.5218 51.1014 51.1036C50.7671 49.8571 51.9776 49.7035 51.6343 48.0414C51.2007 45.9006 49.1683 47.635 49.0238 45.7109C48.9606 44.8618 50.4149 44.4012 50.0264 43.0553C49.5025 41.2758 48.5541 42.2423 48.0211 41.0319C47.6417 40.1557 48.3373 39.2433 48.4005 38.4304C48.4366 37.8523 48.2108 37.3284 48.0482 37.0303L41.5806 39.984C41.4361 40.3815 41.3458 40.7789 41.4993 41.2035C41.9419 42.441 42.8904 42.432 43.062 43.254C43.2066 43.9405 41.8787 44.4463 42.1858 45.9006C42.5652 47.7343 44.0195 46.7317 44.3176 48.1769C44.5434 49.2609 43.5046 49.839 43.8931 51.4017C44.3176 53.0909 45.6364 52.8741 45.8532 53.8677C46.1332 55.1323 44.9499 55.0239 45.1396 56.6498C45.3112 58.059 46.2868 58.0409 46.5217 59.1791C46.6662 59.8836 46.2868 60.6424 46.2507 61.0218L54.1816 58.4835Z" fill="#442646"/>
<path d="M58.652 55.5382C58.2907 53.6864 57.4687 54.3549 57.3603 52.9096C57.279 51.7263 58.3358 51.4372 58.1642 50.1275C57.9384 48.3841 56.5293 49.0074 56.2944 47.544C56.0866 46.2523 57.3061 46.2794 57.1345 44.5812C56.9177 42.3862 54.7227 43.8134 54.7769 41.8894C54.804 41.0403 56.2944 40.7874 56.0324 39.3963C55.6982 37.5536 54.6504 38.3756 54.253 37.1019C53.9639 36.1715 54.7498 35.3766 54.8853 34.5817C54.9846 34.0127 54.813 33.4617 54.6775 33.1455L42.1217 36.8671C42.1217 36.8671 42.6366 37.662 42.5101 38.5382C42.4017 39.3331 41.6339 40.1551 41.9591 41.0584C42.4017 42.2959 43.3502 42.2869 43.5218 43.1089C43.6663 43.7954 42.3385 44.3012 42.6456 45.7555C43.025 47.5892 44.4793 46.5865 44.7774 48.0318C45.0032 49.1158 43.9644 49.6939 44.3528 51.2566C44.7774 52.9457 46.0962 52.7289 46.313 53.7226C46.593 54.9872 45.4097 54.8788 45.5994 56.5047C45.771 57.9139 46.7466 57.8958 46.9814 59.0339C47.1531 59.874 46.593 60.7773 46.7285 61.0483L58.3178 57.3357C58.4171 56.9293 58.7875 56.2247 58.652 55.5382Z" fill="#383E63"/>
<path d="M46.1516 42.7748C45.7541 41.6909 45.7903 40.9773 45.9167 40.4985L45.8896 40.5076C45.7632 41.1941 45.3567 41.8715 45.7541 42.9555C46.3413 44.5724 47.633 44.1659 47.9492 45.1144C48.3556 46.3338 47.1723 46.3971 47.5246 47.9778C47.8317 49.3599 48.7983 49.1882 49.1505 50.2903C49.3944 51.0671 48.9699 52.0065 49.0873 52.2956C48.9879 51.9704 49.6744 50.5974 49.4215 49.8205C49.0692 48.7276 48.2292 49.1792 47.9221 47.7972C47.5698 46.2164 48.7531 46.1532 48.3466 44.9337C48.0305 43.9853 46.7387 44.3917 46.1516 42.7748Z" fill="#404463"/>
<path d="M45.4461 42.2773C45.1661 41.1391 45.2654 40.4436 45.4371 39.9829L45.41 39.9919C45.2112 40.6604 44.7415 41.2746 45.0306 42.4037C45.4551 44.0929 46.7739 43.8761 46.9907 44.8697C47.2707 46.1344 46.0874 46.026 46.2771 47.6519C46.4487 49.061 47.4153 49.043 47.6501 50.1811C47.8218 50.9941 47.2978 51.8522 47.3882 52.1593C47.3249 51.8251 48.1379 50.5605 47.9753 49.7566C47.7405 48.6184 46.8552 48.9436 46.6836 47.5345C46.4939 45.9085 47.6772 46.0169 47.3972 44.7523C47.1894 43.7497 45.8616 43.9664 45.4461 42.2773Z" fill="#9992BD"/>
<path d="M49.421 45.7827C49.8004 47.6164 51.2547 46.6137 51.5528 48.059C51.6341 48.4655 51.5437 48.8088 51.4082 49.152L51.4444 49.143C51.625 48.4294 52.0135 48.1674 51.9683 47.9416C51.6702 46.4963 50.2159 47.499 49.8365 45.6653C49.5384 44.211 50.8572 43.7051 50.7127 43.0186C50.5411 42.1966 49.5926 42.2057 49.15 40.9681C48.8248 40.0649 49.5926 39.2429 49.701 38.448C49.8184 37.5718 48.8971 36.9033 48.8971 36.9033C48.8971 36.9033 49.412 37.6982 49.2855 38.5744C49.1771 39.3693 48.4093 40.1913 48.7345 41.0946C49.1771 42.3321 50.1256 42.3231 50.2972 43.1451C50.4508 43.8226 49.1229 44.3284 49.421 45.7827Z" fill="#99A4B9"/>
<path d="M66.8636 34.7349C67.1075 31.9437 65.0479 29.4777 62.2568 29.2248C59.4656 28.9719 56.9996 31.0404 56.7467 33.8316C56.5028 36.6228 58.5623 39.0888 61.3535 39.3417C64.1537 39.5946 66.6197 37.5261 66.8636 34.7349Z" fill="#892544"/>
<path d="M61.6696 37.4723C59.0591 37.2374 57.0899 35.0785 57.0447 32.5132C56.8912 32.9287 56.7918 33.3713 56.7467 33.832C56.5028 36.6232 58.5623 39.0892 61.3535 39.3421C64.1446 39.586 66.6106 37.5265 66.8636 34.7353C66.8816 34.5456 66.8816 34.3649 66.8816 34.1843C66.1138 36.2799 64.0092 37.68 61.6696 37.4723Z" fill="#4E2445"/>
<path d="M67.7405 34.6901C67.9844 31.8989 65.9249 29.4329 63.1337 29.18C60.3425 28.9361 57.8765 30.9956 57.6236 33.7868C57.3797 36.578 59.4392 39.044 62.2304 39.2969C65.0216 39.5408 67.4876 37.4813 67.7405 34.6901Z" fill="#A32B47"/>
<path d="M66.4941 34.5814C66.6748 32.558 65.1843 30.7785 63.161 30.5978C61.1376 30.4172 59.3581 31.9076 59.1774 33.931C58.9968 35.9544 60.4872 37.7339 62.5106 37.9145C64.534 38.0862 66.3135 36.5957 66.4941 34.5814Z" fill="#4E0902"/>
<path d="M66.1855 34.5279C66.3662 32.5045 64.8757 30.725 62.8524 30.5444C60.829 30.3637 59.0495 31.8542 58.8688 33.8775C58.6882 35.9009 60.1786 37.6804 62.202 37.8611C64.2254 38.0417 66.0049 36.5513 66.1855 34.5279Z" fill="#D8676C"/>
<path d="M60.3147 34.8983C60.4953 32.8749 62.2748 31.3844 64.2982 31.5651C64.6595 31.6012 65.0028 31.6825 65.3189 31.809C64.7137 31.1134 63.8556 30.6347 62.8619 30.5444C60.8476 30.3637 59.0591 31.8542 58.8784 33.8775C58.7339 35.5396 59.7094 37.0391 61.1909 37.6172C60.5676 36.8855 60.2243 35.919 60.3147 34.8983Z" fill="#CC4861"/>
<path d="M63.7933 34.5002C63.6036 34.3466 63.3597 34.2653 63.0797 34.2744V34.2653C63.2965 34.166 63.4591 34.0124 63.5584 33.8227C63.6668 33.633 63.703 33.4162 63.6668 33.1814C63.6307 32.9014 63.4952 32.6846 63.2604 32.531C63.0978 32.4317 62.9171 32.3775 62.7003 32.3684C62.7093 32.2962 62.7003 32.2149 62.6913 32.1336C62.6552 31.8264 62.5016 31.6006 62.3661 31.6187C62.2216 31.6368 62.1403 31.8987 62.1854 32.2058C62.1945 32.2781 62.2125 32.3413 62.2306 32.4046L62.0319 32.4317C62.0319 32.3684 62.0319 32.2962 62.0228 32.2329C61.9867 31.9258 61.8332 31.7 61.6977 31.7181C61.5531 31.7361 61.4718 31.9981 61.517 32.3052C61.526 32.3775 61.5441 32.4407 61.5622 32.5039L61.1918 32.5491C61.1828 32.5491 61.1828 32.5491 61.1737 32.5491C60.8486 32.5942 60.5956 32.7297 60.6137 32.8472C60.6318 32.9736 60.9028 33.0369 61.2279 32.9917C61.237 32.9917 61.237 32.9917 61.246 32.9917L61.6796 36.2797C61.6706 36.2797 61.6615 36.2797 61.6615 36.2797C61.3363 36.3249 61.0834 36.4603 61.1015 36.5778C61.1196 36.7042 61.3905 36.7675 61.7157 36.7223C61.7248 36.7223 61.7248 36.7223 61.7338 36.7223L62.1041 36.6771C62.1041 36.7404 62.1041 36.8126 62.1132 36.8759C62.1493 37.183 62.3029 37.4088 62.4384 37.3907C62.5829 37.3727 62.6642 37.1107 62.619 36.8036C62.61 36.7313 62.5919 36.6681 62.5739 36.6049L62.7726 36.5778C62.7726 36.641 62.7726 36.7133 62.7816 36.7765C62.8177 37.0836 62.9713 37.3094 63.1068 37.2914C63.2513 37.2733 63.3326 37.0114 63.2875 36.7042C63.2784 36.6229 63.2604 36.5507 63.2333 36.4784C63.4862 36.3971 63.6939 36.2707 63.8656 36.081C64.0914 35.828 64.1817 35.5209 64.1366 35.1596C64.1004 34.8796 63.983 34.6628 63.7933 34.5002ZM63.17 33.3349C63.1971 33.5698 63.152 33.7595 63.0074 33.9131C62.8719 34.0666 62.6732 34.1569 62.4022 34.1931L61.9054 34.2563L61.7248 32.9104L62.2848 32.8381C62.8177 32.7659 63.1158 32.9285 63.17 33.3349ZM63.4591 35.819C63.3146 35.9726 63.1068 36.0719 62.8177 36.1081L62.1493 36.1984L61.9506 34.6989L62.5106 34.6267C63.1791 34.5363 63.5494 34.7441 63.6126 35.2319C63.6578 35.4667 63.6036 35.6655 63.4591 35.819Z" fill="#532242"/>
<path d="M63.9725 34.4826C63.7828 34.3291 63.5389 34.2478 63.2589 34.2568V34.2478C63.4757 34.1484 63.6383 33.9948 63.7376 33.8051C63.846 33.6155 63.8822 33.3987 63.846 33.1638C63.8099 32.8838 63.6744 32.667 63.4396 32.5134C63.277 32.4141 63.0963 32.3599 62.8795 32.3508C62.8885 32.2786 62.8795 32.1973 62.8705 32.116C62.8344 31.8089 62.6808 31.583 62.5453 31.6011C62.4008 31.6192 62.3195 31.8811 62.3646 32.1883C62.3737 32.2605 62.3917 32.3237 62.4098 32.387L62.2111 32.4141C62.2111 32.3508 62.2111 32.2786 62.202 32.2154C62.1659 31.9082 62.0124 31.6824 61.8769 31.7005C61.7323 31.7185 61.651 31.9805 61.6962 32.2876C61.7052 32.3599 61.7233 32.4231 61.7414 32.4863L61.371 32.5315C61.362 32.5315 61.362 32.5315 61.3529 32.5315C61.0278 32.5767 60.7748 32.7122 60.7929 32.8296C60.811 32.9561 61.082 33.0193 61.4071 32.9741C61.4162 32.9741 61.4162 32.9741 61.4252 32.9741L61.8588 36.2621C61.8498 36.2621 61.8498 36.2621 61.8407 36.2621C61.5155 36.3073 61.2626 36.4428 61.2807 36.5602C61.2988 36.6867 61.5697 36.7499 61.8949 36.7047C61.904 36.7047 61.904 36.7047 61.913 36.7047L62.2924 36.6596C62.2924 36.7228 62.2924 36.7951 62.3014 36.8583C62.3375 37.1654 62.4911 37.3912 62.6266 37.3732C62.7711 37.3551 62.8524 37.0931 62.8073 36.786C62.7982 36.7138 62.7802 36.6505 62.7621 36.5873L62.9608 36.5602C62.9608 36.6234 62.9608 36.6957 62.9698 36.7589C63.006 37.066 63.1595 37.2919 63.295 37.2738C63.4396 37.2557 63.5209 36.9938 63.4757 36.6867C63.4667 36.6054 63.4486 36.5331 63.4215 36.4608C63.6744 36.3795 63.8822 36.2531 64.0538 36.0634C64.2796 35.8105 64.3699 35.5033 64.3248 35.142C64.2796 34.862 64.1622 34.6362 63.9725 34.4826ZM63.3402 33.3174C63.3673 33.5522 63.3221 33.7419 63.1776 33.8955C63.0421 34.049 62.8434 34.1394 62.5724 34.1755L62.0756 34.2387L61.8949 32.8928L62.455 32.8206C62.9969 32.7393 63.286 32.9109 63.3402 33.3174ZM63.6383 35.8014C63.4938 35.955 63.286 36.0544 62.9969 36.0905L62.3285 36.1808L62.1298 34.6813L62.6898 34.6091C63.3583 34.5188 63.7286 34.7265 63.7918 35.2143C63.837 35.4401 63.7828 35.6388 63.6383 35.8014Z" fill="#A32B47"/>
<path d="M78.2275 43.209C79.4108 40.5533 78.2094 37.4459 75.5537 36.2717C72.898 35.0883 69.7907 36.2897 68.6164 38.9454C67.4421 41.6011 68.6345 44.7084 71.2902 45.8827C73.9459 47.057 77.0532 45.8556 78.2275 43.209Z" fill="#892544"/>
<path d="M72.2206 44.1487C69.7455 43.0467 68.5351 40.2646 69.3481 37.7444C69.059 38.0967 68.8151 38.4941 68.6164 38.9367C67.4421 41.5924 68.6345 44.6998 71.2902 45.874C73.9459 47.0574 77.0532 45.856 78.2275 43.2003C78.3088 43.0196 78.372 42.848 78.4352 42.6673C76.9719 44.4649 74.4427 45.1333 72.2206 44.1487Z" fill="#4E2445"/>
<path d="M79.0946 43.4531C80.2779 40.7974 79.0766 37.6901 76.4209 36.5158C73.7652 35.3325 70.6579 36.5339 69.4836 39.1895C68.3003 41.8452 69.5016 44.9526 72.1573 46.1269C74.813 47.3011 77.9203 46.1088 79.0946 43.4531Z" fill="#A32B47"/>
<path d="M77.9207 42.929C78.7698 41.014 77.9116 38.7648 75.9876 37.9157C74.0726 37.0666 71.8234 37.9248 70.9743 39.8488C70.1252 41.7638 70.9834 44.013 72.9074 44.8621C74.8224 45.7112 77.0625 44.844 77.9207 42.929Z" fill="#4E0902"/>
<path d="M77.6316 42.7755C78.4807 40.8605 77.6226 38.6113 75.6986 37.7622C73.7836 36.9131 71.5344 37.7712 70.6853 39.6952C69.8362 41.6102 70.6943 43.8594 72.6183 44.7085C74.5333 45.5576 76.7825 44.6904 77.6316 42.7755Z" fill="#D8676C"/>
<path d="M71.7509 41.1673C72.6 39.2524 74.8492 38.3852 76.7642 39.2343C77.1075 39.3879 77.4146 39.5866 77.6856 39.8124C77.3333 38.9272 76.6468 38.1684 75.6983 37.7529C73.7834 36.9038 71.5342 37.7619 70.6851 39.6859C69.9805 41.2667 70.4412 43.0643 71.6967 44.1211C71.3354 43.1998 71.3174 42.1429 71.7509 41.1673Z" fill="#CC4861"/>
<path d="M75.2914 41.9442C75.156 41.7275 74.9482 41.5739 74.6682 41.4745V41.4655C74.9121 41.4384 75.1198 41.3481 75.2914 41.1945C75.454 41.041 75.5624 40.8422 75.6166 40.5983C75.6708 40.3093 75.6166 40.0473 75.436 39.8215C75.3185 39.6679 75.1469 39.5505 74.9392 39.4692C74.9663 39.397 74.9934 39.3247 75.0114 39.2434C75.0747 38.9272 75.0114 38.6563 74.8669 38.6292C74.7224 38.6021 74.5598 38.8279 74.4965 39.144C74.4785 39.2163 74.4785 39.2886 74.4695 39.3518L74.2617 39.3066C74.2888 39.2434 74.3069 39.1802 74.3249 39.1079C74.3882 38.7917 74.3249 38.5208 74.1804 38.4937C74.0359 38.4666 73.8733 38.6924 73.81 39.0085C73.792 39.0808 73.792 39.1531 73.7829 39.2163L73.4036 39.135C73.3945 39.135 73.3855 39.135 73.3855 39.135C73.0513 39.0718 72.7622 39.1169 72.7351 39.2434C72.708 39.3699 72.9609 39.5234 73.2952 39.5957C73.3042 39.5957 73.3132 39.5957 73.3132 39.5957L72.6358 42.965C72.6267 42.965 72.6177 42.965 72.6177 42.965C72.2835 42.9017 71.9944 42.9469 71.9673 43.0734C71.9402 43.1998 72.1931 43.3534 72.5274 43.4257C72.5364 43.4257 72.5454 43.4257 72.5454 43.4257L72.9248 43.5069C72.8977 43.5702 72.8796 43.6334 72.8616 43.7057C72.7984 44.0128 72.8616 44.2928 73.0061 44.3199C73.1506 44.347 73.3132 44.1212 73.3765 43.805C73.3945 43.7328 73.3945 43.6605 73.4036 43.5973L73.6113 43.6424C73.5842 43.7057 73.5662 43.7689 73.5481 43.8412C73.4849 44.1483 73.5481 44.4283 73.6926 44.4554C73.8371 44.4825 73.9997 44.2567 74.063 43.9405C74.081 43.8592 74.0901 43.7779 74.0901 43.7057C74.3611 43.7147 74.614 43.6515 74.8398 43.525C75.1469 43.3534 75.3366 43.0824 75.4089 42.712C75.4721 42.423 75.4269 42.161 75.2914 41.9442ZM75.0747 40.5983C75.0295 40.8422 74.9121 41.0139 74.7224 41.1132C74.5417 41.2126 74.3069 41.2397 74.0359 41.1855L73.521 41.0861L73.801 39.7041L74.3791 39.8215C74.9211 39.9209 75.156 40.1828 75.0747 40.5983ZM74.5327 43.1276C74.343 43.236 74.0991 43.254 73.81 43.1998L73.1326 43.0643L73.4397 41.5287L74.0178 41.6462C74.7043 41.7817 75.0024 42.1068 74.894 42.6127C74.8398 42.8475 74.7224 43.0192 74.5327 43.1276Z" fill="#532242"/>
<path d="M75.4809 41.9804C75.3454 41.7636 75.1377 41.61 74.8576 41.5107V41.5016C75.1015 41.4745 75.3093 41.3842 75.4809 41.2306C75.6525 41.0771 75.7519 40.8784 75.8061 40.6345C75.8603 40.3454 75.8061 40.0835 75.6254 39.8667C75.508 39.7131 75.3364 39.5957 75.1286 39.5144C75.1557 39.4421 75.1828 39.3699 75.2009 39.2886C75.2641 38.9814 75.2009 38.7014 75.0564 38.6743C74.9118 38.6472 74.7492 38.873 74.686 39.1892C74.6679 39.2615 74.6679 39.3337 74.6589 39.397L74.4511 39.3518C74.4782 39.2886 74.4963 39.2253 74.5144 39.1531C74.5776 38.8459 74.5144 38.5659 74.3698 38.5388C74.2253 38.5117 74.0627 38.7375 73.9995 39.0537C73.9814 39.126 73.9814 39.1982 73.9724 39.2615L73.593 39.1802C73.584 39.1802 73.584 39.1802 73.5749 39.1802C73.2407 39.1169 72.9517 39.1621 72.9246 39.2886C72.8975 39.415 73.1504 39.5686 73.4846 39.6408C73.4937 39.6408 73.5027 39.6408 73.5027 39.6408L72.8252 43.0101C72.8162 43.0101 72.8071 43.0101 72.8071 43.0101C72.4729 42.9469 72.1839 42.9921 72.1568 43.1185C72.1297 43.245 72.3826 43.3986 72.7168 43.4708C72.7259 43.4708 72.7349 43.4708 72.7349 43.4708L73.1143 43.5521C73.0872 43.6153 73.0691 43.6786 73.051 43.7508C72.9878 44.067 73.051 44.338 73.1956 44.3651C73.3401 44.3922 73.5027 44.1664 73.5659 43.8502C73.584 43.7779 73.584 43.7057 73.593 43.6424L73.8008 43.6876C73.7737 43.7508 73.7556 43.8141 73.7375 43.8863C73.6743 44.2025 73.7375 44.4735 73.8821 44.5006C74.0266 44.5277 74.1892 44.3018 74.2524 43.9857C74.2705 43.9044 74.2795 43.8231 74.2795 43.7508C74.5505 43.7599 74.8034 43.6966 75.0293 43.5702C75.3364 43.3986 75.5261 43.1276 75.5983 42.7572C75.6525 42.4591 75.6164 42.2062 75.4809 41.9804ZM75.2551 40.6345C75.2099 40.8784 75.0925 41.05 74.9028 41.1493C74.7221 41.2487 74.4873 41.2758 74.2163 41.2216L73.7014 41.1222L73.9814 39.7402L74.5595 39.8576C75.1015 39.957 75.3364 40.219 75.2551 40.6345ZM74.7131 43.1637C74.5234 43.2721 74.2795 43.2902 73.9905 43.236L73.313 43.1005L73.6201 41.5649L74.1982 41.6823C74.8847 41.8178 75.1828 42.143 75.0744 42.6488C75.0202 42.8837 74.9028 43.0553 74.7131 43.1637Z" fill="#A32B47"/>
<path d="M60.6673 41.8261C60.6492 38.7459 58.1471 36.2618 55.0668 36.2799C51.9866 36.2979 49.5025 38.8001 49.5206 41.8803C49.5387 44.9605 52.0408 47.4446 55.121 47.4265C58.2013 47.4085 60.6853 44.9064 60.6673 41.8261Z" fill="#892544"/>
<path d="M55.2745 45.349C52.402 45.3671 50.0264 43.1991 49.7102 40.408C49.5837 40.8777 49.5205 41.3655 49.5205 41.8803C49.5386 44.9606 52.0407 47.4446 55.1209 47.4266C58.2012 47.4085 60.6852 44.9064 60.6672 41.8261C60.6672 41.6184 60.6581 41.4196 60.631 41.2209C59.9987 43.5876 57.8399 45.34 55.2745 45.349Z" fill="#4E2445"/>
<path d="M61.6165 41.6816C61.5984 38.6013 59.0963 36.1173 56.0161 36.1354C52.9358 36.1534 50.4518 38.6555 50.4698 41.7358C50.4879 44.816 52.99 47.3001 56.0703 47.282C59.1505 47.273 61.6345 44.7618 61.6165 41.6816Z" fill="#A32B47"/>
<path d="M60.2425 41.6908C60.2334 39.4687 58.4178 37.6712 56.1957 37.6802C53.9736 37.6892 52.1761 39.5049 52.1851 41.727C52.1941 43.9491 54.0097 45.7466 56.2319 45.7376C58.463 45.7286 60.2605 43.9129 60.2425 41.6908Z" fill="#4E0902"/>
<path d="M59.908 41.6633C59.899 39.4411 58.0834 37.6436 55.8612 37.6526C53.6391 37.6617 51.8416 39.4773 51.8506 41.6994C51.8597 43.9215 53.6753 45.719 55.8974 45.71C58.1195 45.701 59.917 43.8944 59.908 41.6633Z" fill="#D8676C"/>
<path d="M53.5224 42.6659C53.5134 40.4438 55.3019 38.6281 57.5331 38.6191C57.9305 38.6191 58.3099 38.6733 58.6712 38.7817C57.9396 38.0771 56.9459 37.6526 55.8529 37.6526C53.6308 37.6616 51.8333 39.4772 51.8423 41.6994C51.8514 43.533 53.0798 45.0686 54.7509 45.5474C54.0012 44.8248 53.5224 43.804 53.5224 42.6659Z" fill="#CC4861"/>
<path d="M57.2801 41.8807C57.0543 41.7271 56.7833 41.6729 56.4762 41.7V41.691C56.702 41.5555 56.8646 41.3748 56.9549 41.158C57.0543 40.9412 57.0723 40.6973 57.0091 40.4444C56.9368 40.1373 56.7652 39.9115 56.4942 39.776C56.3136 39.6857 56.0968 39.6405 55.8619 39.6495C55.8619 39.5682 55.8529 39.4869 55.8348 39.3966C55.7626 39.0714 55.5729 38.8275 55.4283 38.8637C55.2748 38.8998 55.2115 39.1888 55.2928 39.5231C55.3109 39.5953 55.338 39.6676 55.3651 39.7308L55.1483 39.776C55.1483 39.7037 55.1393 39.6315 55.1212 39.5592C55.0489 39.234 54.8593 38.9901 54.7147 39.0263C54.5612 39.0624 54.4979 39.3514 54.5792 39.6857C54.5973 39.7579 54.6244 39.8302 54.6515 39.8934L54.245 39.9837C54.236 39.9837 54.2269 39.9837 54.2269 39.9928C53.8747 40.0741 53.6127 40.2457 53.6488 40.3722C53.6759 40.5077 53.9921 40.5438 54.3353 40.4625C54.3444 40.4625 54.3534 40.4625 54.3534 40.4535L55.1664 44.0034C55.1573 44.0034 55.1483 44.0034 55.1483 44.0124C54.796 44.0937 54.5341 44.2654 54.5702 44.4009C54.5973 44.5364 54.9044 44.5725 55.2567 44.4912C55.2657 44.4912 55.2748 44.4912 55.2748 44.4822L55.6813 44.3918C55.6813 44.4641 55.6903 44.5363 55.7084 44.6086C55.7806 44.9338 55.9703 45.1777 56.1148 45.1416C56.2684 45.1054 56.3316 44.8164 56.2503 44.4822C56.2323 44.4099 56.2052 44.3376 56.1781 44.2744L56.3949 44.2292C56.3949 44.3015 56.4039 44.3738 56.422 44.446C56.4942 44.7712 56.6839 45.0151 56.8284 44.979C56.982 44.9428 57.0452 44.6538 56.9639 44.3196C56.9459 44.2292 56.9188 44.157 56.8826 44.0847C57.1536 43.9763 57.3704 43.8047 57.533 43.5879C57.7588 43.2898 57.8221 42.9375 57.7317 42.5581C57.6595 42.2691 57.5149 42.0342 57.2801 41.8807ZM56.4762 40.6793C56.5304 40.9322 56.4942 41.149 56.3587 41.3297C56.2232 41.5103 56.0155 41.6277 55.7264 41.691L55.1844 41.8174L54.8502 40.3631L55.4554 40.2276C56.0426 40.0831 56.3768 40.2367 56.4762 40.6793ZM57.0543 43.3621C56.9188 43.5518 56.6929 43.6782 56.3858 43.7505L55.6722 43.9131L55.3019 42.2871L55.9071 42.1517C56.6297 41.9891 57.0543 42.1697 57.1807 42.7027C57.2349 42.9556 57.1988 43.1724 57.0543 43.3621Z" fill="#532242"/>
<path d="M57.4778 41.835C57.252 41.6815 56.981 41.6273 56.6739 41.6544V41.6453C56.8997 41.5098 57.0623 41.3292 57.1527 41.1124C57.252 40.8956 57.2701 40.6517 57.2069 40.3988C57.1346 40.0917 56.963 39.8658 56.692 39.7303C56.5113 39.64 56.2945 39.5948 56.0597 39.6039C56.0597 39.5226 56.0506 39.4413 56.0326 39.3509C55.9603 39.0258 55.7706 38.7819 55.6261 38.818C55.4725 38.8541 55.4093 39.1432 55.4906 39.4774C55.5087 39.5497 55.5358 39.6219 55.5629 39.6852L55.3461 39.7303C55.3461 39.6581 55.337 39.5858 55.319 39.5135C55.2467 39.1884 55.057 38.9445 54.9125 38.9806C54.7589 39.0167 54.6957 39.3058 54.777 39.64C54.7951 39.7123 54.8222 39.7845 54.8493 39.8478L54.4428 39.9381C54.4337 39.9381 54.4247 39.9381 54.4247 39.9471C54.0724 40.0284 53.8105 40.2 53.8466 40.3265C53.8737 40.462 54.1808 40.4981 54.5331 40.4168C54.5421 40.4168 54.5512 40.4168 54.5512 40.4078L55.3641 43.9578C55.3551 43.9578 55.3461 43.9578 55.3461 43.9668C54.9938 44.0481 54.7318 44.2197 54.768 44.3462C54.7951 44.4817 55.1112 44.5178 55.4545 44.4365C55.4635 44.4365 55.4725 44.4365 55.4725 44.4275L55.879 44.3371C55.879 44.4094 55.888 44.4817 55.9061 44.5539C55.9784 44.8791 56.1681 45.123 56.3126 45.0869C56.4661 45.0507 56.5294 44.7617 56.4481 44.4275C56.43 44.3552 56.4029 44.2829 56.3758 44.2197L56.5926 44.1745C56.5926 44.2468 56.6016 44.3191 56.6197 44.3913C56.692 44.7165 56.8817 44.9604 57.0262 44.9243C57.1798 44.8881 57.243 44.5991 57.1617 44.2649C57.1436 44.1745 57.1165 44.1023 57.0804 44.03C57.3514 43.9216 57.5682 43.75 57.7308 43.5332C57.9566 43.2351 58.0198 42.8828 57.9295 42.5034C57.8482 42.2234 57.7037 41.9886 57.4778 41.835ZM56.6739 40.6336C56.7281 40.8865 56.692 41.1033 56.5565 41.284C56.421 41.4647 56.2132 41.5821 55.9242 41.6453L55.3822 41.7718L55.048 40.3175L55.6532 40.182C56.2313 40.0375 56.5745 40.191 56.6739 40.6336ZM57.252 43.3164C57.1165 43.5061 56.8907 43.6326 56.5836 43.7048L55.87 43.8674L55.4996 42.2415L56.1048 42.106C56.8275 41.9434 57.252 42.1241 57.3785 42.657C57.4236 42.9099 57.3875 43.1267 57.252 43.3164Z" fill="#A32B47"/>
<path d="M71.1106 43.2626C71.4629 39.9566 69.0601 36.9847 65.7541 36.6415C62.448 36.2892 59.4762 38.6919 59.1329 41.998C58.7806 45.3041 61.1834 48.2759 64.4895 48.6192C67.7955 48.9714 70.7674 46.5687 71.1106 43.2626Z" fill="#892544"/>
<path d="M64.905 46.4058C61.8157 46.0807 59.5213 43.4701 59.5123 40.4351C59.3226 40.9228 59.1961 41.4467 59.1329 41.9887C58.7806 45.2948 61.1834 48.2666 64.4895 48.6099C67.7955 48.9622 70.7674 46.5594 71.1106 43.2533C71.1377 43.0365 71.1467 42.8107 71.1467 42.5939C70.1892 45.078 67.66 46.7039 64.905 46.4058Z" fill="#4E2445"/>
<path d="M72.1492 43.2262C72.5015 39.9202 70.0987 36.9483 66.7926 36.6051C63.4866 36.2528 60.5147 38.6556 60.1715 41.9616C59.8192 45.2677 62.222 48.2395 65.528 48.5828C68.8341 48.9351 71.7969 46.5323 72.1492 43.2262Z" fill="#A32B47"/>
<path d="M70.6766 43.0727C70.9295 40.679 69.1952 38.5382 66.8105 38.2852C64.4168 38.0323 62.276 39.7666 62.023 42.1513C61.7701 44.5451 63.5044 46.6859 65.8891 46.9388C68.2829 47.1917 70.4237 45.4574 70.6766 43.0727Z" fill="#4E0902"/>
<path d="M70.3148 43.0002C70.5677 40.6065 68.8334 38.4657 66.4487 38.2127C64.0549 37.9598 61.9141 39.6941 61.6612 42.0788C61.4083 44.4726 63.1426 46.6134 65.5273 46.8663C67.9211 47.1283 70.0619 45.3939 70.3148 43.0002Z" fill="#D8676C"/>
<path d="M63.342 43.3163C63.5949 40.9226 65.7357 39.1973 68.1295 39.4502C68.554 39.4954 68.9605 39.6038 69.3308 39.7574C68.6353 38.9173 67.6146 38.3392 66.4403 38.2127C64.0466 37.9598 61.9057 39.6941 61.6528 42.0788C61.4451 44.048 62.5832 45.8365 64.3175 46.5592C63.5949 45.692 63.2155 44.5358 63.342 43.3163Z" fill="#CC4861"/>
<path d="M67.4797 42.928C67.2539 42.7383 66.9738 42.6389 66.6306 42.6389V42.6209C66.8925 42.5034 67.0822 42.3318 67.2087 42.106C67.3351 41.8802 67.3893 41.6272 67.3532 41.3472C67.3171 41.013 67.1545 40.751 66.8835 40.5704C66.6938 40.4439 66.477 40.3807 66.2241 40.3626C66.2331 40.2813 66.2331 40.182 66.2241 40.0916C66.1789 39.7303 66.0163 39.4503 65.8447 39.4684C65.6821 39.4864 65.5737 39.7935 65.6189 40.1549C65.6279 40.2362 65.646 40.3175 65.6641 40.3897L65.4292 40.4168C65.4382 40.3446 65.4292 40.2633 65.4202 40.1729C65.375 39.8116 65.2124 39.5316 65.0408 39.5497C64.8782 39.5677 64.7698 39.8748 64.815 40.2362C64.824 40.3175 64.8421 40.3988 64.8601 40.471L64.4175 40.5252C64.4085 40.5252 64.3994 40.5252 64.3904 40.5252C64.002 40.5704 63.7039 40.7239 63.722 40.8685C63.74 41.013 64.0652 41.0943 64.4536 41.0491C64.4627 41.0491 64.4717 41.0491 64.4807 41.0491L64.9324 44.9604C64.9234 44.9604 64.9143 44.9604 64.9053 44.9604C64.5169 45.0056 64.2188 45.1591 64.2368 45.3036C64.2549 45.4482 64.5801 45.5295 64.9685 45.4843C64.9776 45.4843 64.9866 45.4843 64.9956 45.4843L65.4382 45.4301C65.4292 45.5024 65.4382 45.5837 65.4473 45.674C65.4924 46.0353 65.655 46.3153 65.8266 46.2973C65.9892 46.2792 66.0976 45.9721 66.0525 45.6108C66.0434 45.5295 66.0254 45.4482 66.0073 45.3759L66.2422 45.3488C66.2331 45.4211 66.2422 45.5024 66.2512 45.5927C66.2964 45.954 66.459 46.234 66.6306 46.216C66.7932 46.1979 66.9016 45.8908 66.8564 45.5295C66.8474 45.4301 66.8293 45.3488 66.8022 45.2675C67.1003 45.1772 67.3532 45.0327 67.5519 44.8068C67.8229 44.5087 67.9404 44.1474 67.8952 43.7229C67.832 43.3796 67.7055 43.1177 67.4797 42.928ZM66.757 41.5369C66.7932 41.8169 66.7209 42.0427 66.5583 42.2144C66.3957 42.386 66.1518 42.4944 65.8357 42.5305L65.2395 42.6028L65.0588 41.004L65.7273 40.9317C66.3596 40.8414 66.7028 41.0491 66.757 41.5369ZM67.0551 44.4816C66.8835 44.6623 66.6306 44.7797 66.2873 44.8159L65.5015 44.9062L65.2937 43.1177L65.9621 43.0454C66.757 42.9551 67.1906 43.199 67.2629 43.7861C67.299 44.0661 67.2268 44.301 67.0551 44.4816Z" fill="#532242"/>
<path d="M67.6867 42.9011C67.4609 42.7114 67.1809 42.6121 66.8376 42.6121V42.594C67.0996 42.4766 67.2893 42.3049 67.4157 42.0791C67.5422 41.8533 67.5964 41.6004 67.5602 41.3204C67.5241 40.9861 67.3615 40.7242 67.0905 40.5435C66.9008 40.4171 66.6841 40.3538 66.4311 40.3358C66.4402 40.2545 66.4402 40.1551 66.4311 40.0648C66.386 39.7035 66.2234 39.4234 66.0517 39.4415C65.8892 39.4596 65.7808 39.7667 65.8259 40.128C65.835 40.2093 65.853 40.2906 65.8711 40.3629L65.6362 40.39C65.6453 40.3177 65.6362 40.2364 65.6272 40.1461C65.582 39.7848 65.4194 39.5047 65.2478 39.5228C65.0852 39.5409 64.9768 39.848 65.022 40.2093C65.031 40.2906 65.0491 40.3719 65.0672 40.4442L64.6245 40.4984C64.6155 40.4984 64.6065 40.4984 64.5974 40.4984C64.209 40.5435 63.9109 40.6971 63.929 40.8416C63.9471 40.9861 64.2723 41.0674 64.6607 41.0223C64.6697 41.0223 64.6787 41.0223 64.6878 41.0223L65.1394 44.9335C65.1304 44.9335 65.1213 44.9335 65.1123 44.9335C64.7239 44.9787 64.4258 45.1323 64.4439 45.2768C64.4619 45.4213 64.7871 45.5026 65.1755 45.4574C65.1846 45.4574 65.1936 45.4574 65.2026 45.4574L65.6453 45.4032C65.6362 45.4755 65.6453 45.5568 65.6543 45.6471C65.6995 46.0085 65.8621 46.2885 66.0337 46.2704C66.1963 46.2523 66.3047 45.9452 66.2595 45.5839C66.2505 45.5026 66.2324 45.4213 66.2143 45.3491L66.4492 45.322C66.4402 45.3942 66.4492 45.4755 66.4582 45.5658C66.5034 45.9272 66.666 46.2072 66.8376 46.1891C67.0002 46.171 67.1086 45.8639 67.0634 45.5026C67.0544 45.4032 67.0363 45.322 67.0092 45.2407C67.3073 45.1503 67.5602 45.0058 67.759 44.78C68.03 44.4819 68.1474 44.1206 68.1022 43.696C68.048 43.3528 67.9125 43.0908 67.6867 42.9011ZM66.9641 41.51C67.0002 41.7901 66.9279 42.0159 66.7653 42.1875C66.6028 42.3591 66.3589 42.4675 66.0427 42.5037L65.4465 42.5759L65.2659 40.9771L65.9343 40.9048C66.5666 40.8235 66.9099 41.0223 66.9641 41.51ZM67.2712 44.4548C67.0996 44.6354 66.8466 44.7529 66.5034 44.789L65.7175 44.8793L65.5098 43.0908L66.1782 43.0186C66.9731 42.9282 67.4067 43.1721 67.479 43.7593C67.5061 44.0393 67.4338 44.2741 67.2712 44.4548Z" fill="#A32B47"/>
<path d="M71.0826 57.7875C71.0736 57.6701 71.0645 57.5617 71.0465 57.4443C69.9806 49.1069 65.437 44.5362 60.6676 45.313C54.7059 46.2796 50.1713 54.1473 50.9211 60.0097C50.9391 60.1271 50.9572 60.2445 50.9753 60.3529L71.0826 57.7875Z" fill="#F8D475"/>
<path d="M61.4083 51.4911C64.1181 51.0395 66.7738 53.5055 68.1288 58.1665L68.201 58.1574C66.9003 53.1712 64.1452 50.5065 61.345 50.9762C58.0299 51.5363 55.4285 55.7366 54.8413 59.8556L54.9949 59.8376C55.7085 55.8992 58.2287 52.0241 61.4083 51.4911Z" fill="#FAA83A"/>
<path d="M61.5799 53.0544C58.852 53.5151 56.6028 56.4417 55.564 59.7659L55.8079 59.7297C56.9099 56.6405 59.0597 53.9938 61.6431 53.5602C63.9285 53.1808 66.1777 54.879 67.641 58.2212L67.7856 58.2032C66.3312 54.5358 63.9736 52.6479 61.5799 53.0544Z" fill="#FAA83A"/>
<path d="M61.1015 49.8024C64.4979 49.2514 67.7497 52.3497 68.8156 58.0857L69.0143 58.0586C68.0568 51.9794 64.6424 48.6823 61.0653 49.2605C56.6482 49.9741 53.2428 55.5835 53.4686 60.0458L53.7035 60.0187C53.7486 55.6468 56.9644 50.4709 61.1015 49.8024Z" fill="#FAA83A"/>
<path d="M60.7119 46.8665C55.4186 47.7246 51.399 54.7071 52.0674 59.901C52.0764 60.0004 52.0945 60.1088 52.1126 60.2081L52.1668 60.1991C51.8777 55.0865 55.7257 48.6279 60.73 47.8149C64.7858 47.1555 68.6609 50.9674 69.7449 57.9589L69.9526 57.9318C69.9436 57.8325 69.9346 57.7331 69.9165 57.6247C68.9771 50.2267 64.9394 46.18 60.7119 46.8665Z" fill="#FAA83A"/>
<path opacity="0.5" d="M58.5175 56.1434C55.8438 56.4867 53.3055 56.3512 51.1737 55.8544C50.8485 57.2725 50.7582 58.6907 50.9208 60.0095C50.9389 60.1269 50.9569 60.2444 50.975 60.3528L71.0824 57.7874C71.0733 57.67 71.0643 57.5616 71.0462 57.4442C70.7301 54.9511 70.0978 52.8012 69.2487 51.0308C67.4963 53.4697 63.4405 55.5201 58.5175 56.1434Z" fill="#FAA83F"/>
<path d="M58.2654 59.5493C59.2861 58.2667 60.5417 57.3634 61.9237 57.1285C63.2516 56.9027 64.5704 57.4266 65.7266 58.5919L66.0879 58.5467C64.8414 57.0472 63.36 56.3607 61.8605 56.6136C60.2797 56.8846 58.8615 58.0228 57.7686 59.6126L58.2654 59.5493Z" fill="#FAA83A"/>
<path d="M56.865 59.7298C58.0212 57.5167 59.7284 55.8185 61.7066 55.4843C63.5223 55.1772 65.3108 56.2521 66.6928 58.4742L66.9096 58.4471C65.5005 55.8998 63.5855 54.6442 61.6434 54.9694C59.5116 55.3308 57.6779 57.2909 56.5308 59.775L56.865 59.7298Z" fill="#FAA83A"/>
<path d="M41.156 46.207C40.7585 45.114 40.7947 44.4094 40.9211 43.9307L40.894 43.9397C40.7676 44.6262 40.3611 45.3037 40.7585 46.3876C41.3457 48.0045 42.6374 47.598 42.9535 48.5465C43.36 49.766 42.1767 49.8292 42.529 51.4099C42.8361 52.792 43.8026 52.6204 44.1549 53.7224C44.3988 54.4992 43.9743 55.4386 44.0917 55.7277C43.9923 55.4025 44.6788 54.0295 44.4259 53.2527C44.0736 52.1597 43.2336 52.6113 42.9265 51.2293C42.5742 49.6485 43.7575 49.5853 43.351 48.3658C43.0348 47.4174 41.7431 47.8239 41.156 46.207Z" fill="#99A1B9"/>
<path d="M46.9812 58.221C47.5412 59.9914 48.8871 58.781 49.3297 60.1721C49.4562 60.5695 49.393 60.9128 49.3026 61.2741L49.3388 61.256C49.4472 60.5244 49.8085 60.2082 49.7362 59.9824C49.2936 58.5913 47.9477 59.8017 47.3876 58.0313C46.945 56.6312 48.2006 55.9356 47.9929 55.2762C47.7399 54.4813 46.8005 54.6349 46.2314 53.4696C45.8249 52.6205 46.4934 51.6901 46.5205 50.8862C46.5566 50.001 45.563 49.468 45.563 49.468C45.563 49.468 46.1501 50.1816 46.123 51.0668C46.0959 51.8708 45.4185 52.8012 45.834 53.6503C46.4031 54.8155 47.3425 54.662 47.5954 55.4569C47.8032 56.1253 46.5385 56.8118 46.9812 58.221Z" fill="#404463"/>
<path d="M60.5139 55.3844C59.1228 59.1963 55.6 60.8855 52.2578 59.657C49.2137 58.546 47.4342 54.8786 48.8343 51.0667C50.2254 47.2548 54.4799 44.1745 57.515 45.2856C60.5591 46.3967 61.914 51.5725 60.5139 55.3844Z" fill="#FFF3EC"/>
<path d="M49.4115 52.051C50.8026 48.2391 55.0571 45.1589 58.0922 46.27C58.9051 46.568 59.5916 47.1461 60.1426 47.923C59.5284 46.6764 58.6341 45.7009 57.514 45.2944C54.4699 44.1833 50.2245 47.2636 48.8334 51.0755C47.9391 53.5324 48.3546 55.9171 49.5741 57.6153C48.8243 56.0255 48.6708 54.0564 49.4115 52.051Z" fill="white"/>
<path d="M58.2012 55.5557C57.4605 57.5791 55.2023 58.6088 53.1518 57.8591C51.1013 57.1094 49.7464 54.7518 50.4871 52.7284C51.2278 50.705 53.9828 49.2417 56.0333 49.9914C58.0748 50.7411 58.9419 53.5323 58.2012 55.5557Z" fill="#F0C23E"/>
<path d="M58.4193 53.3608C58.4013 53.8306 58.32 54.3003 58.1574 54.7248C57.4167 56.7482 55.1584 57.778 53.108 57.0282C51.6356 56.4862 50.5245 55.1223 50.2807 53.6499C50.1632 55.4204 51.4007 57.2179 53.1441 57.8502C55.1946 58.6 57.4528 57.5702 58.1935 55.5468C58.4464 54.8784 58.5187 54.1106 58.4193 53.3608Z" fill="#DAA52E"/>
<path d="M54.8147 50.9309C55.0857 51.4909 54.5076 52.331 53.5139 52.8278C52.5203 53.3156 51.4996 53.2614 51.2196 52.7104C50.9486 52.1503 51.5267 51.3103 52.5203 50.8135C53.5139 50.3257 54.5437 50.3799 54.8147 50.9309Z" fill="#F0E180"/>
<path d="M61.0192 51.157C61.0102 52.25 60.8385 53.343 60.4682 54.3456C59.0771 58.1575 55.5543 59.8467 52.2121 58.6182C50.1255 57.8594 48.635 55.8902 48.355 53.5055C48.2737 56.3509 49.8816 58.7898 52.2572 59.657C55.6085 60.8855 59.1223 59.1963 60.5134 55.3844C61.0011 54.0656 61.1547 52.5752 61.0192 51.157Z" fill="#F1DABC"/>
<path d="M78.7962 48.411C81.0996 51.3105 80.7292 54.8515 78.182 56.8658C75.8695 58.6995 72.175 58.3382 69.8716 55.4386C67.5682 52.539 67.1979 47.7696 69.5103 45.9359C71.8228 44.1022 76.4928 45.5114 78.7962 48.411Z" fill="#FFF3EC"/>
<path d="M70.9104 55.4566C68.607 52.5571 68.2367 47.7877 70.5491 45.954C71.1634 45.4662 71.9492 45.2042 72.8074 45.15C71.5427 45.0326 70.3685 45.2675 69.5103 45.9449C67.1979 47.7786 67.5682 52.548 69.8716 55.4476C71.353 57.3174 73.4126 58.1304 75.3095 57.9859C73.7287 57.8052 72.1208 56.9832 70.9104 55.4566Z" fill="white"/>
<path d="M77.8221 50.2898C79.0415 51.8254 78.7706 54.0746 77.2079 55.3121C75.6452 56.5497 73.1701 56.4774 71.9507 54.9418C70.7312 53.4062 70.9029 50.5608 72.4656 49.3233C74.0192 48.0948 76.6026 48.7542 77.8221 50.2898Z" fill="#F0C23E"/>
<path d="M76.2223 49.0798C76.5836 49.3147 76.8998 49.6037 77.1617 49.9289C78.3812 51.4645 78.1102 53.7137 76.5475 54.9513C75.4274 55.8365 73.8376 56.0533 72.582 55.5384C73.9008 56.4778 75.8881 56.3604 77.2159 55.3126C78.7786 54.0751 79.0496 51.8259 77.8302 50.2903C77.4147 49.7754 76.8456 49.3599 76.2223 49.0798Z" fill="#DAA52E"/>
<path d="M72.6183 50.7232C73.1783 50.7774 73.5667 51.6355 73.4674 52.6381C73.3771 53.6408 72.8441 54.4176 72.2841 54.3634C71.724 54.3092 71.3356 53.4601 71.435 52.4485C71.5253 51.4368 72.0582 50.669 72.6183 50.7232Z" fill="#F0E180"/>
<path d="M75.7418 45.9995C76.5909 46.5234 77.3587 47.1828 77.9639 47.9416C80.2673 50.8412 79.897 54.3821 77.3497 56.3964C75.7689 57.652 73.5288 57.8778 71.5415 56.9655C73.7184 58.3837 76.3741 58.2934 78.1807 56.8571C80.728 54.8337 81.0893 51.3019 78.795 48.4023C78.0001 47.3996 76.9161 46.5776 75.7418 45.9995Z" fill="#F1DABC"/>
<path d="M74.47 60.7869C74.47 60.6966 74.47 60.6153 74.461 60.5249C74.1629 54.238 70.7665 50.5706 66.8191 50.8777C61.8871 51.2571 57.6506 56.8847 57.8584 61.3018C57.8584 61.3921 57.8674 61.4734 57.8765 61.5637L74.47 60.7869Z" fill="#F8D475"/>
<path d="M67.0081 55.538C69.2483 55.3484 71.2536 57.3446 72.0395 60.9036H72.1027C71.3801 57.1098 69.3206 54.9599 66.9991 55.1587C64.2531 55.3845 61.8413 58.3834 61.0825 61.4275L61.209 61.4185C62.0581 58.5099 64.3795 55.7639 67.0081 55.538Z" fill="#FAA83A"/>
<path d="M67.0348 56.7214C64.7765 56.9111 62.7351 58.9706 61.6602 61.4005L61.8679 61.3915C62.979 59.1423 64.912 57.2905 67.0528 57.1189C68.9497 56.9653 70.666 58.3564 71.6325 60.9398L71.75 60.9308C70.8196 58.0944 69.022 56.5498 67.0348 56.7214Z" fill="#FAA83A"/>
<path d="M66.8726 54.2646C69.6819 54.0478 72.1208 56.5409 72.5995 60.8858L72.7621 60.8767C72.4008 56.279 69.8354 53.6233 66.8726 53.8581C63.2143 54.1381 60.0527 58.1397 59.9263 61.4819L60.116 61.4729C60.4682 58.212 63.4491 54.5266 66.8726 54.2646Z" fill="#FAA83A"/>
<path d="M66.7562 52.0514C62.3752 52.3946 58.6175 57.3808 58.8072 61.3011C58.8072 61.3824 58.8162 61.4547 58.8252 61.536H58.8704C58.9878 57.697 62.5649 53.0902 66.711 52.774C70.0622 52.5121 72.9618 55.5742 73.3683 60.8585L73.5399 60.8495C73.5399 60.7772 73.5399 60.6959 73.5309 60.6237C73.2689 55.0232 70.261 51.7714 66.7562 52.0514Z" fill="#FAA83A"/>
<path opacity="0.5" d="M64.3343 58.8537C62.1303 58.953 60.0617 58.7182 58.3635 58.2214C58.0022 59.2602 57.8306 60.317 57.8757 61.3106C57.8757 61.401 57.8848 61.4823 57.8938 61.5726L74.4783 60.7958C74.4783 60.7054 74.4783 60.6241 74.4693 60.5338C74.3789 58.6549 74.0176 57.0109 73.4395 55.6379C71.8407 57.3632 68.3901 58.664 64.3343 58.8537Z" fill="#FAA83F"/>
<path d="M63.8838 61.3829C64.8051 60.4886 65.8891 59.8834 67.0363 59.784C68.1383 59.6937 69.1771 60.1544 70.0443 61.0938L70.3423 61.0757C69.43 59.8834 68.2648 59.2872 67.0272 59.3956C65.7175 59.504 64.489 60.2808 63.4863 61.4009L63.8838 61.3829Z" fill="#FAA83A"/>
<path d="M62.7275 61.4369C63.8205 59.8471 65.3381 58.6818 66.964 58.5373C68.4635 58.4108 69.8545 59.3141 70.8301 61.0485L71.0107 61.0394C70.0352 59.0612 68.5538 58.0134 66.9459 58.1489C65.1755 58.2934 63.5495 59.6574 62.4385 61.4459L62.7275 61.4369Z" fill="#FAA83A"/>
<path d="M59.6558 62.2227C59.6467 64.0113 57.0904 64.6526 47.7142 64.3455C43.8301 64.219 38.049 63.5054 35.9172 63.4061C31.3917 63.1983 27.8508 60.2897 28.0043 56.9204C28.1579 53.5511 32.3311 47.8965 36.8205 48.5017C44.7424 49.5676 42.8184 56.9023 46.7748 58.3837C50.5144 59.7929 59.719 54.0479 59.6558 62.2227Z" fill="#FCAB3E"/>
<path d="M29.1867 57.6883C28.9428 54.6713 32.267 50.4981 36.4492 50.6968C42.5374 50.9768 42.1219 57.9503 46.4306 59.1697C49.818 60.1272 59.6459 56.1708 58.589 63.6501C60.7117 55.7824 51.5433 59.6033 46.9365 58.9168C42.4019 58.2484 43.2962 50.2542 36.3499 49.929C32.1315 49.7303 28.6809 54.3732 28.9248 57.3812C29.0061 58.4381 29.4668 59.4407 30.2165 60.2989C29.6203 59.522 29.259 58.6278 29.1867 57.6883Z" fill="#FCD676"/>
<path d="M45.8889 59.5579C42.4022 58.5914 42.6009 52.6658 37.0457 52.1419C33.0892 51.7715 29.9006 54.3278 30.0542 57.7965C30.0722 58.2752 30.5148 59.7115 30.822 60.1451C30.6594 59.8199 30.298 58.5101 30.28 58.1578C30.1354 54.6892 33.0441 52.72 36.9553 52.8464C41.9234 53.009 42.1402 58.8895 45.5818 59.856C48.8156 60.7593 57.704 57.6881 58.0834 63.7673C58.1376 63.686 58.2912 63.5234 58.3002 63.424C58.6796 57.0468 49.195 60.4703 45.8889 59.5579Z" fill="#FCD676"/>
<path d="M45.4552 60.4343C42.4744 59.6394 41.4898 54.5177 36.9372 53.9305C30.1805 53.0634 31.1832 60.2175 31.1922 60.3891C30.9212 55.5384 34.0647 54.1835 36.8468 54.5448C41.3452 55.1319 42.3389 59.9104 45.2836 60.7053C48.0748 61.455 56.909 59.4768 56.918 63.5597C56.918 63.641 57.0716 63.6319 57.0084 63.7042C57.2432 63.5416 57.0445 63.7403 57.0806 63.5687C58.0833 58.9348 48.2735 61.193 45.4552 60.4343Z" fill="#FCD676"/>
<path d="M44.7694 61.4732C41.9873 60.7415 41.0478 56.1438 36.7933 55.5747C33.6408 55.1501 31.6084 58.0678 31.5723 60.5067C31.7529 58.2213 34.1105 55.8005 36.712 56.1347C40.9214 56.6677 41.8608 61.0035 44.6068 61.7261C47.2083 62.4126 55.6451 60.7235 55.4915 64.3276C55.4915 64.3999 55.6541 64.2192 55.5999 64.2824C55.8167 64.1379 55.4554 64.4812 55.4915 64.3276C56.5664 60.3079 47.407 62.1597 44.7694 61.4732Z" fill="#FCD676"/>
<path d="M43.6764 62.5481C41.2195 61.8706 40.4155 57.4806 36.6578 57.047C33.8757 56.7309 32.0872 59.0343 32.042 61.3196C32.2136 59.1879 34.2912 57.2729 36.5765 57.571C40.2891 58.0587 41.102 62.1055 43.5319 62.7739C45.8263 63.4062 53.2785 61.7081 53.0707 64.0205C53.0346 64.3999 53.0526 64.436 53.0075 64.4992C53.1972 64.3637 53.1159 64.3908 53.1791 64.2553C54.4798 61.1028 45.9979 63.1895 43.6764 62.5481Z" fill="#FCD676"/>
<path d="M42.6293 63.5139C40.3892 62.9267 39.7207 59.0877 36.2882 58.6542C34.0932 58.3741 32.1692 59.9097 32.1421 61.8699C32.2866 60.0362 34.039 58.9522 36.1347 59.2142C39.531 59.6478 40.2808 63.1255 42.5029 63.7126C44.6076 64.2636 51.9604 62.9358 51.2197 64.8056C51.2016 64.8598 51.1655 64.914 51.1203 64.9682C51.2919 64.8508 51.4003 64.7333 51.4455 64.6159C52.1952 62.7461 44.7521 64.0739 42.6293 63.5139Z" fill="#FCD676"/>
<path opacity="0.4" d="M35.9259 63.4058C38.0577 63.5052 43.8388 64.2097 47.723 64.3452C57.0992 64.6523 59.5742 64.011 59.6645 62.2225C59.7368 60.6236 59.3935 59.5849 58.7703 58.9254C53.1427 61.3282 47.1087 62.1954 41.0476 61.1747C36.3324 60.3798 32.0056 58.519 28.1847 55.8C28.0944 56.1885 28.0402 56.5678 28.0221 56.9201C27.8505 60.2894 31.3914 63.198 35.9259 63.4058Z" fill="#C26420"/>
<path d="M53.5584 61.7806C42.2852 61.7896 32.1774 60.0914 28.0854 56.406C28.0132 56.9028 27.8506 58.1764 27.8506 58.7184C27.8506 71.9788 34.7518 82.7551 54.1636 82.728C71.8411 82.7009 80.4766 71.9788 80.4766 58.7184C80.4766 56.7944 80.052 55.5027 79.772 54.8704C77.9564 57.2099 65.0302 61.7715 53.5584 61.7806Z" fill="#603F52"/>
<path d="M53.3957 64.409C42.502 64.4271 32.6561 62.9818 27.8596 59.8383C27.8415 60.1906 27.9047 61.1481 27.977 61.8346C32.638 65.0594 42.5562 66.5679 53.4048 66.5588C64.8947 66.5498 78.0828 62.0785 80.4585 59.6848C80.4946 58.9441 80.4855 58.4834 80.4404 57.8149C77.4143 60.2358 64.6688 64.4 53.3957 64.409Z" fill="#B58577"/>
<path d="M28.7534 66.4684C33.7848 69.1512 42.8719 70.4068 52.7991 70.3977C62.4734 70.3887 75.4086 66.5316 79.9522 64.1289C80.0244 63.7585 80.0515 63.6592 80.1148 63.2256C75.2912 65.6013 62.4734 69.4854 52.7811 69.4945C42.7997 69.5035 33.7757 68.3111 28.5728 65.7277C28.6541 66.071 28.6631 66.1071 28.7534 66.4684Z" fill="#9F7664"/>
</svg>
