<svg width="517" height="316" viewBox="0 0 517 316" fill="none" xmlns="http://www.w3.org/2000/svg">
<rect x="0.462891" width="515.596" height="315.191" rx="48.5056" fill="#FED1D1"/>
<path d="M375.153 210.406L305.179 197.203L292.93 136.198L393.629 138.102L375.153 210.406Z" stroke="#8F3549" stroke-width="1.7965" stroke-miterlimit="10"/>
<path d="M368.944 201.28L306.377 189.05L296.218 128.313L386.51 128.851L368.944 201.28Z" fill="#EC9091"/>
<path d="M153.502 235.98C154.514 235.742 155.142 234.728 154.904 233.716C154.666 232.703 153.652 232.075 152.64 232.313C151.628 232.551 151 233.565 151.238 234.578C151.476 235.59 152.49 236.218 153.502 235.98Z" fill="#531F41"/>
<path d="M346.476 100.811C348.167 100.811 349.538 99.4402 349.538 97.7487C349.538 96.0572 348.167 94.686 346.476 94.686C344.785 94.686 343.414 96.0572 343.414 97.7487C343.414 99.4402 344.785 100.811 346.476 100.811Z" fill="#531F41"/>
<path d="M247.888 74.9315C249.579 74.9315 250.95 73.5603 250.95 71.8688C250.95 70.1774 249.579 68.8062 247.888 68.8062C246.197 68.8062 244.826 70.1774 244.826 71.8688C244.826 73.5603 246.197 74.9315 247.888 74.9315Z" fill="#531F41"/>
<path d="M349.372 70.1629C349.372 69.5835 348.896 69.1075 348.317 69.1075C347.738 69.1075 347.262 69.5835 347.262 70.1629C347.262 70.7424 347.738 71.2183 348.317 71.2183C348.896 71.239 349.372 70.7631 349.372 70.1629Z" fill="#531F41"/>
<path d="M317.442 282.933C317.442 282.167 316.821 281.546 316.056 281.546C315.29 281.546 314.669 282.167 314.669 282.933C314.669 283.699 315.29 284.319 316.056 284.319C316.801 284.34 317.442 283.699 317.442 282.933Z" fill="#531F41"/>
<path d="M315.89 289.348C315.89 288.768 315.414 288.292 314.835 288.292C314.256 288.292 313.78 288.768 313.78 289.348C313.78 289.927 314.256 290.403 314.835 290.403C315.414 290.403 315.89 289.927 315.89 289.348Z" fill="#531F41"/>
<path d="M262.702 66.2813C262.702 65.7019 262.226 65.226 261.647 65.226C261.067 65.226 260.591 65.7019 260.591 66.2813C260.591 66.8608 261.067 67.3367 261.647 67.3367C262.226 67.3367 262.702 66.8608 262.702 66.2813Z" fill="#531F41"/>
<path d="M342.522 81.6696C342.522 81.3592 342.274 81.0902 341.943 81.0902C341.633 81.0902 341.364 81.3385 341.364 81.6696C341.364 81.98 341.612 82.2491 341.943 82.2491C342.253 82.2491 342.522 81.98 342.522 81.6696Z" fill="#531F41"/>
<path d="M258.11 83.1256C258.11 82.8152 257.862 82.5461 257.53 82.5461C257.22 82.5461 256.951 82.7945 256.951 83.1256C256.951 83.436 257.199 83.705 257.53 83.705C257.841 83.705 258.11 83.4567 258.11 83.1256Z" fill="#531F41"/>
<path d="M155.546 93.9771C155.546 93.6667 155.298 93.3977 154.967 93.3977C154.656 93.3977 154.387 93.646 154.387 93.9771C154.387 94.2875 154.635 94.5566 154.967 94.5566C155.298 94.5566 155.546 94.2875 155.546 93.9771Z" fill="#531F41"/>
<path d="M332.691 89.1128C333.718 88.9462 334.415 87.9789 334.248 86.9523C334.082 85.9257 333.114 85.2285 332.088 85.3951C331.062 85.5617 330.365 86.529 330.531 87.5556C330.698 88.5822 331.665 89.2794 332.691 89.1128Z" fill="#531F41"/>
<path d="M146.671 92.3768C147.683 92.1387 148.311 91.125 148.073 90.1125C147.835 89.1 146.821 88.4722 145.809 88.7103C144.797 88.9484 144.169 89.9621 144.407 90.9746C144.645 91.9871 145.659 92.6148 146.671 92.3768Z" fill="#531F41"/>
<path d="M157.593 224.974C157.593 224.56 157.262 224.229 156.848 224.229C156.435 224.229 156.104 224.56 156.104 224.974C156.104 225.388 156.435 225.719 156.848 225.719C157.262 225.719 157.593 225.388 157.593 224.974Z" fill="#531F41"/>
<path d="M145.531 231.844C145.531 228.72 142.986 226.174 139.861 226.174C136.737 226.174 134.192 228.72 134.192 231.844C134.192 234.969 136.737 237.515 139.861 237.515C142.986 237.515 145.531 234.99 145.531 231.844Z" stroke="#531F41" stroke-width="1.7965" stroke-miterlimit="10"/>
<path d="M332.385 102.156C332.385 96.962 328.185 92.7611 322.991 92.7611C317.798 92.7611 313.598 96.962 313.598 102.156C313.598 107.35 317.798 111.551 322.991 111.551C328.185 111.551 332.385 107.35 332.385 102.156Z" stroke="#531F41" stroke-width="1.7965" stroke-miterlimit="10"/>
<path d="M262.702 54.7752C262.702 51.5056 260.054 48.8361 256.764 48.8361C253.495 48.8361 250.826 51.4849 250.826 54.7752C250.826 58.0448 253.475 60.7143 256.764 60.7143C260.033 60.7143 262.702 58.0655 262.702 54.7752Z" stroke="#531F41" stroke-width="1.7965" stroke-miterlimit="10"/>
<path d="M306.623 279.973C306.623 276.704 303.974 274.034 300.685 274.034C297.416 274.034 294.747 276.683 294.747 279.973C294.747 283.243 297.395 285.912 300.685 285.912C303.974 285.912 306.623 283.264 306.623 279.973Z" stroke="#531F41" stroke-width="1.7965" stroke-miterlimit="10"/>
<path d="M253.556 222.015C298.121 222.015 334.248 216.243 334.248 209.123C334.248 202.003 298.121 196.231 253.556 196.231C208.991 196.231 172.864 202.003 172.864 209.123C172.864 216.243 208.991 222.015 253.556 222.015Z" fill="#D86A6E"/>
<path d="M224.628 287.685C224.628 284.974 210.849 282.76 193.862 282.76C176.875 282.76 163.096 284.954 163.096 287.685C163.096 290.396 176.875 292.611 193.862 292.611C210.849 292.611 224.628 290.396 224.628 287.685Z" fill="#D86A6E"/>
<path d="M262.927 226.092C307.938 226.092 344.426 220.255 344.426 213.055C344.426 205.855 307.938 200.018 262.927 200.018C217.917 200.018 181.429 205.855 181.429 213.055C181.429 220.255 217.917 226.092 262.927 226.092Z" stroke="#863952" stroke-width="1.7965" stroke-miterlimit="10"/>
<path d="M221.113 197.659C221.361 198.735 220.699 199.79 219.644 200.059C218.568 200.308 217.513 199.645 217.244 198.59C216.996 197.514 217.658 196.458 218.713 196.189C219.789 195.92 220.844 196.583 221.113 197.659Z" fill="#993147"/>
<path d="M212.135 192.258C212.383 193.334 211.721 194.39 210.666 194.659C209.59 194.907 208.535 194.245 208.266 193.19C208.018 192.114 208.68 191.058 209.735 190.789C210.811 190.541 211.887 191.203 212.135 192.258Z" fill="#993147"/>
<path d="M226.68 188.637C226.928 189.713 226.266 190.768 225.211 191.037C224.135 191.286 223.08 190.623 222.811 189.568C222.563 188.492 223.225 187.437 224.28 187.168C225.356 186.919 226.432 187.581 226.68 188.637Z" fill="#993147"/>
<path d="M217.659 183.07C217.907 184.146 217.245 185.201 216.19 185.47C215.114 185.719 214.059 185.056 213.79 184.001C213.542 182.925 214.204 181.869 215.259 181.6C216.335 181.331 217.411 181.994 217.659 183.07Z" fill="#993147"/>
<path d="M208.701 177.668C208.949 178.745 208.287 179.8 207.232 180.069C206.156 180.317 205.1 179.655 204.831 178.6C204.583 177.524 205.245 176.468 206.3 176.199C207.376 175.951 208.452 176.613 208.701 177.668Z" fill="#993147"/>
<path d="M223.245 174.046C223.494 175.123 222.832 176.178 221.776 176.447C220.701 176.695 219.645 176.033 219.376 174.978C219.128 173.902 219.79 172.846 220.845 172.577C221.921 172.308 222.997 172.97 223.245 174.046Z" fill="#993147"/>
<path d="M215.528 206.661C215.776 207.737 215.114 208.793 214.059 209.062C212.983 209.31 211.928 208.648 211.659 207.572C211.41 206.496 212.072 205.44 213.128 205.171C214.204 204.944 215.279 205.606 215.528 206.661Z" fill="#993147"/>
<path d="M230.115 203.225C230.363 204.301 229.701 205.356 228.646 205.625C227.57 205.874 226.515 205.212 226.246 204.156C225.997 203.08 226.659 202.025 227.715 201.756C228.79 201.507 229.866 202.17 230.115 203.225Z" fill="#993147"/>
<path d="M235.7 194.224C235.948 195.3 235.286 196.356 234.231 196.625C233.155 196.873 232.1 196.211 231.831 195.155C231.583 194.079 232.245 193.024 233.3 192.755C234.376 192.486 235.431 193.148 235.7 194.224Z" fill="#993147"/>
<path d="M241.267 185.201C241.516 186.277 240.854 187.332 239.798 187.601C238.723 187.85 237.667 187.188 237.398 186.111C237.15 185.035 237.812 183.98 238.867 183.711C239.943 183.463 241.019 184.125 241.267 185.201Z" fill="#993147"/>
<path d="M232.245 179.634C232.494 180.71 231.832 181.766 230.776 182.035C229.701 182.283 228.645 181.621 228.376 180.566C228.128 179.489 228.79 178.434 229.845 178.165C230.942 177.896 231.997 178.558 232.245 179.634Z" fill="#993147"/>
<path d="M237.831 170.612C238.079 171.688 237.417 172.743 236.362 173.012C235.286 173.261 234.231 172.598 233.962 171.543C233.714 170.467 234.376 169.412 235.431 169.143C236.507 168.874 237.583 169.536 237.831 170.612Z" fill="#993147"/>
<path d="M244.701 199.79C244.95 200.866 244.288 201.922 243.233 202.191C242.157 202.439 241.101 201.777 240.832 200.721C240.584 199.645 241.246 198.59 242.301 198.321C243.377 198.052 244.453 198.714 244.701 199.79Z" fill="#993147"/>
<path d="M224.549 212.248C224.797 213.324 224.135 214.38 223.08 214.649C222.004 214.897 220.949 214.235 220.68 213.179C220.432 212.103 221.094 211.048 222.149 210.779C223.225 210.51 224.301 211.172 224.549 212.248Z" fill="#993147"/>
<path d="M218.963 221.25C219.211 222.326 218.549 223.382 217.494 223.651C216.418 223.899 215.363 223.237 215.094 222.182C214.845 221.105 215.507 220.05 216.563 219.781C217.639 219.533 218.714 220.195 218.963 221.25Z" fill="#993147"/>
<path d="M233.549 217.814C233.797 218.891 233.135 219.946 232.08 220.215C231.004 220.463 229.949 219.801 229.68 218.746C229.432 217.67 230.094 216.614 231.149 216.345C232.225 216.097 233.301 216.759 233.549 217.814Z" fill="#993147"/>
<path d="M239.136 208.813C239.384 209.889 238.722 210.945 237.667 211.214C236.591 211.462 235.536 210.8 235.267 209.744C235.018 208.668 235.68 207.613 236.736 207.344C237.811 207.075 238.887 207.737 239.136 208.813Z" fill="#993147"/>
<path d="M191.921 204.529C192.17 205.605 191.507 206.661 190.452 206.93C189.376 207.178 188.321 206.516 188.052 205.461C187.804 204.385 188.466 203.329 189.521 203.06C190.618 202.791 191.673 203.474 191.921 204.529Z" fill="#993147"/>
<path d="M182.961 199.149C183.209 200.226 182.547 201.281 181.492 201.55C180.416 201.798 179.361 201.136 179.092 200.081C178.843 199.005 179.506 197.949 180.561 197.68C181.637 197.411 182.713 198.073 182.961 199.149Z" fill="#993147"/>
<path d="M197.507 195.528C197.755 196.604 197.093 197.659 196.038 197.929C194.962 198.177 193.907 197.515 193.638 196.459C193.389 195.383 194.051 194.328 195.107 194.059C196.183 193.79 197.258 194.452 197.507 195.528Z" fill="#993147"/>
<path d="M188.485 189.939C188.733 191.015 188.071 192.071 187.016 192.34C185.94 192.588 184.885 191.926 184.616 190.87C184.367 189.794 185.029 188.739 186.085 188.47C187.161 188.201 188.236 188.863 188.485 189.939Z" fill="#993147"/>
<path d="M179.526 184.56C179.775 185.636 179.112 186.691 178.057 186.96C176.981 187.208 175.926 186.546 175.657 185.491C175.409 184.415 176.071 183.359 177.126 183.09C178.202 182.821 179.278 183.484 179.526 184.56Z" fill="#993147"/>
<path d="M194.071 180.917C194.319 181.994 193.657 183.049 192.602 183.318C191.526 183.566 190.471 182.904 190.202 181.849C189.954 180.773 190.616 179.717 191.671 179.448C192.747 179.2 193.823 179.862 194.071 180.917Z" fill="#993147"/>
<path d="M186.354 213.551C186.602 214.628 185.94 215.683 184.885 215.952C183.809 216.2 182.754 215.538 182.485 214.483C182.237 213.407 182.899 212.351 183.954 212.082C185.03 211.813 186.106 212.475 186.354 213.551Z" fill="#993147"/>
<path d="M200.942 210.116C201.191 211.193 200.528 212.248 199.473 212.517C198.397 212.765 197.342 212.103 197.073 211.048C196.825 209.972 197.487 208.916 198.542 208.647C199.618 208.378 200.694 209.04 200.942 210.116Z" fill="#993147"/>
<path d="M206.528 201.095C206.776 202.171 206.114 203.226 205.059 203.495C203.983 203.743 202.928 203.081 202.659 202.026C202.41 200.95 203.072 199.894 204.128 199.625C205.204 199.356 206.259 200.019 206.528 201.095Z" fill="#993147"/>
<path d="M203.073 186.505C203.321 187.581 202.659 188.636 201.604 188.905C200.528 189.153 199.473 188.491 199.204 187.436C198.956 186.36 199.618 185.304 200.673 185.035C201.749 184.766 202.825 185.429 203.073 186.505Z" fill="#993147"/>
<path d="M195.375 219.119C195.623 220.195 194.961 221.25 193.906 221.519C192.83 221.767 191.775 221.105 191.506 220.05C191.258 218.974 191.92 217.918 192.975 217.649C194.051 217.401 195.106 218.063 195.375 219.119Z" fill="#993147"/>
<path d="M189.79 228.141C190.039 229.217 189.377 230.272 188.321 230.541C187.245 230.79 186.19 230.128 185.921 229.072C185.673 227.996 186.335 226.941 187.39 226.672C188.466 226.403 189.542 227.065 189.79 228.141Z" fill="#993147"/>
<path d="M204.375 224.706C204.623 225.782 203.961 226.838 202.906 227.107C201.83 227.355 200.775 226.693 200.506 225.638C200.258 224.561 200.92 223.506 201.975 223.237C203.051 222.968 204.127 223.63 204.375 224.706Z" fill="#993147"/>
<path d="M209.962 215.683C210.211 216.759 209.548 217.815 208.493 218.084C207.417 218.332 206.362 217.67 206.093 216.614C205.845 215.538 206.507 214.483 207.562 214.214C208.638 213.945 209.714 214.607 209.962 215.683Z" fill="#993147"/>
<path d="M210.789 153.891C211.037 154.967 210.375 156.023 209.32 156.292C208.244 156.54 207.189 155.878 206.92 154.823C206.672 153.746 207.334 152.691 208.389 152.422C209.465 152.153 210.541 152.815 210.789 153.891Z" fill="#993147"/>
<path d="M201.83 148.49C202.078 149.566 201.416 150.621 200.361 150.891C199.285 151.139 198.23 150.477 197.961 149.421C197.713 148.345 198.375 147.29 199.43 147.021C200.506 146.752 201.561 147.414 201.83 148.49Z" fill="#993147"/>
<path d="M216.376 144.868C216.625 145.945 215.963 147 214.907 147.269C213.831 147.517 212.776 146.855 212.507 145.8C212.259 144.724 212.921 143.668 213.976 143.399C215.052 143.13 216.107 143.792 216.376 144.868Z" fill="#993147"/>
<path d="M207.354 139.302C207.603 140.378 206.941 141.433 205.885 141.702C204.809 141.951 203.754 141.288 203.485 140.233C203.237 139.157 203.899 138.102 204.954 137.833C206.03 137.564 207.106 138.226 207.354 139.302Z" fill="#993147"/>
<path d="M198.375 133.901C198.623 134.977 197.961 136.033 196.906 136.302C195.83 136.55 194.775 135.888 194.506 134.833C194.258 133.757 194.92 132.701 195.975 132.432C197.051 132.163 198.127 132.825 198.375 133.901Z" fill="#993147"/>
<path d="M212.92 130.279C213.168 131.356 212.506 132.411 211.451 132.68C210.375 132.928 209.32 132.266 209.051 131.211C208.802 130.135 209.465 129.079 210.52 128.81C211.596 128.541 212.671 129.203 212.92 130.279Z" fill="#993147"/>
<path d="M205.224 162.894C205.472 163.97 204.81 165.025 203.755 165.294C202.679 165.542 201.624 164.88 201.355 163.825C201.107 162.749 201.769 161.693 202.824 161.424C203.9 161.176 204.955 161.838 205.224 162.894Z" fill="#993147"/>
<path d="M219.812 159.458C220.06 160.534 219.398 161.589 218.343 161.858C217.267 162.107 216.212 161.445 215.943 160.389C215.695 159.313 216.357 158.258 217.412 157.989C218.488 157.72 219.564 158.382 219.812 159.458Z" fill="#993147"/>
<path d="M225.377 150.435C225.626 151.511 224.964 152.567 223.908 152.836C222.832 153.084 221.777 152.422 221.508 151.366C221.26 150.29 221.922 149.235 222.977 148.966C224.053 148.718 225.129 149.38 225.377 150.435Z" fill="#993147"/>
<path d="M230.964 141.434C231.212 142.51 230.55 143.565 229.495 143.834C228.419 144.082 227.364 143.42 227.095 142.365C226.846 141.289 227.508 140.233 228.564 139.964C229.64 139.695 230.695 140.357 230.964 141.434Z" fill="#993147"/>
<path d="M221.943 135.847C222.191 136.923 221.529 137.978 220.474 138.247C219.398 138.495 218.343 137.833 218.074 136.778C217.825 135.702 218.487 134.646 219.543 134.377C220.619 134.129 221.694 134.791 221.943 135.847Z" fill="#993147"/>
<path d="M227.507 126.845C227.755 127.921 227.093 128.976 226.038 129.245C224.962 129.494 223.907 128.831 223.638 127.776C223.39 126.7 224.052 125.645 225.107 125.376C226.183 125.107 227.259 125.769 227.507 126.845Z" fill="#993147"/>
<path d="M234.398 156.023C234.647 157.099 233.985 158.154 232.929 158.423C231.853 158.671 230.798 158.009 230.529 156.954C230.281 155.878 230.943 154.822 231.998 154.553C233.074 154.284 234.15 154.946 234.398 156.023Z" fill="#993147"/>
<path d="M214.224 168.48C214.473 169.556 213.811 170.612 212.755 170.881C211.68 171.129 210.624 170.467 210.355 169.391C210.107 168.315 210.769 167.259 211.824 166.99C212.9 166.742 213.976 167.404 214.224 168.48Z" fill="#993147"/>
<path d="M228.811 165.046C229.059 166.122 228.397 167.178 227.342 167.447C226.266 167.695 225.211 167.033 224.942 165.957C224.694 164.881 225.356 163.825 226.411 163.556C227.487 163.308 228.563 163.97 228.811 165.046Z" fill="#993147"/>
<path d="M181.616 160.762C181.864 161.838 181.202 162.893 180.147 163.162C179.071 163.411 178.015 162.748 177.747 161.693C177.498 160.617 178.16 159.562 179.216 159.292C180.291 159.023 181.367 159.686 181.616 160.762Z" fill="#993147"/>
<path d="M172.637 155.361C172.885 156.437 172.223 157.492 171.168 157.761C170.092 158.01 169.037 157.348 168.768 156.292C168.52 155.216 169.182 154.161 170.237 153.892C171.334 153.643 172.389 154.306 172.637 155.361Z" fill="#993147"/>
<path d="M187.183 151.74C187.431 152.816 186.769 153.871 185.714 154.14C184.638 154.389 183.583 153.726 183.314 152.671C183.066 151.595 183.728 150.54 184.783 150.271C185.859 150.022 186.935 150.684 187.183 151.74Z" fill="#993147"/>
<path d="M178.182 146.173C178.43 147.249 177.768 148.304 176.713 148.573C175.637 148.822 174.582 148.159 174.313 147.104C174.065 146.028 174.727 144.973 175.782 144.704C176.858 144.434 177.934 145.097 178.182 146.173Z" fill="#993147"/>
<path d="M169.202 140.771C169.451 141.847 168.789 142.903 167.733 143.172C166.658 143.42 165.602 142.758 165.333 141.702C165.085 140.626 165.747 139.571 166.802 139.302C167.878 139.053 168.954 139.716 169.202 140.771Z" fill="#993147"/>
<path d="M183.748 137.15C183.997 138.226 183.335 139.281 182.279 139.55C181.204 139.799 180.148 139.137 179.879 138.081C179.631 137.005 180.293 135.95 181.348 135.681C182.424 135.432 183.5 136.095 183.748 137.15Z" fill="#993147"/>
<path d="M176.031 169.784C176.279 170.861 175.617 171.916 174.562 172.185C173.486 172.433 172.431 171.771 172.162 170.716C171.914 169.64 172.576 168.584 173.631 168.315C174.728 168.046 175.783 168.708 176.031 169.784Z" fill="#993147"/>
<path d="M190.637 166.328C190.885 167.405 190.223 168.46 189.168 168.729C188.092 168.977 187.036 168.315 186.768 167.26C186.519 166.184 187.181 165.128 188.237 164.859C189.312 164.611 190.368 165.273 190.637 166.328Z" fill="#993147"/>
<path d="M196.203 157.326C196.451 158.402 195.789 159.458 194.734 159.727C193.658 159.975 192.603 159.313 192.334 158.257C192.086 157.181 192.748 156.126 193.803 155.857C194.879 155.588 195.955 156.25 196.203 157.326Z" fill="#993147"/>
<path d="M192.769 142.738C193.018 143.814 192.356 144.869 191.3 145.138C190.224 145.387 189.169 144.724 188.9 143.669C188.652 142.593 189.314 141.537 190.369 141.268C191.445 140.999 192.521 141.662 192.769 142.738Z" fill="#993147"/>
<path d="M185.052 175.351C185.3 176.427 184.638 177.483 183.583 177.752C182.507 178 181.452 177.338 181.183 176.262C180.935 175.186 181.597 174.13 182.652 173.861C183.728 173.613 184.804 174.275 185.052 175.351Z" fill="#993147"/>
<path d="M199.639 171.916C199.887 172.992 199.225 174.047 198.17 174.316C197.094 174.565 196.038 173.902 195.769 172.826C195.521 171.75 196.183 170.695 197.238 170.426C198.314 170.177 199.39 170.84 199.639 171.916Z" fill="#993147"/>
<path d="M248.136 214.379C248.384 215.455 247.722 216.511 246.667 216.78C245.591 217.028 244.536 216.366 244.267 215.31C244.019 214.234 244.681 213.179 245.736 212.91C246.833 212.662 247.888 213.303 248.136 214.379Z" fill="#993147"/>
<path d="M264.875 187.332C265.124 188.408 264.462 189.464 263.406 189.733C262.33 189.981 261.275 189.319 261.006 188.263C260.758 187.187 261.42 186.132 262.475 185.863C263.551 185.615 264.627 186.277 264.875 187.332Z" fill="#993147"/>
<path d="M255.895 181.952C256.143 183.029 255.481 184.084 254.426 184.353C253.35 184.601 252.295 183.939 252.026 182.884C251.778 181.808 252.44 180.752 253.495 180.483C254.571 180.214 255.647 180.876 255.895 181.952Z" fill="#993147"/>
<path d="M270.44 178.331C270.688 179.407 270.026 180.462 268.971 180.731C267.895 180.98 266.84 180.317 266.571 179.262C266.322 178.186 266.985 177.131 268.04 176.862C269.116 176.593 270.192 177.255 270.44 178.331Z" fill="#993147"/>
<path d="M261.438 172.744C261.687 173.82 261.025 174.875 259.949 175.144C258.873 175.392 257.818 174.73 257.549 173.675C257.3 172.599 257.963 171.543 259.018 171.274C260.114 171.026 261.17 171.688 261.438 172.744Z" fill="#993147"/>
<path d="M252.459 167.363C252.708 168.44 252.046 169.495 250.99 169.764C249.914 170.012 248.859 169.35 248.59 168.295C248.342 167.219 249.004 166.163 250.059 165.894C251.135 165.625 252.211 166.287 252.459 167.363Z" fill="#993147"/>
<path d="M267.005 163.742C267.254 164.818 266.591 165.873 265.536 166.142C264.46 166.391 263.405 165.728 263.136 164.673C262.888 163.597 263.55 162.542 264.605 162.273C265.681 162.004 266.757 162.666 267.005 163.742Z" fill="#993147"/>
<path d="M259.288 196.355C259.536 197.431 258.874 198.487 257.819 198.756C256.743 199.004 255.688 198.342 255.419 197.287C255.171 196.211 255.833 195.155 256.888 194.886C257.964 194.617 259.04 195.279 259.288 196.355Z" fill="#993147"/>
<path d="M273.873 192.92C274.122 193.996 273.46 195.051 272.404 195.32C271.328 195.569 270.273 194.906 270.004 193.851C269.756 192.775 270.418 191.72 271.473 191.451C272.549 191.182 273.625 191.844 273.873 192.92Z" fill="#993147"/>
<path d="M279.461 183.898C279.709 184.974 279.047 186.029 277.992 186.298C276.916 186.546 275.861 185.884 275.592 184.829C275.343 183.753 276.006 182.697 277.061 182.428C278.137 182.159 279.213 182.821 279.461 183.898Z" fill="#993147"/>
<path d="M285.026 174.896C285.274 175.972 284.612 177.027 283.557 177.296C282.481 177.545 281.426 176.883 281.157 175.827C280.908 174.751 281.57 173.696 282.626 173.427C283.702 173.158 284.777 173.82 285.026 174.896Z" fill="#993147"/>
<path d="M276.026 169.309C276.275 170.385 275.612 171.44 274.557 171.709C273.481 171.957 272.426 171.295 272.157 170.24C271.909 169.164 272.571 168.108 273.626 167.839C274.702 167.57 275.757 168.232 276.026 169.309Z" fill="#993147"/>
<path d="M281.592 160.286C281.84 161.362 281.178 162.417 280.123 162.686C279.047 162.935 277.992 162.273 277.723 161.217C277.475 160.141 278.137 159.086 279.192 158.817C280.268 158.568 281.344 159.231 281.592 160.286Z" fill="#993147"/>
<path d="M288.459 189.485C288.708 190.561 288.046 191.616 286.99 191.885C285.914 192.134 284.859 191.472 284.59 190.416C284.342 189.34 285.004 188.285 286.059 188.016C287.156 187.747 288.211 188.409 288.459 189.485Z" fill="#993147"/>
<path d="M268.309 201.922C268.557 202.998 267.895 204.054 266.84 204.323C265.764 204.571 264.709 203.909 264.44 202.853C264.192 201.777 264.854 200.722 265.909 200.453C266.985 200.204 268.061 200.867 268.309 201.922Z" fill="#993147"/>
<path d="M262.723 210.944C262.971 212.02 262.309 213.075 261.254 213.344C260.178 213.593 259.122 212.93 258.853 211.875C258.605 210.799 259.267 209.744 260.322 209.475C261.419 209.206 262.474 209.868 262.723 210.944Z" fill="#993147"/>
<path d="M277.329 207.509C277.577 208.585 276.915 209.64 275.86 209.909C274.784 210.158 273.729 209.495 273.46 208.44C273.212 207.364 273.874 206.309 274.929 206.04C276.005 205.771 277.06 206.433 277.329 207.509Z" fill="#993147"/>
<path d="M282.895 198.487C283.144 199.563 282.482 200.618 281.426 200.888C280.35 201.136 279.295 200.474 279.026 199.418C278.778 198.342 279.44 197.287 280.495 197.018C281.571 196.769 282.647 197.432 282.895 198.487Z" fill="#993147"/>
<path d="M250.287 190.768C250.536 191.844 249.874 192.899 248.818 193.169C247.743 193.417 246.687 192.755 246.418 191.699C246.17 190.623 246.832 189.568 247.887 189.299C248.963 189.05 250.039 189.713 250.287 190.768Z" fill="#993147"/>
<path d="M246.854 176.179C247.102 177.255 246.44 178.31 245.385 178.579C244.309 178.827 243.254 178.165 242.985 177.11C242.737 176.034 243.399 174.978 244.454 174.709C245.53 174.461 246.585 175.123 246.854 176.179Z" fill="#993147"/>
<path d="M253.723 205.378C253.971 206.454 253.309 207.51 252.254 207.779C251.178 208.027 250.122 207.365 249.853 206.309C249.605 205.233 250.267 204.178 251.322 203.909C252.398 203.64 253.474 204.302 253.723 205.378Z" fill="#993147"/>
<path d="M254.549 143.566C254.797 144.642 254.135 145.697 253.08 145.966C252.004 146.214 250.949 145.552 250.68 144.497C250.431 143.421 251.093 142.365 252.149 142.096C253.204 141.827 254.3 142.49 254.549 143.566Z" fill="#993147"/>
<path d="M245.592 138.185C245.84 139.261 245.178 140.316 244.123 140.585C243.047 140.834 241.992 140.172 241.723 139.116C241.475 138.04 242.137 136.985 243.192 136.716C244.268 136.447 245.344 137.109 245.592 138.185Z" fill="#993147"/>
<path d="M260.135 134.543C260.383 135.619 259.721 136.674 258.666 136.943C257.59 137.192 256.535 136.529 256.266 135.474C256.018 134.398 256.68 133.343 257.735 133.074C258.811 132.825 259.887 133.487 260.135 134.543Z" fill="#993147"/>
<path d="M251.115 128.976C251.363 130.052 250.701 131.107 249.646 131.376C248.57 131.624 247.515 130.962 247.246 129.907C246.998 128.831 247.66 127.775 248.715 127.506C249.791 127.237 250.867 127.9 251.115 128.976Z" fill="#993147"/>
<path d="M242.157 123.595C242.405 124.672 241.743 125.727 240.688 125.996C239.612 126.244 238.557 125.582 238.288 124.527C238.039 123.451 238.701 122.395 239.757 122.126C240.832 121.857 241.888 122.519 242.157 123.595Z" fill="#993147"/>
<path d="M256.702 119.953C256.95 121.029 256.288 122.085 255.233 122.354C254.157 122.602 253.101 121.94 252.832 120.885C252.584 119.808 253.246 118.753 254.301 118.484C255.377 118.236 256.433 118.898 256.702 119.953Z" fill="#993147"/>
<path d="M248.983 152.587C249.231 153.664 248.569 154.719 247.514 154.988C246.438 155.236 245.383 154.574 245.114 153.519C244.865 152.443 245.528 151.387 246.583 151.118C247.659 150.849 248.735 151.511 248.983 152.587Z" fill="#993147"/>
<path d="M263.571 149.152C263.819 150.228 263.157 151.283 262.102 151.553C261.026 151.801 259.971 151.139 259.702 150.083C259.453 149.007 260.115 147.952 261.171 147.683C262.247 147.414 263.322 148.076 263.571 149.152Z" fill="#993147"/>
<path d="M269.136 140.131C269.384 141.207 268.722 142.262 267.667 142.531C266.591 142.779 265.536 142.117 265.267 141.062C265.019 139.986 265.681 138.93 266.736 138.661C267.812 138.392 268.888 139.054 269.136 140.131Z" fill="#993147"/>
<path d="M274.722 131.108C274.97 132.184 274.308 133.239 273.253 133.508C272.177 133.757 271.121 133.094 270.852 132.039C270.604 130.963 271.266 129.908 272.321 129.639C273.397 129.39 274.473 130.052 274.722 131.108Z" fill="#993147"/>
<path d="M265.702 125.541C265.951 126.617 265.289 127.672 264.233 127.941C263.158 128.189 262.102 127.527 261.833 126.472C261.585 125.396 262.247 124.34 263.302 124.071C264.378 123.802 265.454 124.465 265.702 125.541Z" fill="#993147"/>
<path d="M271.288 116.519C271.537 117.595 270.875 118.651 269.819 118.92C268.744 119.168 267.688 118.506 267.419 117.45C267.171 116.374 267.833 115.319 268.888 115.05C269.964 114.802 271.019 115.464 271.288 116.519Z" fill="#993147"/>
<path d="M278.157 145.697C278.405 146.773 277.743 147.828 276.688 148.097C275.612 148.346 274.557 147.683 274.288 146.628C274.039 145.552 274.701 144.497 275.757 144.228C276.832 143.979 277.908 144.641 278.157 145.697Z" fill="#993147"/>
<path d="M257.984 158.154C258.232 159.23 257.57 160.286 256.515 160.555C255.439 160.803 254.384 160.141 254.115 159.085C253.867 158.009 254.529 156.954 255.605 156.685C256.681 156.437 257.736 157.099 257.984 158.154Z" fill="#993147"/>
<path d="M272.571 154.719C272.819 155.795 272.157 156.851 271.102 157.12C270.026 157.368 268.971 156.706 268.702 155.65C268.453 154.574 269.115 153.519 270.171 153.25C271.267 152.981 272.322 153.643 272.571 154.719Z" fill="#993147"/>
<path d="M239.963 147.001C240.212 148.077 239.549 149.132 238.494 149.401C237.418 149.649 236.363 148.987 236.094 147.932C235.846 146.856 236.508 145.8 237.563 145.531C238.639 145.283 239.715 145.945 239.963 147.001Z" fill="#993147"/>
<path d="M236.529 132.411C236.777 133.487 236.115 134.542 235.06 134.811C233.984 135.06 232.929 134.397 232.66 133.342C232.411 132.266 233.073 131.21 234.129 130.941C235.204 130.693 236.28 131.355 236.529 132.411Z" fill="#993147"/>
<path d="M243.397 161.59C243.645 162.666 242.983 163.721 241.928 163.99C240.852 164.238 239.797 163.576 239.528 162.521C239.279 161.445 239.942 160.389 240.997 160.12C242.073 159.872 243.149 160.534 243.397 161.59Z" fill="#993147"/>
<path d="M291.915 204.074C292.164 205.15 291.502 206.206 290.446 206.475C289.37 206.723 288.315 206.061 288.046 205.006C287.798 203.93 288.46 202.874 289.515 202.605C290.591 202.336 291.646 202.998 291.915 204.074Z" fill="#993147"/>
<path d="M294.047 180.463C294.295 181.539 293.633 182.594 292.578 182.863C291.502 183.111 290.447 182.449 290.178 181.394C289.929 180.318 290.591 179.262 291.647 178.993C292.723 178.724 293.798 179.386 294.047 180.463Z" fill="#993147"/>
<path d="M299.614 171.439C299.862 172.515 299.2 173.571 298.124 173.84C297.048 174.088 295.993 173.426 295.724 172.371C295.476 171.294 296.138 170.239 297.193 169.97C298.29 169.722 299.366 170.384 299.614 171.439Z" fill="#993147"/>
<path d="M290.611 165.874C290.859 166.95 290.197 168.005 289.121 168.274C288.045 168.522 286.99 167.86 286.721 166.805C286.473 165.729 287.135 164.673 288.19 164.404C289.287 164.135 290.363 164.797 290.611 165.874Z" fill="#993147"/>
<path d="M296.178 156.85C296.426 157.926 295.764 158.982 294.709 159.251C293.633 159.499 292.578 158.837 292.309 157.782C292.06 156.705 292.722 155.65 293.778 155.381C294.853 155.133 295.929 155.795 296.178 156.85Z" fill="#993147"/>
<path d="M303.068 186.029C303.316 187.105 302.654 188.161 301.599 188.43C300.523 188.678 299.468 188.016 299.199 186.96C298.95 185.884 299.612 184.829 300.668 184.56C301.744 184.312 302.799 184.974 303.068 186.029Z" fill="#993147"/>
<path d="M308.635 177.028C308.883 178.104 308.221 179.159 307.166 179.428C306.09 179.676 305.035 179.014 304.766 177.959C304.518 176.883 305.18 175.827 306.235 175.558C307.311 175.289 308.387 175.951 308.635 177.028Z" fill="#993147"/>
<path d="M314.2 168.005C314.448 169.081 313.786 170.136 312.731 170.405C311.655 170.654 310.6 169.991 310.331 168.936C310.083 167.86 310.745 166.805 311.8 166.536C312.876 166.287 313.952 166.949 314.2 168.005Z" fill="#993147"/>
<path d="M305.199 162.438C305.447 163.514 304.785 164.569 303.73 164.838C302.654 165.086 301.598 164.424 301.33 163.369C301.081 162.293 301.743 161.237 302.799 160.968C303.874 160.699 304.95 161.362 305.199 162.438Z" fill="#993147"/>
<path d="M310.766 153.415C311.014 154.491 310.352 155.547 309.296 155.816C308.221 156.064 307.165 155.402 306.896 154.347C306.648 153.27 307.31 152.215 308.365 151.946C309.441 151.677 310.517 152.339 310.766 153.415Z" fill="#993147"/>
<path d="M317.655 182.594C317.903 183.67 317.241 184.725 316.186 184.994C315.11 185.243 314.055 184.58 313.786 183.525C313.538 182.449 314.2 181.394 315.255 181.125C316.331 180.876 317.386 181.538 317.655 182.594Z" fill="#993147"/>
<path d="M297.482 195.052C297.731 196.128 297.069 197.183 296.013 197.452C294.937 197.7 293.882 197.038 293.613 195.983C293.365 194.907 294.027 193.851 295.082 193.582C296.158 193.313 297.234 193.975 297.482 195.052Z" fill="#993147"/>
<path d="M306.502 200.618C306.751 201.694 306.089 202.749 305.033 203.018C303.957 203.267 302.902 202.604 302.633 201.549C302.385 200.473 303.047 199.418 304.102 199.149C305.178 198.9 306.254 199.562 306.502 200.618Z" fill="#993147"/>
<path d="M312.069 191.616C312.317 192.692 311.655 193.748 310.6 194.017C309.524 194.265 308.469 193.603 308.2 192.547C307.951 191.471 308.613 190.416 309.669 190.147C310.745 189.878 311.82 190.54 312.069 191.616Z" fill="#993147"/>
<path d="M283.724 136.695C283.972 137.771 283.31 138.826 282.255 139.095C281.179 139.343 280.124 138.681 279.855 137.626C279.607 136.55 280.269 135.494 281.324 135.225C282.4 134.956 283.476 135.619 283.724 136.695Z" fill="#993147"/>
<path d="M289.309 127.672C289.558 128.748 288.896 129.804 287.84 130.073C286.765 130.321 285.709 129.659 285.44 128.604C285.192 127.528 285.854 126.472 286.909 126.203C287.985 125.934 289.061 126.596 289.309 127.672Z" fill="#993147"/>
<path d="M280.287 122.106C280.536 123.182 279.874 124.237 278.818 124.506C277.743 124.754 276.687 124.092 276.418 123.037C276.17 121.961 276.832 120.905 277.887 120.636C278.963 120.367 280.039 121.03 280.287 122.106Z" fill="#993147"/>
<path d="M285.874 113.083C286.122 114.159 285.46 115.214 284.384 115.483C283.308 115.732 282.253 115.07 281.984 114.014C281.736 112.938 282.398 111.883 283.453 111.614C284.549 111.345 285.605 112.007 285.874 113.083Z" fill="#993147"/>
<path d="M292.744 142.261C292.992 143.337 292.33 144.392 291.254 144.661C290.178 144.91 289.123 144.248 288.854 143.192C288.606 142.116 289.268 141.061 290.323 140.792C291.42 140.543 292.495 141.206 292.744 142.261Z" fill="#993147"/>
<path d="M298.31 133.259C298.559 134.335 297.897 135.391 296.841 135.66C295.766 135.908 294.71 135.246 294.441 134.19C294.193 133.114 294.855 132.059 295.91 131.79C297.007 131.521 298.062 132.183 298.31 133.259Z" fill="#993147"/>
<path d="M303.896 124.237C304.144 125.313 303.482 126.369 302.427 126.638C301.351 126.886 300.296 126.224 300.027 125.169C299.779 124.092 300.441 123.037 301.496 122.768C302.572 122.499 303.648 123.161 303.896 124.237Z" fill="#993147"/>
<path d="M294.876 118.671C295.124 119.747 294.462 120.802 293.407 121.071C292.331 121.319 291.276 120.657 291.007 119.602C290.758 118.526 291.421 117.47 292.476 117.201C293.552 116.932 294.628 117.595 294.876 118.671Z" fill="#993147"/>
<path d="M300.462 109.648C300.711 110.724 300.048 111.779 298.993 112.048C297.917 112.297 296.862 111.634 296.593 110.579C296.345 109.503 297.007 108.448 298.062 108.179C299.138 107.91 300.214 108.572 300.462 109.648Z" fill="#993147"/>
<path d="M307.329 138.826C307.577 139.902 306.915 140.957 305.839 141.226C304.763 141.475 303.708 140.812 303.439 139.757C303.191 138.681 303.853 137.626 304.929 137.357C306.004 137.088 307.08 137.75 307.329 138.826Z" fill="#993147"/>
<path d="M287.178 151.285C287.426 152.361 286.764 153.416 285.709 153.685C284.633 153.933 283.578 153.271 283.309 152.216C283.06 151.14 283.722 150.084 284.778 149.815C285.853 149.546 286.909 150.208 287.178 151.285Z" fill="#993147"/>
<path d="M301.764 147.849C302.012 148.925 301.35 149.98 300.295 150.249C299.219 150.497 298.164 149.835 297.895 148.78C297.647 147.704 298.309 146.648 299.364 146.379C300.44 146.11 301.495 146.773 301.764 147.849Z" fill="#993147"/>
<path d="M321.089 197.183C321.337 198.259 320.675 199.315 319.62 199.584C318.544 199.832 317.489 199.17 317.22 198.114C316.971 197.038 317.633 195.983 318.709 195.714C319.765 195.466 320.84 196.128 321.089 197.183Z" fill="#993147"/>
<path d="M313.929 183.09C311.798 185.222 283.142 202.522 222.354 202.542C205.078 202.542 192.498 197.597 188.029 192.175C177.27 179.179 182.402 161.941 185.029 156.788C188.257 150.456 195.085 144.144 203.05 141.785C221.03 136.446 245.61 151.18 263.797 153.974C274.369 155.609 295.184 148.325 299.343 148.076C313.536 147.269 318.688 152.194 319.95 155.153C323.385 163.183 324.005 173.033 313.929 183.09Z" fill="#F1DFDB"/>
<path d="M314.799 150.746C320.84 152.505 329.178 164.528 291.957 176.903C284.363 179.427 247.328 189.836 215.796 184.725C182.03 179.262 185.361 166.08 186.623 160.513C188.195 153.602 199.864 140.357 217.948 143.358C235.617 146.276 244.204 155.671 259.783 157.223C273.315 158.589 298.06 145.903 314.799 150.746Z" fill="#FFF7F0"/>
<path d="M311.301 151.801C316.742 154.285 325.122 164.321 289.369 175.579C282.066 177.876 246.292 188.45 216.23 182.697C185.422 176.8 187.574 165.397 188.815 160.327C190.325 154.057 200.96 142.365 218.319 145.076C235.285 147.725 243.541 156.251 258.5 157.678C271.452 158.92 301.97 147.538 311.301 151.801Z" fill="#E64561"/>
<path opacity="0.2" d="M196.119 152.608C195.25 154.263 194.94 155.753 196.14 156.767C198.064 158.402 199.905 158.505 203.05 157.657C203.299 157.595 203.567 157.491 203.816 157.367C204.54 157.823 206.65 158.733 208.43 157.967C213.457 155.774 214.988 148.966 212.133 145.344C212.05 145.241 211.885 145.034 211.616 144.723C210.726 144.765 209.857 144.848 209.03 144.972C210.312 148.014 210.147 151.407 208.947 153.705C207.768 155.981 205.781 156.622 204.623 156.891C207.581 154.884 209.899 149.793 206.837 145.365C205.719 145.613 204.643 145.944 203.609 146.296C205.036 147.538 206.34 149.959 205.699 152.318C204.747 155.898 200.112 156.767 199.036 155.36C197.278 153.104 201.374 153.353 201.995 150.187C202.14 149.4 201.788 148.117 201.602 147.082C200.526 147.579 199.492 148.117 198.54 148.697C198.147 149.317 197.733 149.938 197.34 150.538C196.947 150.559 196.429 150.6 195.85 150.58C195.333 150.994 194.816 151.428 194.36 151.883C194.981 152.132 195.581 152.401 196.119 152.608Z" fill="#93374B"/>
<path d="M316.225 158.009C315.377 158.236 314.591 158.443 313.846 158.526C308.28 159.168 305.694 156.27 309.542 153.022C310.08 152.566 310.68 152.152 311.301 151.801C310.308 151.345 309.087 151.076 307.68 150.952C307.287 151.552 306.894 152.214 306.459 152.98C305.197 155.215 299.446 152.69 297.211 151.573C297.025 151.594 296.839 151.635 296.652 151.656C298.08 152.835 303.273 155.091 301.99 156.167C299.859 157.967 312.48 159.975 314.053 161.858C314.218 162.065 314.405 162.251 314.591 162.437C315.811 160.802 316.267 159.333 316.225 158.009Z" fill="#D4465A"/>
<path opacity="0.2" d="M265.266 177.151C266.61 177.296 267.935 177.648 268.369 177.503C268.845 177.337 268.928 176.778 268.41 176.323C267.666 175.661 264.604 174.978 262.141 175.723C261.665 175.868 261.128 176.592 261.831 176.861C262.224 177.006 263.755 176.985 265.266 177.151Z" fill="#FBCBB2"/>
<path d="M292.307 158.216C293.217 158.465 296.155 159.21 297.583 159.706C300.541 160.741 304.328 163.079 304.762 162.934C305.238 162.769 302.9 160.389 299.714 158.878C298.803 158.444 295.1 156.333 292.617 157.078C292.12 157.244 291.582 158.009 292.307 158.216Z" fill="#D4465A"/>
<path d="M233.052 170.901C233.279 171.253 233.941 171.605 235.079 172.598C236.093 173.488 236.941 174.192 237.376 174.316C237.872 174.461 238.679 173.943 238.514 173.281C238.286 172.308 236.403 170.984 233.962 170.156C233.486 169.991 232.658 170.28 233.052 170.901Z" fill="#D4465A"/>
<path d="M259.701 179.427C257.59 177.647 255.956 177.792 254.88 176.364C253.928 175.081 252.956 171.895 251.135 171.563C249.459 171.253 248.425 170.881 246.811 171.108C244.514 171.419 242.466 173.923 243.397 175.206C244.597 176.861 243.811 179.8 245.776 180.379C246.149 180.482 247.763 181.848 249.17 183.711C250.432 183.587 251.673 183.462 252.894 183.318C251.673 182.635 248.28 181.269 247.307 179.303C247.225 179.137 247.39 178.289 246.935 177.006C246.252 175.019 244.866 174.316 246.314 173.115C246.852 172.681 247.204 171.915 248.052 172.081C249.087 172.267 250.659 173.509 251.694 174.502C253.783 176.53 253.37 180.586 255.273 181.186C256.804 181.683 257.715 182.283 258.17 182.593C259.515 182.386 260.839 182.179 262.142 181.972C261.439 181.227 260.673 180.276 259.701 179.427Z" fill="#D4465A"/>
<path d="M297.087 171.253C296.839 171.047 293.239 166.121 287.487 166.763C286.99 166.825 291.791 168.294 293.611 169.908C294.501 170.715 295.598 171.998 296.053 173.281C296.694 173.054 297.315 172.806 297.936 172.578C297.563 171.895 297.232 171.398 297.087 171.253Z" fill="#D4465A"/>
<path opacity="0.2" d="M216.541 172.329C216.189 172.68 216.272 173.322 216.727 173.777C217.182 174.232 217.823 174.315 218.175 173.984C218.527 173.632 218.444 172.991 217.989 172.536C217.554 172.08 216.892 171.977 216.541 172.329Z" fill="#FBCBB2"/>
<path opacity="0.2" d="M291.875 158.754C288.481 157.843 288.854 154.429 287.633 153.353C287.012 153.477 286.392 153.601 285.771 153.746C286.288 154.863 286.93 156.188 286.599 156.767C286.143 157.595 283.909 158.195 281.199 157.222C279.626 156.664 277.867 156.146 276.295 155.712C275.529 155.857 274.764 156.022 274.019 156.167C277.247 156.705 285.502 160.347 285.585 160.223C288.026 160.947 290.219 160.119 291.523 160.182C296.654 160.409 302.882 164.548 304.392 166.431C305.178 167.404 305.758 168.231 306.172 168.935C307.351 168.294 308.427 167.673 309.379 167.073C304.268 161.506 295.62 159.768 291.875 158.754Z" fill="#93374B"/>
<path opacity="0.2" d="M278.342 175.474C279.232 174.626 285.17 176.178 286.556 173.012C288.315 169.039 280.473 167.218 281.342 165.624C281.714 164.941 284.673 166.286 284.983 165.624C285.19 165.19 284.425 164.879 283.349 164.569C283.618 164.548 283.783 164.465 283.825 164.3C284.611 160.927 273.211 158.34 272.776 156.477C272.776 156.436 272.776 156.395 272.776 156.374C271.162 156.664 269.59 156.933 268.1 157.16C272.652 158.505 279.273 160.658 278.197 163.265C278.176 163.306 278.259 163.348 278.404 163.431C278.156 163.7 277.721 163.969 276.914 164.093C274.038 164.548 267.148 160.637 266.217 160.658C263.404 160.678 262.1 161.734 261.293 161.754C259.307 161.796 258.748 158.816 253.203 157.926C240.272 155.898 243.231 162.044 237.21 162.251C236.899 162.106 234.768 161.03 234.975 160.099C235.389 158.174 238.906 155.981 243.169 155.401C244.803 155.174 246.81 155.36 248.817 155.67C246.169 154.822 243.644 153.787 241.12 152.711C237.086 152.939 235.223 154.491 234.727 154.988C232.968 156.788 234.106 158.878 232.637 159.768C232.472 159.871 232.306 159.954 232.12 160.037C232.203 158.671 228.396 155.257 230.92 152.96C231.934 152.049 233.961 151.201 235.906 150.476C235.099 150.124 234.292 149.793 233.465 149.462C231.106 150.311 228.396 151.387 225.809 152.546C224.651 153.063 220.927 151.594 221.092 149.752C221.237 148.179 222.002 146.979 223.058 146.068C221.547 145.717 219.975 145.386 218.32 145.137C217.264 144.972 216.209 144.868 215.195 144.806C214.906 146.172 214.74 147.393 215.651 148.117C220.058 151.594 222.623 154.201 221.878 155.112C221.278 155.836 213.457 156.312 209.092 158.981C206.547 160.533 204.333 162.81 204.788 165.459C204.912 166.142 201.395 166.142 198.54 165.645C191.712 164.445 190.719 159.188 190.74 156.167C189.953 157.347 189.374 158.505 189.022 159.54C188.815 160.637 188.691 161.858 188.774 163.224C188.919 165.831 189.664 168.873 190.843 171.687C192.85 174.15 196.285 176.633 201.974 178.827C197.422 173.778 196.285 169.515 197.712 168.087C198.912 166.886 204.664 166.659 206.112 167.528C209.526 169.556 207.706 175.102 211.306 178.04C211.988 178.599 217.74 180.979 220.802 183.462C222.292 183.669 223.782 183.835 225.271 183.959C222.127 182.159 217.202 179.489 214.388 177.585C210.768 175.143 207.623 165.376 213.561 161.341C217.306 158.795 223.885 155.939 226.761 156.602C232.079 157.781 229.492 160.533 229.244 160.782C228.168 161.113 227.134 161.775 226.203 163.555C225.003 165.914 224.196 170.239 227.03 170.984C229.099 171.522 227.403 175.35 229.927 178.165C231.437 179.862 240.479 184.145 243.375 184.228C243.52 184.228 243.375 184.228 243.52 184.228C245.589 184.166 247.576 183.959 247.576 183.959C247.576 183.959 244.596 182.366 242.031 181.724C238.989 180.958 232.782 178.206 232.348 177.399C230.837 174.523 232.203 173.095 230.547 172.06C229.244 171.232 227.299 166.245 230.568 164.176C233.03 162.603 240.003 163.617 241.017 165.334C241.348 165.893 240.272 168.356 242.093 169.101C248.113 171.543 244.575 165.976 243.21 164.258C243.024 163.617 241.762 161.817 243.934 160.409C247.369 158.195 253.1 159.416 253.617 159.644C259.803 162.334 258.252 163.658 259.721 165.107C261.624 166.969 272.135 169.825 273.418 171.356C275.818 174.212 275.176 178.061 272.321 178.972C269.342 179.924 261.728 178.806 261.955 179.593C262.079 180.027 263.9 180.772 266.3 181.331C271.08 180.441 275.404 179.448 279.025 178.537C279.045 177.151 277.763 175.992 278.342 175.474ZM263.817 164.838C262.121 163.389 264.335 161.672 265.824 161.961C272.755 163.286 281.487 167.3 282.935 169.949C283.928 171.77 283.142 173.24 281.611 173.219C278.735 173.177 265.617 166.369 263.817 164.838Z" fill="#93374B"/>
<path d="M225.045 194.596C207.127 194.596 194.072 189.65 189.416 184.228C183.809 177.71 182.361 170.115 182.651 163.514C180.768 171.171 180.23 182.78 188.009 192.175C192.499 197.597 205.079 202.542 222.334 202.542C283.122 202.522 311.778 185.201 313.909 183.09C316.475 180.524 318.358 177.958 319.661 175.454C315.585 178.538 285.771 194.575 225.045 194.596Z" fill="#E5CBC9"/>
<path d="M316.061 178.951C313.91 181.083 284.778 198.383 222.956 198.403C205.39 198.403 192.603 193.458 188.051 188.036C183.706 182.883 181.927 177.068 181.492 171.605C181.244 178.165 182.651 185.677 188.01 192.154C192.5 197.576 205.079 202.521 222.335 202.521C283.123 202.501 311.779 185.18 313.91 183.069C317.096 179.882 319.227 176.696 320.51 173.612C319.351 175.371 317.882 177.151 316.061 178.951Z" fill="#D8B5B6"/>
<path d="M316.267 157.988C316.247 157.988 316.247 157.988 316.267 157.988C316.164 154.988 313.516 152.794 311.343 151.801H311.322L311.343 151.78C310.35 151.325 309.295 151.076 307.888 150.932H307.702C307.122 150.869 306.522 150.849 305.881 150.849C303.998 151.035 280.639 161.237 277.928 163.782C276.501 165.128 276.128 167.425 276.128 167.425C276.128 167.425 277.763 165.686 281.632 163.534C287.28 160.409 296.405 156.333 301.66 154.76C316.04 150.435 314.736 158.485 309.336 162.541C306.44 164.734 300.646 164.9 298.288 165.376C274.018 170.363 276.873 179.034 276.894 179.096C276.915 179.096 276.894 179.096 276.915 179.096L283.473 177.42L283.494 177.295C283.494 177.295 285.874 170.218 293.653 168.025C297.067 167.052 304.888 166.555 311.364 163.534C313.619 162.479 315.316 160.865 316.185 159.602C316.392 158.94 316.495 158.34 316.474 157.74C316.516 157.698 316.267 158.009 316.267 157.988Z" fill="#FFF7F0"/>
<path d="M297.294 151.552C297.274 151.552 297.274 151.532 297.253 151.532C297.067 151.552 296.88 151.594 296.694 151.614L296.715 151.635C294.108 152.028 291.853 152.194 289.018 152.773C281.942 156.208 272.259 166.555 272.259 166.555C272.259 166.555 274.721 162.003 273.087 158.361C272.756 157.616 272.342 157.015 271.866 156.498C266.693 157.429 262.017 157.988 258.562 157.678C259.328 157.74 267.624 158.423 270.19 162.003C274.038 167.342 268.121 170.156 267.604 170.363C261.293 173.033 257.197 169.37 248.01 168.79C247.141 169.494 247.472 171.087 246.521 171.749C258.666 175.185 261.107 179.965 260.507 182.365C262.121 182.117 263.735 181.827 265.266 181.538C267.521 178.268 272.528 171.336 276.48 167.031C284.425 158.381 298.805 150.952 298.887 150.911C298.494 150.973 297.708 151.49 297.294 151.552Z" fill="#FFF7F0"/>
<path d="M253.783 169.535C251.217 169.08 242.817 167.383 240.231 165.997C235.823 163.596 231.685 155.608 220.947 155.153C216.313 154.967 212.009 156.871 205.347 156.953C200.609 157.016 193.284 152.753 193.284 152.753C192.188 153.891 191.319 155.112 190.595 156.25C192.829 156.54 197.091 157.243 199.616 158.381C209.009 162.582 203.588 170.901 216.706 173.612C228.334 176.012 233.444 169.742 239.465 170.715C242.589 171.211 247.576 171.584 249.624 172.536C250.141 171.418 253.327 170.673 253.783 169.535Z" fill="#FFF7F0"/>
<path d="M210.52 161.796C210.126 163.845 214.43 166.39 220.12 167.487C225.81 168.584 230.734 167.798 231.127 165.728C231.21 165.335 231.106 164.942 230.858 164.528C229.824 162.769 226.141 160.927 221.527 160.058C221.361 160.017 221.175 159.996 221.009 159.955C215.547 159.003 210.913 159.81 210.52 161.796Z" fill="#C5A0A4"/>
<path d="M222.126 158.506C215.091 157.926 208.843 159.478 208.284 162.148C207.705 164.817 212.836 168.19 219.726 169.68C226.616 171.17 232.678 170.198 233.257 167.508C233.837 164.838 231.25 159.251 222.126 158.506ZM220.119 166.39C215.029 165.397 211.119 163.452 211.388 162.044C211.657 160.637 215.112 160.389 220.223 161.279C225.705 162.21 228.147 163.865 227.878 165.273C227.63 166.659 225.209 167.383 220.119 166.39Z" fill="#E7CAC9"/>
<path d="M351.938 141.309C358.476 139.467 365.966 138.846 370.146 138.722C371.47 137.77 371.015 136.384 371.615 135.494C367.994 134.749 360.007 135.763 351.09 138.288C342.152 140.812 334.827 144.123 332.138 146.648C333.11 147.103 334.289 148.593 335.924 148.717C339.545 146.648 345.4 143.171 351.938 141.309Z" fill="#D7BCAE"/>
<path opacity="0.6" d="M351.069 138.287C342.565 140.688 335.613 143.461 332.117 146.648C332.986 147.268 333.337 147.351 334.662 147.434C338.365 145.344 345.503 141.702 352.165 139.819C358.828 137.935 366.793 137.542 371.056 137.397C371.221 137.273 370.932 137.522 371.056 137.397C371.263 136.714 371.242 136.032 371.594 135.494C367.973 134.769 360.007 135.763 351.069 138.287Z" fill="#EFD8C9"/>
<path d="M353.096 145.468C343.744 148.117 335.344 148.448 332.178 146.586C331.826 147.248 331.723 147.89 331.889 148.469C332.84 151.842 342.751 151.987 354.027 148.8C365.303 145.613 373.683 140.295 372.731 136.922C372.565 136.342 372.152 135.866 371.49 135.473C369.814 138.743 362.448 142.84 353.096 145.468Z" fill="#D16786"/>
<path opacity="0.5" d="M336.813 150.973C337.537 151.056 338.344 151.097 339.192 151.118L338.261 147.786C337.413 147.786 336.606 147.724 335.882 147.642L336.813 150.973Z" fill="#A3496C"/>
<path opacity="0.5" d="M362.096 145.966C363.441 145.386 364.682 144.807 365.82 144.186L364.889 140.875C363.751 141.475 362.51 142.075 361.165 142.655L362.096 145.966Z" fill="#A5496C"/>
<path opacity="0.5" d="M367.62 143.171C368.737 142.488 369.71 141.785 370.496 141.102L369.565 137.77C368.779 138.453 367.806 139.157 366.689 139.84L367.62 143.171Z" fill="#A34D6D"/>
<path d="M334.413 121.857C341.179 122.56 348.358 124.754 352.289 126.182C353.883 125.789 353.965 124.34 354.855 123.74C351.751 121.712 343.972 119.684 334.744 118.732C325.516 117.78 317.488 118.153 314.033 119.498C314.778 120.284 315.316 122.105 316.785 122.809C320.944 122.229 327.668 121.153 334.413 121.857Z" fill="#D9BEB0"/>
<path opacity="0.6" d="M334.744 118.732C325.951 117.822 318.482 117.822 314.033 119.498C314.613 120.388 314.923 120.595 316.123 121.174C320.344 120.595 328.309 119.85 335.199 120.574C342.089 121.298 349.641 123.864 353.655 125.313C353.862 125.272 353.51 125.396 353.655 125.313C354.089 124.754 354.338 124.113 354.855 123.761C351.751 121.692 343.972 119.684 334.744 118.732Z" fill="#EED7CA"/>
<path d="M333.978 126.161C324.316 125.168 316.371 122.374 314.137 119.456C313.557 119.953 313.226 120.491 313.164 121.091C312.812 124.568 321.957 128.375 333.627 129.596C345.275 130.797 355.02 128.955 355.393 125.478C355.455 124.878 355.248 124.278 354.772 123.678C351.979 126.058 343.641 127.155 333.978 126.161Z" fill="#CA6180"/>
<path opacity="0.5" d="M316.826 125.229C317.467 125.581 318.191 125.912 318.977 126.243L319.329 122.808C318.543 122.477 317.819 122.146 317.177 121.794L316.826 125.229Z" fill="#A34D6D"/>
<path opacity="0.5" d="M342.151 129.928C343.599 129.886 344.985 129.804 346.268 129.659L346.62 126.224C345.337 126.368 343.972 126.451 342.503 126.493L342.151 129.928Z" fill="#A14569"/>
<path opacity="0.5" d="M348.315 129.369C349.619 129.142 350.778 128.852 351.75 128.521L352.102 125.086C351.109 125.437 349.95 125.727 348.667 125.934L348.315 129.369Z" fill="#A34B6C"/>
<path d="M373.264 220.955L274.034 281.05C274.034 281.05 272.047 282.167 271.323 282.043C270.185 281.857 272.399 280.47 272.399 280.47L369.622 215.761C369.622 215.761 371.629 215.45 372.933 217.313C374.402 219.403 373.264 220.955 373.264 220.955Z" fill="#B28375"/>
<path d="M366.809 217.623L272.399 280.471C272.399 280.471 270.185 281.857 271.323 282.043C271.613 282.085 272.13 281.94 272.606 281.733C285.372 274.138 313.552 256.052 328.159 247.112C351.291 232.958 369.684 220.479 366.809 217.623Z" fill="#D6B5A0"/>
<path d="M125.773 178.558C125.773 178.558 125.752 184.435 133.47 194.533C143.194 207.26 160.739 218.269 162.457 215.248C163.698 213.054 147.498 208.791 134.463 193.105C126.352 183.317 125.773 178.558 125.773 178.558Z" fill="#4A4B68"/>
<path d="M135.744 211.441C141.496 212.165 146.565 211.337 146.607 209.061C146.648 207.612 141.827 205.191 135.393 204.756C129.186 204.322 120.641 204.446 120.847 205.605C121.158 207.426 129.144 210.613 135.744 211.441Z" stroke="#4A4B68" stroke-width="1.7965" stroke-miterlimit="10"/>
<path d="M122.814 196.996C118.055 195.216 114.496 192.526 115.386 190.746C115.945 189.608 120.662 189.711 125.793 191.988C130.759 194.181 137.297 197.761 136.697 198.568C135.704 199.831 128.255 199.044 122.814 196.996Z" fill="#4A4B68"/>
<path d="M130.737 175.909C131.11 181.02 129.827 185.325 129.227 185.552C128.275 185.904 127.303 179.365 126.848 174.833C126.372 170.032 125.834 165.562 127.282 165.128C128.524 164.755 130.386 171.212 130.737 175.909Z" fill="#4A4B68"/>
<path d="M144.413 192.051C144.103 194.989 142.303 200.287 141.165 200.038C140.441 199.873 139.551 195.548 139.965 191.968C140.337 188.822 141.144 186.67 142.696 186.753C143.627 186.794 144.786 188.677 144.413 192.051Z" fill="#4A4B68"/>
<path d="M121.344 180.379C123.31 182.034 126.227 183.317 126.703 183.193C127.116 183.09 125.42 180.834 123.041 178.475C120.682 176.137 118.116 174.874 117.765 175.806C117.537 176.447 118.737 178.165 121.344 180.379Z" fill="#4A4B68"/>
<path d="M148.469 201.362C148.552 203.08 148.738 207.094 149.607 207.053C150.476 207.011 151.8 204.321 151.655 201.217C151.572 199.5 150.786 198.134 149.917 198.175C149.007 198.196 148.365 199.313 148.469 201.362Z" fill="#4A4B68"/>
<path d="M141.89 217.958C142.697 218.641 143.711 219.531 145.159 218.765C147.352 217.586 148.635 215.972 148.697 214.916C148.801 213.261 142.718 213.054 140.918 215.123C140.235 215.93 141.083 217.255 141.89 217.958Z" fill="#4A4B68"/>
<path d="M394.161 233.578L283.427 268.137C283.427 268.137 281.234 268.737 280.551 268.447C279.496 267.992 281.979 267.185 281.979 267.185L391.865 227.66C391.865 227.66 393.871 227.825 394.72 229.957C395.651 232.336 394.161 233.578 394.161 233.578Z" fill="#B28375"/>
<path d="M388.699 228.798L281.979 267.185C281.979 267.185 279.496 267.992 280.551 268.447C280.82 268.571 281.358 268.53 281.875 268.468C296.09 264.163 327.766 253.361 344.091 248.188C369.954 239.952 390.809 232.253 388.699 228.798Z" fill="#D6B5A0"/>
<path d="M374.237 258.639C374.237 258.639 362.982 265.716 343.74 268.862C324.477 272.028 308.525 272.359 308.07 269.648C307.615 266.916 325.036 270.083 344.278 266.916C363.54 263.75 374.237 258.639 374.237 258.639Z" fill="#56597A"/>
<path d="M371.961 255.887C371.319 257.997 371.195 259.818 371.878 259.984C372.561 260.15 373.513 258.246 374.113 256.114C374.92 253.238 375.106 250.879 375.002 250.548C374.878 250.258 372.685 253.507 371.961 255.887Z" stroke="#56597A" stroke-width="1.7965" stroke-miterlimit="10"/>
<path d="M330.498 258.348C327.457 262.715 325.988 267.185 327.809 268.178C328.967 268.82 332.981 265.943 336.064 260.894C339.043 256.031 342.581 249.036 341.567 248.705C339.974 248.208 333.995 253.32 330.498 258.348Z" fill="#56597A"/>
<path d="M375.397 262.55C372.996 262.074 371.072 261.06 371.362 260.149C371.548 259.57 373.803 259.239 376.431 259.922C378.976 260.584 382.369 261.763 382.142 262.198C381.769 262.902 378.148 263.109 375.397 262.55Z" fill="#56597A"/>
<path d="M362.298 254.769C360.56 258.908 360.436 262.819 360.87 263.192C361.574 263.75 364.202 258.598 365.815 254.955C367.533 251.106 369.25 247.547 368.153 246.781C367.222 246.119 363.891 250.962 362.298 254.769Z" fill="#56597A"/>
<path d="M366.395 275.028C361.968 273.082 355.285 267.743 356.216 266.088C356.816 265.032 363.933 265.715 368.692 268.137C373.306 270.496 376.368 272.586 375.478 274.966C374.94 276.393 371.485 277.263 366.395 275.028Z" fill="#56597A"/>
<path d="M350.938 276.207C347.483 274.676 342.227 270.496 342.972 269.213C343.448 268.385 349.014 268.923 352.759 270.827C356.359 272.669 358.779 274.303 358.076 276.166C357.621 277.304 354.91 277.966 350.938 276.207Z" fill="#56597A"/>
<path d="M347.796 276.89C343.306 273.972 331.595 269.544 330.416 270.661C329.444 271.572 337.327 279.684 342.83 283.202C347.651 286.264 352.886 289.534 353.548 285.292C353.837 283.533 352.948 280.243 347.796 276.89Z" stroke="#56597A" stroke-width="1.7965" stroke-miterlimit="10"/>
<path d="M325.739 282.084C323.753 280.139 322.905 276.311 323.339 275.421C323.732 274.655 326.856 275.69 329.857 277.78C332.836 279.849 333.829 283.098 332.008 284.423C330.788 285.313 328.346 284.671 325.739 282.084Z" fill="#56597A"/>
<path d="M352.263 258.039C351.29 260.605 349.056 266.606 347.587 266.068C346.118 265.509 345.187 260.687 346.945 256.031C347.918 253.465 349.904 251.83 351.373 252.368C352.842 252.927 353.421 254.997 352.263 258.039Z" fill="#56597A"/>
<path d="M381.272 259.797C380.859 260.129 380.072 259.818 379.721 259.363C379.369 258.928 379.576 258.514 379.99 258.183C380.403 257.852 381.003 257.956 381.355 258.39C381.728 258.866 381.686 259.487 381.272 259.797Z" fill="#56597A"/>
<path d="M206.461 258.113C205.633 262.521 203.254 266.742 197.895 269.143C189.743 272.806 181.964 273.157 175.488 272.04L158.584 279.655C162.515 283.773 184.612 296.19 207.806 283.256C222.579 275.02 218.648 258.527 216.703 253.498L206.461 258.113Z" fill="#8DA364"/>
<path d="M215.089 254.243L206.482 258.113C206.234 259.437 205.84 260.741 205.282 261.983C204.082 264.963 201.951 267.508 198.475 269.081C196.592 269.929 194.709 270.571 192.847 271.047C186.557 272.909 180.64 272.951 175.509 272.061L162.288 278C172.074 283.856 189.143 289.63 205.82 279.966C216.124 273.985 216.558 262.562 215.089 254.243Z" fill="#C6D99A"/>
<path d="M208.22 257.327L206.42 258.134C205.592 262.542 203.213 266.763 197.854 269.164C189.702 272.827 181.923 273.178 175.447 272.061L170.792 274.151C178.364 276.2 189.578 277.048 198.33 271.585C204.434 267.798 207.268 262.418 208.22 257.327Z" fill="#A9BD7B"/>
<path d="M215.854 253.891C217.758 260.389 219.496 274.233 206.482 281.517C185.957 292.982 166.219 284.187 159.515 279.262L158.584 279.676C162.515 283.794 184.612 296.21 207.806 283.276C222.579 275.04 218.648 258.547 216.703 253.519L215.854 253.891Z" fill="#65844E"/>
<path d="M362.716 105.095C360.171 105.384 358.309 107.247 358.537 109.275C358.764 111.303 361.02 112.689 363.565 112.399C366.109 112.11 367.972 110.227 367.744 108.219C367.516 106.191 365.261 104.805 362.716 105.095ZM363.523 111.054C361.558 111.282 359.861 110.475 359.737 109.233C359.592 108.012 361.061 106.833 363.027 106.605C364.992 106.378 366.689 107.185 366.834 108.426C366.937 109.668 365.468 110.847 363.523 111.054Z" fill="#C9DC9F"/>
<path d="M375.815 103.853C374.304 103.853 373.063 104.804 373.063 105.984C373.063 107.164 374.304 108.115 375.815 108.115C377.325 108.115 378.567 107.164 378.567 105.984C378.567 104.825 377.346 103.853 375.815 103.853ZM375.815 106.874C374.822 106.874 374.015 106.336 374.015 105.694C374.015 105.032 374.822 104.515 375.815 104.515C376.808 104.515 377.615 105.053 377.615 105.694C377.615 106.356 376.808 106.874 375.815 106.874Z" fill="#C9DC9F"/>
<path d="M340.723 109.4C338.364 109.4 336.461 110.745 336.461 112.4C336.461 114.056 338.364 115.401 340.723 115.401C343.082 115.401 344.985 114.056 344.985 112.4C344.965 110.765 343.061 109.4 340.723 109.4ZM340.723 113.662C339.378 113.662 338.302 113.104 338.302 112.421C338.302 111.738 339.378 111.179 340.723 111.179C342.068 111.179 343.144 111.738 343.144 112.421C343.144 113.104 342.047 113.662 340.723 113.662Z" fill="#C9DC9F"/>
<path d="M318.688 84.2981C316.019 83.222 313.226 83.8842 312.481 85.7674C311.716 87.6505 313.267 90.051 315.936 91.1271C318.605 92.2032 321.399 91.5409 322.143 89.6578C322.909 87.7747 321.357 85.3742 318.688 84.2981ZM316.743 89.1405C315.233 88.5196 314.24 87.4022 314.55 86.6158C314.86 85.8294 316.35 85.7053 317.881 86.3054C319.392 86.9262 320.385 88.0437 320.074 88.8301C319.743 89.6164 318.254 89.7406 316.743 89.1405Z" fill="#C9DC9F"/>
<path d="M378.876 121.671L372.772 122.043L372.897 118.898L378.876 118.132V121.671Z" fill="#80985C"/>
<path d="M307.515 81.2344L301.805 79.0201L303.232 76.2264L308.984 78.0061L307.515 81.2344Z" fill="#80985C"/>
<path d="M224.559 87.2174L129.777 121.962L126.404 37.1797L205.648 23.5217L224.559 87.2174Z" fill="#E76276"/>
<path d="M241.173 87.9833L146.391 122.728L143.019 37.9455L222.241 24.2876L241.173 87.9833Z" stroke="#92364B" stroke-width="1.7965" stroke-miterlimit="10"/>
<path d="M152.599 103.525C152.599 98.3305 148.399 94.1296 143.205 94.1296C138.012 94.1296 133.812 98.3305 133.812 103.525C133.812 108.719 138.012 112.92 143.205 112.92C148.399 112.92 152.599 108.719 152.599 103.525Z" stroke="#531F41" stroke-width="1.7965" stroke-miterlimit="10"/>
<path d="M202.585 72.1526C200.64 79.3954 195.012 90.4252 178.957 85.8726C161.432 80.9061 158.887 67.3102 160.853 60.0881C163.005 52.1623 177.136 50.2792 188.371 53.3005C199.626 56.3425 204.53 64.9097 202.585 72.1526Z" fill="#F5DEC0"/>
<path d="M202.585 72.1526C200.64 79.3954 191.288 84.5275 180.033 81.5062C168.798 78.4642 158.887 67.3309 160.853 60.0881C163.005 52.1623 177.136 50.2792 188.371 53.3005C199.626 56.3425 204.53 64.9097 202.585 72.1526Z" fill="#FFF7F0"/>
<path d="M163.397 62.4473C165.631 54.2318 179.804 52.1624 191.039 55.2044C193.501 55.8666 195.653 56.8185 197.494 57.9567C195.177 55.9701 192.115 54.3353 188.37 53.3213C177.135 50.2793 163.004 52.1624 160.852 60.1089C159.755 64.1856 162.404 69.5039 166.956 73.9117C163.997 70.0212 162.486 65.8411 163.397 62.4473Z" fill="white"/>
<path d="M198.488 67.4962C197.516 72.7524 194.205 76.3325 184.419 75.7117C176.557 75.215 172.688 68.117 173.66 62.8608C174.632 57.6045 180.984 54.3763 187.854 55.6593C194.702 56.9423 199.461 62.24 198.488 67.4962Z" fill="#F4C63E"/>
<path d="M196.749 60.8947C197.328 62.3225 197.535 63.8332 197.246 65.3438C196.273 70.6001 192.983 74.1801 183.176 73.5593C179.287 73.311 176.369 71.4485 174.528 68.9653C176.059 72.4832 179.473 75.5252 184.501 75.8356C194.287 76.4564 197.577 72.8764 198.57 67.6202C199.004 65.2817 198.28 62.9227 196.749 60.8947Z" fill="#DEA92E"/>
<path d="M187.129 58.9913C187.874 60.9573 185.681 63.6061 182.226 64.8891C178.791 66.1721 175.398 65.6341 174.653 63.6681C173.908 61.7022 176.101 59.0534 179.557 57.7704C183.012 56.4667 186.384 57.0254 187.129 58.9913Z" fill="#F4E581"/>
<path d="M165.384 37.0757C162.922 36.3721 160.481 37.4068 159.922 39.3521C159.363 41.2973 160.915 43.4494 163.377 44.153C165.839 44.8566 168.281 43.8219 168.839 41.8767C169.398 39.9108 167.846 37.7586 165.384 37.0757ZM163.832 42.8907C161.929 42.3527 160.667 40.9662 161.019 39.7659C161.35 38.5864 163.17 38.0483 165.053 38.5864C166.957 39.1244 168.219 40.5109 167.867 41.7112C167.536 42.9114 165.736 43.4288 163.832 42.8907Z" fill="#C9DC9F"/>
<path d="M215.332 51.7268C212.787 52.0165 210.925 53.8789 211.152 55.9069C211.38 57.9349 213.635 59.3214 216.18 59.0317C218.725 58.742 220.587 56.8588 220.359 54.8515C220.132 52.8442 217.876 51.4371 215.332 51.7268ZM216.118 57.7073C214.152 57.9349 212.456 57.1279 212.331 55.8862C212.187 54.6653 213.656 53.4858 215.621 53.2581C217.587 53.0305 219.283 53.8375 219.428 55.0792C219.552 56.3001 218.083 57.4797 216.118 57.7073Z" fill="#C9DC9F"/>
<path d="M212.952 65.0128C211.441 65.0128 210.2 65.9647 210.2 67.1443C210.2 68.3238 211.441 69.2758 212.952 69.2758C214.462 69.2758 215.703 68.3238 215.703 67.1443C215.703 65.9647 214.483 65.0128 212.952 65.0128ZM212.952 68.0341C211.958 68.0341 211.151 67.4961 211.151 66.8546C211.151 66.1924 211.958 65.675 212.952 65.675C213.945 65.675 214.752 66.2131 214.752 66.8546C214.752 67.4961 213.945 68.0341 212.952 68.0341Z" fill="#C9DC9F"/>
<path d="M172.915 45.912C171.405 45.912 170.205 46.9881 170.205 48.3125C170.205 49.6369 171.426 50.713 172.915 50.713C174.426 50.713 175.626 49.6369 175.626 48.3125C175.626 46.9881 174.405 45.912 172.915 45.912ZM172.709 49.6783C171.736 49.6783 170.929 49.0781 170.929 48.3125C170.929 47.5675 171.715 46.9467 172.709 46.9467C173.681 46.9467 174.488 47.5468 174.488 48.3125C174.467 49.0575 173.681 49.6783 172.709 49.6783Z" fill="#C9DC9F"/>
<path d="M163.378 59.4258L157.75 57.0667L158.226 53.4867L164.371 56.1976L163.378 59.4258Z" fill="#80985C"/>
<path d="M161.123 52.845L154.336 52.4518L152.143 48.5614H160.419L161.123 52.845Z" fill="#A9BD7B"/>
<path d="M304.309 89.5118L297.522 89.1186L295.329 85.2281H303.626L304.309 89.5118Z" fill="#A9BD7B"/>
<path d="M371.118 130.031L365.014 130.403L364.435 126.099L371.118 126.492V130.031Z" fill="#A9BD7B"/>
</svg>
