<svg width="30" height="30" viewBox="0 0 30 30" fill="none" xmlns="http://www.w3.org/2000/svg">
<g filter="url(#filter0_d_189_1321)">
<rect x="4.77783" y="3.77783" width="20.4444" height="20.4444" rx="10.2222" fill="#EAC3F8"/>
</g>
<circle cx="15" cy="14" r="11.75" stroke="url(#paint0_linear_189_1321)" stroke-width="0.5"/>
<path d="M11.8947 17.0557C12.9397 17.0557 13.7895 16.1837 13.7895 15.1114V10.1801L18.0526 11.7705V15.3821C17.766 15.2069 17.4389 15.1134 17.1053 15.1114C16.0603 15.1114 15.2105 15.9834 15.2105 17.0557C15.2105 18.128 16.0603 19 17.1053 19C18.1502 19 19 18.128 19 17.0557V11.4303C19.0001 11.3305 18.9702 11.2332 18.9144 11.1515C18.8586 11.0699 18.7797 11.0078 18.6883 10.9738L13.4778 9.02952C13.4063 9.00269 13.3295 8.99397 13.254 9.0041C13.1784 9.01423 13.1064 9.04292 13.044 9.08772C12.9816 9.13253 12.9307 9.19213 12.8955 9.26146C12.8604 9.33079 12.842 9.4078 12.8421 9.48595V13.4378C12.5555 13.2625 12.2284 13.1691 11.8947 13.167C10.8498 13.167 10 14.0391 10 15.1114C10 16.1837 10.8498 17.0557 11.8947 17.0557Z" fill="url(#paint1_linear_189_1321)"/>
<defs>
<filter id="filter0_d_189_1321" x="0.777832" y="0.777832" width="28.4443" height="28.4443" filterUnits="userSpaceOnUse" color-interpolation-filters="sRGB">
<feFlood flood-opacity="0" result="BackgroundImageFix"/>
<feColorMatrix in="SourceAlpha" type="matrix" values="0 0 0 0 0 0 0 0 0 0 0 0 0 0 0 0 0 0 127 0" result="hardAlpha"/>
<feOffset dy="1"/>
<feGaussianBlur stdDeviation="2"/>
<feComposite in2="hardAlpha" operator="out"/>
<feColorMatrix type="matrix" values="0 0 0 0 0.917647 0 0 0 0 0.764706 0 0 0 0 0.972549 0 0 0 0.2 0"/>
<feBlend mode="normal" in2="BackgroundImageFix" result="effect1_dropShadow_189_1321"/>
<feBlend mode="normal" in="SourceGraphic" in2="effect1_dropShadow_189_1321" result="shape"/>
</filter>
<linearGradient id="paint0_linear_189_1321" x1="4.42857" y1="19.4286" x2="23.2857" y2="4.85714" gradientUnits="userSpaceOnUse">
<stop stop-color="#D054FB"/>
<stop offset="1" stop-color="#B02CDF"/>
</linearGradient>
<linearGradient id="paint1_linear_189_1321" x1="19" y1="10.5" x2="10.5" y2="17" gradientUnits="userSpaceOnUse">
<stop stop-color="#B02CDF"/>
<stop offset="1" stop-color="#D054FB"/>
</linearGradient>
</defs>
</svg>
