<svg width="30" height="30" viewBox="0 0 30 30" fill="none" xmlns="http://www.w3.org/2000/svg">
<g filter="url(#filter0_d_0_1)">
<rect x="4.77783" y="3.77783" width="20.4444" height="20.4444" rx="10.2222" fill="#EAC3F8"/>
</g>
<circle cx="15" cy="14" r="11.75" stroke="url(#paint0_linear_0_1)" stroke-width="0.5"/>
<path d="M16.0839 9.21514C16.4877 9.43272 16.792 9.79775 16.9334 10.2341L17.1786 11.1432H14.4044L14.3101 11.1455H14.3035C13.848 11.1713 13.4197 11.3705 13.1064 11.7021C12.7931 12.0337 12.6187 12.4726 12.6188 12.9288V16.5001L12.6212 16.5944V16.601C12.6283 16.7201 12.6464 16.8348 12.675 16.9463C12.3908 16.9407 12.1121 16.8672 11.8621 16.732C11.4581 16.5145 11.1536 16.1495 11.0122 15.713L10.0617 12.1731C9.94262 11.7328 9.99717 11.2635 10.2141 10.8622C10.4316 10.4582 10.7966 10.1537 11.2331 10.0123L14.773 9.06133C15.2133 8.94264 15.6824 8.99752 16.0834 9.21466L16.0839 9.21514ZM14.4078 11.6193L14.3268 11.6217C13.9936 11.6415 13.6804 11.7878 13.4515 12.0308C13.2225 12.2737 13.095 12.595 13.095 12.9288V16.4968L13.0973 16.5777C13.1171 16.911 13.2634 17.2241 13.5064 17.4531C13.7494 17.682 14.0706 17.8095 14.4044 17.8096H14.6339C14.3073 17.1826 14.2052 16.4627 14.3445 15.7696C14.4838 15.0765 14.8562 14.452 15.3998 13.9999C15.9433 13.5478 16.6252 13.2955 17.3321 13.2848C18.039 13.2741 18.7282 13.5057 19.2852 13.9411V12.9321L19.2828 12.8512C19.263 12.5179 19.1167 12.2048 18.8737 11.9758C18.6308 11.7469 18.3096 11.6194 17.9757 11.6193H14.4078ZM19.9995 16.3811C19.9995 15.6865 19.7235 15.0203 19.2324 14.5292C18.7412 14.038 18.0751 13.7621 17.3805 13.7621C16.6859 13.7621 16.0198 14.038 15.5286 14.5292C15.0375 15.0203 14.7616 15.6865 14.7616 16.3811C14.7616 17.0756 15.0375 17.7418 15.5286 18.2329C16.0198 18.7241 16.6859 19 17.3805 19C18.0751 19 18.7412 18.7241 19.2324 18.2329C19.7235 17.7418 19.9995 17.0756 19.9995 16.3811ZM17.3376 14.7178L17.3805 14.7145L17.4234 14.7183C17.4709 14.727 17.5147 14.7499 17.5489 14.7841C17.5831 14.8183 17.6061 14.8621 17.6148 14.9097L17.6186 14.9525V16.143L18.8114 16.1434L18.8543 16.1473C18.9018 16.1559 18.9456 16.1789 18.9798 16.2131C19.014 16.2473 19.037 16.2911 19.0457 16.3387L19.0495 16.3815L19.0457 16.4244C19.037 16.472 19.0139 16.5159 18.9796 16.5501C18.9453 16.5843 18.9014 16.6072 18.8538 16.6158L18.8109 16.6196H17.6191V17.8115L17.6153 17.8543C17.6066 17.9019 17.5836 17.9457 17.5494 17.9799C17.5152 18.0141 17.4714 18.0371 17.4238 18.0458L17.381 18.0496L17.3381 18.0458C17.2906 18.0371 17.2468 18.0141 17.2126 17.9799C17.1784 17.9457 17.1554 17.9019 17.1467 17.8543L17.1429 17.8115V16.6191H15.951L15.9082 16.6153C15.8606 16.6066 15.8168 16.5837 15.7826 16.5495C15.7484 16.5153 15.7254 16.4715 15.7168 16.4239L15.7129 16.3811L15.7168 16.3382C15.7254 16.2906 15.7484 16.2468 15.7826 16.2126C15.8168 16.1784 15.8606 16.1555 15.9082 16.1468L15.951 16.143H17.1424V14.9525L17.1462 14.9097C17.1548 14.862 17.1778 14.8181 17.212 14.7838C17.2462 14.7495 17.29 14.7265 17.3376 14.7178Z" fill="url(#paint1_linear_0_1)"/>
<defs>
<filter id="filter0_d_0_1" x="0.777832" y="0.777832" width="28.4443" height="28.4443" filterUnits="userSpaceOnUse" color-interpolation-filters="sRGB">
<feFlood flood-opacity="0" result="BackgroundImageFix"/>
<feColorMatrix in="SourceAlpha" type="matrix" values="0 0 0 0 0 0 0 0 0 0 0 0 0 0 0 0 0 0 127 0" result="hardAlpha"/>
<feOffset dy="1"/>
<feGaussianBlur stdDeviation="2"/>
<feComposite in2="hardAlpha" operator="out"/>
<feColorMatrix type="matrix" values="0 0 0 0 0.917647 0 0 0 0 0.764706 0 0 0 0 0.972549 0 0 0 0.2 0"/>
<feBlend mode="normal" in2="BackgroundImageFix" result="effect1_dropShadow_0_1"/>
<feBlend mode="normal" in="SourceGraphic" in2="effect1_dropShadow_0_1" result="shape"/>
</filter>
<linearGradient id="paint0_linear_0_1" x1="4.42857" y1="19.4286" x2="23.2857" y2="4.85714" gradientUnits="userSpaceOnUse">
<stop stop-color="#D054FB"/>
<stop offset="1" stop-color="#B02CDF"/>
</linearGradient>
<linearGradient id="paint1_linear_0_1" x1="18" y1="10" x2="11" y2="17" gradientUnits="userSpaceOnUse">
<stop stop-color="#B02CDF"/>
<stop offset="1" stop-color="#D054FB"/>
</linearGradient>
</defs>
</svg>
