<svg width="287" height="249" viewBox="0 0 287 249" fill="none" xmlns="http://www.w3.org/2000/svg">
<rect width="287" height="249" rx="27" fill="#FED1D1"/>
<path d="M228.839 202.636C228.839 195.757 193.042 190.183 148.909 190.183C104.777 190.183 68.9795 195.757 68.9795 202.636C68.9795 209.514 104.777 215.088 148.909 215.088C193.042 215.088 228.839 209.488 228.839 202.636Z" fill="#E0787F"/>
<path d="M247.301 191.104C247.301 189.902 241.267 188.956 233.8 188.956C226.334 188.956 220.3 189.927 220.3 191.104C220.3 192.305 226.334 193.251 233.8 193.251C241.267 193.277 247.301 192.305 247.301 191.104Z" fill="#E0787F"/>
<path d="M238.939 206.42C238.939 199.465 202.784 193.84 158.191 193.84C113.598 193.84 77.4434 199.465 77.4434 206.42C77.4434 213.375 113.598 219 158.191 219C202.784 219 238.939 213.375 238.939 206.42Z" stroke="#94374A" stroke-miterlimit="10"/>
<path d="M130.986 125.365C130.961 125.033 130.935 124.726 130.884 124.393C127.867 100.793 115.005 87.8549 101.505 90.0538C84.629 92.7897 71.7932 115.061 73.9154 131.655C73.9666 131.988 74.0177 132.32 74.0688 132.627L130.986 125.365Z" fill="#F8D475"/>
<path d="M103.575 107.543C111.246 106.265 118.763 113.245 122.599 126.439L122.803 126.414C119.121 112.299 111.323 104.756 103.396 106.086C94.0123 107.671 86.6483 119.561 84.9863 131.221L85.421 131.17C87.4666 119.996 94.6004 109.052 103.575 107.543Z" fill="#FAA83A"/>
<path d="M104.061 111.967C96.3395 113.271 89.9727 121.555 87.0322 130.965L87.7226 130.863C90.8421 122.118 96.9276 114.626 104.24 113.399C110.709 112.325 117.076 117.132 121.218 126.593L121.628 126.541C117.536 116.16 110.863 110.816 104.061 111.967Z" fill="#FAA83A"/>
<path d="M102.733 102.736C112.347 101.176 121.552 109.947 124.569 126.183L125.132 126.107C122.421 108.898 112.756 99.5655 102.631 101.202C90.1271 103.222 80.4875 119.101 81.1267 131.732L81.7915 131.655C81.8938 119.305 90.9965 104.654 102.733 102.736Z" fill="#FAA83A"/>
<path d="M101.608 94.4262C86.6239 96.8553 75.2455 116.62 77.1376 131.323C77.1632 131.604 77.2143 131.911 77.2655 132.192L77.4189 132.167C76.6007 117.694 87.4932 99.4123 101.659 97.111C113.139 95.2444 124.109 106.035 127.177 125.825L127.765 125.749C127.739 125.467 127.714 125.186 127.663 124.879C125.003 103.964 113.6 92.5085 101.608 94.4262Z" fill="#FAA83A"/>
<path opacity="0.5" d="M95.4199 120.712C87.8513 121.683 80.6663 121.3 74.632 119.893C73.7115 123.908 73.4558 127.922 73.916 131.655C73.9672 131.988 74.0183 132.32 74.0694 132.627L130.987 125.365C130.961 125.033 130.936 124.726 130.885 124.394C129.99 117.336 128.2 111.251 125.796 106.239C120.836 113.143 109.33 118.922 95.4199 120.712Z" fill="#FAA83F"/>
<path d="M94.6778 130.351C97.5671 126.72 101.121 124.163 105.033 123.499C108.792 122.859 112.551 124.342 115.798 127.641L116.821 127.513C113.292 123.269 109.099 121.325 104.854 122.041C100.38 122.808 96.3654 126.03 93.2715 130.53L94.6778 130.351Z" fill="#FAA83A"/>
<path d="M90.7146 130.837C93.9875 124.572 98.8201 119.765 104.42 118.819C109.559 117.95 114.622 120.993 118.534 127.283L119.148 127.206C115.159 119.996 109.738 116.441 104.241 117.362C98.2064 118.385 93.0159 123.933 89.7686 130.965L90.7146 130.837Z" fill="#FAA83A"/>
<path d="M67.1898 27.0251L130.96 163.668C130.96 163.668 132.289 166.301 133.184 166.711C134.54 167.35 133.159 164.23 133.159 164.23L74.8862 24.0591C74.8862 24.0591 72.9685 22.2692 70.1815 23.3431C67.0876 24.5449 67.1898 27.0251 67.1898 27.0251Z" fill="#9E7663"/>
<path d="M76.5746 28.0991L133.16 164.23C133.16 164.23 134.54 167.324 133.185 166.711C132.827 166.557 132.393 166.02 132.009 165.458C123.725 148.019 106.363 108.131 97.0301 87.9059C82.2766 55.893 71.4096 29.1219 76.5746 28.0991Z" fill="#B48E7B"/>
<path d="M34.0777 43.6963L128.761 161.06C128.761 161.06 130.679 163.284 131.65 163.489C133.133 163.77 131.037 161.085 131.037 161.085L40.8535 38.966C40.8535 38.966 38.5523 37.6875 36.1232 39.4007C33.3873 41.2928 34.0777 43.6963 34.0777 43.6963Z" fill="#9E7663"/>
<path d="M43.4367 42.4946L131.012 161.085C131.012 161.085 133.109 163.77 131.625 163.489C131.242 163.412 130.705 163.003 130.194 162.543C117.971 147.61 91.5327 113.041 77.6485 95.6533C55.6333 68.0896 38.6553 44.7192 43.4367 42.4946Z" fill="#B48E7B"/>
<path d="M149.318 139.965C147.758 134.902 145.636 137.127 144.946 133.112C144.383 129.814 147.272 128.587 146.403 124.981C145.252 120.174 141.468 122.501 140.394 118.487C139.448 114.958 142.875 114.523 141.903 109.819C140.676 103.759 134.922 108.668 134.513 103.222C134.334 100.818 138.451 99.5143 137.352 95.7044C135.869 90.6673 133.184 93.4032 131.675 89.9769C130.601 87.4967 132.57 84.9142 132.749 82.6129C132.851 80.9765 132.212 79.4934 131.752 78.6497L97.54 94.2725C97.54 94.2725 99.202 96.2925 99.1253 98.7983C99.0486 101.074 97.1309 103.708 98.3071 106.111C99.918 109.41 102.577 108.975 103.293 111.225C103.881 113.092 100.327 115.06 101.58 119.024C103.165 124.01 106.975 120.609 108.228 124.547C109.174 127.513 106.413 129.558 107.947 133.777C109.609 138.354 113.265 137.204 114.16 139.888C115.311 143.34 111.961 143.519 112.958 147.994C113.828 151.906 116.564 151.42 117.561 154.54C118.277 156.841 116.947 159.602 117.433 160.293L148.934 145.079C149.037 143.979 149.906 141.832 149.318 139.965Z" fill="#404463"/>
<path d="M147.094 140.425C145.56 136.13 143.591 137.996 142.927 134.161C142.364 130.862 145.253 129.635 144.384 126.03C143.233 121.223 139.449 123.549 138.375 119.535C137.429 116.007 140.855 115.572 139.884 110.867C138.656 104.807 132.903 109.716 132.494 104.27C132.315 101.867 136.432 100.563 135.332 96.7528C133.849 91.7156 131.165 94.4515 129.656 91.0252C128.582 88.545 130.551 85.9625 130.73 83.6613C130.832 82.0248 130.193 80.5418 129.733 79.698L111.425 88.0592C111.016 89.1842 110.76 90.3093 111.195 91.5111C112.448 95.0141 115.133 94.9885 115.618 97.3153C116.028 99.2586 112.269 100.69 113.138 104.807C114.212 109.998 118.329 107.16 119.173 111.251C119.812 114.319 116.871 115.955 117.971 120.379C119.173 125.16 122.906 124.547 123.519 127.359C124.312 130.939 120.962 130.632 121.499 135.235C121.985 139.223 124.747 139.172 125.411 142.394C125.821 144.389 124.747 146.536 124.644 147.61L147.094 140.425Z" fill="#442646"/>
<path d="M159.751 132.09C158.728 126.848 156.402 128.74 156.095 124.649C155.865 121.3 158.856 120.481 158.371 116.774C157.731 111.839 153.742 113.603 153.078 109.461C152.49 105.805 155.941 105.881 155.456 101.074C154.842 94.8608 148.629 98.9008 148.782 93.4545C148.859 91.051 153.078 90.3351 152.336 86.3974C151.39 81.1812 148.424 83.508 147.299 79.9028C146.481 77.2691 148.705 75.019 149.089 72.7689C149.37 71.158 148.884 69.5983 148.501 68.7034L112.959 79.238C112.959 79.238 114.417 81.4881 114.059 83.9683C113.752 86.2184 111.579 88.5452 112.499 91.1021C113.752 94.6051 116.437 94.5796 116.923 96.9064C117.332 98.8497 113.573 100.282 114.442 104.398C115.516 109.589 119.633 106.751 120.477 110.842C121.116 113.91 118.175 115.546 119.275 119.97C120.477 124.751 124.21 124.138 124.824 126.95C125.616 130.53 122.267 130.223 122.804 134.826C123.289 138.815 126.051 138.763 126.716 141.985C127.201 144.363 125.616 146.92 126 147.687L158.805 137.178C159.086 136.028 160.135 134.033 159.751 132.09Z" fill="#383E63"/>
<path d="M124.363 95.9601C123.238 92.8918 123.34 90.8718 123.698 89.5166L123.621 89.5422C123.263 91.4854 122.112 93.4031 123.238 96.4715C124.9 101.048 128.556 99.8978 129.451 102.583C130.602 106.034 127.252 106.213 128.249 110.688C129.118 114.6 131.854 114.114 132.852 117.234C133.542 119.433 132.34 122.092 132.673 122.91C132.391 121.99 134.335 118.103 133.619 115.904C132.621 112.81 130.244 114.089 129.374 110.177C128.377 105.702 131.727 105.523 130.576 102.071C129.681 99.3864 126.025 100.537 124.363 95.9601Z" fill="#404463"/>
<path d="M122.369 94.5537C121.576 91.332 121.858 89.3631 122.344 88.0591L122.267 88.0847C121.704 89.9768 120.375 91.7155 121.193 94.9117C122.395 99.6931 126.128 99.0795 126.741 101.892C127.534 105.472 124.185 105.165 124.721 109.767C125.207 113.756 127.943 113.705 128.608 116.927C129.094 119.228 127.611 121.657 127.867 122.527C127.688 121.581 129.989 118.001 129.529 115.725C128.864 112.503 126.358 113.424 125.872 109.435C125.335 104.833 128.685 105.139 127.892 101.56C127.304 98.7215 123.545 99.3352 122.369 94.5537Z" fill="#9992BD"/>
<path d="M133.619 104.475C134.693 109.665 138.81 106.827 139.653 110.918C139.884 112.069 139.628 113.041 139.244 114.012L139.347 113.987C139.858 111.967 140.958 111.225 140.83 110.586C139.986 106.495 135.869 109.333 134.795 104.142C133.952 100.026 137.685 98.5938 137.276 96.6506C136.79 94.3237 134.105 94.3493 132.852 90.8463C131.932 88.2894 134.105 85.9626 134.412 83.7125C134.744 81.2322 132.136 79.3401 132.136 79.3401C132.136 79.3401 133.594 81.5902 133.236 84.0704C132.929 86.3205 130.755 88.6473 131.676 91.2043C132.929 94.7073 135.614 94.6817 136.099 97.0085C136.534 98.9262 132.775 100.358 133.619 104.475Z" fill="#99A4B9"/>
<path d="M182.994 73.2032C183.684 65.3023 177.855 58.3218 169.954 57.6059C162.053 56.8899 155.072 62.7453 154.356 70.6463C153.666 78.5472 159.496 85.5276 167.397 86.2436C175.323 86.9595 182.304 81.1041 182.994 73.2032Z" fill="#892544"/>
<path d="M168.292 80.9507C160.902 80.2859 155.328 74.1748 155.2 66.9131C154.765 68.0893 154.484 69.3422 154.356 70.6462C153.666 78.5471 159.496 85.5276 167.397 86.2435C175.298 86.9339 182.278 81.1041 182.994 73.2032C183.045 72.6662 183.045 72.1548 183.045 71.6434C180.872 77.5755 174.914 81.5388 168.292 80.9507Z" fill="#4E2445"/>
<path d="M185.474 73.0754C186.165 65.1745 180.335 58.1941 172.434 57.4781C164.533 56.7877 157.553 62.6176 156.837 70.5185C156.146 78.4194 161.976 85.3999 169.877 86.1158C177.778 86.8062 184.759 80.9764 185.474 73.0754Z" fill="#A32B47"/>
<path d="M181.946 72.7685C182.457 67.041 178.238 62.0038 172.51 61.4924C166.783 60.981 161.746 65.2 161.234 70.9275C160.723 76.6551 164.942 81.6922 170.669 82.2036C176.397 82.6894 181.434 78.4705 181.946 72.7685Z" fill="#4E0902"/>
<path d="M181.076 72.615C181.588 66.8874 177.369 61.8502 171.641 61.3389C165.914 60.8275 160.877 65.0464 160.365 70.774C159.854 76.5015 164.073 81.5387 169.8 82.0501C175.528 82.5614 180.565 78.3425 181.076 72.615Z" fill="#D8676C"/>
<path d="M164.456 73.6633C164.968 67.9358 170.005 63.7168 175.732 64.2282C176.755 64.3305 177.727 64.5606 178.622 64.9186C176.908 62.9497 174.479 61.5946 171.667 61.3389C165.965 60.8275 160.902 65.0464 160.391 70.774C159.982 75.4787 162.743 79.7232 166.936 81.3597C165.172 79.2886 164.2 76.5526 164.456 73.6633Z" fill="#CC4861"/>
<path d="M174.301 72.5386C173.764 72.104 173.074 71.8738 172.281 71.8994V71.8738C172.895 71.5926 173.355 71.1579 173.636 70.6209C173.943 70.084 174.045 69.4703 173.943 68.8055C173.841 68.0129 173.457 67.3992 172.792 66.9645C172.332 66.6833 171.821 66.5298 171.207 66.5043C171.233 66.2997 171.207 66.0696 171.181 65.8395C171.079 64.9701 170.644 64.3309 170.261 64.382C169.852 64.4332 169.622 65.1747 169.75 66.044C169.775 66.2486 169.826 66.4276 169.877 66.6065L169.315 66.6833C169.315 66.5043 169.315 66.2997 169.289 66.1207C169.187 65.2514 168.752 64.6121 168.369 64.6633C167.96 64.7144 167.73 65.4559 167.857 66.3253C167.883 66.5298 167.934 66.7088 167.985 66.8878L166.937 67.0157C166.911 67.0157 166.911 67.0157 166.886 67.0157C165.965 67.1435 165.249 67.527 165.3 67.8595C165.352 68.2174 166.119 68.3964 167.039 68.2686C167.065 68.2686 167.065 68.2686 167.09 68.2686L168.318 77.5758C168.292 77.5758 168.266 77.5758 168.266 77.5758C167.346 77.7037 166.63 78.0872 166.681 78.4196C166.732 78.7776 167.499 78.9566 168.42 78.8287C168.445 78.8287 168.445 78.8287 168.471 78.8287L169.519 78.7009C169.519 78.8798 169.519 79.0844 169.545 79.2634C169.647 80.1328 170.082 80.772 170.465 80.7208C170.875 80.6697 171.105 79.9282 170.977 79.0588C170.951 78.8543 170.9 78.6753 170.849 78.4963L171.412 78.4196C171.412 78.5986 171.412 78.8031 171.437 78.9821C171.539 79.8515 171.974 80.4907 172.358 80.4396C172.767 80.3884 172.997 79.6469 172.869 78.7776C172.843 78.5474 172.792 78.3429 172.716 78.1383C173.431 77.9082 174.02 77.5502 174.505 77.0133C175.145 76.2973 175.4 75.428 175.272 74.4052C175.17 73.6126 174.838 72.9989 174.301 72.5386ZM172.537 69.2402C172.613 69.905 172.485 70.442 172.076 70.8766C171.693 71.3113 171.13 71.567 170.363 71.6693L168.957 71.8483L168.445 68.0384L170.031 67.8339C171.539 67.6293 172.383 68.0896 172.537 69.2402ZM173.355 76.2718C172.946 76.7065 172.358 76.9877 171.539 77.09L169.647 77.3457L169.085 73.1012L170.67 72.8966C172.562 72.6409 173.61 73.229 173.789 74.6098C173.917 75.2746 173.764 75.8371 173.355 76.2718Z" fill="#532242"/>
<path d="M174.812 72.4874C174.275 72.0527 173.584 71.8226 172.792 71.8481V71.8226C173.405 71.5413 173.866 71.1066 174.147 70.5697C174.454 70.0327 174.556 69.4191 174.454 68.7542C174.351 67.9616 173.968 67.3479 173.303 66.9132C172.843 66.632 172.331 66.4786 171.718 66.453C171.743 66.2484 171.718 66.0183 171.692 65.7882C171.59 64.9188 171.155 64.2796 170.772 64.3307C170.363 64.3819 170.132 65.1234 170.26 65.9928C170.286 66.1973 170.337 66.3763 170.388 66.5553L169.826 66.632C169.826 66.453 169.826 66.2484 169.8 66.0695C169.698 65.2001 169.263 64.5609 168.879 64.612C168.47 64.6631 168.24 65.4047 168.368 66.274C168.394 66.4786 168.445 66.6576 168.496 66.8365L167.448 66.9644C167.422 66.9644 167.422 66.9644 167.396 66.9644C166.476 67.0922 165.76 67.4758 165.811 67.8082C165.862 68.1661 166.629 68.3451 167.55 68.2173C167.575 68.2173 167.575 68.2173 167.601 68.2173L168.828 77.5245C168.803 77.5245 168.803 77.5245 168.777 77.5245C167.857 77.6524 167.141 78.0359 167.192 78.3683C167.243 78.7263 168.01 78.9053 168.931 78.7774C168.956 78.7774 168.956 78.7774 168.982 78.7774L170.056 78.6496C170.056 78.8286 170.056 79.0331 170.081 79.2121C170.184 80.0815 170.618 80.7207 171.002 80.6696C171.411 80.6184 171.641 79.8769 171.513 79.0076C171.488 78.803 171.436 78.624 171.385 78.445L171.948 78.3683C171.948 78.5473 171.948 78.7519 171.973 78.9309C172.076 79.8002 172.51 80.4394 172.894 80.3883C173.303 80.3372 173.533 79.5957 173.405 78.7263C173.38 78.4962 173.329 78.2916 173.252 78.0871C173.968 77.8569 174.556 77.499 175.042 76.962C175.681 76.2461 175.937 75.3767 175.809 74.3539C175.681 73.5613 175.349 72.9221 174.812 72.4874ZM173.022 69.1889C173.098 69.8537 172.971 70.3907 172.561 70.8254C172.178 71.26 171.615 71.5157 170.848 71.618L169.442 71.797L168.931 67.9872L170.516 67.7826C172.05 67.5525 172.868 68.0383 173.022 69.1889ZM173.866 76.2205C173.456 76.6552 172.868 76.9364 172.05 77.0387L170.158 77.2944L169.595 73.0499L171.181 72.8453C173.073 72.5897 174.121 73.1777 174.3 74.5585C174.428 75.1977 174.275 75.7603 173.866 76.2205Z" fill="#A32B47"/>
<path d="M215.161 97.1876C218.51 89.6702 215.11 80.8743 207.592 77.5503C200.075 74.2007 191.279 77.6014 187.955 85.1188C184.631 92.6362 188.006 101.432 195.523 104.756C203.041 108.08 211.837 104.679 215.161 97.1876Z" fill="#892544"/>
<path d="M198.157 99.847C191.151 96.7275 187.725 88.8521 190.026 81.7183C189.208 82.7155 188.517 83.8405 187.955 85.0934C184.631 92.6108 188.006 101.407 195.523 104.731C203.041 108.08 211.837 104.68 215.161 97.1622C215.391 96.6508 215.57 96.165 215.749 95.6536C211.607 100.742 204.447 102.634 198.157 99.847Z" fill="#4E2445"/>
<path d="M217.616 97.878C220.966 90.3606 217.565 81.5647 210.047 78.2407C202.53 74.8911 193.734 78.2919 190.41 85.8093C187.061 93.3266 190.461 102.123 197.979 105.447C205.496 108.771 214.292 105.395 217.616 97.878Z" fill="#A32B47"/>
<path d="M214.292 96.395C216.695 90.9743 214.266 84.6075 208.82 82.204C203.399 79.8005 197.032 82.2295 194.629 87.6758C192.225 93.0965 194.654 99.4633 200.101 101.867C205.521 104.27 211.863 101.816 214.292 96.395Z" fill="#4E0902"/>
<path d="M213.472 95.9604C215.876 90.5397 213.447 84.1729 208 81.7694C202.58 79.3659 196.213 81.795 193.809 87.2412C191.406 92.662 193.835 99.0287 199.281 101.432C204.702 103.836 211.069 101.381 213.472 95.9604Z" fill="#D8676C"/>
<path d="M196.828 91.409C199.231 85.9883 205.598 83.5336 211.019 85.9371C211.991 86.3718 212.86 86.9344 213.627 87.5736C212.63 85.0678 210.687 82.92 208.002 81.7438C202.581 79.3402 196.214 81.7693 193.811 87.2156C191.816 91.6903 193.12 96.7786 196.674 99.7702C195.652 97.1621 195.601 94.1705 196.828 91.409Z" fill="#CC4861"/>
<path d="M206.851 93.608C206.467 92.9943 205.879 92.5596 205.086 92.2784V92.2528C205.777 92.1761 206.365 91.9204 206.851 91.4857C207.311 91.051 207.618 90.4885 207.771 89.7981C207.925 88.9799 207.771 88.2384 207.26 87.5992C206.927 87.1645 206.442 86.8321 205.853 86.602C205.93 86.3974 206.007 86.1928 206.058 85.9627C206.237 85.0678 206.058 84.3007 205.649 84.224C205.24 84.1473 204.78 84.7865 204.601 85.6815C204.549 85.886 204.549 86.0906 204.524 86.2696L203.936 86.1417C204.012 85.9627 204.064 85.7837 204.115 85.5792C204.294 84.6843 204.115 83.9172 203.706 83.8405C203.297 83.7638 202.836 84.403 202.657 85.2979C202.606 85.5025 202.606 85.707 202.581 85.886L201.507 85.6559C201.481 85.6559 201.456 85.6559 201.456 85.6559C200.51 85.4769 199.691 85.6047 199.615 85.9627C199.538 86.3207 200.254 86.7554 201.2 86.9599C201.225 86.9599 201.251 86.9599 201.251 86.9599L199.333 96.4973C199.308 96.4973 199.282 96.4973 199.282 96.4973C198.336 96.3183 197.518 96.4462 197.441 96.8041C197.364 97.1621 198.08 97.5968 199.026 97.8013C199.052 97.8013 199.078 97.8013 199.078 97.8013L200.152 98.0315C200.075 98.2105 200.024 98.3894 199.973 98.594C199.794 99.4633 199.973 100.256 200.382 100.333C200.791 100.409 201.251 99.7702 201.43 98.8753C201.481 98.6707 201.481 98.4661 201.507 98.2872L202.095 98.415C202.018 98.594 201.967 98.773 201.916 98.9775C201.737 99.8469 201.916 100.64 202.325 100.716C202.734 100.793 203.194 100.154 203.373 99.2588C203.424 99.0287 203.45 98.7985 203.45 98.594C204.217 98.6196 204.933 98.4406 205.572 98.0826C206.442 97.5968 206.979 96.8297 207.183 95.7814C207.362 94.9631 207.234 94.2216 206.851 93.608ZM206.237 89.7981C206.109 90.4885 205.777 90.9743 205.24 91.2556C204.728 91.5368 204.064 91.6136 203.297 91.4601L201.839 91.1789L202.632 87.2668L204.268 87.5992C205.802 87.8804 206.467 88.6219 206.237 89.7981ZM204.703 96.9575C204.166 97.2644 203.476 97.3155 202.657 97.1621L200.74 96.7786L201.609 92.4318L203.245 92.7642C205.189 93.1477 206.032 94.0682 205.726 95.5001C205.572 96.1649 205.24 96.6507 204.703 96.9575Z" fill="#532242"/>
<path d="M207.388 93.7101C207.004 93.0964 206.416 92.6617 205.624 92.3805V92.3549C206.314 92.2782 206.902 92.0225 207.388 91.5878C207.874 91.1531 208.155 90.5906 208.308 89.9002C208.462 89.082 208.308 88.3405 207.797 87.7268C207.465 87.2922 206.979 86.9598 206.391 86.7296C206.467 86.5251 206.544 86.3205 206.595 86.0904C206.774 85.221 206.595 84.4284 206.186 84.3517C205.777 84.275 205.317 84.9142 205.138 85.8091C205.087 86.0137 205.087 86.2183 205.061 86.3972L204.473 86.2694C204.55 86.0904 204.601 85.9114 204.652 85.7069C204.831 84.8375 204.652 84.0449 204.243 83.9682C203.834 83.8914 203.373 84.5307 203.194 85.4256C203.143 85.6302 203.143 85.8347 203.118 86.0137L202.044 85.7836C202.018 85.7836 202.018 85.7836 201.993 85.7836C201.047 85.6046 200.228 85.7324 200.152 86.0904C200.075 86.4484 200.791 86.8831 201.737 87.0876C201.763 87.0876 201.788 87.0876 201.788 87.0876L199.87 96.625C199.845 96.625 199.819 96.625 199.819 96.625C198.873 96.446 198.055 96.5738 197.978 96.9318C197.902 97.2898 198.618 97.7245 199.564 97.929C199.589 97.929 199.615 97.929 199.615 97.929L200.689 98.1592C200.612 98.3381 200.561 98.5171 200.51 98.7217C200.331 99.6166 200.51 100.384 200.919 100.46C201.328 100.537 201.788 99.8979 201.967 99.0029C202.018 98.7984 202.018 98.5938 202.044 98.4148L202.632 98.5427C202.555 98.7217 202.504 98.9007 202.453 99.1052C202.274 100 202.453 100.767 202.862 100.844C203.271 100.921 203.731 100.281 203.91 99.3865C203.962 99.1564 203.987 98.9262 203.987 98.7217C204.754 98.7472 205.47 98.5683 206.109 98.2103C206.979 97.7245 207.516 96.9574 207.72 95.909C207.874 95.0653 207.771 94.3493 207.388 93.7101ZM206.749 89.9002C206.621 90.5906 206.288 91.0764 205.751 91.3577C205.24 91.639 204.575 91.7157 203.808 91.5622L202.351 91.281L203.143 87.3689L204.78 87.7013C206.314 87.9825 206.979 88.724 206.749 89.9002ZM205.214 97.0597C204.677 97.3665 203.987 97.4176 203.169 97.2642L201.251 96.8807L202.121 92.5339L203.757 92.8663C205.7 93.2498 206.544 94.1703 206.237 95.6022C206.084 96.267 205.751 96.7528 205.214 97.0597Z" fill="#A32B47"/>
<path d="M165.453 93.2753C165.402 84.5562 158.319 77.5246 149.6 77.5757C140.881 77.6269 133.85 84.7096 133.901 93.4287C133.952 102.148 141.035 109.179 149.754 109.128C158.473 109.077 165.504 101.994 165.453 93.2753Z" fill="#892544"/>
<path d="M150.188 103.247C142.057 103.299 135.332 97.1619 134.437 89.261C134.079 90.5906 133.9 91.9713 133.9 93.4288C133.952 102.148 141.034 109.18 149.753 109.128C158.473 109.077 165.504 101.995 165.453 93.2754C165.453 92.6873 165.427 92.1248 165.351 91.5622C163.561 98.2614 157.45 103.222 150.188 103.247Z" fill="#4E2445"/>
<path d="M168.138 92.8661C168.087 84.147 161.004 77.1154 152.285 77.1665C143.566 77.2177 136.534 84.3004 136.585 93.0195C136.636 101.739 143.719 108.77 152.438 108.719C161.157 108.694 168.189 101.585 168.138 92.8661Z" fill="#A32B47"/>
<path d="M164.251 92.892C164.226 86.6019 159.086 81.5136 152.796 81.5392C146.506 81.5647 141.418 86.7042 141.443 92.9942C141.469 99.2843 146.608 104.373 152.899 104.347C159.214 104.321 164.302 99.182 164.251 92.892Z" fill="#4E0902"/>
<path d="M163.305 92.8151C163.279 86.525 158.14 81.4367 151.85 81.4623C145.56 81.4878 140.472 86.6273 140.497 92.9173C140.523 99.2074 145.662 104.296 151.952 104.27C158.242 104.245 163.331 99.1307 163.305 92.8151Z" fill="#D8676C"/>
<path d="M145.228 95.6532C145.202 89.3631 150.265 84.2237 156.58 84.1981C157.706 84.1981 158.779 84.3515 159.802 84.6583C157.731 82.6639 154.918 81.4622 151.825 81.4622C145.535 81.4877 140.446 86.6272 140.472 92.9172C140.497 98.1078 143.975 102.455 148.705 103.81C146.583 101.764 145.228 98.8749 145.228 95.6532Z" fill="#CC4861"/>
<path d="M155.864 93.4286C155.225 92.994 154.458 92.8405 153.589 92.9173V92.8917C154.228 92.5081 154.688 91.9968 154.944 91.3831C155.225 90.7694 155.276 90.0791 155.097 89.3631C154.893 88.4938 154.407 87.8545 153.64 87.471C153.129 87.2153 152.515 87.0874 151.85 87.113C151.85 86.8829 151.825 86.6528 151.773 86.3971C151.569 85.4766 151.032 84.7862 150.623 84.8885C150.188 84.9907 150.009 85.809 150.239 86.755C150.29 86.9596 150.367 87.1641 150.444 87.3431L149.83 87.471C149.83 87.2664 149.805 87.0619 149.753 86.8573C149.549 85.9368 149.012 85.2464 148.603 85.3487C148.168 85.451 147.989 86.2692 148.219 87.2153C148.27 87.4198 148.347 87.6244 148.424 87.8034L147.273 88.0591C147.248 88.0591 147.222 88.0591 147.222 88.0846C146.225 88.3148 145.483 88.8006 145.586 89.1586C145.662 89.5421 146.557 89.6444 147.529 89.4142C147.554 89.4142 147.58 89.4142 147.58 89.3887L149.881 99.4374C149.856 99.4374 149.83 99.4374 149.83 99.463C148.833 99.6931 148.091 100.179 148.194 100.562C148.27 100.946 149.14 101.048 150.137 100.818C150.163 100.818 150.188 100.818 150.188 100.793L151.339 100.537C151.339 100.741 151.364 100.946 151.415 101.151C151.62 102.071 152.157 102.761 152.566 102.659C153.001 102.557 153.18 101.739 152.95 100.793C152.898 100.588 152.822 100.384 152.745 100.205L153.359 100.077C153.359 100.281 153.384 100.486 153.435 100.69C153.64 101.611 154.177 102.301 154.586 102.199C155.021 102.097 155.2 101.278 154.97 100.332C154.918 100.077 154.842 99.8721 154.739 99.6676C155.507 99.3607 156.12 98.8749 156.58 98.2612C157.22 97.4175 157.399 96.4203 157.143 95.3463C156.938 94.5281 156.529 93.8633 155.864 93.4286ZM153.589 90.0279C153.742 90.7439 153.64 91.3575 153.256 91.8689C152.873 92.3803 152.285 92.7127 151.467 92.8917L149.932 93.2497L148.986 89.133L150.699 88.7494C152.361 88.3403 153.308 88.775 153.589 90.0279ZM155.225 97.622C154.842 98.159 154.202 98.5169 153.333 98.7215L151.313 99.1817L150.265 94.5793L151.978 94.1957C154.023 93.7355 155.225 94.2469 155.583 95.7555C155.737 96.4714 155.634 97.0851 155.225 97.622Z" fill="#532242"/>
<path d="M156.427 93.301C155.788 92.8663 155.021 92.7129 154.151 92.7896V92.764C154.791 92.3805 155.251 91.8691 155.506 91.2554C155.788 90.6417 155.839 89.9514 155.66 89.2354C155.455 88.3661 154.97 87.7268 154.202 87.3433C153.691 87.0876 153.077 86.9597 152.413 86.9853C152.413 86.7552 152.387 86.5251 152.336 86.2694C152.131 85.3489 151.594 84.6585 151.185 84.7608C150.751 84.8631 150.572 85.6813 150.802 86.6273C150.853 86.8319 150.93 87.0365 151.006 87.2154L150.393 87.3433C150.393 87.1387 150.367 86.9342 150.316 86.7296C150.111 85.8091 149.574 85.1188 149.165 85.221C148.731 85.3233 148.552 86.1415 148.782 87.0876C148.833 87.2921 148.91 87.4967 148.986 87.6757L147.836 87.9314C147.81 87.9314 147.785 87.9314 147.785 87.957C146.787 88.1871 146.046 88.6729 146.148 89.0309C146.225 89.4144 147.094 89.5167 148.091 89.2866C148.117 89.2866 148.143 89.2866 148.143 89.261L150.444 99.3098C150.418 99.3098 150.393 99.3098 150.393 99.3353C149.395 99.5655 148.654 100.051 148.756 100.409C148.833 100.793 149.728 100.895 150.699 100.665C150.725 100.665 150.751 100.665 150.751 100.639L151.901 100.384C151.901 100.588 151.927 100.793 151.978 100.997C152.182 101.918 152.719 102.608 153.129 102.506C153.563 102.404 153.742 101.585 153.512 100.639C153.461 100.435 153.384 100.23 153.308 100.051L153.921 99.9234C153.921 100.128 153.947 100.333 153.998 100.537C154.202 101.458 154.739 102.148 155.149 102.046C155.583 101.943 155.762 101.125 155.532 100.179C155.481 99.9234 155.404 99.7189 155.302 99.5143C156.069 99.2075 156.683 98.7217 157.143 98.108C157.782 97.2642 157.961 96.267 157.705 95.1931C157.475 94.4004 157.066 93.7356 156.427 93.301ZM154.151 89.9002C154.305 90.6162 154.202 91.2298 153.819 91.7412C153.435 92.2526 152.847 92.585 152.029 92.764L150.495 93.122L149.549 89.0053L151.262 88.6218C152.898 88.2126 153.87 88.6473 154.151 89.9002ZM155.788 97.4943C155.404 98.0313 154.765 98.3893 153.896 98.5938L151.876 99.0541L150.827 94.4516L152.54 94.068C154.586 93.6078 155.788 94.1192 156.146 95.6278C156.274 96.3437 156.171 96.9574 155.788 97.4943Z" fill="#A32B47"/>
<path d="M195.012 97.3409C196.009 87.9825 189.208 79.5702 179.849 78.5985C170.491 77.6013 162.078 84.4028 161.107 93.7611C160.11 103.12 166.911 111.532 176.269 112.503C185.628 113.501 194.04 106.699 195.012 97.3409Z" fill="#892544"/>
<path d="M177.446 106.239C168.701 105.319 162.206 97.9292 162.181 89.3379C161.644 90.7186 161.286 92.2017 161.107 93.7358C160.11 103.094 166.911 111.507 176.269 112.478C185.628 113.475 194.04 106.674 195.012 97.3155C195.089 96.7019 195.114 96.0626 195.114 95.449C192.404 102.481 185.244 107.083 177.446 106.239Z" fill="#4E2445"/>
<path d="M197.952 97.2388C198.949 87.8804 192.148 79.4681 182.79 78.4965C173.431 77.4993 165.019 84.3007 164.047 93.6591C163.05 103.017 169.851 111.43 179.21 112.401C188.568 113.399 196.955 106.597 197.952 97.2388Z" fill="#A32B47"/>
<path d="M193.784 96.804C194.5 90.0281 189.59 83.9682 182.84 83.2522C176.064 82.5363 170.004 87.4456 169.288 94.1959C168.572 100.972 173.481 107.032 180.232 107.748C187.008 108.464 193.068 103.554 193.784 96.804Z" fill="#4E0902"/>
<path d="M192.761 96.5996C193.477 89.8237 188.568 83.7638 181.817 83.0479C175.042 82.3319 168.982 87.2412 168.266 93.9915C167.55 100.767 172.459 106.827 179.209 107.543C185.985 108.285 192.045 103.376 192.761 96.5996Z" fill="#D8676C"/>
<path d="M173.022 97.4946C173.738 90.7187 179.798 85.8349 186.574 86.5509C187.776 86.6787 188.927 86.9855 189.975 87.4202C188.006 85.0423 185.117 83.4058 181.793 83.0479C175.017 82.3319 168.957 87.2412 168.241 93.9916C167.653 99.5657 170.875 104.628 175.784 106.674C173.738 104.219 172.664 100.946 173.022 97.4946Z" fill="#CC4861"/>
<path d="M184.733 96.395C184.094 95.8581 183.301 95.5768 182.329 95.5768V95.5257C183.071 95.1933 183.608 94.7074 183.966 94.0682C184.324 93.429 184.477 92.713 184.375 91.9204C184.273 90.9743 183.812 90.2328 183.045 89.7214C182.508 89.3634 181.895 89.1845 181.179 89.1333C181.204 88.9032 181.204 88.6219 181.179 88.3662C181.051 87.3435 180.591 86.5508 180.105 86.602C179.645 86.6531 179.338 87.5225 179.466 88.5452C179.491 88.7753 179.542 89.0055 179.593 89.21L178.929 89.2867C178.954 89.0822 178.929 88.8521 178.903 88.5964C178.775 87.5736 178.315 86.7809 177.829 86.8321C177.369 86.8832 177.062 87.7526 177.19 88.7753C177.215 89.0055 177.267 89.2356 177.318 89.4402L176.065 89.5936C176.039 89.5936 176.014 89.5936 175.988 89.5936C174.889 89.7214 174.045 90.1561 174.096 90.5652C174.147 90.9743 175.068 91.2044 176.167 91.0766C176.193 91.0766 176.218 91.0766 176.244 91.0766L177.522 102.148C177.497 102.148 177.471 102.148 177.446 102.148C176.346 102.276 175.502 102.711 175.553 103.12C175.605 103.529 176.525 103.759 177.625 103.631C177.65 103.631 177.676 103.631 177.701 103.631L178.954 103.478C178.929 103.682 178.954 103.912 178.98 104.168C179.108 105.191 179.568 105.984 180.054 105.932C180.514 105.881 180.821 105.012 180.693 103.989C180.667 103.759 180.616 103.529 180.565 103.324L181.23 103.248C181.204 103.452 181.23 103.682 181.255 103.938C181.383 104.961 181.843 105.753 182.329 105.702C182.79 105.651 183.096 104.782 182.969 103.759C182.943 103.478 182.892 103.248 182.815 103.017C183.659 102.762 184.375 102.353 184.937 101.713C185.704 100.87 186.037 99.8469 185.909 98.6451C185.73 97.6735 185.372 96.932 184.733 96.395ZM182.687 92.4573C182.79 93.25 182.585 93.8892 182.125 94.375C181.664 94.8609 180.974 95.1677 180.079 95.27L178.392 95.4745L177.88 90.9487L179.772 90.7442C181.562 90.4885 182.534 91.0766 182.687 92.4573ZM183.531 100.793C183.045 101.304 182.329 101.637 181.358 101.739L179.133 101.995L178.545 96.932L180.437 96.7274C182.687 96.4717 183.915 97.1621 184.119 98.8241C184.221 99.6168 184.017 100.282 183.531 100.793Z" fill="#532242"/>
<path d="M185.321 96.3184C184.681 95.7814 183.889 95.5001 182.917 95.5001V95.449C183.659 95.1166 184.196 94.6308 184.554 93.9915C184.912 93.3523 185.065 92.6364 184.963 91.8437C184.86 90.8977 184.4 90.1561 183.633 89.6447C183.096 89.2868 182.483 89.1078 181.767 89.0567C181.792 88.8265 181.792 88.5453 181.767 88.2896C181.639 87.2668 181.178 86.4742 180.693 86.5253C180.232 86.5764 179.926 87.4458 180.053 88.4686C180.079 88.6987 180.13 88.9288 180.181 89.1334L179.516 89.2101C179.542 89.0055 179.516 88.7754 179.491 88.5197C179.363 87.4969 178.903 86.7043 178.417 86.7554C177.957 86.8066 177.65 87.6759 177.778 88.6987C177.803 88.9288 177.854 89.1589 177.906 89.3635L176.653 89.5169C176.627 89.5169 176.602 89.5169 176.576 89.5169C175.476 89.6447 174.633 90.0794 174.684 90.4885C174.735 90.8977 175.655 91.1278 176.755 90.9999C176.781 90.9999 176.806 90.9999 176.832 90.9999L178.11 102.071C178.085 102.071 178.059 102.071 178.033 102.071C176.934 102.199 176.09 102.634 176.141 103.043C176.192 103.452 177.113 103.682 178.212 103.554C178.238 103.554 178.264 103.554 178.289 103.554L179.542 103.401C179.516 103.606 179.542 103.836 179.568 104.091C179.695 105.114 180.156 105.907 180.642 105.856C181.102 105.805 181.409 104.935 181.281 103.912C181.255 103.682 181.204 103.452 181.153 103.248L181.818 103.171C181.792 103.376 181.818 103.606 181.843 103.861C181.971 104.884 182.431 105.677 182.917 105.626C183.377 105.574 183.684 104.705 183.556 103.682C183.531 103.401 183.48 103.171 183.403 102.941C184.247 102.685 184.963 102.276 185.525 101.637C186.292 100.793 186.625 99.7702 186.497 98.5685C186.343 97.5968 185.96 96.8553 185.321 96.3184ZM183.275 92.3807C183.377 93.1733 183.173 93.8126 182.713 94.2984C182.252 94.7842 181.562 95.091 180.667 95.1933L178.979 95.3979L178.468 90.8721L180.36 90.6675C182.15 90.4374 183.122 90.9999 183.275 92.3807ZM184.145 100.716C183.659 101.228 182.943 101.56 181.971 101.662L179.747 101.918L179.158 96.8553L181.051 96.6508C183.301 96.3951 184.528 97.0854 184.733 98.7474C184.809 99.5401 184.605 100.205 184.145 100.716Z" fill="#A32B47"/>
<path d="M194.935 138.457C194.909 138.124 194.883 137.817 194.832 137.485C191.815 113.885 178.954 100.946 165.453 103.145C148.577 105.881 135.741 128.152 137.864 144.747C137.915 145.079 137.966 145.412 138.017 145.718L194.935 138.457Z" fill="#F8D475"/>
<path d="M167.55 120.635C175.221 119.356 182.738 126.337 186.573 139.531L186.778 139.505C183.096 125.391 175.297 117.848 167.371 119.177C157.987 120.763 150.623 132.652 148.961 144.312L149.396 144.261C151.416 133.113 158.549 122.143 167.55 120.635Z" fill="#FAA83A"/>
<path d="M168.036 125.058C160.314 126.362 153.947 134.647 151.007 144.056L151.697 143.954C154.817 135.21 160.902 127.718 168.215 126.49C174.684 125.416 181.051 130.223 185.193 139.684L185.602 139.633C181.486 129.252 174.812 123.908 168.036 125.058Z" fill="#FAA83A"/>
<path d="M166.681 115.853C176.295 114.293 185.5 123.064 188.517 139.3L189.08 139.223C186.369 122.015 176.704 112.682 166.579 114.319C154.075 116.339 144.436 132.217 145.075 144.849L145.74 144.772C145.868 132.396 154.97 117.745 166.681 115.853Z" fill="#FAA83A"/>
<path d="M165.58 107.543C150.597 109.972 139.218 129.737 141.11 144.44C141.136 144.721 141.187 145.028 141.238 145.309L141.392 145.284C140.573 130.811 151.466 112.529 165.631 110.228C177.112 108.361 188.081 119.152 191.15 138.942L191.738 138.866C191.712 138.584 191.686 138.303 191.635 137.996C188.976 117.055 177.547 105.6 165.58 107.543Z" fill="#FAA83A"/>
<path opacity="0.5" d="M159.368 133.803C151.8 134.775 144.615 134.391 138.58 132.985C137.66 136.999 137.404 141.014 137.864 144.747C137.915 145.079 137.967 145.412 138.018 145.718L194.935 138.457C194.91 138.124 194.884 137.817 194.833 137.485C193.938 130.428 192.148 124.342 189.745 119.331C184.784 126.235 173.303 132.039 159.368 133.803Z" fill="#FAA83F"/>
<path d="M158.651 143.443C161.541 139.812 165.095 137.255 169.007 136.59C172.766 135.951 176.499 137.434 179.772 140.732L180.795 140.605C177.266 136.36 173.073 134.417 168.828 135.133C164.353 135.9 160.339 139.122 157.245 143.622L158.651 143.443Z" fill="#FAA83A"/>
<path d="M154.688 143.954C157.961 137.69 162.794 132.883 168.393 131.937C173.533 131.067 178.596 134.11 182.508 140.4L183.121 140.323C179.133 133.113 173.712 129.559 168.214 130.479C162.18 131.502 156.989 137.05 153.742 144.082L154.688 143.954Z" fill="#FAA83A"/>
<path d="M110.224 105.676C109.099 102.583 109.201 100.588 109.559 99.2329L109.482 99.2585C109.124 101.202 107.974 103.119 109.099 106.188C110.761 110.765 114.417 109.614 115.312 112.299C116.463 115.751 113.113 115.93 114.11 120.404C114.98 124.316 117.716 123.831 118.713 126.95C119.403 129.149 118.202 131.808 118.534 132.627C118.253 131.706 120.196 127.819 119.48 125.621C118.483 122.527 116.105 123.805 115.236 119.893C114.238 115.418 117.588 115.239 116.437 111.787C115.542 109.103 111.886 110.253 110.224 105.676Z" fill="#99A1B9"/>
<path d="M126.716 139.684C128.301 144.695 132.111 141.269 133.364 145.207C133.722 146.332 133.543 147.303 133.287 148.326L133.389 148.275C133.696 146.204 134.719 145.309 134.514 144.67C133.261 140.732 129.451 144.158 127.866 139.147C126.613 135.184 130.167 133.215 129.579 131.348C128.863 129.098 126.204 129.533 124.593 126.234C123.443 123.831 125.335 121.197 125.412 118.921C125.514 116.416 122.701 114.907 122.701 114.907C122.701 114.907 124.363 116.927 124.286 119.433C124.21 121.708 122.292 124.342 123.468 126.746C125.079 130.044 127.738 129.609 128.454 131.859C129.042 133.752 125.463 135.695 126.716 139.684Z" fill="#404463"/>
<path d="M165.019 131.655C161.081 142.445 151.109 147.227 141.648 143.749C133.031 140.604 127.994 130.223 131.957 119.433C135.895 108.643 147.938 99.9234 156.53 103.068C165.146 106.213 168.982 120.865 165.019 131.655Z" fill="#FFF3EC"/>
<path d="M133.594 122.22C137.531 111.43 149.575 102.71 158.166 105.856C160.467 106.699 162.41 108.336 163.97 110.535C162.231 107.006 159.7 104.245 156.53 103.094C147.913 99.949 135.895 108.668 131.957 119.458C129.426 126.413 130.602 133.164 134.054 137.971C131.932 133.47 131.497 127.896 133.594 122.22Z" fill="white"/>
<path d="M158.473 132.141C156.376 137.868 149.984 140.783 144.179 138.661C138.375 136.539 134.54 129.865 136.637 124.137C138.733 118.41 146.532 114.268 152.336 116.39C158.115 118.512 160.569 126.413 158.473 132.141Z" fill="#F0C23E"/>
<path d="M159.086 125.927C159.035 127.257 158.805 128.587 158.345 129.788C156.248 135.516 149.856 138.431 144.051 136.309C139.884 134.774 136.739 130.914 136.048 126.746C135.716 131.757 139.219 136.846 144.154 138.635C149.958 140.758 156.35 137.843 158.447 132.115C159.163 130.223 159.367 128.05 159.086 125.927Z" fill="#DAA52E"/>
<path d="M148.884 119.049C149.651 120.635 148.015 123.013 145.202 124.419C142.389 125.8 139.5 125.646 138.707 124.087C137.94 122.501 139.577 120.123 142.389 118.717C145.202 117.336 148.117 117.49 148.884 119.049Z" fill="#F0E180"/>
<path d="M166.45 119.688C166.425 122.782 165.939 125.876 164.891 128.714C160.953 139.505 150.981 144.286 141.52 140.809C135.614 138.661 131.395 133.087 130.602 126.337C130.372 134.391 134.923 141.295 141.648 143.749C151.134 147.227 161.081 142.445 165.018 131.655C166.399 127.922 166.834 123.703 166.45 119.688Z" fill="#F1DABC"/>
<path d="M216.771 111.915C223.291 120.123 222.243 130.146 215.032 135.848C208.486 141.039 198.028 140.016 191.508 131.808C184.988 123.601 183.94 110.1 190.485 104.909C197.031 99.7189 210.251 103.708 216.771 111.915Z" fill="#FFF3EC"/>
<path d="M194.449 131.859C187.928 123.652 186.88 110.151 193.426 104.96C195.165 103.58 197.389 102.838 199.818 102.685C196.239 102.352 192.914 103.017 190.485 104.935C183.94 110.125 184.988 123.626 191.508 131.834C195.702 137.127 201.531 139.428 206.901 139.019C202.426 138.507 197.875 136.181 194.449 131.859Z" fill="white"/>
<path d="M214.01 117.234C217.462 121.581 216.694 127.948 212.271 131.451C207.847 134.954 200.841 134.749 197.39 130.402C193.938 126.055 194.424 118.001 198.847 114.498C203.245 111.021 210.558 112.887 214.01 117.234Z" fill="#F0C23E"/>
<path d="M209.483 113.808C210.506 114.472 211.401 115.291 212.142 116.211C215.594 120.558 214.827 126.925 210.404 130.428C207.233 132.934 202.733 133.547 199.179 132.09C202.912 134.749 208.537 134.417 212.296 131.45C216.719 127.947 217.486 121.581 214.035 117.234C212.858 115.776 211.247 114.6 209.483 113.808Z" fill="#DAA52E"/>
<path d="M199.28 118.461C200.866 118.615 201.965 121.044 201.684 123.882C201.428 126.72 199.92 128.919 198.334 128.766C196.749 128.612 195.649 126.209 195.931 123.345C196.186 120.481 197.695 118.308 199.28 118.461Z" fill="#F0E180"/>
<path d="M208.128 105.088C210.532 106.571 212.705 108.438 214.418 110.586C220.938 118.794 219.89 128.817 212.679 134.519C208.205 138.073 201.864 138.712 196.238 136.13C202.4 140.144 209.918 139.888 215.032 135.823C222.242 130.095 223.265 120.098 216.77 111.89C214.52 109.052 211.452 106.725 208.128 105.088Z" fill="#F1DABC"/>
<path d="M204.523 146.945C204.523 146.69 204.523 146.46 204.498 146.204C203.654 128.408 194.04 118.026 182.866 118.896C168.905 119.97 156.913 135.899 157.501 148.403C157.501 148.659 157.527 148.889 157.552 149.144L204.523 146.945Z" fill="#F8D475"/>
<path d="M183.402 132.09C189.744 131.553 195.42 137.204 197.645 147.278H197.824C195.778 136.539 189.948 130.453 183.377 131.016C175.604 131.655 168.777 140.144 166.629 148.761L166.987 148.735C169.39 140.502 175.962 132.729 183.402 132.09Z" fill="#FAA83A"/>
<path d="M183.479 135.439C177.087 135.976 171.308 141.806 168.266 148.684L168.854 148.659C171.999 142.292 177.471 137.05 183.531 136.564C188.9 136.13 193.758 140.067 196.494 147.38L196.827 147.355C194.193 139.326 189.105 134.954 183.479 135.439Z" fill="#FAA83A"/>
<path d="M183.019 128.484C190.971 127.871 197.875 134.928 199.23 147.227L199.691 147.201C198.668 134.186 191.406 126.669 183.019 127.334C172.664 128.126 163.714 139.454 163.356 148.914L163.893 148.889C164.891 139.658 173.328 129.226 183.019 128.484Z" fill="#FAA83A"/>
<path d="M182.688 122.22C170.286 123.191 159.65 137.306 160.186 148.403C160.186 148.633 160.212 148.837 160.238 149.068H160.365C160.698 138.201 170.823 125.16 182.56 124.265C192.046 123.524 200.254 132.192 201.404 147.15L201.89 147.124C201.89 146.92 201.89 146.69 201.865 146.485C201.123 130.632 192.608 121.427 182.688 122.22Z" fill="#FAA83A"/>
<path opacity="0.5" d="M175.834 141.474C169.595 141.755 163.74 141.09 158.933 139.684C157.91 142.624 157.424 145.616 157.552 148.428C157.552 148.684 157.578 148.914 157.603 149.17L204.549 146.971C204.549 146.715 204.549 146.485 204.523 146.229C204.268 140.911 203.245 136.257 201.608 132.371C197.083 137.255 187.315 140.937 175.834 141.474Z" fill="#FAA83F"/>
<path d="M174.556 148.633C177.164 146.102 180.232 144.389 183.479 144.107C186.599 143.852 189.539 145.156 191.994 147.815L192.838 147.764C190.255 144.389 186.957 142.701 183.454 143.008C179.746 143.315 176.269 145.514 173.431 148.684L174.556 148.633Z" fill="#FAA83A"/>
<path d="M171.283 148.786C174.377 144.286 178.673 140.988 183.275 140.579C187.52 140.221 191.457 142.778 194.219 147.687L194.73 147.661C191.969 142.062 187.775 139.096 183.224 139.479C178.212 139.888 173.61 143.749 170.465 148.812L171.283 148.786Z" fill="#FAA83A"/>
<path d="M162.589 151.011C162.564 156.074 155.327 157.889 128.786 157.02C117.792 156.662 101.427 154.642 95.3929 154.361C82.5826 153.773 72.5594 145.539 72.9941 136.002C73.4288 126.465 85.2418 110.458 97.9498 112.171C120.374 115.188 114.928 135.951 126.127 140.144C136.713 144.133 162.768 127.871 162.589 151.011Z" fill="#FCAB3E"/>
<path d="M76.3434 138.175C75.653 129.635 85.0625 117.822 96.9012 118.384C114.135 119.177 112.959 138.917 125.155 142.369C134.744 145.079 162.563 133.88 159.572 155.051C165.58 132.78 139.628 143.596 126.587 141.653C113.751 139.76 116.283 117.132 96.6199 116.211C84.679 115.649 74.9115 128.791 75.6019 137.306C75.832 140.297 77.136 143.136 79.2583 145.565C77.5707 143.366 76.5479 140.834 76.3434 138.175Z" fill="#FCD676"/>
<path d="M123.621 143.468C113.752 140.732 114.314 123.959 98.589 122.476C87.3896 121.427 78.3636 128.663 78.7983 138.482C78.8494 139.837 80.1023 143.903 80.9717 145.13C80.5114 144.209 79.4886 140.502 79.4375 139.505C79.0284 129.686 87.2617 124.112 98.3333 124.47C112.396 124.93 113.01 141.576 122.752 144.312C131.906 146.869 157.066 138.175 158.14 155.383C158.293 155.153 158.728 154.693 158.754 154.412C159.828 136.36 132.98 146.05 123.621 143.468Z" fill="#FCD676"/>
<path d="M122.395 145.948C113.957 143.698 111.17 129.2 98.2831 127.538C79.1572 125.084 81.9954 145.335 82.021 145.82C81.2539 132.09 90.152 128.254 98.0274 129.277C110.761 130.939 113.574 144.465 121.909 146.715C129.81 148.838 154.817 143.238 154.843 154.795C154.843 155.025 155.277 155 155.098 155.204C155.763 154.744 155.201 155.307 155.303 154.821C158.141 141.704 130.373 148.096 122.395 145.948Z" fill="#FCD676"/>
<path d="M120.452 148.889C112.576 146.818 109.917 133.803 97.8738 132.192C88.9501 130.99 83.197 139.249 83.0947 146.153C83.6061 139.684 90.2797 132.831 97.6437 133.777C109.559 135.286 112.218 147.559 119.991 149.605C127.355 151.548 151.237 146.766 150.802 156.969C150.802 157.173 151.263 156.662 151.109 156.841C151.723 156.432 150.7 157.403 150.802 156.969C153.845 145.59 127.918 150.832 120.452 148.889Z" fill="#FCD676"/>
<path d="M117.357 151.932C110.402 150.014 108.127 137.587 97.4898 136.36C89.6144 135.465 84.5517 141.985 84.4238 148.454C84.9096 142.42 90.7906 136.999 97.2597 137.843C107.769 139.224 110.07 150.679 116.948 152.571C123.443 154.361 144.537 149.554 143.949 156.099C143.847 157.173 143.898 157.276 143.77 157.455C144.307 157.071 144.077 157.148 144.256 156.764C147.938 147.84 123.929 153.747 117.357 151.932Z" fill="#FCD676"/>
<path d="M114.391 154.668C108.05 153.006 106.158 142.139 96.4414 140.911C90.2281 140.119 84.7818 144.465 84.7051 150.014C85.1142 144.823 90.0746 141.755 96.0067 142.497C105.621 143.724 107.743 153.568 114.033 155.23C119.991 156.79 140.804 153.031 138.708 158.324C138.656 158.477 138.554 158.631 138.426 158.784C138.912 158.452 139.219 158.119 139.347 157.787C141.469 152.494 120.4 156.253 114.391 154.668Z" fill="#FCD676"/>
<path opacity="0.4" d="M95.4185 154.361C101.453 154.642 117.817 156.636 128.812 157.02C155.353 157.889 162.359 156.074 162.615 151.011C162.819 146.485 161.848 143.545 160.083 141.678C144.154 148.48 127.073 150.934 109.916 148.045C96.5691 145.795 84.3214 140.528 73.5055 132.831C73.2498 133.931 73.0964 135.005 73.0453 136.002C72.5594 145.539 82.5826 153.773 95.4185 154.361Z" fill="#C26420"/>
<path d="M145.33 149.758C113.419 149.784 84.8073 144.977 73.2244 134.544C73.0198 135.951 72.5596 139.556 72.5596 141.09C72.5596 178.626 92.0946 209.13 147.043 209.053C197.082 208.977 221.527 178.626 221.527 141.09C221.527 135.644 220.325 131.987 219.532 130.198C214.393 136.82 177.803 149.733 145.33 149.758Z" fill="#603F52"/>
<path d="M144.87 157.199C114.033 157.25 86.1623 153.159 72.585 144.261C72.5339 145.258 72.7128 147.968 72.9174 149.912C86.1112 159.04 114.186 163.31 144.895 163.284C177.419 163.259 214.751 150.602 221.475 143.826C221.578 141.729 221.552 140.425 221.424 138.533C212.859 145.386 176.78 157.173 144.87 157.199Z" fill="#B58577"/>
<path d="M75.1169 163.029C89.359 170.623 115.082 174.177 143.183 174.151C170.567 174.126 207.183 163.208 220.044 156.406C220.249 155.358 220.325 155.076 220.504 153.849C206.85 160.574 170.567 171.569 143.131 171.594C114.877 171.62 89.3334 168.245 74.6055 160.932C74.8356 161.903 74.8612 162.006 75.1169 163.029Z" fill="#9F7664"/>
</svg>
