<svg width="230" height="102" viewBox="0 0 230 102" fill="none" xmlns="http://www.w3.org/2000/svg">
<path d="M86.0125 20.65L78.2906 13C75.3964 17.9887 71.3496 24.4827 65.3865 32.852C64.2442 34.455 65.1244 36.7549 66.5955 38.0599L72.3275 43.8826C79.5887 33.6946 80.4707 32.1995 86.1992 23.4415C86.8859 22.402 86.7918 21.4241 86.0125 20.65ZM79.0698 19.1858C78.8845 19.1858 78.7034 19.1308 78.5494 19.0279C78.3953 18.925 78.2753 18.7787 78.2044 18.6075C78.1335 18.4363 78.1149 18.248 78.151 18.0662C78.1872 17.8845 78.2764 17.7176 78.4074 17.5866C78.5384 17.4556 78.7053 17.3664 78.8871 17.3302C79.0688 17.2941 79.2571 17.3126 79.4283 17.3835C79.5995 17.4544 79.7458 17.5745 79.8487 17.7286C79.9516 17.8826 80.0066 18.0637 80.0066 18.249C80.0066 18.4974 79.9079 18.7357 79.7322 18.9114C79.5565 19.0871 79.3183 19.1858 79.0698 19.1858Z" fill="#6B547E"/>
<path d="M100.739 94.7607H21" stroke="#6B547E" stroke-width="0.927021" stroke-miterlimit="10"/>
<path d="M96.2585 70.3001L74.1048 47.8998L62.8019 36.6055C51.0863 52.4124 39.7662 64.7942 34.1371 70.6358C32.6968 72.1291 32.6728 74.7117 34.1371 76.1776L49.0706 90.8097C50.4543 86.6671 52.244 83.5245 53.2064 82.6425C58.0016 78.2464 55.8969 76.3934 55.8969 76.3934C57.5991 75.5748 58.5787 77.9347 58.5787 77.9347C60.3718 80.805 62.7009 78.8475 63.8158 75.1552C65.2509 70.4097 64.571 64.4295 68.7565 60.804C71.4795 58.4458 74.9423 60.929 74.9423 60.929C73.4489 61.2715 71.4692 64.0407 71.9093 66.8185C72.8324 72.6497 78.7681 72.9152 80.3334 70.9646C81.2736 69.7748 81.8025 68.3121 81.8405 66.7962C85.6184 68.7091 89.2815 73.7184 88.218 80.1833C90.7526 76.9979 93.628 73.8845 96.2585 70.3001ZM36.199 74.1088C36.0132 74.1092 35.8315 74.0544 35.6769 73.9514C35.5224 73.8484 35.4018 73.7019 35.3306 73.5303C35.2593 73.3587 35.2406 73.1699 35.2767 72.9877C35.3129 72.8055 35.4023 72.6381 35.5337 72.5068C35.665 72.3754 35.8324 72.286 36.0146 72.2498C36.1968 72.2137 36.3856 72.2324 36.5572 72.3036C36.7288 72.3749 36.8753 72.4954 36.9783 72.65C37.0813 72.8046 37.1361 72.9863 37.1358 73.1721C37.1358 73.4205 37.0371 73.6588 36.8614 73.8345C36.6857 74.0102 36.4474 74.1088 36.199 74.1088Z" fill="#6B547E"/>
<path opacity="0.2" d="M64.9748 89.8241L68.1447 90.48C65.7797 89.9354 64.1185 87.8974 62.4145 85.9896C61.9112 85.5303 61.4425 85.0346 61.0119 84.5066C61.4931 84.9689 61.9555 85.4759 62.4145 85.9896C63.5465 87.0326 64.8121 87.8974 66.0965 88.74C63.2666 86.516 60.5655 84.1329 58.0064 81.602C55.5334 79.2045 52.8515 77.295 50.1714 75.3854C49.089 74.5942 48.2156 73.6095 47.3919 72.5803C47.5409 72.594 47.6916 72.6025 47.844 72.6025C46.8226 71.3295 45.675 70.163 44.4189 69.1209C44.3024 69.0233 44.1877 68.9257 44.0764 68.8298C41.4979 66.7533 39.0765 64.4888 36.8322 62.0549C36.2431 61.4281 35.5358 60.9143 34.9484 60.2858C34.3901 59.9262 34.4158 61.3767 33.5613 60.7037C33.5715 60.7804 33.5715 60.8581 33.5613 60.9349C34.2737 61.3887 34.9861 61.7106 34.8902 62.1148C34.6042 62.7998 33.2753 61.9076 32.0919 61.6644C31.9785 61.7331 31.8586 61.7905 31.7339 61.8357L31.5233 61.6113C31.4668 61.6113 31.4137 61.6216 31.3606 61.6267C31.2121 61.8052 31.023 61.9455 30.8092 62.036L31.5832 62.8615C31.0121 62.9781 30.4191 62.9184 29.8827 62.6902L29.8724 62.7039L29.8433 62.6731C29.7217 62.6234 29.5984 62.5703 29.4648 62.5018C30.256 65.1837 28.1684 63.9079 26.2109 64.4781C26.3473 64.7029 26.5286 64.8971 26.7435 65.0484L26.389 65.3824C27.4765 67.0144 27.8858 68.4016 28.4715 70.2101C28.6428 70.6365 28.1752 71.0801 28.6171 71.551C29.7936 72.8046 30.8537 74.1712 32.1501 75.3187C35.0495 77.6289 37.6697 79.9528 40.2437 82.3967C40.2518 82.3591 40.2723 82.3253 40.3019 82.3008C40.9116 82.9002 41.5212 83.4996 42.136 84.1212C42.7235 84.7497 43.5215 84.8867 44.1106 85.5152L48.7345 86.4709C46.9037 85.2038 45.1397 83.8427 43.4496 82.3932C42.3695 81.519 41.2396 80.7082 40.0656 79.9648C39.7056 79.7227 39.3786 79.4349 39.0928 79.1086C39.11 79.0657 39.1271 79.0195 39.1442 78.9733C39.5347 79.3158 39.9251 79.6788 40.331 80.0179C40.7454 80.22 41.3945 80.1995 41.5418 80.3604C42.3672 80.768 43.1036 81.5592 43.9565 82.2237C44.782 82.6296 45.2837 83.6366 46.1366 84.3096C46.2839 84.4672 46.6675 84.4021 46.7874 84.2908C47.5546 85.5683 48.7962 85.5769 49.6987 86.6747L49.7587 86.6866L49.5874 86.0872C50.0412 86.4195 50.4848 86.6421 50.9677 86.9435L63.4866 89.5158C60.964 87.8649 57.0251 81.8675 54.0298 82.5097C54.8604 80.5505 58.9551 83.491 60.1334 84.748C61.6548 86.53 63.4722 88.0363 65.5057 89.2007C65.4014 89.4608 65.215 89.6797 64.9748 89.8241ZM32.7495 66.4784C32.7495 66.5298 32.7375 66.5812 32.7358 66.6308C32.5166 66.5247 32.3025 66.4116 32.1039 66.2969C32.2182 66.2799 32.3348 66.2874 32.4461 66.3187C32.5573 66.3499 32.6607 66.4044 32.7495 66.4784ZM31.4514 66.5178C31.482 66.4886 31.5166 66.4638 31.5541 66.4442C33.0235 67.643 34.6248 68.8058 35.4331 70.0748C34.0305 68.912 32.4207 67.7697 31.4514 66.5178ZM37.0121 76.6836C36.9998 76.6791 36.9872 76.6757 36.9744 76.6733C36.9932 76.6579 37.0086 76.639 37.0275 76.6202C37.0223 76.6407 37.0189 76.6613 37.0121 76.6836Z" fill="#B7D2F4"/>
<path opacity="0.2" d="M118.31 101.626C118.474 101.618 118.637 101.6 118.798 101.572C115.931 98.2732 112.693 95.206 109.379 92.4059C108.74 91.935 108.103 91.4452 107.463 90.9451C107.711 91.2568 107.958 91.5719 108.197 91.8973L107.314 90.9554C107.172 90.8047 107.035 90.6557 106.894 90.5016C105.827 89.659 104.743 88.7753 103.603 87.8317C104.556 88.5441 105.514 89.2805 106.478 90.0409C104.858 88.2222 103.248 86.2424 101.34 84.7542C100.243 84.0487 99.0112 82.8995 97.7696 82.0295C97.7184 82.0331 97.6675 82.04 97.6172 82.0501C97.5487 81.961 97.4767 81.8788 97.4031 81.7898C97.2199 81.7007 97.0058 81.6185 96.8722 81.5723C95.6392 80.6013 94.365 79.6645 93.144 78.5719C93.0258 78.4914 92.9059 78.4006 92.7878 78.3253C92.4127 78.0855 92.0513 77.5409 91.7602 77.2275C92.2106 77.707 92.6747 78.1506 93.1474 78.5719C94.7041 79.6234 96.105 80.2399 97.4065 81.7898C97.5137 81.8356 97.6126 81.8987 97.6994 81.9765L97.773 82.0295C98.5899 81.9765 99.5507 83.0006 100.381 83.886C100.392 83.5811 100.756 84.1257 100.914 83.9784C102.113 84.6241 103.311 85.268 104.284 85.8314C105.776 86.7905 106.796 88.1931 108.3 88.8473C108.752 89.0185 109.263 89.7155 109.783 90.1111C110.044 90.2396 110.311 90.3937 110.581 90.553C110.391 90.2978 110.203 90.0392 110.02 89.772C109.953 89.5408 114.25 93.2913 114.419 92.8392C114.498 92.7656 110.943 89.7275 108.658 87.3316C108.453 86.6466 110.199 86.6466 110.578 86.8898C110.633 86.9035 110.689 86.9258 110.749 86.9446C110.429 86.5695 110.109 86.1911 109.79 85.8212C109.18 85.3279 108.571 84.829 107.961 84.3244C106.981 83.5126 106 82.6894 105.015 81.8549C105.317 82.0415 105.622 82.2265 105.93 82.4046C106.086 82.4799 106.242 82.5759 106.394 82.6581C107.615 83.391 108.704 84.5607 109.79 85.8212C110.484 86.3806 111.18 86.9303 111.876 87.4704L111.939 87.5029C111.184 86.6911 110.465 85.816 109.742 84.9803C108.153 83.6976 106.564 82.3635 104.969 81.014C105.269 81.2024 105.574 81.3839 105.884 81.5637C107.297 82.259 108.523 83.5623 109.742 84.9803C111.258 86.2013 112.773 87.3779 114.298 88.4756C113.441 87.5628 112.462 86.5267 111.54 85.6961C107.735 82.4423 104.185 79.5121 100.602 76.5408C100.048 76.3344 99.5287 76.0457 99.0609 75.6845C98.0213 74.8916 96.9904 73.8007 96.0279 72.9256C96.0176 73.2304 95.5758 72.7543 95.497 72.8331C94.2982 72.1875 93.346 71.0161 92.3151 69.9217C92.1695 69.7659 92.2483 69.6923 92.1627 69.4696C90.0237 68.6733 88.2546 66.5994 86.4735 64.6351C85.979 64.1629 85.5092 63.6656 85.0658 63.1451C85.5368 63.6161 86.0026 64.1213 86.4667 64.6299C87.5729 65.6724 88.7364 66.6523 89.9518 67.5652C87.1825 65.1437 84.6428 62.7701 82.1099 60.2012C79.6764 57.766 77.1538 55.7092 74.6295 53.6524C73.6308 52.79 72.7104 51.841 71.8791 50.8164C72.0041 50.8524 72.1291 50.8849 72.2541 50.9089C71.2033 49.6661 70.0704 48.4949 68.8633 47.4033C68.752 47.3022 68.6406 47.1995 68.5208 47.0984C65.9297 44.8104 63.8318 42.7314 61.4342 40.178C60.8451 39.5495 60.1772 38.998 59.5897 38.3712C59.076 37.9739 59.3312 39.2018 58.5177 38.4928C58.5354 38.556 58.5463 38.6208 58.5502 38.6863C59.213 39.1881 59.8518 39.5769 59.8415 39.9022C59.7182 40.428 58.4714 39.4587 57.4627 39.058C57.3784 39.0972 57.2891 39.1249 57.1973 39.1402L56.9849 38.9158C56.9418 38.9088 56.8984 38.9042 56.8548 38.9021C56.7602 39.0293 56.6237 39.1191 56.4695 39.1556L57.2435 39.981C56.7372 39.9657 56.2442 39.8155 55.8153 39.546V39.5563L55.7861 39.5255C55.6783 39.4638 55.5669 39.3988 55.4436 39.32C56.5397 41.7176 54.6113 40.291 53.0923 40.4468C53.2432 40.6607 53.423 40.8526 53.6266 41.0171L53.3903 41.2398C54.5565 42.7982 55.1234 44.0364 55.9077 45.6599C56.1218 46.0486 55.8067 46.3449 56.2502 46.8159C57.4268 48.0695 58.528 49.4001 59.7833 50.5835C62.5542 53.017 65.0922 55.4129 67.6199 57.903C67.6195 57.8893 67.6222 57.8757 67.6278 57.8632C67.6335 57.8507 67.6419 57.8397 67.6525 57.8311C68.2519 58.439 68.8513 59.0487 69.4627 59.6738C70.074 60.2989 70.7317 60.5489 71.3208 61.1774C75.2939 65.4108 79.2791 69.3206 83.4423 73.2081C83.9068 73.4063 84.3576 73.6352 84.7918 73.8932C84.5465 73.6325 84.3177 73.3568 84.1068 73.0677C87.7254 74.3949 91.6883 78.9349 94.675 80.853C97.9956 83.0999 101.162 86.0969 104.281 89.3627C106.086 90.7191 107.908 92.1559 109.71 93.675C107.964 92.3871 106.238 91.0017 104.383 89.4706C106.041 91.2089 107.684 93.0208 109.329 94.8344C111.407 96.6634 113.167 98.6294 115.207 100.529C115.721 100.926 116.169 101.397 116.621 101.556C117.032 101.589 117.443 101.621 117.836 101.628C117.237 101.052 116.604 100.511 115.942 100.01C116.037 100.053 116.094 99.984 116.14 99.9429C115.322 99.1021 114.609 98.6191 113.777 97.7337C115.378 98.602 116.824 100.136 118.31 101.626ZM96.5605 77.1368C98.7235 78.4486 100.744 80.3581 102.726 82.1871C102.923 82.3275 103.121 82.4645 103.318 82.5981C103.681 82.877 103.999 83.2096 104.262 83.5846L104.406 83.7113L104.31 83.6513C104.676 84.1737 104.966 84.7371 105.437 85.3314L105.663 85.4136L105.426 85.6362C103.543 84.7422 102.325 82.6461 100.616 81.2983C98.3895 79.5549 96.2471 77.433 93.781 75.9123C93.4077 75.6725 93.0446 75.1279 92.7535 74.8145C94.0208 75.6896 95.2984 76.2616 96.5657 77.1368H96.5605ZM58.8122 43.228C58.8143 43.27 58.8188 43.3117 58.8259 43.3531C58.629 43.2263 58.4338 43.0962 58.2505 42.966C58.4639 42.9884 58.6636 43.0819 58.8174 43.2315L58.8122 43.228ZM57.7505 43.0448C57.7714 43.0255 57.7958 43.0104 57.8224 43.0003C59.2318 44.2556 60.7423 45.504 61.6174 46.708C60.2816 45.4989 58.7609 44.2659 57.7556 43.0482L57.7505 43.0448ZM64.0167 52.5478L63.9842 52.5341C63.9962 52.5238 64.0064 52.5101 64.0184 52.4981C64.0206 52.5158 64.0217 52.5335 64.0219 52.5512L64.0167 52.5478ZM83.641 68.8993C82.2075 68.478 80.6662 66.673 79.0256 65.5616C78.5118 65.1642 77.9056 64.8406 77.3867 64.445C75.0096 62.5457 72.6343 60.6448 70.2676 58.439C69.3051 57.5707 68.1166 56.622 67.0754 55.8274C66.735 55.5598 66.4192 55.2623 66.1317 54.9385C66.1317 54.9043 66.1454 54.87 66.1506 54.8324C66.5308 55.1937 66.9109 55.5585 67.3014 55.9113C67.6765 56.151 68.2056 56.2418 68.3546 56.3994C69.1013 56.8806 69.836 57.6632 70.6512 58.3739C71.3979 58.8535 71.9767 59.7868 72.7919 60.4975C72.8614 60.5637 72.9489 60.6076 73.0435 60.6238C73.1381 60.6399 73.2353 60.6276 73.3228 60.5883C74.1945 61.8333 75.2563 62.0183 76.2084 63.1897L75.9242 62.5714C76.5921 63.1246 77.1915 63.4465 78.0066 64.159C78.5958 64.7858 79.3527 64.9604 79.7945 65.4314C81.4232 66.8511 82.896 68.4198 84.4681 69.3052C84.1684 69.3001 83.867 68.9867 83.6461 68.9028L83.641 68.8993ZM78.9794 60.2954C79.3373 58.7798 83.1957 61.9412 84.3739 63.1982C85.9079 64.9438 87.6395 66.5053 89.5339 67.8512C88.7547 70.641 82.163 60.2389 78.9845 60.2989L78.9794 60.2954Z" fill="#B7D2F4"/>
<path opacity="0.2" d="M72.5507 88.2486C71.5644 87.5224 70.527 86.5866 69.4686 85.6652C69.37 85.5723 69.2801 85.4735 69.1996 85.3696C67.575 84.2674 65.6832 82.5839 63.8318 80.9578C63.3535 80.5517 62.8753 80.1383 62.3953 79.7106C62.8682 80.1154 63.35 80.5359 63.8318 80.9578C64.9236 81.8849 66.0137 82.7676 67.1108 83.6474C64.4735 81.4616 61.9891 79.3719 59.438 77.1804C57.0011 75.0922 54.6539 73.1819 52.3049 71.2731C51.3502 70.4924 50.4289 69.6829 49.5199 68.8706C49.6095 68.9295 49.6957 68.9854 49.7871 69.0385C48.6548 68.0339 47.5436 67.0695 46.3463 66.0691C46.239 65.9787 46.1318 65.8883 46.021 65.7979C43.5437 63.7413 41.4497 61.953 38.9882 59.8117C38.3851 59.2864 37.7574 58.7755 37.1561 58.2502C36.6814 57.8713 37.3161 58.6219 36.5407 57.9804C36.5759 58.0206 36.6093 58.0608 36.6357 58.0966C37.237 58.5774 37.782 58.9893 37.8998 59.163C38.0264 59.4098 36.8871 58.4942 36.1065 57.9574C36.0605 57.9496 36.0161 57.9365 35.9746 57.9187L35.7583 57.7307L35.6722 57.6819C35.6722 57.7264 35.6106 57.7206 35.5315 57.6991L36.3262 58.3894C35.9502 58.188 35.5971 57.9594 35.2713 57.7063L35.2414 57.6819L34.9531 57.4637C36.5495 59.1099 34.8124 57.7307 33.9351 57.3389C34.081 57.4824 34.2674 57.6403 34.4836 57.8168L34.4221 57.8627C35.7425 59.0769 36.5671 59.928 37.6748 61.0574C37.9579 61.3359 37.877 61.3976 38.3306 61.7923C39.5367 62.8428 40.7288 63.912 41.9578 64.9497C44.5951 67.1412 47.0918 69.2423 49.606 71.388C49.5955 71.3707 49.592 71.3607 49.606 71.3593L51.4311 72.9279C52.0359 73.4546 52.5493 73.8019 53.1559 74.3287C57.2332 77.8765 61.1962 81.252 65.2594 84.6721C65.6111 84.9142 65.9762 85.1797 66.3548 85.4686C66.1157 85.2591 65.8695 85.0381 65.6181 84.807L72.7301 88.3749C72.6769 88.3269 72.6167 88.2845 72.5507 88.2486ZM38.5416 60.6499L38.5996 60.723L38.095 60.3327C38.256 60.4264 38.4056 60.5326 38.5416 60.6499ZM37.8172 60.2193C37.8172 60.2193 37.8313 60.2193 37.8436 60.2193C39.1956 61.3431 40.6092 62.4969 41.6114 63.4255C40.3174 62.3434 38.9055 61.1952 37.8172 60.2179V60.2193ZM45.3107 67.335V67.3264L45.3283 67.3522L45.3107 67.335ZM63.7298 82.4045C62.6836 81.7242 61.0397 80.2632 59.598 79.1409C59.125 78.762 58.6309 78.3989 58.158 78.02C55.962 76.2418 53.7624 74.4636 51.4557 72.5218C50.5291 71.7482 49.432 70.8598 48.4843 70.1006C48.1661 69.8466 47.8584 69.5825 47.5595 69.3213C47.5507 69.3055 47.5419 69.2883 47.5296 69.2696C47.9041 69.5854 48.2786 69.9025 48.6548 70.2168C48.9783 70.4651 49.3405 70.6804 49.4917 70.8124C50.1388 71.3076 50.8983 71.9606 51.6684 72.6064C52.3137 73.1016 53.0293 73.7905 53.8046 74.432C53.9559 74.564 54.1475 74.6645 54.1686 74.6487C55.1848 75.5988 55.911 76.0322 56.9501 76.9694L56.5352 76.5389C57.1611 77.0498 57.6551 77.4129 58.4305 78.0544C59.0353 78.5811 59.5698 78.9155 60.0235 79.3073C61.5742 80.5904 63.0863 81.9065 64.3961 82.8795C64.2045 82.7776 63.9021 82.5136 63.7298 82.3973V82.4045ZM57.5479 76.2633C57.1857 75.5457 60.7812 78.4807 61.9927 79.5341C63.4801 80.8559 65.284 82.3614 66.9649 83.6818C67.5504 84.9433 59.4854 77.2206 57.5479 76.2561V76.2633Z" fill="#B7D2F4"/>
<path d="M181.153 53.6602H181.131C180.248 53.6582 179.399 54.0017 178.765 54.6173C178.132 55.2329 177.764 56.0718 177.741 56.9547C177.705 58.2243 177.657 59.7615 177.595 61.5665C177.462 65.3985 177.331 68.3756 177.202 70.498L176.199 68.3365L168.918 53.6221L166.509 53.6506L160.043 59.6811L159.964 62.0267L159.297 75.5223L158.936 79.4961C160.649 79.4707 161.82 79.458 162.446 79.458C163.182 79.458 164.258 79.458 165.664 79.4961L165.839 71.9294L166.236 62.9408C166.792 64.168 167.332 65.2937 167.854 66.3179C168.648 67.9366 169.516 69.6294 170.46 71.3962L173.317 76.7919C173.6 77.3484 174.037 78.2456 174.628 79.4834C176.519 79.458 178 79.4453 179.071 79.4453C180.358 79.4453 181.74 79.458 183.219 79.4834L183.321 74.9542L184.089 59.259L184.499 53.6094C182.649 53.6432 181.534 53.6602 181.153 53.6602Z" fill="#6B547E"/>
<path d="M187.678 79.4993C187.917 76.9347 188.082 74.8748 188.173 73.3196C188.309 71.0195 188.439 67.8572 188.564 63.8327C188.688 59.8081 188.722 59.7732 188.722 58.383V57.0087C188.725 56.5648 188.815 56.1257 188.987 55.7166C189.159 55.3074 189.41 54.9362 189.726 54.624C190.042 54.3119 190.416 54.065 190.827 53.8975C191.238 53.7299 191.678 53.645 192.122 53.6475C194.282 53.6475 196.34 53.6475 198.295 53.6475C201.257 53.6475 204.114 53.6348 206.865 53.6094C206.681 56.5167 206.59 58.4211 206.592 59.3225L205.106 59.2685L203.913 59.2495L202.716 59.2304H199.365C198.977 59.2304 197.845 59.2431 195.969 59.2685L195.816 63.6835L198.289 63.7406H201.053C201.849 63.7406 203.066 63.7216 204.703 63.6835C204.581 66.0724 204.518 67.9429 204.516 69.295C202.688 69.2316 201.33 69.1998 200.444 69.1998C198.946 69.1998 197.311 69.2316 195.54 69.295L195.362 76.119L195.346 78.6582V79.4929L191.674 79.4548L187.678 79.4993Z" fill="#6B547E"/>
<path d="M214.238 79.499C214.803 73.3627 215.143 66.6022 215.257 59.2175L207.995 59.4238L208.081 57.3195C208.081 57.183 208.081 57.0433 208.097 56.9037C208.13 56.026 208.502 55.1955 209.136 54.5873C209.769 53.9792 210.615 53.641 211.493 53.644C213.909 53.6567 216.569 53.6631 219.472 53.6631L223.687 53.644H227.778L230 53.625L229.895 55.4818C229.851 56.4784 229.82 57.3015 229.803 57.9511C229.803 58.6018 229.778 59.0937 229.778 59.4238C227.347 59.2884 225.337 59.2196 223.747 59.2175H222.554C222.383 61.4477 222.251 63.5097 222.16 65.4035C222.033 68.1141 221.936 70.7474 221.868 73.3035C221.801 75.8596 221.772 77.9247 221.783 79.499C219.919 79.4736 218.715 79.4609 218.171 79.4609C217.676 79.4609 216.365 79.4736 214.238 79.499Z" fill="#6B547E"/>
<path d="M87.1323 54.5063C87.2466 53.3193 87.3291 52.3576 87.3799 51.6149C87.4455 50.6056 87.5121 49.336 87.5798 47.8061L87.7163 44.5116C87.7735 43.0198 87.8147 41.5926 87.8401 40.2299C87.8528 39.4957 87.8644 38.7741 87.875 38.0653C87.8801 37.3952 88.1498 36.7542 88.6254 36.2821C89.1011 35.8101 89.744 35.5452 90.4142 35.5452H90.5031C91.178 35.5452 91.98 35.5356 92.9089 35.5166C92.7142 37.9436 92.5376 40.961 92.3789 44.5687C92.2202 48.1764 92.1408 51.4847 92.1408 54.4936C91.1738 54.4746 90.3571 54.4651 89.6905 54.4651C88.933 54.4735 88.0803 54.4873 87.1323 54.5063ZM92.6486 46.5207L94.8006 43.0769L95.6639 41.5947C95.8902 41.2067 96.2146 40.885 96.6046 40.6622C96.9946 40.4393 97.4365 40.3231 97.8857 40.3251H99.0188C99.8376 40.3251 100.806 40.3156 101.923 40.2966L99.4345 43.8927C98.8505 44.7179 98.2538 45.6066 97.6444 46.5588C98.2284 47.7564 99.6334 50.4014 101.859 54.4936C100.886 54.4746 100.007 54.4651 99.2219 54.4651C98.4369 54.4651 97.5185 54.4746 96.4669 54.4936L95.6925 52.7543C95.4153 52.1513 95.1772 51.6456 94.9783 51.2372C94.9053 51.0721 94.3435 49.9359 93.2644 47.8284L92.6486 46.5207Z" fill="#6B547E"/>
<path d="M103.098 54.5059C103.212 53.3759 103.301 52.4428 103.358 51.7128C103.416 50.9828 103.473 50.0433 103.527 48.9038C103.581 47.7644 103.628 46.5043 103.669 45.1205C103.711 43.7366 103.742 42.137 103.768 40.312C104.853 40.331 105.722 40.3405 106.374 40.3405C106.968 40.3405 107.82 40.331 108.929 40.312C108.783 42.064 108.677 43.6023 108.611 44.9269C108.546 46.2515 108.505 47.6554 108.491 49.1387C108.459 51.7731 108.442 53.5621 108.44 54.5059C107.45 54.4868 106.596 54.4773 105.879 54.4773C105.161 54.4773 104.234 54.4868 103.098 54.5059ZM103.885 38.5314C103.918 38.2714 103.926 38.009 103.911 37.7474V37.6998C103.924 37.031 104.199 36.3941 104.677 35.9259C105.154 35.4576 105.797 35.1954 106.466 35.1956H106.488C107.43 35.1956 108.255 35.186 108.964 35.167C108.941 35.4558 108.922 35.6971 108.916 35.8907L108.84 37.6141C108.84 37.8744 108.814 38.1791 108.814 38.5314C107.989 38.5123 107.197 38.5028 106.437 38.5028C105.678 38.5028 104.827 38.5123 103.885 38.5314Z" fill="#6B547E"/>
<path d="M120.474 50.418C120.325 51.1988 120.195 51.9574 120.087 52.7001L119.811 54.395C119.175 54.5608 118.529 54.6911 117.878 54.7853C117.432 54.8388 116.982 54.8664 116.532 54.8679C115.892 54.877 115.253 54.8099 114.628 54.6679C114.111 54.5498 113.635 54.2943 113.251 53.9284C112.897 53.5922 112.638 53.1684 112.502 52.7001C112.366 52.2199 112.299 51.7231 112.302 51.2242C112.302 51.1321 112.302 50.9671 112.302 50.7322C112.302 50.4973 112.34 49.9705 112.387 49.1452L112.66 44.3335H110.711C110.752 43.6987 110.79 42.8524 110.826 41.7944L110.861 40.5026H112.936C112.958 40.3058 112.983 40.0043 113.013 39.598C113.047 39.0499 113.259 38.5278 113.615 38.1101C113.972 37.6923 114.454 37.4014 114.99 37.281L115.263 37.2207C115.656 37.1361 116.491 36.9245 117.767 36.5859C117.71 37.8026 117.669 39.1103 117.643 40.5089H120.5C120.434 42.4345 120.4 43.704 120.398 44.3177H117.52L117.37 47.809C117.354 48.3295 117.345 48.6628 117.345 48.812C117.337 49.1865 117.381 49.5604 117.475 49.9229C117.542 50.1864 117.708 50.414 117.939 50.5576C118.161 50.6883 118.414 50.7563 118.672 50.7544C118.884 50.7547 119.097 50.7378 119.306 50.7037C119.702 50.6339 120.092 50.5385 120.474 50.418Z" fill="#6B547E"/>
<path d="M132.737 50.0701C132.695 50.4415 132.597 51.1207 132.438 52.1141L132.121 54.3359C130.869 54.6783 129.578 54.8555 128.28 54.8628C127.473 54.8719 126.668 54.765 125.89 54.5454C125.074 54.3015 124.328 53.8662 123.713 53.2758C123.061 52.6549 122.568 51.8864 122.275 51.035C121.903 49.9442 121.72 48.7977 121.736 47.6452C121.732 46.5164 121.91 45.3944 122.263 44.3221C122.565 43.3338 123.097 42.4311 123.815 41.6877C124.438 41.0319 125.223 40.5523 126.09 40.2975C126.991 40.0513 127.921 39.9316 128.855 39.942C129.453 39.9423 130.051 39.9773 130.645 40.0468C131.395 40.1466 132.137 40.2972 132.867 40.4975L132.892 40.8149C132.914 41.1323 132.933 41.4878 132.946 41.8369C132.959 42.186 132.987 42.7319 133.029 43.4842L133.105 44.722C132.098 44.2979 131.023 44.0623 129.931 44.0269C129.326 44.0134 128.729 44.159 128.198 44.449C127.707 44.7267 127.321 45.1568 127.097 45.6742C126.85 46.2616 126.729 46.894 126.741 47.5309C126.722 48.1442 126.83 48.7548 127.058 49.3242C127.26 49.7938 127.621 50.1771 128.077 50.4065C128.554 50.65 129.082 50.7741 129.617 50.7684C129.954 50.7638 130.291 50.7309 130.623 50.67C131.01 50.6065 131.35 50.5335 131.635 50.4573C132.01 50.3507 132.378 50.2214 132.737 50.0701Z" fill="#6B547E"/>
<path d="M134.97 54.5063C135.104 53.1267 135.2 51.9915 135.259 51.1007C135.378 49.2386 135.499 47.074 135.624 44.6068C135.698 42.9754 135.754 41.4096 135.792 39.9093C135.808 39.2746 135.821 38.6715 135.83 38.0653C135.839 37.3946 136.112 36.7545 136.591 36.2847C137.07 35.8149 137.715 35.5536 138.385 35.5579H138.436C139.338 35.5579 140.184 35.5483 140.975 35.5293L140.715 38.8937C140.683 39.4523 140.623 40.578 140.534 42.2708C140.742 41.9685 140.968 41.6792 141.21 41.4043C141.392 41.2101 141.59 41.0327 141.804 40.8742C142.007 40.7177 142.225 40.5806 142.454 40.4648C142.698 40.3435 142.954 40.2457 143.216 40.1728C143.528 40.0843 143.846 40.0195 144.168 39.9792C144.523 39.9316 144.88 39.9083 145.238 39.9093C145.932 39.9077 146.623 39.9962 147.295 40.1728C147.928 40.3328 148.512 40.6505 148.99 41.0964C149.43 41.497 149.758 42.0058 149.942 42.5723C150.113 43.1511 150.198 43.7523 150.192 44.356C150.192 44.6068 150.192 44.9401 150.173 45.3527C150.154 45.7653 150.132 46.2858 150.091 46.9142L149.818 51.6022C149.783 52.1862 149.767 52.6686 149.761 53.0526C149.754 53.4367 149.761 53.9223 149.761 54.5063C148.893 54.4873 148.063 54.4778 147.269 54.4778C146.376 54.4778 145.472 54.4873 144.556 54.5063C144.695 53.2748 144.819 51.855 144.927 50.2469C145.035 48.6388 145.089 47.4401 145.089 46.6508C145.089 45.7811 144.924 45.1696 144.594 44.8163C144.426 44.6403 144.222 44.5022 143.997 44.4113C143.771 44.3204 143.529 44.2788 143.286 44.2894C142.835 44.2763 142.388 44.386 141.994 44.6068C141.632 44.8301 141.331 45.1399 141.118 45.5082C140.858 45.9714 140.675 46.4743 140.579 46.9968C140.37 48.1504 140.241 49.3169 140.191 50.4881C140.145 51.3345 140.096 52.6686 140.045 54.4905C139.199 54.4714 138.412 54.4619 137.684 54.4619C136.956 54.4619 136.051 54.4767 134.97 54.5063Z" fill="#6B547E"/>
<path d="M159.794 54.8673C160.321 54.8673 160.841 54.8388 161.359 54.7975L164.644 51.6617C164.742 51.0269 164.818 50.5762 164.869 50.3064C164.015 50.6003 163.145 50.844 162.263 51.0364C161.643 51.1701 161.012 51.2424 160.378 51.2522C159.538 51.2782 158.713 51.031 158.026 50.5476C157.391 50.0736 157.074 49.3394 157.074 48.3449C157.074 48.2243 157.074 48.091 157.074 47.945H165.843C165.945 47.3621 166 46.7719 166.005 46.1802C166.012 45.3358 165.884 44.4956 165.624 43.6919C165.367 42.9122 164.932 42.2028 164.355 41.6193C163.748 41.0096 162.99 40.5715 162.158 40.3497C161.273 40.1019 160.358 39.978 159.438 39.9815C158.526 39.9799 157.619 40.1158 156.747 40.3846C155.876 40.6473 155.081 41.1141 154.427 41.7462C153.683 42.4962 153.119 43.4058 152.779 44.406C152.358 45.5217 152.143 46.7047 152.145 47.8973C152.142 48.7276 152.249 49.5546 152.462 50.3572C152.647 51.0941 152.963 51.7918 153.395 52.417C153.802 52.9966 154.318 53.4906 154.915 53.8707C155.575 54.2803 156.308 54.5564 157.074 54.6832C157.973 54.8258 158.883 54.8874 159.794 54.8673ZM157.343 44.9488C157.412 44.7275 157.504 44.5146 157.62 44.314C157.743 44.0932 157.902 43.8938 158.089 43.7236C158.274 43.5539 158.489 43.4213 158.724 43.3332C158.956 43.2455 159.203 43.2014 159.451 43.2031C159.788 43.1975 160.122 43.2783 160.419 43.438C160.717 43.6084 160.951 43.8729 161.082 44.1902C161.247 44.5806 161.326 45.0015 161.314 45.4248C161.314 45.5359 161.314 45.6724 161.314 45.8279H157.188C157.223 45.5322 157.275 45.2387 157.343 44.9488Z" fill="#6B547E"/>
<circle cx="17.5" cy="8.5" r="8" stroke="url(#paint0_linear_681_2976)"/>
<circle cx="4.5" cy="21.5" r="4" stroke="url(#paint1_linear_681_2976)"/>
<defs>
<linearGradient id="paint0_linear_681_2976" x1="10.0119" y1="12.3452" x2="23.369" y2="2.02381" gradientUnits="userSpaceOnUse">
<stop stop-color="#D054FB"/>
<stop offset="1" stop-color="#B02CDF"/>
</linearGradient>
<linearGradient id="paint1_linear_681_2976" x1="0.535714" y1="23.5357" x2="7.60714" y2="18.0714" gradientUnits="userSpaceOnUse">
<stop stop-color="#D054FB"/>
<stop offset="1" stop-color="#B02CDF"/>
</linearGradient>
</defs>
</svg>
