<svg width="18" height="27" viewBox="0 0 18 27" fill="none" xmlns="http://www.w3.org/2000/svg">
<path d="M0.252441 16.0058L0.87259 15.7363L8.54984 12.3989L16.8472 16.0058L13.7295 22.4416L6.10783 23.5196L0.377266 17.3352L0.252441 16.0058Z" fill="#133444"/>
<path d="M15.1212 10.9023C13.7511 9.25255 11.8102 8.17899 9.68458 7.8952C9.63919 7.88877 9.59379 7.8831 9.5484 7.87818C8.88491 7.80102 8.21471 7.80102 7.55122 7.87818C7.50583 7.88348 7.46044 7.88915 7.41505 7.8952C5.2894 8.17899 3.34848 9.25255 1.97839 10.9023L1.63342 11.4743L1.05866 12.4252L0.638232 13.1236C0.630289 13.1424 0.622346 13.1616 0.61497 13.1804L0.609863 13.1934L1.53753 13.7421L7.41561 17.219L8.55038 17.8902V9.57976L7.41561 10.0949V8.85068L8.55038 8.33493L9.68514 8.85068L15.4668 11.4765L15.1212 10.9023Z" fill="#C42370"/>
<path d="M17.0998 18.074C17.0998 20.8417 15.7846 23.4312 13.7454 25.1004C12.9436 25.7605 12.0274 26.2676 11.0424 26.5966C10.2385 26.8634 9.39692 26.9994 8.54989 26.9995C3.82813 26.9995 2.90171e-06 22.7957 2.90171e-06 18.074C-0.000571793 17.3769 0.084221 16.6823 0.252488 16.0059L8.54989 20.9143L16.8473 16.0059C17.0156 16.6823 17.1003 17.3769 17.0998 18.074Z" fill="#1C4D6B"/>
<path d="M7.5517 7.8802L8.55029 8.33354L7.41553 8.84929V7.81836L7.5517 7.8802Z" fill="black"/>
<path d="M7.41553 10.0953L8.55029 9.58008V17.8939L7.41553 17.2227V10.0953Z" fill="black"/>
<path d="M8.5498 9.58008V17.8939L16.5005 13.1909L8.5498 9.58008Z" fill="#1D4259"/>
<path d="M8.5498 0V9.58025L16.5005 13.1911L8.5498 0Z" fill="#4B6B9A"/>
<path d="M8.54985 9.58065V17.8945L7.41508 17.2233L0.609334 13.1949L0.599121 13.1886L0.61444 13.1818C0.621816 13.1631 0.62976 13.1438 0.637703 13.1251L1.63232 11.4746L7.41508 8.85156V10.0998L8.54985 9.58065Z" fill="#343535"/>
<path d="M8.54985 9.58008V17.8939L7.41508 17.2227L0.609334 13.1971L0.599121 13.1909L0.61444 13.1841L7.41508 10.0953L8.54985 9.58008Z" fill="#3E5578"/>
<path d="M8.54985 0V9.58025L0.599121 13.1911L8.54985 0Z" fill="#6DB2D8"/>
<path d="M5.33301 25.1831C5.45159 25.2353 5.57188 25.2847 5.69273 25.3312C5.56942 25.2847 5.44951 25.2353 5.33301 25.1831Z" fill="#335F8A"/>
<path d="M5.68994 25.3315C5.81136 25.3781 5.93335 25.4218 6.05704 25.4626C5.93335 25.4221 5.81098 25.3784 5.68994 25.3315Z" fill="#335F8A"/>
<path d="M6.37305 25.5601C6.46723 25.5867 6.56199 25.6123 6.65674 25.6355C6.5618 25.6121 6.46723 25.5869 6.37305 25.5601Z" fill="#335F8A"/>
<path d="M0.252488 16.0059L8.54989 20.9143C8.43909 21.6612 8.23967 22.3922 7.95584 23.0919C7.292 24.6965 5.95071 26.3935 3.3555 25.1027C1.31519 23.4323 2.90171e-06 20.8417 2.90171e-06 18.074C-0.000571793 17.3769 0.084221 16.6823 0.252488 16.0059Z" fill="#6DB2D8"/>
<path d="M13.7442 25.1011L13.7237 25.1176C13.6806 25.1527 13.6375 25.1873 13.5938 25.2214L13.5825 25.2305C13.5352 25.2683 13.4875 25.3046 13.4395 25.3394C13.3878 25.378 13.3356 25.4166 13.2829 25.4529C13.2301 25.4892 13.1773 25.5272 13.124 25.5635C13.0707 25.5998 13.0298 25.6271 12.9827 25.6577L12.9566 25.6747C12.9067 25.7071 12.8568 25.7388 12.8068 25.7695C12.8009 25.7737 12.7946 25.7775 12.7881 25.7808C12.7365 25.8132 12.6849 25.8444 12.6327 25.8744C12.5805 25.9045 12.5192 25.9397 12.4624 25.9709C12.4057 26.0021 12.349 26.0322 12.2922 26.0617L12.286 26.0651C12.2292 26.0946 12.1725 26.1218 12.1158 26.1513C12.059 26.1808 12.0023 26.2081 11.941 26.2359C11.8797 26.2637 11.823 26.2926 11.764 26.3164C11.6454 26.3686 11.5251 26.418 11.4043 26.4645C11.2834 26.5111 11.1609 26.5547 11.0372 26.5956C10.9878 26.612 10.9385 26.6279 10.8885 26.6433C10.8386 26.6586 10.775 26.6773 10.7211 26.6932C10.627 26.7198 10.5322 26.7454 10.4375 26.7686C10.4017 26.7777 10.3654 26.7862 10.3291 26.7942L10.2684 26.8084C10.2179 26.8197 10.1674 26.8305 10.1163 26.8407C10.0653 26.8509 10.0233 26.8594 9.97617 26.8679C9.92908 26.8764 9.8905 26.8838 9.84738 26.8906C9.80426 26.8974 9.75206 26.9059 9.7044 26.9128C9.68113 26.9167 9.65787 26.9201 9.63404 26.923L9.52681 26.9372L9.46723 26.9445C9.42808 26.9496 9.38837 26.9536 9.34865 26.9576C9.29985 26.9627 9.25163 26.9672 9.20283 26.9712C9.16482 26.974 9.1268 26.9774 9.08935 26.9797C9.05191 26.982 9.02354 26.9842 8.99006 26.9854H8.98552C8.94694 26.9854 8.90836 26.9899 8.87205 26.9911C8.81871 26.9911 8.76481 26.995 8.71091 26.9962C8.65701 26.9973 8.60311 26.9962 8.54864 26.9962C8.49417 26.9962 8.44027 26.9962 8.38637 26.9962C8.33247 26.9962 8.27857 26.9962 8.22523 26.9911C8.18608 26.9911 8.1475 26.9877 8.10892 26.9854H8.10438C8.0709 26.9854 8.038 26.982 8.00509 26.9797C7.97218 26.9774 7.92906 26.974 7.89161 26.9712C7.84282 26.9672 7.79459 26.9627 7.74579 26.9576C7.70608 26.9536 7.66636 26.9496 7.62721 26.9445L7.57047 26.9372C7.53473 26.9332 7.49898 26.9281 7.46324 26.923C7.43941 26.923 7.41614 26.9167 7.39288 26.9128C7.34484 26.9059 7.29718 26.8986 7.2499 26.8906C7.20678 26.8838 7.16366 26.8759 7.12111 26.8679C7.07855 26.86 7.02749 26.8503 6.98096 26.8407C6.93444 26.8311 6.8794 26.8197 6.8289 26.8084L6.76819 26.7942C6.73188 26.7862 6.69557 26.7777 6.65982 26.7686C6.5645 26.7454 6.46975 26.7198 6.37613 26.6932L6.20592 26.6433C6.15599 26.6279 6.10663 26.612 6.05726 26.5956C5.93357 26.5547 5.81159 26.5111 5.69017 26.4645C5.56875 26.418 5.44676 26.3698 5.33328 26.3176C5.27655 26.2915 5.21527 26.2642 5.15626 26.237C5.09725 26.2098 5.03938 26.1803 4.98151 26.1525C4.92363 26.1247 4.86803 26.0957 4.81129 26.0662L4.80505 26.0628C4.74831 26.0333 4.69157 26.0027 4.63484 25.972C4.5781 25.9414 4.52136 25.9085 4.46462 25.8756C4.40788 25.8427 4.36306 25.8154 4.312 25.782L4.29327 25.7706C4.24334 25.74 4.19341 25.7082 4.14348 25.6759L4.11738 25.6588C4.07029 25.6282 4.02263 25.5964 3.97611 25.5647C3.92958 25.5329 3.86944 25.4915 3.81724 25.454C3.76504 25.4166 3.71227 25.378 3.66064 25.3405C3.60901 25.3031 3.56475 25.2685 3.51766 25.2316L3.50631 25.2225C3.46262 25.1885 3.4195 25.1539 3.37638 25.1187L3.35596 25.1022C5.95116 26.393 7.29245 24.696 7.95629 23.0914C8.23999 22.3923 8.43941 21.6618 8.55034 20.9155C8.66104 21.662 8.86027 22.3927 9.14382 23.092C9.80766 24.6949 11.149 26.3919 13.7442 25.1011Z" fill="#529BBA"/>
<path d="M10.4399 25.6355C10.5353 25.6123 10.63 25.5867 10.7236 25.5601C10.6313 25.5873 10.5368 25.6124 10.4399 25.6355Z" fill="#335F8A"/>
<path d="M11.043 25.4626C11.1667 25.4218 11.2886 25.3781 11.4101 25.3315C11.2894 25.3784 11.167 25.4221 11.043 25.4626Z" fill="#335F8A"/>
<path d="M11.4097 25.3312C11.5305 25.2847 11.6508 25.2353 11.7694 25.1831C11.651 25.2353 11.5311 25.2847 11.4097 25.3312Z" fill="#335F8A"/>
<path d="M17.0997 18.074C17.0997 20.8417 15.7839 23.4318 13.7442 25.101C11.149 26.3918 9.80769 24.6948 9.14385 23.0902C8.86015 22.391 8.66073 21.6606 8.5498 20.9143L16.8472 16.0059C17.0155 16.6823 17.1003 17.3769 17.0997 18.074Z" fill="#4B6B9A"/>
</svg>
