<svg width="21" height="21" viewBox="0 0 21 21" fill="none" xmlns="http://www.w3.org/2000/svg">
<g clip-path="url(#clip0_354_2083)">
<path d="M18.6447 8.48023C18.0172 8.48023 17.465 8.74432 17.0585 9.15576C15.5643 8.10604 13.5493 7.43051 11.3165 7.35849L12.4764 2.05524L16.1694 2.89634C16.1694 3.81361 16.9062 4.56282 17.8102 4.56282C18.7316 4.56282 19.4726 3.79374 19.4726 2.87565C19.4726 1.95755 18.7366 1.18848 17.8111 1.18848C17.1662 1.18848 16.6098 1.58336 16.3325 2.12313L12.2537 1.20586C12.0484 1.1504 11.8472 1.29941 11.7926 1.50803L10.5193 7.35435C8.30397 7.4479 6.31049 8.1226 4.81125 9.17315C4.40477 8.74432 3.83107 8.48023 3.20355 8.48023C0.87562 8.48023 0.113164 11.6501 2.24489 12.7338C2.16956 13.069 2.13562 13.4267 2.13562 13.7835C2.13562 17.3441 6.08863 20.2292 10.9423 20.2292C15.8168 20.2292 19.7698 17.3441 19.7698 13.7835C19.7698 13.4267 19.7325 13.0525 19.6406 12.7164C21.7293 11.6286 20.9602 8.48189 18.6447 8.48023ZM5.62751 12.9589C5.62751 12.0243 6.3643 11.2718 7.28985 11.2718C8.19387 11.2718 8.93149 12.0193 8.93149 12.9589C8.93149 13.877 8.19469 14.6254 7.28985 14.6254C6.36844 14.6295 5.62751 13.877 5.62751 12.9589ZM14.6006 16.931C13.0766 18.4774 8.77585 18.4774 7.25094 16.931C7.08288 16.782 7.08288 16.5187 7.25094 16.349C7.39747 16.2 7.65741 16.2 7.80395 16.349C8.96791 17.5602 12.829 17.5809 14.0435 16.349C14.19 16.2 14.45 16.2 14.5965 16.349C14.7679 16.5195 14.7679 16.7828 14.6006 16.931ZM14.5667 14.6287C13.6627 14.6287 12.9259 13.8812 12.9259 12.9639C12.9259 12.0293 13.6627 11.2767 14.5667 11.2767C15.4881 11.2767 16.229 12.0243 16.229 12.9639C16.2249 13.877 15.4881 14.6287 14.5667 14.6287Z" fill="#BBBBBB"/>
</g>
<defs>
<clipPath id="clip0_354_2083">
<rect width="19.8685" height="19.8685" fill="white" transform="translate(0.990723 0.774414)"/>
</clipPath>
</defs>
</svg>
