<svg width="31" height="31" viewBox="0 0 31 31" fill="none" xmlns="http://www.w3.org/2000/svg">
<g filter="url(#filter0_d_233_3862)">
<rect x="4" y="3" width="23" height="23" rx="11.5" fill="#EAC3F8"/>
</g>
<path d="M13.375 12.5V11.75H11.5C11.3011 11.75 11.1103 11.829 10.9697 11.9697C10.829 12.1103 10.75 12.3011 10.75 12.5V18.5C10.75 18.6989 10.829 18.8897 10.9697 19.0303C11.1103 19.171 11.3011 19.25 11.5 19.25H17.5C17.6989 19.25 17.8897 19.171 18.0303 19.0303C18.171 18.8897 18.25 18.6989 18.25 18.5V15.125H17.5V18.5H11.5V12.5" fill="url(#paint0_linear_233_3862)"/>
<path d="M18.25 12.5H15.25V9.5H18.25V12.5ZM14.5 9.5V12.5C14.5 12.6989 14.579 12.8897 14.7197 13.0303C14.8603 13.171 15.0511 13.25 15.25 13.25H18.25C18.4489 13.25 18.6397 13.171 18.7803 13.0303C18.921 12.8897 19 12.6989 19 12.5V9.5C19 9.30109 18.921 9.11032 18.7803 8.96967C18.6397 8.82902 18.4489 8.75 18.25 8.75H15.25C15.0511 8.75 14.8603 8.82902 14.7197 8.96967C14.579 9.11032 14.5 9.30109 14.5 9.5Z" fill="url(#paint1_linear_233_3862)"/>
<path d="M15.25 14.75V16.25H13.75V14.75H15.25ZM13 14.75V16.25C13 16.4489 13.079 16.6397 13.2197 16.7803C13.3603 16.921 13.5511 17 13.75 17H15.25C15.4489 17 15.6397 16.921 15.7803 16.7803C15.921 16.6397 16 16.4489 16 16.25V14.75C16 14.5511 15.921 14.3603 15.7803 14.2197C15.6397 14.079 15.4489 14 15.25 14H13.75C13.5511 14 13.3603 14.079 13.2197 14.2197C13.079 14.3603 13 14.5511 13 14.75Z" fill="url(#paint2_linear_233_3862)"/>
<path d="M20.5 14.375V15.125H19.75V14.375H20.5ZM19 14V15.5C19 15.5995 19.0395 15.6948 19.1098 15.7652C19.1802 15.8355 19.2755 15.875 19.375 15.875H20.875C20.9745 15.875 21.0698 15.8355 21.1402 15.7652C21.2105 15.6948 21.25 15.5995 21.25 15.5V14C21.25 13.9005 21.2105 13.8052 21.1402 13.7348C21.0698 13.6645 20.9745 13.625 20.875 13.625H19.375C19.2755 13.625 19.1802 13.6645 19.1098 13.7348C19.0395 13.8052 19 13.9005 19 14Z" fill="url(#paint3_linear_233_3862)"/>
<circle cx="15.5" cy="14.5" r="13.25" stroke="url(#paint4_linear_233_3862)" stroke-width="0.5"/>
<defs>
<filter id="filter0_d_233_3862" x="0" y="0" width="31" height="31" filterUnits="userSpaceOnUse" color-interpolation-filters="sRGB">
<feFlood flood-opacity="0" result="BackgroundImageFix"/>
<feColorMatrix in="SourceAlpha" type="matrix" values="0 0 0 0 0 0 0 0 0 0 0 0 0 0 0 0 0 0 127 0" result="hardAlpha"/>
<feOffset dy="1"/>
<feGaussianBlur stdDeviation="2"/>
<feComposite in2="hardAlpha" operator="out"/>
<feColorMatrix type="matrix" values="0 0 0 0 0.917647 0 0 0 0 0.764706 0 0 0 0 0.972549 0 0 0 0.2 0"/>
<feBlend mode="normal" in2="BackgroundImageFix" result="effect1_dropShadow_233_3862"/>
<feBlend mode="normal" in="SourceGraphic" in2="effect1_dropShadow_233_3862" result="shape"/>
</filter>
<linearGradient id="paint0_linear_233_3862" x1="16.5" y1="12.5" x2="11" y2="19" gradientUnits="userSpaceOnUse">
<stop stop-color="#B02CDF"/>
<stop offset="1" stop-color="#D054FB"/>
</linearGradient>
<linearGradient id="paint1_linear_233_3862" x1="19" y1="9" x2="14.5" y2="13" gradientUnits="userSpaceOnUse">
<stop stop-color="#B02CDF"/>
<stop offset="1" stop-color="#D054FB"/>
</linearGradient>
<linearGradient id="paint2_linear_233_3862" x1="16" y1="14" x2="13" y2="17" gradientUnits="userSpaceOnUse">
<stop stop-color="#B02CDF"/>
<stop offset="1" stop-color="#D054FB"/>
</linearGradient>
<linearGradient id="paint3_linear_233_3862" x1="21" y1="13.5" x2="19" y2="16" gradientUnits="userSpaceOnUse">
<stop stop-color="#B02CDF"/>
<stop offset="1" stop-color="#D054FB"/>
</linearGradient>
<linearGradient id="paint4_linear_233_3862" x1="3.60714" y1="20.6071" x2="24.8214" y2="4.21429" gradientUnits="userSpaceOnUse">
<stop stop-color="#D054FB"/>
<stop offset="1" stop-color="#B02CDF"/>
</linearGradient>
</defs>
</svg>
