<svg width="42" height="42" viewBox="0 0 42 42" fill="none" xmlns="http://www.w3.org/2000/svg">
<circle cx="21" cy="21" r="20.75" stroke="url(#paint0_linear_357_3065)" stroke-width="0.5"/>
<rect x="3" y="3" width="36" height="36" rx="18" fill="#EAC3F8"/>
<path d="M28.7427 13.3219C28.6948 13.1994 28.6029 13.1005 28.4859 13.0459C28.369 12.9913 28.2361 12.9852 28.1149 13.0288C27.9937 13.0724 27.8935 13.1623 27.8351 13.28C27.7768 13.3976 27.7648 13.5338 27.8016 13.6603C28.5678 15.9249 27.047 17.6161 25.8874 18.5219L25.4189 17.8315C25.2614 17.5999 24.9092 17.4074 24.6354 17.404L22.0061 17.4159C21.6849 17.4259 21.3723 17.5249 21.1013 17.7026L13.3536 23.2893C13.1734 23.4197 13.0508 23.6182 13.0126 23.8414C12.9744 24.0646 13.0238 24.2942 13.1499 24.48L16.6708 29.6605C16.9347 30.0464 17.3561 29.9997 17.7322 29.73L25.4799 24.1425C25.7026 23.9805 25.96 23.6311 26.0507 23.3639L26.8738 20.6965C26.9645 20.4302 26.9092 20.0239 26.7517 19.7924L26.4664 19.3717C28.0235 18.1444 29.64 15.9758 28.7427 13.3219ZM25.1377 21.2588C24.9949 21.3616 24.8339 21.4344 24.6638 21.4731C24.4937 21.5118 24.3178 21.5157 24.1463 21.4845C23.9747 21.4533 23.8108 21.3877 23.6639 21.2913C23.517 21.195 23.3901 21.0698 23.2902 20.9229C23.0881 20.6258 23.0089 20.2583 23.07 19.9012C23.131 19.5441 23.3274 19.2264 23.616 19.018C23.8422 18.855 24.1123 18.7688 24.3886 18.7714C24.6648 18.774 24.9333 18.8652 25.1566 19.0324C24.9323 19.1715 24.7781 19.253 24.7492 19.2657C24.647 19.3158 24.5643 19.4002 24.5148 19.5049C24.4653 19.6097 24.4519 19.7286 24.4767 19.8423C24.5015 19.9559 24.5631 20.0575 24.6514 20.1304C24.7398 20.2033 24.8496 20.2432 24.9628 20.2436C25.0338 20.2436 25.1063 20.2266 25.1748 20.1935C25.3348 20.1155 25.5063 20.0231 25.6853 19.9137C25.7265 20.1682 25.6969 20.4294 25.6 20.6674C25.5031 20.9054 25.3429 21.1104 25.1377 21.2588Z" fill="url(#paint1_linear_357_3065)"/>
<defs>
<linearGradient id="paint0_linear_357_3065" x1="2.5" y1="30.5" x2="35.5" y2="5" gradientUnits="userSpaceOnUse">
<stop stop-color="#D054FB"/>
<stop offset="1" stop-color="#B02CDF"/>
</linearGradient>
<linearGradient id="paint1_linear_357_3065" x1="15.3529" y1="27.5882" x2="29" y2="14.4118" gradientUnits="userSpaceOnUse">
<stop stop-color="#D054FB"/>
<stop offset="1" stop-color="#B02CDF"/>
</linearGradient>
</defs>
</svg>
