<svg width="65" height="59" viewBox="0 0 65 59" fill="none" xmlns="http://www.w3.org/2000/svg">
<path d="M0 21C0 9.40202 9.40202 0 21 0H65V59H0V21Z" fill="url(#paint0_linear_94_7955)"/>
<path d="M33.7071 12.2929C33.3166 11.9024 32.6834 11.9024 32.2929 12.2929L25.9289 18.6569C25.5384 19.0474 25.5384 19.6805 25.9289 20.0711C26.3195 20.4616 26.9526 20.4616 27.3431 20.0711L33 14.4142L38.6569 20.0711C39.0474 20.4616 39.6805 20.4616 40.0711 20.0711C40.4616 19.6805 40.4616 19.0474 40.0711 18.6569L33.7071 12.2929ZM32 26C32 26.5523 32.4477 27 33 27C33.5523 27 34 26.5523 34 26H32ZM32 13V26H34V13H32Z" fill="white"/>
<path d="M22.1184 41.38V47H20.4084V41.38H18.4084V39.92H24.1184V41.38H22.1184ZM29.1319 44.49C29.1319 44.8967 29.0586 45.2667 28.9119 45.6C28.7652 45.9267 28.5652 46.2067 28.3119 46.44C28.0586 46.6667 27.7652 46.8433 27.4319 46.97C27.0986 47.0967 26.7419 47.16 26.3619 47.16C25.9886 47.16 25.6319 47.0967 25.2919 46.97C24.9586 46.8433 24.6652 46.6667 24.4119 46.44C24.1652 46.2067 23.9686 45.9267 23.8219 45.6C23.6752 45.2667 23.6019 44.8967 23.6019 44.49C23.6019 44.0833 23.6752 43.7167 23.8219 43.39C23.9686 43.0633 24.1652 42.7867 24.4119 42.56C24.6652 42.3333 24.9586 42.16 25.2919 42.04C25.6319 41.92 25.9886 41.86 26.3619 41.86C26.7419 41.86 27.0986 41.92 27.4319 42.04C27.7652 42.16 28.0586 42.3333 28.3119 42.56C28.5652 42.7867 28.7652 43.0633 28.9119 43.39C29.0586 43.7167 29.1319 44.0833 29.1319 44.49ZM27.5519 44.49C27.5519 44.33 27.5252 44.1733 27.4719 44.02C27.4186 43.8667 27.3419 43.7333 27.2419 43.62C27.1419 43.5 27.0186 43.4033 26.8719 43.33C26.7252 43.2567 26.5552 43.22 26.3619 43.22C26.1686 43.22 25.9986 43.2567 25.8519 43.33C25.7052 43.4033 25.5819 43.5 25.4819 43.62C25.3886 43.7333 25.3152 43.8667 25.2619 44.02C25.2152 44.1733 25.1919 44.33 25.1919 44.49C25.1919 44.65 25.2152 44.8067 25.2619 44.96C25.3152 45.1133 25.3919 45.2533 25.4919 45.38C25.5919 45.5 25.7152 45.5967 25.8619 45.67C26.0086 45.7433 26.1786 45.78 26.3719 45.78C26.5652 45.78 26.7352 45.7433 26.8819 45.67C27.0286 45.5967 27.1519 45.5 27.2519 45.38C27.3519 45.2533 27.4252 45.1133 27.4719 44.96C27.5252 44.8067 27.5519 44.65 27.5519 44.49ZM34.4503 43.25V45.15C34.4503 45.3833 34.4936 45.56 34.5803 45.68C34.6736 45.7933 34.8369 45.85 35.0703 45.85C35.1503 45.85 35.2336 45.8433 35.3203 45.83C35.4136 45.8167 35.4903 45.7967 35.5503 45.77L35.5703 46.97C35.4569 47.01 35.3136 47.0433 35.1403 47.07C34.9669 47.1033 34.7936 47.12 34.6203 47.12C34.2869 47.12 34.0069 47.08 33.7803 47C33.5536 46.9133 33.3703 46.7933 33.2303 46.64C33.0969 46.48 33.0003 46.2933 32.9403 46.08C32.8803 45.86 32.8503 45.6167 32.8503 45.35V43.25H32.0503V42.02H32.8403V40.71H34.4503V42.02H35.6203V43.25H34.4503ZM41.671 44.49C41.671 44.8967 41.5976 45.2667 41.451 45.6C41.3043 45.9267 41.1043 46.2067 40.851 46.44C40.5976 46.6667 40.3043 46.8433 39.971 46.97C39.6376 47.0967 39.281 47.16 38.901 47.16C38.5276 47.16 38.171 47.0967 37.831 46.97C37.4976 46.8433 37.2043 46.6667 36.951 46.44C36.7043 46.2067 36.5076 45.9267 36.361 45.6C36.2143 45.2667 36.141 44.8967 36.141 44.49C36.141 44.0833 36.2143 43.7167 36.361 43.39C36.5076 43.0633 36.7043 42.7867 36.951 42.56C37.2043 42.3333 37.4976 42.16 37.831 42.04C38.171 41.92 38.5276 41.86 38.901 41.86C39.281 41.86 39.6376 41.92 39.971 42.04C40.3043 42.16 40.5976 42.3333 40.851 42.56C41.1043 42.7867 41.3043 43.0633 41.451 43.39C41.5976 43.7167 41.671 44.0833 41.671 44.49ZM40.091 44.49C40.091 44.33 40.0643 44.1733 40.011 44.02C39.9576 43.8667 39.881 43.7333 39.781 43.62C39.681 43.5 39.5576 43.4033 39.411 43.33C39.2643 43.2567 39.0943 43.22 38.901 43.22C38.7076 43.22 38.5376 43.2567 38.391 43.33C38.2443 43.4033 38.121 43.5 38.021 43.62C37.9276 43.7333 37.8543 43.8667 37.801 44.02C37.7543 44.1733 37.731 44.33 37.731 44.49C37.731 44.65 37.7543 44.8067 37.801 44.96C37.8543 45.1133 37.931 45.2533 38.031 45.38C38.131 45.5 38.2543 45.5967 38.401 45.67C38.5476 45.7433 38.7176 45.78 38.911 45.78C39.1043 45.78 39.2743 45.7433 39.421 45.67C39.5676 45.5967 39.691 45.5 39.791 45.38C39.891 45.2533 39.9643 45.1133 40.011 44.96C40.0643 44.8067 40.091 44.65 40.091 44.49ZM48.2493 44.49C48.2493 44.8367 48.196 45.17 48.0893 45.49C47.9827 45.81 47.826 46.0933 47.6193 46.34C47.4193 46.58 47.1727 46.7733 46.8793 46.92C46.586 47.0667 46.2527 47.14 45.8793 47.14C45.5727 47.14 45.2827 47.08 45.0093 46.96C44.736 46.8333 44.5227 46.6633 44.3693 46.45H44.3493V49.4H42.7093V42.02H44.2693V42.63H44.2993C44.4527 42.43 44.6627 42.2567 44.9293 42.11C45.2027 41.9567 45.5227 41.88 45.8893 41.88C46.2493 41.88 46.576 41.95 46.8693 42.09C47.1627 42.23 47.4093 42.42 47.6093 42.66C47.816 42.9 47.9727 43.18 48.0793 43.5C48.1927 43.8133 48.2493 44.1433 48.2493 44.49ZM46.6593 44.49C46.6593 44.33 46.6327 44.1733 46.5793 44.02C46.5327 43.8667 46.4593 43.7333 46.3593 43.62C46.266 43.5 46.146 43.4033 45.9993 43.33C45.8527 43.2567 45.6827 43.22 45.4893 43.22C45.3027 43.22 45.136 43.2567 44.9893 43.33C44.8427 43.4033 44.716 43.5 44.6093 43.62C44.5093 43.74 44.4293 43.8767 44.3693 44.03C44.316 44.1833 44.2893 44.34 44.2893 44.5C44.2893 44.66 44.316 44.8167 44.3693 44.97C44.4293 45.1233 44.5093 45.26 44.6093 45.38C44.716 45.5 44.8427 45.5967 44.9893 45.67C45.136 45.7433 45.3027 45.78 45.4893 45.78C45.6827 45.78 45.8527 45.7433 45.9993 45.67C46.146 45.5967 46.266 45.5 46.3593 45.38C46.4593 45.26 46.5327 45.1233 46.5793 44.97C46.6327 44.81 46.6593 44.65 46.6593 44.49Z" fill="white"/>
<defs>
<linearGradient id="paint0_linear_94_7955" x1="64.5" y1="2" x2="-5.29735e-07" y2="59" gradientUnits="userSpaceOnUse">
<stop stop-color="#B02CDF"/>
<stop offset="1" stop-color="#D054FB"/>
</linearGradient>
</defs>
</svg>
