<svg width="98" height="31" viewBox="0 0 98 31" fill="none" xmlns="http://www.w3.org/2000/svg">
<path fill-rule="evenodd" clip-rule="evenodd" d="M15.8026 17.3869L11.8155 13.3526L18.2798 6.97088L22.4911 5.94461L14.9651 13.3762L18.9522 17.4105L12.4879 23.7923L8.27664 24.8185L15.8026 17.3869ZM11.7565 0.435779C3.53456 2.42934 -1.5614 10.7928 0.43216 19.0148C1.82411 24.736 6.28308 28.9354 11.6504 30.292L13.0777 28.8764L24.6616 17.4459L19.1174 11.8073L17.5249 13.3762L21.5002 17.4223L11.1077 27.685C7.06163 26.2695 3.79408 22.9076 2.70883 18.4604C1.03377 11.4888 5.33938 4.4111 12.3109 2.71245C13.0895 2.52371 13.8562 2.40575 14.623 2.37036L16.9351 0.0818926C15.2482 -0.0950505 13.5024 0.0111153 11.7565 0.435779ZM9.26752 13.3408L19.66 3.07813C23.7061 4.49367 26.9736 7.85559 28.0589 12.3028C29.7457 19.2743 25.4283 26.352 18.4686 28.0389C17.69 28.2276 16.9233 28.3456 16.1565 28.381L13.8327 30.6695C15.5313 30.8464 17.2771 30.7402 19.023 30.3156C27.2449 28.322 32.3409 19.9585 30.3473 11.7365C28.9554 6.01538 24.4964 1.81593 19.1291 0.459371L17.7844 1.79234L17.1002 2.46473L6.10614 13.3172L11.6622 18.9322L13.2546 17.3633L9.26752 13.3408Z" fill="url(#paint0_linear_193_1391)"/>
<path d="M42.9916 21.9501C46.522 21.9501 48.2343 20.1849 48.2343 18.1195C48.2343 13.5829 41.0498 15.1539 41.0498 12.8768C41.0498 12.1001 41.7029 11.4646 43.3976 11.4646C44.492 11.4646 45.6747 11.7823 46.8221 12.4355L47.7048 10.2642C46.5573 9.54046 44.9686 9.16976 43.4152 9.16976C39.9024 9.16976 38.2078 10.9173 38.2078 13.018C38.2078 17.6076 45.3923 16.0189 45.3923 18.3314C45.3923 19.0904 44.7038 19.6553 43.0092 19.6553C41.5264 19.6553 39.973 19.1257 38.9315 18.3667L37.9606 20.5203C39.0551 21.3676 41.0321 21.9501 42.9916 21.9501ZM62.8098 12.2413L60.4974 18.6668L58.2379 12.2413H55.9078L53.5776 18.6668L51.3358 12.2413H48.7409L52.1654 21.7383H54.8133L57.0199 15.8424L59.1558 21.7383H61.8037L65.2459 12.2413H62.8098ZM70.0464 12.1001C68.5283 12.1001 66.9925 12.5061 65.951 13.2475L66.9395 15.1716C67.628 14.6244 68.6695 14.289 69.6757 14.289C71.1585 14.289 71.8646 14.9774 71.8646 16.1601H69.6757C66.7807 16.1601 65.598 17.3252 65.598 19.0022C65.598 20.6438 66.9219 21.8795 69.1461 21.8795C70.5406 21.8795 71.5292 21.4205 72.0411 20.5556V21.7383H74.6184V16.319C74.6184 13.4416 72.9414 12.1001 70.0464 12.1001ZM69.8345 20.026C68.8637 20.026 68.2811 19.567 68.2811 18.8786C68.2811 18.2431 68.6871 17.7665 69.9758 17.7665H71.8646V18.7374C71.5468 19.6023 70.7525 20.026 69.8345 20.026ZM82.7241 12.1001C81.4531 12.1001 80.4293 12.5061 79.7409 13.3357V12.2413H77.1107V25.1629H79.8644V20.7321C80.5705 21.5088 81.5414 21.8795 82.7241 21.8795C85.3896 21.8795 87.455 19.973 87.455 16.9898C87.455 14.0065 85.3896 12.1001 82.7241 12.1001ZM82.2475 19.62C80.8706 19.62 79.8291 18.6315 79.8291 16.9898C79.8291 15.3481 80.8706 14.3596 82.2475 14.3596C83.6244 14.3596 84.6659 15.3481 84.6659 16.9898C84.6659 18.6315 83.6244 19.62 82.2475 19.62ZM92.0021 19.62L96.8389 13.9006V12.2413H88.6482V14.3596H93.3614L88.5246 20.079V21.7383H96.9978V19.62H92.0021Z" fill="url(#paint1_linear_193_1391)"/>
<defs>
<linearGradient id="paint0_linear_193_1391" x1="15.5897" y1="39.705" x2="15.1842" y2="-8.73206" gradientUnits="userSpaceOnUse">
<stop stop-color="#EC298E"/>
<stop offset="0.5" stop-color="#ED2F2A"/>
<stop offset="1" stop-color="#FAA919"/>
</linearGradient>
<linearGradient id="paint1_linear_193_1391" x1="37.1621" y1="21.7173" x2="97.9772" y2="20.6554" gradientUnits="userSpaceOnUse">
<stop stop-color="#ED2C61"/>
<stop offset="0.5" stop-color="#EE3429"/>
<stop offset="1" stop-color="#F57B1F"/>
</linearGradient>
</defs>
</svg>
