<svg width="5" height="17" viewBox="0 0 5 17" fill="none" xmlns="http://www.w3.org/2000/svg">
<path d="M0.555176 8.44428C0.555176 8.95998 0.760037 9.45456 1.12469 9.81921C1.48934 10.1839 1.98392 10.3887 2.49962 10.3887C3.01532 10.3887 3.5099 10.1839 3.87455 9.81921C4.2392 9.45456 4.44406 8.95998 4.44406 8.44428C4.44406 7.92858 4.2392 7.43401 3.87455 7.06935C3.5099 6.7047 3.01532 6.49984 2.49962 6.49984C1.98392 6.49984 1.48934 6.7047 1.12469 7.06935C0.760037 7.43401 0.555176 7.92858 0.555176 8.44428ZM0.555176 2.61095C0.555176 3.12665 0.760037 3.62122 1.12469 3.98588C1.48934 4.35053 1.98392 4.55539 2.49962 4.55539C3.01532 4.55539 3.5099 4.35053 3.87455 3.98588C4.2392 3.62122 4.44406 3.12665 4.44406 2.61095C4.44406 2.09525 4.2392 1.60067 3.87455 1.23602C3.5099 0.871364 3.01532 0.666504 2.49962 0.666504C1.98392 0.666504 1.48934 0.871364 1.12469 1.23602C0.760037 1.60067 0.555176 2.09525 0.555176 2.61095ZM0.555176 14.2776C0.555176 14.7933 0.760037 15.2879 1.12469 15.6525C1.48934 16.0172 1.98392 16.2221 2.49962 16.2221C3.01532 16.2221 3.5099 16.0172 3.87455 15.6525C4.2392 15.2879 4.44406 14.7933 4.44406 14.2776C4.44406 13.7619 4.2392 13.2673 3.87455 12.9027C3.5099 12.538 3.01532 12.3332 2.49962 12.3332C1.98392 12.3332 1.48934 12.538 1.12469 12.9027C0.760037 13.2673 0.555176 13.7619 0.555176 14.2776Z" fill="url(#paint0_linear_218_3812)"/>
<defs>
<linearGradient id="paint0_linear_218_3812" x1="4.44406" y1="1.31465" x2="0.555176" y2="15.5739" gradientUnits="userSpaceOnUse">
<stop stop-color="#B02CDF"/>
<stop offset="1" stop-color="#D054FB"/>
</linearGradient>
</defs>
</svg>
