<svg width="18" height="15" viewBox="0 0 18 15" fill="none" xmlns="http://www.w3.org/2000/svg">
<path d="M17.8739 1.79342C17.2246 2.07512 16.5379 2.26134 15.8352 2.34629C16.5766 1.90341 17.1321 1.20668 17.3988 0.385349C16.7022 0.800051 15.9396 1.09223 15.1442 1.2492C14.6125 0.672641 13.9045 0.288854 13.1312 0.158028C12.3579 0.0272024 11.5631 0.156738 10.8714 0.52632C10.1796 0.895902 9.63014 1.48462 9.30906 2.20016C8.98797 2.91569 8.91346 3.71755 9.09721 4.48C7.68864 4.40875 6.31081 4.04198 5.05323 3.40352C3.79565 2.76506 2.68644 1.86918 1.79768 0.774081C1.48594 1.31845 1.32214 1.93494 1.32256 2.56225C1.32145 3.14482 1.46442 3.71861 1.73872 4.23256C2.01303 4.7465 2.41016 5.18465 2.89476 5.50798C2.33151 5.49265 1.7803 5.34151 1.288 5.06741V5.11061C1.29223 5.92685 1.57825 6.71658 2.0977 7.34622C2.61715 7.97586 3.33814 8.40675 4.13871 8.56601C3.83053 8.65979 3.51058 8.70924 3.18847 8.71286C2.96551 8.71026 2.74309 8.69004 2.52331 8.65239C2.75129 9.35454 3.19247 9.96816 3.78546 10.4079C4.37845 10.8476 5.09376 11.0915 5.83185 11.1057C4.58549 12.0864 3.0467 12.6217 1.46077 12.6261C1.17202 12.627 0.883494 12.6097 0.596924 12.5743C2.21615 13.6198 4.10313 14.1747 6.03054 14.1724C7.3606 14.1862 8.68008 13.9348 9.91192 13.433C11.1437 12.9312 12.2632 12.1889 13.205 11.2496C14.1467 10.3102 14.8919 9.19263 15.3969 7.96209C15.9019 6.73155 16.1566 5.41272 16.1462 4.08263C16.1462 3.93577 16.1462 3.78028 16.1462 3.62479C16.8241 3.11927 17.4087 2.49956 17.8739 1.79342Z" fill="#BBBBBB"/>
</svg>
