<svg width="30" height="30" viewBox="0 0 30 30" fill="none" xmlns="http://www.w3.org/2000/svg">
<g filter="url(#filter0_d_189_1325)">
<rect x="4.77783" y="3.77783" width="20.4444" height="20.4444" rx="10.2222" fill="#EAC3F8"/>
</g>
<circle cx="15" cy="14" r="11.75" stroke="url(#paint0_linear_189_1325)" stroke-width="0.5"/>
<path d="M15.9381 19.3069H14.0622C13.9447 19.3069 13.8307 19.2668 13.7391 19.1931C13.6475 19.1194 13.5839 19.0167 13.5587 18.9019L13.349 17.931C13.0692 17.8084 12.8039 17.655 12.5579 17.4738L11.6112 17.7753C11.4992 17.8111 11.3783 17.8074 11.2686 17.7649C11.1589 17.7224 11.0671 17.6437 11.0083 17.5419L10.0683 15.918C10.0101 15.816 9.9883 15.6974 10.0064 15.5814C10.0244 15.4654 10.0813 15.3589 10.1678 15.2795L10.9021 14.6095C10.8687 14.3061 10.8687 13.9998 10.9021 13.6964L10.1678 13.0279C10.0812 12.9485 10.0242 12.8419 10.0062 12.7258C9.9881 12.6097 10.01 12.4909 10.0683 12.3889L11.0062 10.764C11.065 10.6622 11.1569 10.5834 11.2665 10.541C11.3762 10.4985 11.4971 10.4948 11.6092 10.5306L12.5559 10.8321C12.6816 10.7393 12.8125 10.6527 12.9475 10.5744C13.0779 10.5012 13.2119 10.4347 13.349 10.3755L13.5593 9.40558C13.5843 9.29076 13.6478 9.18794 13.7393 9.11417C13.8308 9.04041 13.9447 9.00012 14.0622 9H15.9381C16.0556 9.00012 16.1696 9.04041 16.261 9.11417C16.3525 9.18794 16.416 9.29076 16.4411 9.40558L16.6534 10.376C16.7977 10.4399 16.9389 10.5115 17.0755 10.5914C17.2027 10.6651 17.3259 10.746 17.4444 10.8331L18.3917 10.5316C18.5036 10.496 18.6244 10.4997 18.734 10.5422C18.8436 10.5847 18.9353 10.6633 18.9941 10.7651L19.932 12.3899C20.0516 12.5997 20.0104 12.8651 19.8326 13.0285L19.0982 13.6984C19.1316 14.0019 19.1316 14.3081 19.0982 14.6116L19.8326 15.2816C20.0104 15.4454 20.0516 15.7103 19.932 15.9201L18.9941 17.545C18.9353 17.6468 18.8435 17.7255 18.7338 17.768C18.6241 17.8105 18.5032 17.8141 18.3911 17.7784L17.4444 17.4769C17.1987 17.658 16.9335 17.8111 16.6539 17.9335L16.4411 18.9019C16.4159 19.0166 16.3524 19.1193 16.2609 19.193C16.1694 19.2666 16.0555 19.3068 15.9381 19.3069ZM14.9981 12.0921C14.4514 12.0921 13.9271 12.3093 13.5405 12.6958C13.1539 13.0824 12.9367 13.6067 12.9367 14.1535C12.9367 14.7002 13.1539 15.2245 13.5405 15.6111C13.9271 15.9977 14.4514 16.2148 14.9981 16.2148C15.5448 16.2148 16.0691 15.9977 16.4557 15.6111C16.8423 15.2245 17.0595 14.7002 17.0595 14.1535C17.0595 13.6067 16.8423 13.0824 16.4557 12.6958C16.0691 12.3093 15.5448 12.0921 14.9981 12.0921Z" fill="url(#paint1_linear_189_1325)"/>
<defs>
<filter id="filter0_d_189_1325" x="0.777832" y="0.777832" width="28.4443" height="28.4443" filterUnits="userSpaceOnUse" color-interpolation-filters="sRGB">
<feFlood flood-opacity="0" result="BackgroundImageFix"/>
<feColorMatrix in="SourceAlpha" type="matrix" values="0 0 0 0 0 0 0 0 0 0 0 0 0 0 0 0 0 0 127 0" result="hardAlpha"/>
<feOffset dy="1"/>
<feGaussianBlur stdDeviation="2"/>
<feComposite in2="hardAlpha" operator="out"/>
<feColorMatrix type="matrix" values="0 0 0 0 0.917647 0 0 0 0 0.764706 0 0 0 0 0.972549 0 0 0 0.2 0"/>
<feBlend mode="normal" in2="BackgroundImageFix" result="effect1_dropShadow_189_1325"/>
<feBlend mode="normal" in="SourceGraphic" in2="effect1_dropShadow_189_1325" result="shape"/>
</filter>
<linearGradient id="paint0_linear_189_1325" x1="4.42857" y1="19.4286" x2="23.2857" y2="4.85714" gradientUnits="userSpaceOnUse">
<stop stop-color="#D054FB"/>
<stop offset="1" stop-color="#B02CDF"/>
</linearGradient>
<linearGradient id="paint1_linear_189_1325" x1="19" y1="9.5" x2="11.5" y2="18" gradientUnits="userSpaceOnUse">
<stop stop-color="#B02CDF"/>
<stop offset="1" stop-color="#D054FB"/>
</linearGradient>
</defs>
</svg>
