<svg width="23" height="21" viewBox="0 0 23 21" fill="none" xmlns="http://www.w3.org/2000/svg">
<path d="M22.7764 6.87794L19.9553 7.93797C19.8366 7.98068 19.7216 7.86683 19.772 7.74944L22.9165 0.197503C22.9632 0.0836724 22.8519 -0.0337152 22.7369 0.00897125L16.7603 2.07926C16.6453 2.11839 16.5519 2.20732 16.5052 2.32115L12.455 12.4343C12.4047 12.5623 12.5304 12.6904 12.6598 12.6442L15.1899 11.7264C15.33 11.6766 15.4594 11.826 15.3839 11.9576L11.6679 18.2005C11.5889 18.3357 11.3876 18.3357 11.3086 18.2005L7.59259 11.954C7.5171 11.826 7.6429 11.673 7.78665 11.7228L10.3167 12.6406C10.4461 12.6868 10.5718 12.5588 10.5215 12.4307L6.46773 2.32115C6.42099 2.20732 6.33116 2.12195 6.21255 2.07926L0.243253 0.00897125C0.124657 -0.030158 0.016843 0.0836724 0.0635625 0.197503L3.20455 7.74944C3.25126 7.86329 3.13626 7.98068 3.02126 7.93797L0.218096 6.87794C0.0743438 6.82459 -0.0550329 6.97752 0.0240307 7.10913L8.36884 20.783C8.45148 20.9182 8.59884 21 8.76058 21H14.2303C14.3885 21 14.5394 20.9182 14.622 20.783L22.9812 7.10913C23.0495 6.97752 22.9201 6.82459 22.7764 6.87794Z" fill="url(#paint0_linear_95_8395)"/>
<defs>
<linearGradient id="paint0_linear_95_8395" x1="9.28252" y1="-1.06773e-05" x2="24.2407" y2="4.11404" gradientUnits="userSpaceOnUse">
<stop stop-color="#7735E8"/>
<stop offset="1" stop-color="#C62CF1"/>
</linearGradient>
</defs>
</svg>
