<svg width="11" height="10" viewBox="0 0 11 10" fill="none" xmlns="http://www.w3.org/2000/svg">
<path d="M10.3202 4.99993L9.25101 3.71919L9.39999 2.0253L7.81816 1.64888L6.98999 0.179932L5.50018 0.850141L4.01036 0.179932L3.18219 1.64429L1.60036 2.01612L1.74934 3.7146L0.680176 4.99993L1.74934 6.28067L1.60036 7.97915L3.18219 8.35557L4.01036 9.81993L5.50018 9.14513L6.98999 9.81534L7.81816 8.35098L9.39999 7.97456L9.25101 6.28067L10.3202 4.99993ZM4.35214 6.84071L3.30927 5.739C3.26865 5.69653 3.23642 5.64609 3.21443 5.59055C3.19244 5.53502 3.18112 5.47549 3.18112 5.41537C3.18112 5.35525 3.19244 5.29572 3.21443 5.24019C3.23642 5.18465 3.26865 5.13421 3.30927 5.09174L3.33994 5.05961C3.51083 4.88058 3.79127 4.88058 3.96216 5.05961L4.66763 5.80326L6.92427 3.43458C7.09516 3.25555 7.37559 3.25555 7.54648 3.43458L7.57716 3.46671C7.74805 3.64574 7.74805 3.93494 7.57716 4.11397L4.98312 6.84071C4.80347 7.01974 4.52741 7.01974 4.35214 6.84071Z" fill="url(#paint0_linear_94_7811)"/>
<defs>
<linearGradient id="paint0_linear_94_7811" x1="0.180176" y1="11.1799" x2="10.1802" y2="1.17993" gradientUnits="userSpaceOnUse">
<stop stop-color="#B02CDF"/>
<stop offset="1" stop-color="#D054FB"/>
</linearGradient>
</defs>
</svg>
