<svg width="312" height="168" viewBox="0 0 312 168" fill="none" xmlns="http://www.w3.org/2000/svg">
<rect width="305" height="168" transform="matrix(1 0 -0.0413525 0.999145 7 0)" fill="#FFDDDD"/>
<path d="M221.752 111.153L183.318 103.901L176.591 70.394L231.9 71.4397L221.752 111.153Z" stroke="#8F3549" stroke-miterlimit="10"/>
<path d="M218.343 106.14L183.978 99.4226L178.398 66.063L227.992 66.3585L218.343 106.14Z" fill="#EC9091"/>
<path d="M100.01 125.199C100.566 125.068 100.911 124.511 100.78 123.955C100.65 123.399 100.093 123.054 99.537 123.185C98.981 123.316 98.6363 123.873 98.767 124.429C98.8977 124.985 99.4544 125.33 100.01 125.199Z" fill="#531F41"/>
<path d="M206.002 50.9581C206.931 50.9581 207.684 50.205 207.684 49.2759C207.684 48.3469 206.931 47.5938 206.002 47.5938C205.073 47.5938 204.32 48.3469 204.32 49.2759C204.32 50.205 205.073 50.9581 206.002 50.9581Z" fill="#531F41"/>
<path d="M151.852 36.7428C152.781 36.7428 153.534 35.9897 153.534 35.0606C153.534 34.1316 152.781 33.3784 151.852 33.3784C150.923 33.3784 150.17 34.1316 150.17 35.0606C150.17 35.9897 150.923 36.7428 151.852 36.7428Z" fill="#531F41"/>
<path d="M207.592 34.1251C207.592 33.8068 207.33 33.5454 207.012 33.5454C206.694 33.5454 206.433 33.8068 206.433 34.1251C206.433 34.4433 206.694 34.7048 207.012 34.7048C207.33 34.7161 207.592 34.4547 207.592 34.1251Z" fill="#531F41"/>
<path d="M190.055 150.989C190.055 150.568 189.714 150.227 189.294 150.227C188.873 150.227 188.532 150.568 188.532 150.989C188.532 151.409 188.873 151.75 189.294 151.75C189.703 151.761 190.055 151.409 190.055 150.989Z" fill="#531F41"/>
<path d="M189.202 154.512C189.202 154.194 188.941 153.932 188.623 153.932C188.304 153.932 188.043 154.194 188.043 154.512C188.043 154.83 188.304 155.091 188.623 155.091C188.941 155.091 189.202 154.83 189.202 154.512Z" fill="#531F41"/>
<path d="M159.989 31.9923C159.989 31.674 159.728 31.4126 159.41 31.4126C159.091 31.4126 158.83 31.674 158.83 31.9923C158.83 32.3105 159.091 32.5719 159.41 32.5719C159.728 32.5719 159.989 32.3105 159.989 31.9923Z" fill="#531F41"/>
<path d="M203.831 40.4442C203.831 40.2737 203.694 40.126 203.513 40.126C203.342 40.126 203.194 40.2624 203.194 40.4442C203.194 40.6147 203.331 40.7625 203.513 40.7625C203.683 40.7625 203.831 40.6147 203.831 40.4442Z" fill="#531F41"/>
<path d="M157.465 41.2445C157.465 41.074 157.329 40.9263 157.147 40.9263C156.977 40.9263 156.829 41.0627 156.829 41.2445C156.829 41.415 156.965 41.5628 157.147 41.5628C157.318 41.5628 157.465 41.4264 157.465 41.2445Z" fill="#531F41"/>
<path d="M101.133 47.205C101.133 47.0345 100.997 46.8867 100.815 46.8867C100.645 46.8867 100.497 47.0231 100.497 47.205C100.497 47.3755 100.633 47.5232 100.815 47.5232C100.997 47.5232 101.133 47.3755 101.133 47.205Z" fill="#531F41"/>
<path d="M198.43 44.5325C198.994 44.441 199.377 43.9097 199.285 43.3458C199.194 42.782 198.663 42.399 198.099 42.4906C197.535 42.5821 197.152 43.1134 197.244 43.6772C197.335 44.2411 197.866 44.624 198.43 44.5325Z" fill="#531F41"/>
<path d="M96.2585 46.3264C96.8145 46.1956 97.1592 45.6388 97.0285 45.0827C96.8978 44.5266 96.3411 44.1818 95.7851 44.3126C95.2291 44.4433 94.8843 45.0001 95.015 45.5562C95.1458 46.1123 95.7025 46.4571 96.2585 46.3264Z" fill="#531F41"/>
<path d="M102.259 119.155C102.259 118.928 102.077 118.746 101.85 118.746C101.622 118.746 101.44 118.928 101.44 119.155C101.44 119.383 101.622 119.564 101.85 119.564C102.077 119.564 102.259 119.383 102.259 119.155Z" fill="#531F41"/>
<path d="M95.6318 122.928C95.6318 121.212 94.2341 119.813 92.5181 119.813C90.8021 119.813 89.4043 121.212 89.4043 122.928C89.4043 124.644 90.8021 126.042 92.5181 126.042C94.2341 126.042 95.6318 124.655 95.6318 122.928Z" stroke="#531F41" stroke-miterlimit="10"/>
<path d="M198.262 51.6959C198.262 48.843 195.955 46.5356 193.103 46.5356C190.25 46.5356 187.943 48.843 187.943 51.6959C187.943 54.5488 190.25 56.8561 193.103 56.8561C195.955 56.8561 198.262 54.5488 198.262 51.6959Z" stroke="#531F41" stroke-miterlimit="10"/>
<path d="M159.989 25.6722C159.989 23.8764 158.534 22.4102 156.727 22.4102C154.932 22.4102 153.466 23.865 153.466 25.6722C153.466 27.4681 154.92 28.9343 156.727 28.9343C158.523 28.9343 159.989 27.4795 159.989 25.6722Z" stroke="#531F41" stroke-miterlimit="10"/>
<path d="M184.111 149.364C184.111 147.568 182.656 146.102 180.849 146.102C179.054 146.102 177.588 147.557 177.588 149.364C177.588 151.16 179.043 152.626 180.849 152.626C182.656 152.626 184.111 151.171 184.111 149.364Z" stroke="#531F41" stroke-miterlimit="10"/>
<path d="M154.966 117.529C179.443 117.529 199.286 114.359 199.286 110.448C199.286 106.537 179.443 103.367 154.966 103.367C130.488 103.367 110.646 106.537 110.646 110.448C110.646 114.359 130.488 117.529 154.966 117.529Z" fill="#D86A6E"/>
<path d="M139.076 153.599C139.076 152.11 131.508 150.894 122.178 150.894C112.848 150.894 105.279 152.099 105.279 153.599C105.279 155.088 112.848 156.304 122.178 156.304C131.508 156.304 139.076 155.088 139.076 153.599Z" fill="#D86A6E"/>
<path d="M160.114 119.769C184.836 119.769 204.877 116.563 204.877 112.608C204.877 108.654 184.836 105.448 160.114 105.448C135.392 105.448 115.351 108.654 115.351 112.608C115.351 116.563 135.392 119.769 160.114 119.769Z" stroke="#863952" stroke-miterlimit="10"/>
<path d="M137.147 104.152C137.283 104.743 136.92 105.323 136.34 105.47C135.749 105.607 135.17 105.243 135.022 104.663C134.885 104.072 135.249 103.493 135.829 103.345C136.42 103.197 136.999 103.561 137.147 104.152Z" fill="#993147"/>
<path d="M132.215 101.185C132.352 101.776 131.988 102.356 131.408 102.504C130.817 102.64 130.238 102.276 130.09 101.697C129.954 101.106 130.317 100.526 130.897 100.378C131.488 100.242 132.079 100.606 132.215 101.185Z" fill="#993147"/>
<path d="M140.204 99.1965C140.34 99.7875 139.976 100.367 139.397 100.515C138.806 100.651 138.226 100.288 138.078 99.708C137.942 99.1169 138.306 98.5373 138.885 98.3895C139.476 98.2531 140.067 98.6168 140.204 99.1965Z" fill="#993147"/>
<path d="M135.248 96.1388C135.385 96.7298 135.021 97.3095 134.442 97.4572C133.851 97.5936 133.271 97.2299 133.123 96.6502C132.987 96.0592 133.351 95.4795 133.93 95.3318C134.521 95.184 135.112 95.5477 135.248 96.1388Z" fill="#993147"/>
<path d="M130.328 93.1721C130.464 93.7631 130.1 94.3428 129.521 94.4906C128.93 94.627 128.35 94.2632 128.202 93.6836C128.066 93.0925 128.43 92.5129 129.009 92.3651C129.6 92.2287 130.191 92.5924 130.328 93.1721Z" fill="#993147"/>
<path d="M138.317 91.1827C138.453 91.7737 138.09 92.3534 137.51 92.5012C136.919 92.6376 136.339 92.2739 136.192 91.6942C136.055 91.1031 136.419 90.5235 136.999 90.3757C137.59 90.2279 138.18 90.5917 138.317 91.1827Z" fill="#993147"/>
<path d="M134.078 109.095C134.214 109.686 133.85 110.266 133.271 110.414C132.68 110.55 132.1 110.187 131.952 109.596C131.816 109.004 132.18 108.425 132.759 108.277C133.35 108.152 133.941 108.516 134.078 109.095Z" fill="#993147"/>
<path d="M142.089 107.209C142.226 107.8 141.862 108.379 141.282 108.527C140.692 108.664 140.112 108.3 139.964 107.72C139.828 107.129 140.191 106.549 140.771 106.402C141.362 106.265 141.953 106.629 142.089 107.209Z" fill="#993147"/>
<path d="M145.158 102.265C145.294 102.856 144.93 103.436 144.351 103.584C143.76 103.72 143.18 103.356 143.033 102.777C142.896 102.186 143.26 101.606 143.839 101.458C144.43 101.31 145.01 101.674 145.158 102.265Z" fill="#993147"/>
<path d="M148.216 97.3099C148.353 97.9009 147.989 98.4806 147.409 98.6284C146.818 98.7647 146.239 98.401 146.091 97.81C145.955 97.219 146.318 96.6393 146.898 96.4915C147.489 96.3551 148.08 96.7188 148.216 97.3099Z" fill="#993147"/>
<path d="M143.261 94.252C143.398 94.8431 143.034 95.4228 142.454 95.5705C141.863 95.7069 141.284 95.3432 141.136 94.7635C141 94.1725 141.363 93.5928 141.943 93.445C142.545 93.2973 143.125 93.661 143.261 94.252Z" fill="#993147"/>
<path d="M146.33 89.296C146.466 89.887 146.102 90.4667 145.523 90.6145C144.932 90.7509 144.352 90.3871 144.204 89.8075C144.068 89.2164 144.432 88.6367 145.011 88.489C145.602 88.3412 146.193 88.7049 146.33 89.296Z" fill="#993147"/>
<path d="M150.102 105.322C150.238 105.913 149.875 106.493 149.295 106.641C148.704 106.777 148.125 106.413 147.977 105.834C147.841 105.243 148.204 104.663 148.784 104.515C149.375 104.368 149.966 104.731 150.102 105.322Z" fill="#993147"/>
<path d="M139.034 112.165C139.17 112.756 138.806 113.336 138.227 113.484C137.636 113.62 137.056 113.256 136.909 112.677C136.772 112.086 137.136 111.506 137.715 111.358C138.306 111.21 138.897 111.574 139.034 112.165Z" fill="#993147"/>
<path d="M135.965 117.109C136.102 117.7 135.738 118.279 135.158 118.427C134.567 118.563 133.988 118.2 133.84 117.62C133.704 117.029 134.067 116.449 134.647 116.302C135.238 116.165 135.829 116.529 135.965 117.109Z" fill="#993147"/>
<path d="M143.977 115.222C144.113 115.813 143.75 116.393 143.17 116.54C142.579 116.677 142 116.313 141.852 115.733C141.716 115.142 142.079 114.563 142.659 114.415C143.25 114.279 143.841 114.642 143.977 115.222Z" fill="#993147"/>
<path d="M147.044 110.278C147.181 110.869 146.817 111.449 146.238 111.597C145.647 111.733 145.067 111.37 144.919 110.79C144.783 110.199 145.147 109.619 145.726 109.471C146.317 109.324 146.908 109.687 147.044 110.278Z" fill="#993147"/>
<path d="M121.113 107.925C121.249 108.516 120.885 109.095 120.306 109.243C119.715 109.38 119.135 109.016 118.988 108.436C118.851 107.845 119.215 107.265 119.794 107.118C120.397 106.97 120.976 107.345 121.113 107.925Z" fill="#993147"/>
<path d="M116.192 104.97C116.328 105.561 115.965 106.141 115.385 106.289C114.794 106.425 114.214 106.061 114.067 105.482C113.93 104.891 114.294 104.311 114.874 104.163C115.465 104.016 116.055 104.379 116.192 104.97Z" fill="#993147"/>
<path d="M124.181 102.982C124.317 103.573 123.954 104.152 123.374 104.3C122.783 104.436 122.204 104.073 122.056 103.493C121.92 102.902 122.283 102.322 122.863 102.175C123.454 102.027 124.045 102.39 124.181 102.982Z" fill="#993147"/>
<path d="M119.226 99.9122C119.362 100.503 118.999 101.083 118.419 101.231C117.828 101.367 117.249 101.003 117.101 100.424C116.965 99.8326 117.328 99.253 117.908 99.1052C118.499 98.9574 119.09 99.3211 119.226 99.9122Z" fill="#993147"/>
<path d="M114.304 96.9571C114.441 97.5481 114.077 98.1278 113.497 98.2756C112.906 98.412 112.327 98.0483 112.179 97.4686C112.043 96.8775 112.406 96.2979 112.986 96.1501C113.577 96.0024 114.168 96.3661 114.304 96.9571Z" fill="#993147"/>
<path d="M122.294 94.9572C122.431 95.5483 122.067 96.128 121.488 96.2757C120.897 96.4121 120.317 96.0484 120.169 95.4687C120.033 94.8777 120.397 94.298 120.976 94.1502C121.567 94.0139 122.158 94.3776 122.294 94.9572Z" fill="#993147"/>
<path d="M118.055 112.88C118.191 113.471 117.828 114.051 117.248 114.199C116.657 114.335 116.078 113.972 115.93 113.392C115.794 112.801 116.157 112.221 116.737 112.073C117.328 111.926 117.919 112.289 118.055 112.88Z" fill="#993147"/>
<path d="M126.068 110.994C126.204 111.585 125.841 112.164 125.261 112.312C124.67 112.449 124.09 112.085 123.943 111.505C123.806 110.914 124.17 110.334 124.75 110.187C125.341 110.039 125.931 110.403 126.068 110.994Z" fill="#993147"/>
<path d="M129.136 106.039C129.273 106.63 128.909 107.209 128.329 107.357C127.738 107.494 127.159 107.13 127.011 106.55C126.875 105.959 127.238 105.379 127.818 105.232C128.409 105.084 128.988 105.448 129.136 106.039Z" fill="#993147"/>
<path d="M127.237 98.0255C127.373 98.6165 127.009 99.1962 126.43 99.3439C125.839 99.4803 125.259 99.1166 125.112 98.5369C124.975 97.9459 125.339 97.3662 125.919 97.2185C126.509 97.0707 127.1 97.4344 127.237 98.0255Z" fill="#993147"/>
<path d="M123.01 115.939C123.147 116.53 122.783 117.11 122.203 117.258C121.612 117.394 121.033 117.03 120.885 116.451C120.749 115.86 121.112 115.28 121.692 115.132C122.283 114.996 122.862 115.359 123.01 115.939Z" fill="#993147"/>
<path d="M119.942 120.894C120.078 121.485 119.715 122.064 119.135 122.212C118.544 122.348 117.964 121.985 117.817 121.405C117.68 120.814 118.044 120.234 118.624 120.087C119.215 119.939 119.805 120.303 119.942 120.894Z" fill="#993147"/>
<path d="M127.954 119.008C128.09 119.599 127.726 120.179 127.147 120.326C126.556 120.463 125.976 120.099 125.828 119.519C125.692 118.928 126.056 118.349 126.635 118.201C127.226 118.053 127.817 118.417 127.954 119.008Z" fill="#993147"/>
<path d="M131.022 114.052C131.158 114.643 130.795 115.223 130.215 115.37C129.624 115.507 129.045 115.143 128.897 114.563C128.76 113.972 129.124 113.393 129.704 113.245C130.295 113.097 130.886 113.461 131.022 114.052Z" fill="#993147"/>
<path d="M131.476 80.1124C131.612 80.7034 131.249 81.2831 130.669 81.4309C130.078 81.5673 129.499 81.2035 129.351 80.6239C129.215 80.0328 129.578 79.4531 130.158 79.3054C130.749 79.1576 131.34 79.5213 131.476 80.1124Z" fill="#993147"/>
<path d="M126.555 77.1461C126.691 77.7371 126.328 78.3168 125.748 78.4645C125.157 78.6009 124.578 78.2372 124.43 77.6575C124.294 77.0665 124.657 76.4868 125.237 76.3391C125.828 76.1913 126.407 76.555 126.555 77.1461Z" fill="#993147"/>
<path d="M134.544 75.1563C134.681 75.7474 134.317 76.327 133.738 76.4748C133.147 76.6112 132.567 76.2475 132.419 75.6678C132.283 75.0768 132.647 74.4971 133.226 74.3493C133.817 74.2016 134.397 74.5653 134.544 75.1563Z" fill="#993147"/>
<path d="M129.588 72.0997C129.725 72.6907 129.361 73.2704 128.781 73.4182C128.191 73.5546 127.611 73.1908 127.463 72.6112C127.327 72.0201 127.691 71.4405 128.27 71.2927C128.861 71.1449 129.452 71.5086 129.588 72.0997Z" fill="#993147"/>
<path d="M124.658 69.1329C124.794 69.7239 124.43 70.3036 123.851 70.4514C123.26 70.5877 122.68 70.224 122.533 69.6444C122.396 69.0533 122.76 68.4737 123.339 68.3259C123.93 68.1781 124.521 68.5418 124.658 69.1329Z" fill="#993147"/>
<path d="M132.647 67.1446C132.783 67.7356 132.42 68.3153 131.84 68.4631C131.249 68.5995 130.67 68.2358 130.522 67.6561C130.385 67.065 130.749 66.4854 131.329 66.3376C131.92 66.1899 132.511 66.5536 132.647 67.1446Z" fill="#993147"/>
<path d="M128.419 85.0564C128.556 85.6474 128.192 86.2271 127.613 86.3748C127.022 86.5112 126.442 86.1475 126.294 85.5678C126.158 84.9768 126.522 84.3971 127.101 84.2494C127.692 84.113 128.272 84.4767 128.419 85.0564Z" fill="#993147"/>
<path d="M136.43 83.1695C136.566 83.7605 136.203 84.3402 135.623 84.488C135.032 84.6244 134.453 84.2607 134.305 83.681C134.169 83.0899 134.532 82.5103 135.112 82.3625C135.703 82.2148 136.294 82.5785 136.43 83.1695Z" fill="#993147"/>
<path d="M139.489 78.2146C139.625 78.8056 139.261 79.3853 138.682 79.533C138.091 79.6694 137.511 79.3057 137.364 78.726C137.227 78.135 137.591 77.5553 138.17 77.4076C138.761 77.2712 139.352 77.6349 139.489 78.2146Z" fill="#993147"/>
<path d="M142.556 73.2696C142.692 73.8606 142.329 74.4403 141.749 74.5881C141.158 74.7245 140.579 74.3608 140.431 73.7811C140.295 73.19 140.658 72.6104 141.238 72.4626C141.829 72.3149 142.408 72.6786 142.556 73.2696Z" fill="#993147"/>
<path d="M137.602 70.2014C137.738 70.7924 137.375 71.3721 136.795 71.5199C136.204 71.6563 135.625 71.2925 135.477 70.7129C135.341 70.1218 135.704 69.5421 136.284 69.3944C136.875 69.258 137.466 69.6217 137.602 70.2014Z" fill="#993147"/>
<path d="M140.659 65.2579C140.795 65.8489 140.431 66.4286 139.852 66.5764C139.261 66.7128 138.681 66.349 138.534 65.7694C138.397 65.1783 138.761 64.5987 139.34 64.4509C139.931 64.3031 140.522 64.6669 140.659 65.2579Z" fill="#993147"/>
<path d="M144.443 81.2838C144.579 81.8748 144.216 82.4545 143.636 82.6022C143.045 82.7386 142.465 82.3749 142.318 81.7952C142.181 81.2042 142.545 80.6245 143.125 80.4768C143.716 80.329 144.306 80.6927 144.443 81.2838Z" fill="#993147"/>
<path d="M133.362 88.1253C133.498 88.7163 133.134 89.296 132.555 89.4438C131.964 89.5802 131.384 89.2164 131.237 88.6254C131.1 88.0344 131.464 87.4547 132.044 87.307C132.634 87.1706 133.225 87.5343 133.362 88.1253Z" fill="#993147"/>
<path d="M141.374 86.2386C141.511 86.8296 141.147 87.4093 140.568 87.5571C139.977 87.6935 139.397 87.3298 139.249 86.7387C139.113 86.1477 139.477 85.568 140.056 85.4202C140.647 85.2838 141.238 85.6476 141.374 86.2386Z" fill="#993147"/>
<path d="M115.454 83.8858C115.59 84.4769 115.226 85.0565 114.647 85.2043C114.056 85.3407 113.476 84.977 113.328 84.3973C113.192 83.8063 113.556 83.2266 114.135 83.0788C114.726 82.9311 115.317 83.2948 115.454 83.8858Z" fill="#993147"/>
<path d="M110.521 80.9192C110.657 81.5102 110.294 82.0899 109.714 82.2376C109.123 82.374 108.544 82.0103 108.396 81.4306C108.259 80.8396 108.623 80.2599 109.203 80.1122C109.805 79.9758 110.385 80.3395 110.521 80.9192Z" fill="#993147"/>
<path d="M118.509 78.9309C118.646 79.5219 118.282 80.1016 117.702 80.2493C117.111 80.3857 116.532 80.022 116.384 79.4423C116.248 78.8513 116.611 78.2716 117.191 78.1239C117.782 77.9875 118.373 78.3512 118.509 78.9309Z" fill="#993147"/>
<path d="M113.567 75.8731C113.703 76.4642 113.34 77.0438 112.76 77.1916C112.169 77.328 111.589 76.9643 111.442 76.3846C111.305 75.7936 111.669 75.2139 112.249 75.0661C112.84 74.9184 113.43 75.2821 113.567 75.8731Z" fill="#993147"/>
<path d="M108.634 72.906C108.771 73.497 108.407 74.0767 107.827 74.2244C107.236 74.3608 106.657 73.9971 106.509 73.4174C106.373 72.8264 106.736 72.2467 107.316 72.099C107.907 71.9626 108.498 72.3263 108.634 72.906Z" fill="#993147"/>
<path d="M116.623 70.9167C116.76 71.5078 116.396 72.0874 115.817 72.2352C115.226 72.3716 114.646 72.0079 114.498 71.4282C114.362 70.8372 114.726 70.2575 115.305 70.1097C115.896 69.9733 116.487 70.337 116.623 70.9167Z" fill="#993147"/>
<path d="M112.385 88.8424C112.522 89.4334 112.158 90.0131 111.578 90.1608C110.987 90.2972 110.408 89.9335 110.26 89.3538C110.124 88.7628 110.487 88.1831 111.067 88.0354C111.669 87.8876 112.249 88.2513 112.385 88.8424Z" fill="#993147"/>
<path d="M120.408 86.9431C120.544 87.5341 120.18 88.1138 119.601 88.2616C119.01 88.398 118.43 88.0342 118.283 87.4546C118.146 86.8635 118.51 86.2838 119.089 86.1361C119.68 85.9997 120.26 86.3634 120.408 86.9431Z" fill="#993147"/>
<path d="M123.464 81.9991C123.601 82.5901 123.237 83.1698 122.657 83.3176C122.067 83.454 121.487 83.0903 121.339 82.5106C121.203 81.9195 121.566 81.3399 122.146 81.1921C122.737 81.0443 123.328 81.4081 123.464 81.9991Z" fill="#993147"/>
<path d="M121.579 73.9849C121.715 74.576 121.351 75.1557 120.772 75.3034C120.181 75.4398 119.601 75.0761 119.453 74.4964C119.317 73.9054 119.681 73.3257 120.26 73.1779C120.851 73.0302 121.442 73.3939 121.579 73.9849Z" fill="#993147"/>
<path d="M117.34 91.8987C117.477 92.4898 117.113 93.0695 116.533 93.2172C115.942 93.3536 115.363 92.9899 115.215 92.3989C115.079 91.8078 115.442 91.2281 116.022 91.0804C116.613 90.944 117.204 91.3077 117.34 91.8987Z" fill="#993147"/>
<path d="M125.351 90.012C125.487 90.6031 125.124 91.1827 124.544 91.3305C123.953 91.4669 123.374 91.1032 123.226 90.5121C123.09 89.9211 123.453 89.3414 124.033 89.1937C124.624 89.0573 125.215 89.421 125.351 90.012Z" fill="#993147"/>
<path d="M151.99 113.337C152.126 113.928 151.762 114.507 151.183 114.655C150.592 114.792 150.012 114.428 149.865 113.848C149.728 113.257 150.092 112.678 150.671 112.53C151.274 112.393 151.853 112.746 151.99 113.337Z" fill="#993147"/>
<path d="M161.182 98.4792C161.318 99.0702 160.955 99.6499 160.375 99.7977C159.784 99.9341 159.205 99.5704 159.057 98.9907C158.921 98.3996 159.284 97.82 159.864 97.6722C160.455 97.5358 161.046 97.8995 161.182 98.4792Z" fill="#993147"/>
<path d="M156.249 95.525C156.386 96.116 156.022 96.6957 155.443 96.8434C154.852 96.9798 154.272 96.6161 154.124 96.0365C153.988 95.4454 154.352 94.8657 154.931 94.718C155.522 94.5702 156.113 94.9339 156.249 95.525Z" fill="#993147"/>
<path d="M164.239 93.5357C164.375 94.1268 164.011 94.7064 163.432 94.8542C162.841 94.9906 162.261 94.6269 162.114 94.0472C161.977 93.4562 162.341 92.8765 162.92 92.7287C163.511 92.581 164.102 92.9447 164.239 93.5357Z" fill="#993147"/>
<path d="M159.295 90.467C159.431 91.058 159.068 91.6377 158.477 91.7855C157.886 91.9219 157.306 91.5582 157.159 90.9785C157.022 90.3874 157.386 89.8078 157.965 89.66C158.568 89.5236 159.147 89.8873 159.295 90.467Z" fill="#993147"/>
<path d="M154.364 87.5118C154.5 88.1028 154.136 88.6825 153.557 88.8303C152.966 88.9667 152.386 88.6029 152.239 88.0233C152.102 87.4322 152.466 86.8526 153.045 86.7048C153.636 86.557 154.227 86.9208 154.364 87.5118Z" fill="#993147"/>
<path d="M162.352 85.5225C162.488 86.1136 162.125 86.6933 161.545 86.841C160.954 86.9774 160.375 86.6137 160.227 86.034C160.091 85.443 160.454 84.8633 161.034 84.7155C161.625 84.5678 162.216 84.9315 162.352 85.5225Z" fill="#993147"/>
<path d="M158.114 103.436C158.25 104.027 157.886 104.606 157.307 104.754C156.716 104.89 156.136 104.527 155.989 103.947C155.852 103.356 156.216 102.776 156.795 102.629C157.386 102.481 157.977 102.845 158.114 103.436Z" fill="#993147"/>
<path d="M166.124 101.549C166.261 102.14 165.897 102.72 165.318 102.867C164.727 103.004 164.147 102.64 163.999 102.06C163.863 101.469 164.227 100.89 164.806 100.742C165.397 100.594 165.988 100.958 166.124 101.549Z" fill="#993147"/>
<path d="M169.194 96.5924C169.33 97.1834 168.967 97.7631 168.387 97.9108C167.796 98.0472 167.216 97.6835 167.069 97.1039C166.932 96.5128 167.296 95.9331 167.876 95.7854C168.466 95.6376 169.057 96.0013 169.194 96.5924Z" fill="#993147"/>
<path d="M172.25 91.649C172.387 92.24 172.023 92.8197 171.444 92.9675C170.853 93.1039 170.273 92.7402 170.125 92.1605C169.989 91.5694 170.353 90.9898 170.932 90.842C171.523 90.6942 172.114 91.058 172.25 91.649Z" fill="#993147"/>
<path d="M167.307 88.5807C167.443 89.1717 167.08 89.7514 166.5 89.8991C165.909 90.0355 165.33 89.6718 165.182 89.0921C165.046 88.5011 165.409 87.9214 165.989 87.7736C166.58 87.6259 167.159 87.9896 167.307 88.5807Z" fill="#993147"/>
<path d="M170.364 83.6242C170.5 84.2153 170.136 84.7949 169.557 84.9427C168.966 85.0791 168.386 84.7154 168.239 84.1357C168.102 83.5447 168.466 82.965 169.045 82.8172C169.636 82.6808 170.227 83.0446 170.364 83.6242Z" fill="#993147"/>
<path d="M174.138 99.6622C174.274 100.253 173.911 100.833 173.331 100.981C172.74 101.117 172.161 100.753 172.013 100.174C171.877 99.5826 172.24 99.003 172.82 98.8552C173.422 98.7074 174.002 99.0712 174.138 99.6622Z" fill="#993147"/>
<path d="M163.069 106.493C163.205 107.084 162.842 107.664 162.262 107.812C161.671 107.948 161.091 107.585 160.944 107.005C160.807 106.414 161.171 105.834 161.751 105.686C162.341 105.55 162.932 105.914 163.069 106.493Z" fill="#993147"/>
<path d="M160 111.45C160.137 112.041 159.773 112.621 159.194 112.768C158.603 112.905 158.023 112.541 157.875 111.961C157.739 111.37 158.103 110.791 158.682 110.643C159.284 110.495 159.864 110.859 160 111.45Z" fill="#993147"/>
<path d="M168.023 109.562C168.159 110.153 167.796 110.732 167.216 110.88C166.625 111.016 166.046 110.653 165.898 110.073C165.761 109.482 166.125 108.902 166.705 108.755C167.296 108.607 167.875 108.971 168.023 109.562Z" fill="#993147"/>
<path d="M171.08 104.607C171.216 105.198 170.852 105.777 170.273 105.925C169.682 106.062 169.102 105.698 168.954 105.118C168.818 104.527 169.182 103.947 169.761 103.8C170.352 103.663 170.943 104.027 171.08 104.607Z" fill="#993147"/>
<path d="M153.17 100.366C153.307 100.957 152.943 101.537 152.363 101.684C151.773 101.821 151.193 101.457 151.045 100.877C150.909 100.286 151.273 99.7067 151.852 99.5589C152.443 99.4225 153.034 99.7863 153.17 100.366Z" fill="#993147"/>
<path d="M151.284 92.3537C151.42 92.9448 151.056 93.5244 150.477 93.6722C149.886 93.8086 149.306 93.4449 149.159 92.8652C149.022 92.2742 149.386 91.6945 149.965 91.5467C150.556 91.4103 151.136 91.7741 151.284 92.3537Z" fill="#993147"/>
<path d="M155.057 108.392C155.193 108.983 154.83 109.562 154.25 109.71C153.659 109.847 153.08 109.483 152.932 108.903C152.796 108.312 153.159 107.732 153.739 107.585C154.33 107.437 154.921 107.801 155.057 108.392Z" fill="#993147"/>
<path d="M155.511 74.441C155.648 75.032 155.284 75.6117 154.704 75.7595C154.113 75.8959 153.534 75.5321 153.386 74.9525C153.25 74.3614 153.613 73.7818 154.193 73.634C154.773 73.4862 155.375 73.85 155.511 74.441Z" fill="#993147"/>
<path d="M150.59 71.4859C150.727 72.077 150.363 72.6566 149.783 72.8044C149.192 72.9408 148.613 72.5771 148.465 71.9974C148.329 71.4064 148.692 70.8267 149.272 70.6789C149.863 70.5312 150.454 70.8949 150.59 71.4859Z" fill="#993147"/>
<path d="M158.58 69.4846C158.716 70.0756 158.352 70.6553 157.773 70.8031C157.182 70.9395 156.602 70.5757 156.454 69.9961C156.318 69.405 156.682 68.8254 157.261 68.6776C157.852 68.5412 158.443 68.9049 158.58 69.4846Z" fill="#993147"/>
<path d="M153.625 66.4268C153.762 67.0179 153.398 67.5975 152.819 67.7453C152.228 67.8817 151.648 67.518 151.5 66.9383C151.364 66.3473 151.728 65.7676 152.307 65.6198C152.898 65.4721 153.489 65.8358 153.625 66.4268Z" fill="#993147"/>
<path d="M148.704 63.4727C148.84 64.0638 148.476 64.6434 147.897 64.7912C147.306 64.9276 146.726 64.5639 146.578 63.9842C146.442 63.3932 146.806 62.8135 147.385 62.6657C147.976 62.518 148.556 62.8817 148.704 63.4727Z" fill="#993147"/>
<path d="M156.693 61.4729C156.829 62.0639 156.466 62.6436 155.886 62.7913C155.295 62.9277 154.715 62.564 154.568 61.9843C154.431 61.3933 154.795 60.8136 155.375 60.6659C155.966 60.5295 156.545 60.8932 156.693 61.4729Z" fill="#993147"/>
<path d="M152.455 79.3961C152.591 79.9871 152.227 80.5668 151.648 80.7145C151.057 80.8509 150.477 80.4872 150.329 79.9075C150.193 79.3165 150.557 78.7368 151.136 78.5891C151.727 78.4413 152.318 78.805 152.455 79.3961Z" fill="#993147"/>
<path d="M160.466 77.5094C160.603 78.1004 160.239 78.6801 159.659 78.8278C159.068 78.9642 158.489 78.6005 158.341 78.0208C158.205 77.4298 158.568 76.8501 159.148 76.7024C159.739 76.5546 160.33 76.9183 160.466 77.5094Z" fill="#993147"/>
<path d="M163.523 72.5533C163.659 73.1443 163.296 73.724 162.716 73.8718C162.125 74.0082 161.546 73.6444 161.398 73.0648C161.261 72.4737 161.625 71.8941 162.205 71.7463C162.796 71.5985 163.387 71.9623 163.523 72.5533Z" fill="#993147"/>
<path d="M166.591 67.5979C166.728 68.1889 166.364 68.7686 165.784 68.9163C165.193 69.0527 164.614 68.689 164.466 68.1093C164.33 67.5183 164.693 66.9386 165.273 66.7909C165.864 66.6545 166.455 67.0182 166.591 67.5979Z" fill="#993147"/>
<path d="M161.637 64.5411C161.774 65.1321 161.41 65.7118 160.83 65.8596C160.239 65.996 159.66 65.6322 159.512 65.0526C159.376 64.4615 159.739 63.8819 160.319 63.7341C160.91 63.5863 161.501 63.9501 161.637 64.5411Z" fill="#993147"/>
<path d="M164.706 59.5852C164.842 60.1762 164.478 60.7559 163.899 60.9036C163.308 61.04 162.728 60.6763 162.58 60.0966C162.444 59.5056 162.808 58.9259 163.387 58.7782C163.978 58.6418 164.558 59.0055 164.706 59.5852Z" fill="#993147"/>
<path d="M168.478 75.612C168.614 76.2031 168.251 76.7827 167.671 76.9305C167.08 77.0669 166.501 76.7032 166.353 76.1235C166.217 75.5325 166.58 74.9528 167.16 74.805C167.751 74.6686 168.342 75.0324 168.478 75.612Z" fill="#993147"/>
<path d="M157.397 82.4538C157.533 83.0449 157.17 83.6245 156.59 83.7723C155.999 83.9087 155.42 83.545 155.272 82.9653C155.135 82.3743 155.499 81.7946 156.09 81.6468C156.681 81.5104 157.261 81.8742 157.397 82.4538Z" fill="#993147"/>
<path d="M165.41 80.5675C165.546 81.1585 165.182 81.7382 164.603 81.8859C164.012 82.0223 163.432 81.6586 163.285 81.0789C163.148 80.4879 163.512 79.9082 164.091 79.7605C164.694 79.6127 165.273 79.9764 165.41 80.5675Z" fill="#993147"/>
<path d="M147.5 76.3278C147.637 76.9189 147.273 77.4986 146.694 77.6463C146.103 77.7827 145.523 77.419 145.375 76.8393C145.239 76.2483 145.603 75.6686 146.182 75.5209C146.773 75.3845 147.364 75.7482 147.5 76.3278Z" fill="#993147"/>
<path d="M145.614 68.3137C145.75 68.9047 145.386 69.4844 144.807 69.6322C144.216 69.7686 143.636 69.4048 143.489 68.8252C143.352 68.2341 143.716 67.6545 144.295 67.5067C144.886 67.3703 145.477 67.734 145.614 68.3137Z" fill="#993147"/>
<path d="M149.386 84.3396C149.523 84.9306 149.159 85.5103 148.579 85.658C147.988 85.7944 147.409 85.4307 147.261 84.851C147.125 84.26 147.488 83.6803 148.068 83.5326C148.659 83.3962 149.25 83.7599 149.386 84.3396Z" fill="#993147"/>
<path d="M176.035 107.675C176.171 108.266 175.807 108.846 175.228 108.993C174.637 109.13 174.057 108.766 173.91 108.186C173.773 107.595 174.137 107.016 174.716 106.868C175.307 106.72 175.887 107.084 176.035 107.675Z" fill="#993147"/>
<path d="M177.206 94.7071C177.342 95.2981 176.978 95.8778 176.399 96.0256C175.808 96.162 175.228 95.7983 175.08 95.2186C174.944 94.6275 175.308 94.0479 175.887 93.9001C176.478 93.7524 177.069 94.1161 177.206 94.7071Z" fill="#993147"/>
<path d="M180.262 89.7517C180.398 90.3427 180.035 90.9224 179.444 91.0701C178.853 91.2065 178.273 90.8428 178.125 90.2632C177.989 89.6721 178.353 89.0924 178.932 88.9447C179.534 88.8083 180.125 89.172 180.262 89.7517Z" fill="#993147"/>
<path d="M175.319 86.6929C175.456 87.284 175.092 87.8637 174.501 88.0114C173.91 88.1478 173.331 87.7841 173.183 87.2044C173.047 86.6134 173.41 86.0337 173.99 85.886C174.592 85.7382 175.183 86.1019 175.319 86.6929Z" fill="#993147"/>
<path d="M178.375 81.7375C178.512 82.3286 178.148 82.9082 177.569 83.056C176.978 83.1924 176.398 82.8287 176.25 82.249C176.114 81.658 176.478 81.0783 177.057 80.9305C177.648 80.7941 178.239 81.1578 178.375 81.7375Z" fill="#993147"/>
<path d="M182.161 97.7639C182.297 98.3549 181.933 98.9346 181.354 99.0823C180.763 99.2187 180.183 98.855 180.035 98.2754C179.899 97.6843 180.263 97.1046 180.842 96.9569C181.433 96.8205 182.013 97.1842 182.161 97.7639Z" fill="#993147"/>
<path d="M185.217 92.8204C185.354 93.4114 184.99 93.9911 184.41 94.1389C183.819 94.2752 183.24 93.9115 183.092 93.3319C182.956 92.7408 183.319 92.1612 183.899 92.0134C184.49 91.8656 185.081 92.2294 185.217 92.8204Z" fill="#993147"/>
<path d="M188.274 87.865C188.41 88.456 188.047 89.0357 187.467 89.1834C186.876 89.3198 186.297 88.9561 186.149 88.3764C186.012 87.7854 186.376 87.2057 186.956 87.058C187.547 86.9216 188.137 87.2853 188.274 87.865Z" fill="#993147"/>
<path d="M183.331 84.8062C183.467 85.3973 183.103 85.9769 182.524 86.1247C181.933 86.2611 181.353 85.8974 181.205 85.3177C181.069 84.7267 181.433 84.147 182.012 83.9992C182.603 83.8515 183.194 84.2152 183.331 84.8062Z" fill="#993147"/>
<path d="M186.387 79.8512C186.524 80.4422 186.16 81.0219 185.58 81.1696C184.989 81.306 184.41 80.9423 184.262 80.3626C184.126 79.7716 184.489 79.1919 185.069 79.0442C185.66 78.8964 186.251 79.2601 186.387 79.8512Z" fill="#993147"/>
<path d="M190.171 95.8772C190.308 96.4682 189.944 97.0479 189.364 97.1956C188.774 97.332 188.194 96.9683 188.046 96.3886C187.91 95.7976 188.274 95.2179 188.853 95.0702C189.444 94.9338 190.024 95.2975 190.171 95.8772Z" fill="#993147"/>
<path d="M179.092 102.719C179.229 103.31 178.865 103.89 178.285 104.037C177.694 104.174 177.115 103.81 176.967 103.23C176.831 102.639 177.194 102.06 177.774 101.912C178.365 101.764 178.956 102.128 179.092 102.719Z" fill="#993147"/>
<path d="M184.046 105.778C184.183 106.369 183.819 106.949 183.239 107.097C182.649 107.233 182.069 106.869 181.921 106.29C181.785 105.698 182.149 105.119 182.728 104.971C183.319 104.835 183.91 105.198 184.046 105.778Z" fill="#993147"/>
<path d="M187.104 100.832C187.24 101.423 186.877 102.003 186.297 102.151C185.706 102.287 185.127 101.923 184.979 101.344C184.842 100.753 185.206 100.173 185.786 100.025C186.377 99.8774 186.968 100.241 187.104 100.832Z" fill="#993147"/>
<path d="M171.535 70.6666C171.671 71.2576 171.307 71.8373 170.728 71.9851C170.137 72.1214 169.557 71.7577 169.41 71.1781C169.273 70.587 169.637 70.0073 170.216 69.8596C170.807 69.7118 171.398 70.0755 171.535 70.6666Z" fill="#993147"/>
<path d="M174.603 65.7115C174.739 66.3025 174.376 66.8822 173.796 67.03C173.205 67.1664 172.626 66.8026 172.478 66.223C172.342 65.6319 172.705 65.0523 173.285 64.9045C173.876 64.7567 174.467 65.1205 174.603 65.7115Z" fill="#993147"/>
<path d="M169.649 62.6544C169.785 63.2454 169.422 63.8251 168.842 63.9728C168.251 64.1092 167.672 63.7455 167.524 63.1659C167.387 62.5748 167.751 61.9951 168.331 61.8474C168.922 61.6996 169.513 62.0633 169.649 62.6544Z" fill="#993147"/>
<path d="M172.717 57.6983C172.853 58.2894 172.49 58.869 171.899 59.0168C171.308 59.1532 170.728 58.7895 170.58 58.2098C170.444 57.6188 170.808 57.0391 171.387 56.8913C171.99 56.7436 172.569 57.1073 172.717 57.6983Z" fill="#993147"/>
<path d="M176.489 73.7253C176.626 74.3163 176.262 74.896 175.671 75.0438C175.08 75.1802 174.501 74.8165 174.353 74.2368C174.217 73.6457 174.58 73.0661 175.16 72.9183C175.762 72.7819 176.353 73.1456 176.489 73.7253Z" fill="#993147"/>
<path d="M179.546 68.7799C179.683 69.3709 179.319 69.9506 178.739 70.0983C178.149 70.2347 177.569 69.871 177.421 69.2913C177.285 68.7003 177.649 68.1206 178.228 67.9729C178.83 67.8251 179.41 68.1888 179.546 68.7799Z" fill="#993147"/>
<path d="M182.615 63.8248C182.751 64.4158 182.387 64.9955 181.808 65.1433C181.217 65.2797 180.637 64.9159 180.49 64.3363C180.353 63.7452 180.717 63.1656 181.296 63.0178C181.887 62.87 182.478 63.2337 182.615 63.8248Z" fill="#993147"/>
<path d="M177.661 60.7667C177.797 61.3577 177.433 61.9374 176.854 62.0851C176.263 62.2215 175.683 61.8578 175.535 61.2782C175.399 60.6871 175.763 60.1074 176.342 59.9597C176.933 59.8119 177.524 60.1756 177.661 60.7667Z" fill="#993147"/>
<path d="M180.728 55.8116C180.864 56.4026 180.501 56.9823 179.921 57.1301C179.33 57.2665 178.751 56.9028 178.603 56.3231C178.467 55.732 178.83 55.1524 179.41 55.0046C180.001 54.8568 180.592 55.2206 180.728 55.8116Z" fill="#993147"/>
<path d="M184.501 71.838C184.637 72.429 184.274 73.0087 183.683 73.1564C183.092 73.2928 182.512 72.9291 182.365 72.3494C182.228 71.7584 182.592 71.1787 183.183 71.031C183.774 70.8832 184.365 71.2469 184.501 71.838Z" fill="#993147"/>
<path d="M173.433 78.6807C173.569 79.2718 173.206 79.8515 172.626 79.9992C172.035 80.1356 171.456 79.7719 171.308 79.1922C171.172 78.6012 171.535 78.0215 172.115 77.8737C172.706 77.726 173.285 78.0897 173.433 78.6807Z" fill="#993147"/>
<path d="M181.444 76.793C181.58 77.3841 181.217 77.9638 180.637 78.1115C180.046 78.2479 179.466 77.8842 179.319 77.3045C179.182 76.7135 179.546 76.1338 180.126 75.9861C180.716 75.8383 181.296 76.202 181.444 76.793Z" fill="#993147"/>
<path d="M192.058 103.891C192.194 104.482 191.831 105.062 191.251 105.21C190.66 105.346 190.081 104.982 189.933 104.403C189.797 103.812 190.16 103.232 190.751 103.084C191.331 102.948 191.922 103.312 192.058 103.891Z" fill="#993147"/>
<path d="M188.125 96.1497C186.954 97.3204 171.215 106.823 137.827 106.834C128.338 106.834 121.429 104.117 118.974 101.139C113.065 94.0015 115.883 84.5335 117.326 81.7034C119.099 78.2253 122.849 74.7587 127.224 73.4629C137.1 70.5305 150.6 78.6231 160.589 80.1576C166.396 81.0555 177.829 77.0546 180.113 76.9182C187.909 76.4749 190.738 79.1801 191.432 80.8054C193.318 85.2155 193.659 90.6258 188.125 96.1497Z" fill="#F1DFDB"/>
<path d="M188.603 78.3848C191.921 79.3509 196.501 85.9546 176.057 92.7516C171.886 94.1382 151.544 99.8554 134.225 97.048C115.679 94.0473 117.509 86.8071 118.202 83.7496C119.065 79.9533 125.475 72.679 135.407 74.3271C145.112 75.9297 149.828 81.0899 158.385 81.9424C165.818 82.6925 179.409 75.7251 188.603 78.3848Z" fill="#FFF7F0"/>
<path d="M186.682 78.9646C189.671 80.3285 194.273 85.8411 174.636 92.0243C170.625 93.2859 150.976 99.094 134.464 95.9342C117.543 92.6949 118.725 86.4321 119.407 83.6474C120.236 80.2035 126.077 73.7816 135.612 75.2706C144.93 76.7254 149.465 81.4083 157.681 82.1926C164.795 82.8745 181.557 76.6231 186.682 78.9646Z" fill="#E64561"/>
<path opacity="0.2" d="M123.417 79.4067C122.94 80.316 122.769 81.1343 123.428 81.6913C124.485 82.5892 125.497 82.646 127.224 82.18C127.36 82.1459 127.508 82.0891 127.645 82.0209C128.042 82.2709 129.201 82.771 130.179 82.3505C132.94 81.1457 133.781 77.4062 132.213 75.4172C132.167 75.3603 132.077 75.2467 131.929 75.0762C131.44 75.0989 130.963 75.1444 130.508 75.2126C131.213 76.8834 131.122 78.7474 130.463 80.0091C129.815 81.2593 128.724 81.6117 128.088 81.7595C129.713 80.6569 130.986 77.8609 129.304 75.4285C128.69 75.5649 128.099 75.7468 127.531 75.94C128.315 76.622 129.031 77.9518 128.679 79.2475C128.156 81.2139 125.61 81.6913 125.019 80.9184C124.054 79.6795 126.304 79.8158 126.645 78.0768C126.724 77.6449 126.531 76.9402 126.429 76.3719C125.838 76.6447 125.269 76.9402 124.747 77.2585C124.531 77.5994 124.304 77.9404 124.088 78.2701C123.872 78.2814 123.588 78.3041 123.269 78.2928C122.985 78.5201 122.701 78.7588 122.451 79.0089C122.792 79.1452 123.122 79.293 123.417 79.4067Z" fill="#93374B"/>
<path d="M189.386 82.3734C188.92 82.4984 188.488 82.6121 188.079 82.6576C185.022 83.0099 183.602 81.4187 185.716 79.6342C186.011 79.3841 186.341 79.1568 186.682 78.9636C186.136 78.7135 185.466 78.5658 184.693 78.4976C184.477 78.8272 184.261 79.1909 184.022 79.6114C183.329 80.839 180.17 79.4523 178.943 78.8385C178.84 78.8499 178.738 78.8726 178.636 78.884C179.42 79.5319 182.272 80.7708 181.568 81.3618C180.397 82.3507 187.329 83.4532 188.193 84.4875C188.284 84.6012 188.386 84.7035 188.488 84.8058C189.159 83.9078 189.409 83.1008 189.386 82.3734Z" fill="#D4465A"/>
<path opacity="0.2" d="M161.396 92.8872C162.135 92.9668 162.862 93.16 163.101 93.0804C163.362 92.9895 163.408 92.6826 163.124 92.4326C162.715 92.0688 161.033 91.6938 159.681 92.1029C159.419 92.1825 159.124 92.5803 159.51 92.7281C159.726 92.8076 160.567 92.7963 161.396 92.8872Z" fill="#FBCBB2"/>
<path d="M176.25 82.4877C176.75 82.6241 178.364 83.0333 179.148 83.3061C180.773 83.8744 182.853 85.1587 183.091 85.0792C183.353 84.9882 182.069 83.6811 180.319 82.8514C179.819 82.6127 177.784 81.4534 176.421 81.8626C176.148 81.9535 175.852 82.374 176.25 82.4877Z" fill="#D4465A"/>
<path d="M143.703 89.4549C143.828 89.6481 144.192 89.8414 144.817 90.3869C145.373 90.8757 145.839 91.2621 146.078 91.3303C146.351 91.4099 146.794 91.1257 146.703 90.762C146.578 90.2278 145.544 89.5004 144.203 89.0457C143.942 88.9548 143.487 89.1139 143.703 89.4549Z" fill="#D4465A"/>
<path d="M158.34 94.138C157.181 93.1605 156.283 93.2401 155.692 92.4558C155.169 91.7511 154.635 90.0007 153.635 89.8189C152.715 89.6484 152.147 89.4438 151.26 89.5688C149.999 89.7393 148.874 91.1146 149.385 91.8193C150.044 92.7286 149.612 94.3426 150.692 94.6609C150.897 94.7177 151.783 95.4679 152.556 96.4908C153.249 96.4226 153.931 96.3544 154.601 96.2748C153.931 95.8998 152.067 95.1496 151.533 94.0698C151.487 93.9789 151.578 93.5129 151.328 92.8082C150.953 91.717 150.192 91.3306 150.987 90.6713C151.283 90.4326 151.476 90.0121 151.942 90.103C152.51 90.2053 153.374 90.8873 153.942 91.4329C155.09 92.5468 154.863 94.7745 155.908 95.1041C156.749 95.3769 157.249 95.7065 157.499 95.877C158.238 95.7634 158.965 95.6497 159.681 95.536C159.295 95.1269 158.874 94.604 158.34 94.138Z" fill="#D4465A"/>
<path d="M178.875 89.6485C178.738 89.5348 176.761 86.8297 173.602 87.182C173.329 87.2161 175.965 88.0231 176.965 88.9097C177.454 89.353 178.056 90.0577 178.306 90.7624C178.659 90.6373 179 90.5009 179.341 90.3759C179.136 90.0008 178.954 89.728 178.875 89.6485Z" fill="#D4465A"/>
<path opacity="0.2" d="M134.635 90.24C134.442 90.4332 134.488 90.7856 134.738 91.0356C134.988 91.2857 135.34 91.3311 135.533 91.1493C135.726 90.9561 135.681 90.6037 135.431 90.3537C135.192 90.1036 134.828 90.0468 134.635 90.24Z" fill="#FBCBB2"/>
<path opacity="0.2" d="M176.011 82.7815C174.148 82.2814 174.352 80.406 173.682 79.8149C173.341 79.8831 173 79.9513 172.659 80.0309C172.943 80.6447 173.295 81.3721 173.113 81.6904C172.863 82.145 171.636 82.4746 170.147 81.9404C169.284 81.6335 168.318 81.3494 167.454 81.1107C167.034 81.1902 166.613 81.2812 166.204 81.3607C167.977 81.6563 172.511 83.6567 172.557 83.5885C173.898 83.9863 175.102 83.5317 175.818 83.5658C178.636 83.6908 182.057 85.964 182.887 86.9983C183.318 87.5326 183.637 87.9872 183.864 88.3736C184.512 88.0213 185.103 87.6803 185.625 87.3507C182.818 84.2932 178.068 83.3384 176.011 82.7815Z" fill="#93374B"/>
<path opacity="0.2" d="M168.58 91.9662C169.068 91.5002 172.33 92.3526 173.091 90.6136C174.057 88.4313 169.75 87.4311 170.227 86.5559C170.432 86.1808 172.057 86.9196 172.228 86.5559C172.341 86.3172 171.921 86.1467 171.33 85.9762C171.478 85.9649 171.568 85.9194 171.591 85.8285C172.023 83.9758 165.761 82.555 165.523 81.5321C165.523 81.5094 165.523 81.4866 165.523 81.4753C164.636 81.6344 163.773 81.7821 162.954 81.9072C165.455 82.646 169.091 83.828 168.5 85.2602C168.489 85.2829 168.534 85.3056 168.614 85.3511C168.477 85.4989 168.239 85.6466 167.796 85.7148C166.216 85.9649 162.432 83.8167 161.92 83.828C160.375 83.8394 159.659 84.4191 159.216 84.4304C158.125 84.4532 157.818 82.8165 154.772 82.3277C147.67 81.2138 149.295 84.5896 145.988 84.7032C145.817 84.6237 144.647 84.0326 144.76 83.5212C144.988 82.4641 146.92 81.2593 149.261 80.941C150.158 80.816 151.261 80.9183 152.363 81.0888C150.908 80.6228 149.522 80.0545 148.136 79.4634C145.92 79.5885 144.897 80.4409 144.624 80.7137C143.658 81.7026 144.283 82.8506 143.476 83.3393C143.385 83.3961 143.294 83.4416 143.192 83.4871C143.238 82.7369 141.147 80.8615 142.533 79.5998C143.09 79.0997 144.204 78.6337 145.272 78.2359C144.829 78.0427 144.385 77.8608 143.931 77.679C142.635 78.145 141.147 78.736 139.726 79.3725C139.09 79.6567 137.044 78.8497 137.135 77.8381C137.215 76.9743 137.635 76.315 138.215 75.8149C137.385 75.6217 136.521 75.4398 135.612 75.3034C135.033 75.2125 134.453 75.1557 133.896 75.1216C133.737 75.8717 133.646 76.5423 134.146 76.9402C136.567 78.8497 137.976 80.2818 137.567 80.7819C137.237 81.1797 132.942 81.4412 130.544 82.9074C129.146 83.7598 127.93 85.0101 128.18 86.465C128.248 86.8401 126.316 86.8401 124.748 86.5673C120.998 85.908 120.453 83.021 120.464 81.3616C120.032 82.0095 119.714 82.646 119.521 83.2143C119.407 83.8167 119.339 84.4873 119.384 85.2374C119.464 86.6696 119.873 88.3404 120.521 89.8862C121.623 91.2388 123.51 92.6027 126.635 93.8075C124.135 91.0342 123.51 88.6928 124.294 87.9085C124.953 87.2493 128.112 87.1242 128.907 87.6016C130.783 88.7155 129.783 91.7616 131.76 93.3756C132.135 93.6825 135.294 94.9896 136.976 96.3535C137.794 96.4672 138.612 96.5581 139.431 96.6263C137.703 95.6375 134.999 94.1712 133.453 93.1255C131.464 91.7843 129.737 86.4195 132.999 84.2031C135.055 82.8051 138.669 81.2366 140.249 81.6003C143.169 82.2482 141.749 83.7598 141.613 83.8962C141.022 84.0781 140.453 84.4418 139.942 85.4193C139.283 86.715 138.84 89.0906 140.397 89.4997C141.533 89.7953 140.601 91.898 141.988 93.4438C142.817 94.3758 147.783 96.7286 149.374 96.7741C149.454 96.7741 149.374 96.7741 149.454 96.7741C150.59 96.74 151.681 96.6263 151.681 96.6263C151.681 96.6263 150.045 95.7511 148.636 95.3988C146.965 94.9782 143.556 93.4665 143.317 93.0232C142.488 91.4434 143.238 90.6591 142.329 90.0908C141.613 89.6361 140.544 86.8969 142.34 85.7603C143.692 84.8965 147.522 85.4534 148.079 86.3968C148.261 86.7037 147.67 88.0562 148.67 88.4654C151.977 89.8066 150.033 86.7491 149.283 85.8058C149.181 85.4534 148.488 84.4645 149.681 83.6916C151.568 82.4755 154.715 83.1461 155 83.2711C158.397 84.7487 157.545 85.4761 158.352 86.2718C159.397 87.2947 165.17 88.8632 165.875 89.7043C167.193 91.2729 166.841 93.387 165.273 93.8871C163.636 94.4099 159.454 93.7961 159.579 94.2281C159.647 94.4667 160.648 94.8759 161.966 95.1828C164.591 94.6941 166.966 94.1485 168.955 93.6484C168.966 92.8869 168.261 92.2504 168.58 91.9662ZM160.602 86.124C159.67 85.3284 160.886 84.385 161.704 84.5441C165.511 85.2715 170.307 87.4766 171.103 88.9314C171.648 89.9317 171.216 90.7387 170.375 90.7273C168.796 90.7046 161.591 86.9651 160.602 86.124Z" fill="#93374B"/>
<path d="M139.306 102.469C129.465 102.469 122.294 99.7529 119.737 96.775C116.658 93.1946 115.862 89.0233 116.021 85.3975C114.987 89.6029 114.692 95.9793 118.964 101.14C121.43 104.117 128.34 106.834 137.818 106.834C171.205 106.823 186.945 97.3092 188.115 96.1498C189.524 94.7404 190.558 93.331 191.274 91.9557C189.036 93.6493 172.66 102.458 139.306 102.469Z" fill="#E5CBC9"/>
<path d="M189.296 93.8758C188.114 95.0465 172.114 104.549 138.158 104.56C128.51 104.56 121.487 101.843 118.986 98.8655C116.6 96.0354 115.623 92.8415 115.384 89.8408C115.248 93.4439 116.02 97.5698 118.964 101.127C121.43 104.105 128.339 106.822 137.817 106.822C171.205 106.81 186.944 97.297 188.114 96.1377C189.864 94.3873 191.035 92.6369 191.74 90.9433C191.103 91.9095 190.296 92.8869 189.296 93.8758Z" fill="#D8B5B6"/>
<path d="M189.41 82.3627C189.398 82.3627 189.398 82.3627 189.41 82.3627C189.353 80.7146 187.898 79.5098 186.705 78.9642H186.694L186.705 78.9529C186.16 78.7028 185.58 78.5664 184.807 78.4869H184.705C184.387 78.4528 184.057 78.4414 183.705 78.4414C182.671 78.5437 169.841 84.1472 168.352 85.5452C167.568 86.284 167.363 87.5457 167.363 87.5457C167.363 87.5457 168.261 86.5909 170.386 85.4088C173.489 83.6926 178.5 81.4534 181.387 80.5896C189.285 78.2141 188.569 82.6355 185.603 84.8633C184.012 86.0681 180.83 86.159 179.534 86.4204C166.204 89.1597 167.772 93.9221 167.784 93.9562C167.795 93.9562 167.784 93.9562 167.795 93.9562L171.398 93.0355L171.409 92.9673C171.409 92.9673 172.716 89.0801 176.989 87.8753C178.864 87.3411 183.159 87.0683 186.716 85.4088C187.955 84.8292 188.887 83.9426 189.364 83.2493C189.478 82.8856 189.535 82.5559 189.523 82.2263C189.546 82.2036 189.41 82.3741 189.41 82.3627Z" fill="#FFF7F0"/>
<path d="M178.989 78.8284C178.978 78.8284 178.978 78.8171 178.966 78.8171C178.864 78.8284 178.762 78.8512 178.66 78.8625L178.671 78.8739C177.239 79.0898 176 79.1808 174.443 79.499C170.557 81.3858 165.239 87.0689 165.239 87.0689C165.239 87.0689 166.591 84.5683 165.693 82.5679C165.511 82.1587 165.284 81.8291 165.023 81.5449C162.182 82.0564 159.613 82.3633 157.715 82.1928C158.136 82.2269 162.693 82.602 164.102 84.5683C166.216 87.5008 162.966 89.0466 162.682 89.1602C159.216 90.6265 156.965 88.6147 151.92 88.2964C151.442 88.6829 151.624 89.5581 151.102 89.9218C157.772 91.8086 159.113 94.4341 158.784 95.7526C159.67 95.6162 160.557 95.4571 161.397 95.298C162.636 93.5021 165.386 89.6945 167.557 87.3303C171.921 82.5793 179.819 78.4988 179.864 78.4761C179.648 78.5102 179.216 78.7943 178.989 78.8284Z" fill="#FFF7F0"/>
<path d="M155.089 88.7052C153.68 88.4552 149.066 87.5232 147.645 86.7616C145.225 85.4432 142.952 81.0558 137.054 80.8058C134.508 80.7035 132.145 81.7492 128.485 81.7946C125.883 81.8287 121.86 79.4873 121.86 79.4873C121.258 80.1124 120.781 80.783 120.383 81.4082C121.61 81.5673 123.951 81.9538 125.338 82.5789C130.497 84.8862 127.519 89.4554 134.724 90.9444C141.111 92.2628 143.918 88.8189 147.225 89.3531C148.941 89.6259 151.68 89.8305 152.805 90.3533C153.089 89.7396 154.839 89.3304 155.089 88.7052Z" fill="#FFF7F0"/>
<path d="M131.327 84.4537C131.111 85.579 133.475 86.977 136.6 87.5794C139.725 88.1818 142.43 87.7499 142.646 86.6133C142.691 86.3973 142.634 86.1814 142.498 85.954C141.93 84.9879 139.907 83.9763 137.373 83.499C137.282 83.4762 137.18 83.4649 137.089 83.4421C134.089 82.9193 131.543 83.3626 131.327 84.4537Z" fill="#C5A0A4"/>
<path d="M137.703 82.6469C133.839 82.3287 130.408 83.1811 130.101 84.6474C129.782 86.1136 132.601 87.9663 136.385 88.7846C140.169 89.603 143.499 89.0688 143.817 87.5912C144.135 86.125 142.715 83.0561 137.703 82.6469ZM136.601 86.9774C133.805 86.4318 131.658 85.3634 131.805 84.5905C131.953 83.8176 133.851 83.6812 136.658 84.17C139.669 84.6815 141.01 85.5908 140.862 86.3637C140.726 87.1252 139.397 87.523 136.601 86.9774Z" fill="#E7CAC9"/>
<path d="M209.001 73.2012C212.593 72.1896 216.706 71.8486 219.002 71.7804C219.729 71.2576 219.479 70.496 219.809 70.0073C217.82 69.5981 213.433 70.155 208.536 71.5417C203.626 72.9284 199.603 74.747 198.126 76.1336C198.66 76.3837 199.308 77.202 200.206 77.2702C202.194 76.1336 205.41 74.2241 209.001 73.2012Z" fill="#D7BCAE"/>
<path opacity="0.6" d="M208.524 71.5416C203.853 72.8601 200.035 74.3831 198.114 76.1335C198.592 76.4745 198.785 76.52 199.512 76.5654C201.546 75.4174 205.467 73.417 209.126 72.3827C212.785 71.3484 217.161 71.1324 219.502 71.0528C219.592 70.9847 219.433 71.121 219.502 71.0528C219.615 70.6778 219.604 70.3027 219.797 70.0072C217.808 69.6093 213.433 70.1549 208.524 71.5416Z" fill="#EFD8C9"/>
<path d="M209.638 75.4855C204.501 76.9403 199.887 77.1222 198.149 76.0992C197.955 76.4629 197.899 76.8153 197.99 77.1335C198.512 78.9862 203.956 79.0658 210.149 77.3154C216.343 75.565 220.945 72.6439 220.422 70.7912C220.331 70.473 220.104 70.2116 219.74 69.9956C218.82 71.7915 214.774 74.042 209.638 75.4855Z" fill="#D16786"/>
<path opacity="0.5" d="M200.694 78.5096C201.092 78.5551 201.535 78.5778 202.001 78.5892L201.489 76.7592C201.024 76.7592 200.58 76.7252 200.183 76.6797L200.694 78.5096Z" fill="#A3496C"/>
<path opacity="0.5" d="M214.581 75.7595C215.319 75.4412 216.001 75.1229 216.626 74.782L216.115 72.9634C215.49 73.293 214.808 73.6226 214.069 73.9409L214.581 75.7595Z" fill="#A5496C"/>
<path opacity="0.5" d="M217.616 74.2249C218.23 73.8498 218.764 73.4633 219.195 73.0882L218.684 71.2583C218.252 71.6334 217.718 72.0198 217.104 72.3949L217.616 74.2249Z" fill="#A34D6D"/>
<path d="M199.375 62.5166C203.091 62.903 207.035 64.1079 209.194 64.8921C210.069 64.6762 210.114 63.8805 210.603 63.5509C208.898 62.437 204.626 61.3232 199.557 60.8003C194.489 60.2775 190.079 60.4821 188.182 61.2209C188.591 61.6528 188.886 62.653 189.693 63.0394C191.977 62.7212 195.671 62.1302 199.375 62.5166Z" fill="#D9BEB0"/>
<path opacity="0.6" d="M199.557 60.8007C194.727 60.3006 190.625 60.3006 188.182 61.2212C188.5 61.71 188.67 61.8236 189.329 62.1419C191.648 61.8236 196.023 61.4144 199.807 61.8123C203.591 62.2101 207.739 63.6195 209.944 64.4151C210.058 64.3924 209.864 64.4606 209.944 64.4151C210.183 64.1082 210.319 63.7559 210.603 63.5626C208.898 62.426 204.626 61.3235 199.557 60.8007Z" fill="#EED7CA"/>
<path d="M199.138 64.8823C193.831 64.3368 189.467 62.8023 188.24 61.1997C187.922 61.4725 187.74 61.768 187.706 62.0976C187.512 64.0071 192.535 66.0985 198.945 66.7691C205.343 67.4284 210.695 66.4168 210.9 64.5073C210.934 64.1776 210.82 63.848 210.559 63.5184C209.025 64.8255 204.445 65.4279 199.138 64.8823Z" fill="#CA6180"/>
<path opacity="0.5" d="M189.716 64.3697C190.068 64.5629 190.466 64.7448 190.898 64.9266L191.091 63.0399C190.659 62.858 190.261 62.6761 189.909 62.4829L189.716 64.3697Z" fill="#A34D6D"/>
<path opacity="0.5" d="M203.626 66.9491C204.421 66.9264 205.183 66.8809 205.887 66.8013L206.081 64.9146C205.376 64.9941 204.626 65.0396 203.819 65.0623L203.626 66.9491Z" fill="#A14569"/>
<path opacity="0.5" d="M207.013 66.6433C207.729 66.5183 208.365 66.3592 208.899 66.1773L209.092 64.2905C208.547 64.4838 207.91 64.6429 207.206 64.7565L207.013 66.6433Z" fill="#A34B6C"/>
<path d="M220.715 116.947L166.212 149.954C166.212 149.954 165.121 150.568 164.724 150.5C164.099 150.398 165.314 149.636 165.314 149.636L218.715 114.094C218.715 114.094 219.817 113.924 220.533 114.947C221.34 116.095 220.715 116.947 220.715 116.947Z" fill="#B28375"/>
<path d="M217.169 115.117L165.314 149.636C165.314 149.636 164.099 150.397 164.724 150.499C164.883 150.522 165.167 150.443 165.428 150.329C172.44 146.158 187.918 136.224 195.941 131.313C208.646 123.539 218.749 116.685 217.169 115.117Z" fill="#D6B5A0"/>
<path d="M84.7803 93.6611C84.7803 93.6611 84.7689 96.8891 89.0077 102.436C94.3489 109.426 103.986 115.473 104.929 113.813C105.611 112.608 96.7126 110.267 89.5532 101.652C85.0985 96.2753 84.7803 93.6611 84.7803 93.6611Z" fill="#4A4B68"/>
<path d="M90.2574 111.721C93.4167 112.119 96.2009 111.664 96.2236 110.414C96.2463 109.618 93.5985 108.288 90.0642 108.05C86.655 107.811 81.9616 107.879 82.0753 108.516C82.2457 109.516 86.6323 111.266 90.2574 111.721Z" stroke="#4A4B68" stroke-miterlimit="10"/>
<path d="M83.1549 103.787C80.5412 102.809 78.5865 101.331 79.0752 100.354C79.382 99.7288 81.973 99.7857 84.7913 101.036C87.5187 102.241 91.1098 104.207 90.7802 104.65C90.2348 105.344 86.1437 104.912 83.1549 103.787Z" fill="#4A4B68"/>
<path d="M87.5065 92.2051C87.7111 95.0126 87.0065 97.3767 86.6769 97.5017C86.1542 97.695 85.6201 94.1033 85.3701 91.6141C85.1087 88.9771 84.8132 86.5221 85.6087 86.2834C86.2906 86.0788 87.3133 89.625 87.5065 92.2051Z" fill="#4A4B68"/>
<path d="M95.0187 101.071C94.8483 102.685 93.8596 105.595 93.2346 105.458C92.8368 105.368 92.3482 102.992 92.5755 101.026C92.78 99.298 93.2232 98.116 94.0755 98.1614C94.5869 98.1842 95.2233 99.2185 95.0187 101.071Z" fill="#4A4B68"/>
<path d="M82.3481 94.6602C83.4277 95.5695 85.0301 96.2742 85.2914 96.206C85.5187 96.1491 84.5869 94.9102 83.28 93.6145C81.9845 92.3301 80.5753 91.6368 80.3821 92.1483C80.2571 92.5006 80.9163 93.444 82.3481 94.6602Z" fill="#4A4B68"/>
<path d="M97.2472 106.186C97.2927 107.129 97.395 109.334 97.8722 109.312C98.3495 109.289 99.0768 107.811 98.9973 106.106C98.9518 105.163 98.52 104.413 98.0427 104.436C97.5427 104.447 97.1904 105.061 97.2472 106.186Z" fill="#4A4B68"/>
<path d="M93.6332 115.301C94.0764 115.676 94.6332 116.164 95.4287 115.744C96.6333 115.096 97.3379 114.209 97.372 113.63C97.4288 112.721 94.0878 112.607 93.0991 113.743C92.7241 114.187 93.19 114.914 93.6332 115.301Z" fill="#4A4B68"/>
<path d="M232.192 123.88L171.372 142.862C171.372 142.862 170.167 143.191 169.792 143.032C169.212 142.782 170.576 142.339 170.576 142.339L230.931 120.629C230.931 120.629 232.033 120.72 232.499 121.891C233.011 123.198 232.192 123.88 232.192 123.88Z" fill="#B28375"/>
<path d="M229.192 121.255L170.576 142.339C170.576 142.339 169.212 142.782 169.792 143.032C169.94 143.101 170.235 143.078 170.519 143.044C178.326 140.68 195.725 134.746 204.691 131.905C218.896 127.381 230.351 123.153 229.192 121.255Z" fill="#D6B5A0"/>
<path d="M221.25 137.645C221.25 137.645 215.068 141.532 204.499 143.259C193.919 144.998 185.157 145.18 184.907 143.691C184.657 142.191 194.226 143.93 204.794 142.191C215.374 140.452 221.25 137.645 221.25 137.645Z" fill="#56597A"/>
<path d="M219.999 136.133C219.647 137.293 219.579 138.293 219.954 138.384C220.329 138.475 220.852 137.429 221.181 136.258C221.624 134.678 221.727 133.383 221.67 133.201C221.602 133.042 220.397 134.826 219.999 136.133Z" stroke="#56597A" stroke-miterlimit="10"/>
<path d="M197.226 137.485C195.555 139.883 194.748 142.338 195.748 142.884C196.385 143.236 198.589 141.656 200.282 138.883C201.919 136.212 203.862 132.37 203.305 132.188C202.43 131.916 199.146 134.723 197.226 137.485Z" fill="#56597A"/>
<path d="M221.886 139.793C220.568 139.531 219.511 138.974 219.67 138.474C219.772 138.156 221.011 137.974 222.454 138.349C223.852 138.713 225.716 139.361 225.591 139.6C225.386 139.986 223.398 140.1 221.886 139.793Z" fill="#56597A"/>
<path d="M214.692 135.52C213.738 137.793 213.67 139.941 213.908 140.146C214.295 140.453 215.738 137.622 216.624 135.622C217.568 133.508 218.511 131.553 217.908 131.132C217.397 130.769 215.567 133.428 214.692 135.52Z" fill="#56597A"/>
<path d="M216.942 146.647C214.51 145.578 210.84 142.646 211.351 141.737C211.681 141.157 215.59 141.532 218.204 142.862C220.738 144.158 222.42 145.306 221.931 146.613C221.635 147.397 219.738 147.874 216.942 146.647Z" fill="#56597A"/>
<path d="M208.452 147.294C206.555 146.453 203.668 144.157 204.077 143.453C204.339 142.998 207.396 143.294 209.452 144.339C211.43 145.351 212.759 146.249 212.373 147.272C212.123 147.897 210.634 148.261 208.452 147.294Z" fill="#56597A"/>
<path d="M206.726 147.67C204.26 146.068 197.828 143.635 197.18 144.249C196.646 144.749 200.975 149.205 203.998 151.137C206.646 152.819 209.521 154.615 209.885 152.285C210.044 151.319 209.555 149.512 206.726 147.67Z" stroke="#56597A" stroke-miterlimit="10"/>
<path d="M194.612 150.523C193.521 149.454 193.055 147.352 193.293 146.863C193.509 146.442 195.225 147.011 196.873 148.159C198.51 149.295 199.055 151.08 198.055 151.807C197.385 152.296 196.044 151.944 194.612 150.523Z" fill="#56597A"/>
<path d="M209.181 137.315C208.647 138.724 207.42 142.02 206.613 141.725C205.806 141.418 205.295 138.769 206.261 136.212C206.795 134.803 207.886 133.905 208.693 134.2C209.499 134.507 209.818 135.644 209.181 137.315Z" fill="#56597A"/>
<path d="M225.114 138.281C224.886 138.463 224.455 138.292 224.261 138.042C224.068 137.804 224.182 137.576 224.409 137.394C224.636 137.213 224.966 137.269 225.159 137.508C225.364 137.769 225.341 138.11 225.114 138.281Z" fill="#56597A"/>
<path d="M129.098 137.356C128.644 139.777 127.337 142.096 124.394 143.414C119.916 145.426 115.643 145.619 112.086 145.005L102.802 149.188C104.961 151.45 117.098 158.27 129.837 151.166C137.951 146.642 135.792 137.583 134.724 134.821L129.098 137.356Z" fill="#8DA364"/>
<path d="M133.837 135.23L129.11 137.356C128.973 138.083 128.757 138.799 128.451 139.481C127.791 141.118 126.621 142.516 124.712 143.38C123.678 143.846 122.644 144.198 121.621 144.46C118.166 145.483 114.916 145.505 112.098 145.017L104.836 148.279C110.211 151.495 119.587 154.667 128.746 149.359C134.405 146.074 134.644 139.8 133.837 135.23Z" fill="#C6D99A"/>
<path d="M130.065 136.924L129.076 137.367C128.621 139.788 127.314 142.107 124.371 143.425C119.894 145.437 115.621 145.63 112.064 145.017L109.507 146.164C113.666 147.29 119.825 147.756 124.632 144.755C127.985 142.675 129.542 139.72 130.065 136.924Z" fill="#A9BD7B"/>
<path d="M134.258 135.037C135.303 138.606 136.258 146.21 129.11 150.211C117.836 156.508 106.995 151.677 103.313 148.972L102.802 149.199C104.961 151.461 117.098 158.281 129.837 151.177C137.951 146.653 135.792 137.594 134.724 134.833L134.258 135.037Z" fill="#65844E"/>
<path d="M214.922 53.311C213.524 53.4702 212.502 54.4931 212.627 55.607C212.752 56.7209 213.99 57.4824 215.388 57.3233C216.786 57.1642 217.809 56.1298 217.684 55.0273C217.559 53.9135 216.32 53.1519 214.922 53.311ZM215.365 56.5845C214.286 56.7095 213.354 56.2662 213.286 55.5843C213.206 54.9137 214.013 54.2658 215.093 54.1408C216.172 54.0157 217.104 54.459 217.184 55.141C217.24 55.823 216.434 56.4708 215.365 56.5845Z" fill="#C9DC9F"/>
<path d="M222.115 52.6279C221.285 52.6279 220.604 53.1508 220.604 53.7986C220.604 54.4465 221.285 54.9694 222.115 54.9694C222.945 54.9694 223.626 54.4465 223.626 53.7986C223.626 53.1621 222.956 52.6279 222.115 52.6279ZM222.115 54.2874C221.569 54.2874 221.126 53.9919 221.126 53.6395C221.126 53.2758 221.569 52.9916 222.115 52.9916C222.66 52.9916 223.104 53.2872 223.104 53.6395C223.104 54.0032 222.66 54.2874 222.115 54.2874Z" fill="#C9DC9F"/>
<path d="M202.843 55.6753C201.547 55.6753 200.502 56.4141 200.502 57.3234C200.502 58.2327 201.547 58.9715 202.843 58.9715C204.138 58.9715 205.184 58.2327 205.184 57.3234C205.173 56.4255 204.127 55.6753 202.843 55.6753ZM202.843 58.0167C202.104 58.0167 201.513 57.7098 201.513 57.3348C201.513 56.9597 202.104 56.6528 202.843 56.6528C203.582 56.6528 204.173 56.9597 204.173 57.3348C204.173 57.7098 203.57 58.0167 202.843 58.0167Z" fill="#C9DC9F"/>
<path d="M190.739 41.888C189.273 41.2969 187.739 41.6606 187.33 42.695C186.91 43.7293 187.762 45.0478 189.228 45.6388C190.694 46.2298 192.228 45.8661 192.637 44.8318C193.058 43.7975 192.205 42.479 190.739 41.888ZM189.671 44.5476C188.841 44.2067 188.296 43.5929 188.466 43.161C188.637 42.7291 189.455 42.6609 190.296 42.9905C191.126 43.3315 191.671 43.9452 191.501 44.3772C191.319 44.8091 190.501 44.8773 189.671 44.5476Z" fill="#C9DC9F"/>
<path d="M223.797 62.4143L220.444 62.6189L220.513 60.8912L223.797 60.4707V62.4143Z" fill="#80985C"/>
<path d="M184.603 40.2057L181.467 38.9895L182.251 37.4551L185.41 38.4326L184.603 40.2057Z" fill="#80985C"/>
<path d="M139.04 43.4913L86.9813 62.5751L85.1289 16.008L128.654 8.50635L139.04 43.4913Z" fill="#E76276"/>
<path d="M148.165 43.9117L96.1063 62.9955L94.2539 16.4284L137.767 8.92676L148.165 43.9117Z" stroke="#92364B" stroke-miterlimit="10"/>
<path d="M99.5149 52.4478C99.5149 49.5949 97.208 47.2876 94.3556 47.2876C91.5032 47.2876 89.1963 49.5949 89.1963 52.4478C89.1963 55.3007 91.5032 57.6081 94.3556 57.6081C97.208 57.6081 99.5149 55.3007 99.5149 52.4478Z" stroke="#531F41" stroke-miterlimit="10"/>
<path d="M126.971 35.2172C125.903 39.1953 122.812 45.2535 113.993 42.7529C104.368 40.0251 102.97 32.5575 104.05 28.5907C105.232 24.2375 112.993 23.2032 119.164 24.8626C125.346 26.5335 128.04 31.239 126.971 35.2172Z" fill="#F5DEC0"/>
<path d="M126.97 35.2172C125.902 39.1953 120.765 42.0141 114.583 40.3547C108.412 38.6839 102.969 32.5689 104.049 28.5907C105.23 24.2375 112.992 23.2032 119.163 24.8626C125.345 26.5335 128.038 31.239 126.97 35.2172Z" fill="#FFF7F0"/>
<path d="M105.448 29.8866C106.676 25.3743 114.46 24.2377 120.631 25.9085C121.983 26.2722 123.165 26.795 124.177 27.4202C122.904 26.329 121.222 25.4311 119.165 24.8742C112.994 23.2033 105.233 24.2377 104.051 28.6023C103.448 30.8414 104.903 33.7625 107.403 36.1835C105.778 34.0466 104.948 31.7507 105.448 29.8866Z" fill="white"/>
<path d="M124.722 32.6603C124.188 35.5473 122.369 37.5136 116.994 37.1727C112.676 36.8999 110.551 33.0013 111.085 30.1143C111.619 27.2273 115.108 25.4542 118.881 26.1589C122.642 26.8636 125.256 29.7733 124.722 32.6603Z" fill="#F4C63E"/>
<path d="M123.767 29.0342C124.085 29.8184 124.198 30.6482 124.039 31.4779C123.505 34.3649 121.698 36.3312 116.312 35.9903C114.175 35.8539 112.573 34.8309 111.562 33.467C112.402 35.3992 114.278 37.07 117.039 37.2405C122.414 37.5815 124.221 35.6152 124.767 32.7282C125.005 31.4438 124.608 30.1481 123.767 29.0342Z" fill="#DEA92E"/>
<path d="M118.482 27.9882C118.891 29.068 117.687 30.5228 115.789 31.2275C113.902 31.9322 112.039 31.6367 111.63 30.5569C111.22 29.4771 112.425 28.0223 114.323 27.3176C116.221 26.6015 118.073 26.9084 118.482 27.9882Z" fill="#F4E581"/>
<path d="M106.538 15.9515C105.186 15.565 103.845 16.1333 103.538 17.2017C103.231 18.2702 104.084 19.4522 105.436 19.8387C106.788 20.2251 108.129 19.6568 108.436 18.5884C108.743 17.5086 107.891 16.3265 106.538 15.9515ZM105.686 19.1453C104.64 18.8498 103.947 18.0883 104.14 17.4291C104.322 16.7812 105.322 16.4857 106.356 16.7812C107.402 17.0767 108.095 17.8382 107.902 18.4975C107.72 19.1567 106.731 19.4409 105.686 19.1453Z" fill="#C9DC9F"/>
<path d="M133.973 23.9988C132.575 24.1579 131.552 25.1809 131.677 26.2948C131.802 27.4086 133.041 28.1702 134.439 28.011C135.837 27.8519 136.859 26.8176 136.734 25.7151C136.609 24.6126 135.371 23.8397 133.973 23.9988ZM134.405 27.2836C133.325 27.4086 132.393 26.9654 132.325 26.2834C132.246 25.6128 133.052 24.9649 134.132 24.8399C135.212 24.7149 136.143 25.1581 136.223 25.8401C136.291 26.5107 135.484 27.1586 134.405 27.2836Z" fill="#C9DC9F"/>
<path d="M132.665 31.2954C131.835 31.2954 131.153 31.8183 131.153 32.4661C131.153 33.114 131.835 33.6368 132.665 33.6368C133.494 33.6368 134.176 33.114 134.176 32.4661C134.176 31.8183 133.506 31.2954 132.665 31.2954ZM132.665 32.9549C132.119 32.9549 131.676 32.6593 131.676 32.307C131.676 31.9433 132.119 31.6591 132.665 31.6591C133.21 31.6591 133.653 31.9546 133.653 32.307C133.653 32.6593 133.21 32.9549 132.665 32.9549Z" fill="#C9DC9F"/>
<path d="M110.675 20.8047C109.846 20.8047 109.187 21.3957 109.187 22.1232C109.187 22.8506 109.857 23.4416 110.675 23.4416C111.505 23.4416 112.164 22.8506 112.164 22.1232C112.164 21.3957 111.493 20.8047 110.675 20.8047ZM110.562 22.8733C110.027 22.8733 109.584 22.5437 109.584 22.1232C109.584 21.714 110.016 21.373 110.562 21.373C111.096 21.373 111.539 21.7026 111.539 22.1232C111.528 22.5323 111.096 22.8733 110.562 22.8733Z" fill="#C9DC9F"/>
<path d="M105.436 28.2264L102.345 26.9307L102.606 24.9644L105.981 26.4533L105.436 28.2264Z" fill="#80985C"/>
<path d="M104.199 24.6111L100.471 24.3951L99.2666 22.2583H103.812L104.199 24.6111Z" fill="#A9BD7B"/>
<path d="M182.841 44.7517L179.114 44.5358L177.909 42.3989H182.466L182.841 44.7517Z" fill="#A9BD7B"/>
<path d="M219.536 67.0067L216.183 67.2113L215.865 64.8472L219.536 65.0631V67.0067Z" fill="#A9BD7B"/>
<rect opacity="0.67" x="124" y="65.9238" width="62.7342" height="38.2785" rx="10" fill="#222222"/>
<path d="M166.722 83.3308C168.055 84.1006 168.055 86.0251 166.722 86.7949L150.393 96.2225C149.059 96.9923 147.393 96.0301 147.393 94.4905L147.393 75.6352C147.393 74.0956 149.059 73.1334 150.393 73.9032L166.722 83.3308Z" fill="white"/>
</svg>
