<svg width="15" height="21" viewBox="0 0 15 21" fill="none" xmlns="http://www.w3.org/2000/svg">
<path d="M14.9999 13.8124C14.9999 17.7799 11.64 20.9999 7.49632 20.9999C3.35992 20.9925 0 17.7799 0 13.8124C0 13.2942 0 10.6147 1.17561 8.41623C2.29316 6.32142 4.25977 4.92242 4.25977 4.92242C4.25977 4.92242 4.2888 5.5368 4.36136 6.18078C4.39765 6.48427 4.51376 6.82477 4.51376 6.82477C4.52102 6.26961 4.72421 4.93722 5.55149 3.33836C6.50939 1.49523 8.23652 0 8.23652 0C8.23652 0 8.14218 1.47302 8.28732 2.72399C8.4252 3.96014 8.94769 5.12968 9.09283 5.24071C9.09283 5.24071 9.12186 4.81139 9.22345 4.45608C9.32505 4.10818 9.63709 3.70847 9.63709 3.70847C9.66612 3.58263 9.7024 4.70036 10.087 5.39616C10.9869 7.00982 13.2655 9.11943 13.7953 9.90406C14.5572 11.0218 14.9999 12.369 14.9999 13.8124Z" fill="#CA404F"/>
<path d="M7.98979 20.1196C3.84613 20.1196 0.493466 16.8996 0.493466 12.9321C0.493466 12.4362 0.493466 9.97125 1.51668 7.83203C1.40057 8.01708 1.28446 8.20954 1.17561 8.4094C0 10.6078 0 13.2948 0 13.813C0 17.7805 3.35992 21.0004 7.50358 21.0004C10.5515 21.0004 13.1712 19.2609 14.3468 16.759C13.0188 18.7798 10.6676 20.1196 7.98979 20.1196Z" fill="#92384B"/>
<path d="M4.36901 6.20199C4.40529 6.50548 4.5214 6.84598 4.5214 6.84598C4.52866 6.31303 4.76088 4.94363 5.50833 3.43359C5.37045 3.65566 5.18903 4.00356 5.07292 4.23302C4.7391 4.87701 4.50689 5.47658 4.35449 5.99473C4.35449 6.06876 4.36175 6.13537 4.36901 6.20199Z" fill="#92384B"/>
<path d="M8.86074 11.5767C7.39486 13.405 5.33392 14.4858 5.8419 14.9891C6.37165 15.5147 9.49209 17.2319 11.8941 14.7226C13.1641 13.3976 13.0552 11.3102 12.344 10.0371C12.344 10.0371 12.7722 8.77871 12.7504 8.68988C12.6778 8.3864 11.1684 6.75052 10.958 6.6543C10.958 6.6543 10.7983 7.83864 10.5226 8.70469C10.3266 9.31166 9.72431 10.496 8.86074 11.5767Z" fill="#ECD0CF"/>
<path d="M9.70972 12.31C8.76633 13.4869 7.53266 14.2864 7.89551 14.5603C8.26561 14.8341 9.59361 15.5373 11.1393 13.9163C12.3004 12.7097 11.8069 11.1035 11.4441 10.837C11.074 10.5631 10.5007 11.3181 9.70972 12.31Z" fill="#DAB2B5"/>
<path d="M10.0802 12.9903C9.69557 13.5306 9.52866 14.0784 9.71008 14.2116C9.8915 14.3449 10.3487 14.0118 10.7333 13.4714C11.1179 12.9311 11.2848 12.3833 11.1034 12.2501C10.922 12.1168 10.4648 12.4499 10.0802 12.9903Z" fill="#C9949C"/>
<path d="M10.0943 5.3956C10.0363 5.29197 9.98545 5.18093 9.94191 5.0625C9.8766 5.16613 9.02029 6.51332 7.33671 7.71247C6.04499 8.63033 5.3193 9.31873 4.95646 11.3025C4.76778 12.3536 1.99567 10.7844 1.09582 12.1241C0.711206 12.6941 0.740234 13.2641 0.529785 13.6268C0.595097 15.27 1.70539 16.8467 1.70539 16.8467C1.51672 16.5728 1.64734 14.9221 2.27868 13.8266C2.881 12.7903 4.98549 12.7089 5.96516 11.606C6.98838 10.4587 6.95209 9.43716 7.67778 8.5193C8.70825 7.22392 10.0508 6.07659 10.7982 6.4393C10.5225 6.08399 10.2757 5.72869 10.0943 5.3956Z" fill="#F4EAE6"/>
<path d="M15 13.8125C14.9347 14.2936 14.4195 15.3151 13.7519 15.4706C12.54 15.7593 12.0465 14.9968 11.2773 15.7963C10.3411 16.7734 8.52694 17.558 6.58936 16.9436C5.09445 16.4699 3.39635 17.9799 2.32959 17.6468C3.16413 18.7497 5.10171 19.5788 5.31941 19.6528C5.15976 19.4677 4.67355 18.7127 5.13799 18.4684C6.03058 18.0021 7.35859 18.9126 8.30923 18.6387C9.44856 18.313 9.93477 17.3507 10.5371 16.9732C10.8419 16.7808 12.4384 15.4706 14.3469 16.7363C14.7678 15.8407 15 14.8488 15 13.8125Z" fill="#F4EAE6"/>
</svg>
