<svg width="159" height="21" viewBox="0 0 159 21" fill="none" xmlns="http://www.w3.org/2000/svg">
<g clip-path="url(#clip0_193_1321)">
<path d="M30.7139 6.68262L32.959 13.0216L35.017 6.68262L40.1932 6.68262L35.8901 19.4218L30.1526 19.4218L27.9699 13.5116H27.6892L28.4688 15.5939L27.0968 19.4218H21.3593L17.0562 6.68262L22.2324 6.68262L24.3216 13.0216L26.5043 6.68262H30.7139Z" fill="#151515"/>
<path d="M53.7262 19.4221H48.55L45.6501 11.4908L44.2469 15.1655H46.6479L48.207 19.3915H37.6675L42.7502 6.65234L48.5812 6.65234L53.7262 19.4221Z" fill="#151515"/>
<path d="M66.0122 13.2056V19.4221H59.121C54.7555 19.4221 52.1362 16.5741 52.1362 12.8381C52.1362 9.194 55.348 6.31543 59.0898 6.31543C62.894 6.31543 66.0122 9.01026 66.0122 12.8994L60.9296 12.8994C60.8672 11.9807 60.0565 11.307 59.0898 11.307C58.0608 11.307 57.2501 12.1338 57.2501 13.1137C57.2501 14.1243 58.0608 14.9205 59.0898 14.9205H60.9296V13.5425H59.5576V13.2056L66.0122 13.2056Z" fill="#151515"/>
<path d="M73.153 11.7354L72.1864 10.0511L74.1508 6.68262L79.7948 6.68262L74.4315 15.3183V19.4218H69.6294V15.3489L64.2661 6.68262L69.8789 6.68262L72.8724 11.7354H73.153Z" fill="#151515"/>
<path d="M92.2988 6.68262V13.4809C92.2988 17.6763 89.2118 19.7893 86.1247 19.7893C83.0377 19.7893 79.9507 17.7069 79.9507 13.4809V6.68262L84.7527 6.68262V13.4809C84.7527 14.4915 85.4387 15.0121 86.0935 15.0121C86.7796 15.0121 87.4344 14.4915 87.4344 13.4809V6.68262L92.2988 6.68262Z" fill="#151515"/>
<path d="M96.5082 14.6446H99.221L99.0027 14.3384H97.6307C96.7888 13.5422 96.477 12.4091 96.477 11.3067C96.477 8.06065 98.4103 6.68262 102.589 6.68262L109.542 6.68262V11.4904L103.275 11.4904C101.061 11.4904 100.842 14.6446 103.243 14.6446C105.239 14.6446 105.146 12.1641 103.618 11.7967L108.014 11.7967C109.137 12.6235 109.605 13.8484 109.605 15.0427C109.605 18.3194 107.297 19.3912 103.618 19.3912H96.4458V14.6446H96.5082Z" fill="#151515"/>
<path d="M123.262 6.68262L125.507 13.0216L127.565 6.68262L132.742 6.68262L128.438 19.4218L122.67 19.4218L120.487 13.5116H120.206L120.986 15.5939L119.614 19.4218H113.876L109.573 6.68262L114.781 6.68262L116.87 13.0216L119.053 6.68262H123.262Z" fill="#151515"/>
<path d="M146.243 19.4221H141.067L138.167 11.4908L136.764 15.1655H139.165L140.724 19.3915H130.185L135.267 6.65234L141.098 6.65234L146.243 19.4221Z" fill="#151515"/>
<path d="M146.431 6.68262L152.605 6.68262C160.151 6.68262 160.899 17.5232 152.698 17.5232H151.576V13.0828H152.698C154.101 13.0828 154.133 11.2761 152.698 11.2761H151.264V19.4218H146.462V6.68262H146.431Z" fill="#151515"/>
<path d="M15.0293 14.0629C15.0293 17.8907 11.6617 20.9837 7.54564 20.9837C3.42961 20.9837 0.0307617 17.8907 0.0307617 14.0629C0.0307617 13.5729 0.0307617 10.9699 1.21568 8.85694C2.33823 6.83582 4.3027 5.48841 4.3027 5.48841C4.3027 5.48841 4.33388 6.07025 4.39625 6.71333C4.42743 7.01956 4.55216 7.32579 4.55216 7.32579C4.55216 6.77457 4.77043 5.51903 5.58117 3.95726C6.54781 2.21174 8.26282 0.772461 8.26282 0.772461C8.26282 0.772461 8.16928 2.18112 8.32519 3.40604C8.44992 4.60034 8.98001 5.73339 9.13592 5.82526C9.13592 5.82526 9.1671 5.42716 9.26065 5.05969C9.35419 4.72283 9.66602 4.32473 9.66602 4.32473C9.6972 4.20224 9.72838 5.27405 10.1337 5.94775C11.038 7.50953 13.3143 9.53065 13.8444 10.2962C14.5928 11.3987 15.0293 12.6848 15.0293 14.0629Z" fill="#CA404F"/>
<path d="M8.01337 20.1262C3.86615 20.1262 0.498492 17.0332 0.498492 13.2053C0.498492 12.746 0.498493 10.3574 1.5275 8.30566C1.40277 8.4894 1.27804 8.67314 1.1845 8.85688C0.0307617 11.0005 0.0307617 13.5728 0.0307617 14.0628C0.0307617 17.8907 3.39842 20.9836 7.54564 20.9836C10.6015 20.9836 13.2208 19.2993 14.3745 16.9107C13.0337 18.84 10.695 20.1262 8.01337 20.1262Z" fill="#92384B"/>
<path d="M4.39648 6.74428C4.42767 7.05051 4.55239 7.35674 4.55239 7.35674C4.55239 6.83615 4.80185 5.51936 5.55022 4.08008C5.42549 4.29444 5.2384 4.63129 5.11367 4.84565C4.77067 5.45811 4.55239 6.03995 4.39648 6.52992C4.39648 6.62179 4.39648 6.68304 4.39648 6.74428Z" fill="#92384B"/>
<path d="M8.88654 11.9201C7.42098 13.6962 5.36297 14.7374 5.86188 15.1967C6.39198 15.7173 9.51018 17.371 11.9112 14.9517C13.1897 13.6656 13.0649 11.6751 12.3477 10.4501C12.3477 10.4501 12.7843 9.22522 12.7531 9.16398C12.6908 8.85775 11.1628 7.29597 10.9757 7.2041C10.9757 7.2041 10.8198 8.33715 10.5392 9.16398C10.3521 9.74581 9.75964 10.8789 8.88654 11.9201Z" fill="#ECD0CF"/>
<path d="M9.72821 12.6235C8.79275 13.7565 7.54547 14.5221 7.91965 14.7977C8.29384 15.0733 9.63467 15.747 11.1626 14.1853C12.3163 13.0216 11.8174 11.4904 11.4744 11.2148C11.1002 10.9392 10.5389 11.6742 9.72821 12.6235Z" fill="#DAB2B5"/>
<path d="M10.1024 13.2664C9.72818 13.787 9.54109 14.3076 9.72818 14.4301C9.91528 14.5526 10.3518 14.2463 10.7572 13.7257C11.1314 13.2051 11.3185 12.6846 11.1314 12.5621C10.9443 12.4396 10.4766 12.7458 10.1024 13.2664Z" fill="#C9949C"/>
<path d="M10.134 5.97908C10.0716 5.88721 10.0404 5.76472 9.97808 5.67285C9.91572 5.76472 9.0738 7.08151 7.38997 8.21456C6.08033 9.10263 5.36314 9.74571 5.02014 11.675C4.83304 12.6855 2.05784 11.185 1.15356 12.4712C0.779377 13.0224 0.81056 13.5736 0.592285 13.9104C0.623467 15.4722 1.74602 17.0034 1.74602 17.0034C1.55893 16.7278 1.68366 15.1354 2.3073 14.0942C2.89976 13.0836 5.02014 13.0224 5.98678 11.9506C7.01579 10.8481 6.98461 9.86821 7.70179 8.98014C8.7308 7.72459 10.0716 6.62217 10.82 6.98964C10.5705 6.62217 10.3211 6.28531 10.134 5.97908Z" fill="#F4EAE6"/>
<path d="M15.0295 14.0635C14.9672 14.5228 14.4371 15.5028 13.7823 15.6559C12.5662 15.9315 12.0672 15.1965 11.3189 15.9621C10.3834 16.9114 8.57486 17.6464 6.64157 17.0645C5.14483 16.6052 3.461 18.0751 2.36963 17.7382C3.21154 18.81 5.14483 19.6062 5.36311 19.6675C5.2072 19.4838 4.70828 18.7488 5.17601 18.5344C6.08029 18.0751 7.38994 18.9632 8.35658 18.6876C9.51032 18.3813 9.97805 17.4626 10.5705 17.0952C10.8823 16.9114 12.4726 15.6559 14.3747 16.8808C14.8113 16.0234 15.0295 15.074 15.0295 14.0635Z" fill="#F4EAE6"/>
</g>
<defs>
<clipPath id="clip0_193_1321">
<rect width="158.498" height="20.2112" fill="white" transform="translate(0.0307617 0.772461)"/>
</clipPath>
</defs>
</svg>
