<svg width="42" height="42" viewBox="0 0 42 42" fill="none" xmlns="http://www.w3.org/2000/svg">
<circle cx="21" cy="21" r="20.75" stroke="url(#paint0_linear_357_3063)" stroke-width="0.5"/>
<rect x="3" y="3" width="36" height="36" rx="18" fill="#EAC3F8"/>
<path d="M27 16.7993H14.7645C14.6184 16.7993 14.5 16.6809 14.5 16.5348C14.5 16.397 14.6057 16.2823 14.7431 16.2712L25.036 15.434C25.2859 15.4136 25.5 15.611 25.5 15.8617C25.5 16.0988 25.6922 16.2909 25.9292 16.2909H26.25C26.6642 16.2909 27 15.9552 27 15.5409V14.7659C27 13.6475 26.109 12.8625 25.021 13.0201L14.98 14.4781C13.891 14.6367 13 15.6809 13 16.7993V26.9665C13 27.5059 13.2107 28.0231 13.5858 28.4044C13.9609 28.7858 14.4696 29 15 29H27C27.5304 29 28.0391 28.7858 28.4142 28.4044C28.7893 28.0231 29 27.5059 29 26.9665V18.8328C29 18.2934 28.7893 17.7762 28.4142 17.3949C28.0391 17.0135 27.5304 16.7993 27 16.7993ZM25.5 23.9225C25.303 23.9224 25.1078 23.8829 24.9258 23.8062C24.7438 23.7294 24.5784 23.617 24.4391 23.4753C24.2998 23.3336 24.1894 23.1653 24.114 22.9802C24.0387 22.7951 23.9999 22.5967 24 22.3964C24.0001 22.196 24.0389 21.9977 24.1144 21.8126C24.1899 21.6275 24.3005 21.4594 24.4398 21.3178C24.5792 21.1761 24.7447 21.0638 24.9267 20.9872C25.1088 20.9106 25.304 20.8712 25.501 20.8713C25.899 20.8714 26.2806 21.0323 26.5619 21.3185C26.8432 21.6047 27.0011 21.9928 27.001 22.3974C27.0009 22.802 26.8427 23.19 26.5612 23.476C26.2797 23.762 25.898 23.9226 25.5 23.9225Z" fill="url(#paint1_linear_357_3063)"/>
<defs>
<linearGradient id="paint0_linear_357_3063" x1="2.5" y1="30.5" x2="35.5" y2="5" gradientUnits="userSpaceOnUse">
<stop stop-color="#D054FB"/>
<stop offset="1" stop-color="#B02CDF"/>
</linearGradient>
<linearGradient id="paint1_linear_357_3063" x1="29" y1="17.5" x2="13" y2="29" gradientUnits="userSpaceOnUse">
<stop stop-color="#B02CDF"/>
<stop offset="0.96875" stop-color="#D054FB"/>
</linearGradient>
</defs>
</svg>
