<svg width="17" height="17" viewBox="0 0 17 17" fill="none" xmlns="http://www.w3.org/2000/svg">
<path fill-rule="evenodd" clip-rule="evenodd" d="M8.49993 16.1499C12.7248 16.1499 16.1499 12.7248 16.1499 8.49993C16.1499 4.27504 12.7248 0.849993 8.49993 0.849993C4.27504 0.849993 0.849993 4.27504 0.849993 8.49993C0.849993 12.7248 4.27504 16.1499 8.49993 16.1499ZM8.49993 16.9999C13.1944 16.9999 16.9999 13.1944 16.9999 8.49993C16.9999 3.80542 13.1944 0 8.49993 0C3.80542 0 0 3.80542 0 8.49993C0 13.1944 3.80542 16.9999 8.49993 16.9999Z" fill="url(#paint0_linear_94_8114)"/>
<path d="M3.40039 13.4421C3.40039 13.0031 3.72849 12.6321 4.16538 12.5836C7.44423 12.2207 9.57134 12.2534 12.843 12.5917C13.0063 12.6088 13.1612 12.6732 13.2886 12.7769C13.416 12.8806 13.5104 13.0192 13.5603 13.1757C13.6103 13.3322 13.6136 13.4998 13.5698 13.6582C13.526 13.8165 13.4371 13.9587 13.3139 14.0673C9.45276 17.4328 7.24618 17.3865 3.67239 14.0707C3.49814 13.9092 3.40039 13.6797 3.40039 13.4425V13.4421Z" fill="url(#paint1_linear_94_8114)"/>
<path fill-rule="evenodd" clip-rule="evenodd" d="M12.7984 13.015C9.55271 12.6793 7.4562 12.6478 4.21093 13.007C3.99248 13.0312 3.8246 13.2177 3.8246 13.4434C3.8246 13.565 3.87518 13.6801 3.9606 13.76C5.73199 15.4031 7.07413 16.1455 8.38609 16.1502C9.70273 16.1549 11.1171 15.4184 13.0339 13.7481C13.0947 13.6939 13.1386 13.6232 13.16 13.5446C13.1815 13.4659 13.1796 13.3827 13.1547 13.3051C13.1297 13.2275 13.0828 13.1588 13.0195 13.1074C12.9563 13.056 12.8795 13.024 12.7984 13.0155V13.015ZM4.11785 12.1621C7.43112 11.7953 9.58925 11.8284 12.8864 12.1697C13.1322 12.1954 13.3651 12.2921 13.5568 12.4481C13.7484 12.6042 13.8904 12.8127 13.9653 13.0481C14.0403 13.2836 14.045 13.5358 13.9788 13.7739C13.9126 14.012 13.7784 14.2256 13.5927 14.3886C11.6484 16.0835 10.0291 17.0066 8.38354 17.0002C6.73328 16.9943 5.18544 16.0554 3.38303 14.3831C3.25398 14.2629 3.15111 14.1174 3.08084 13.9556C3.01056 13.7939 2.9744 13.6194 2.97461 13.443C2.97399 13.1261 3.0903 12.8202 3.30125 12.5837C3.5122 12.3473 3.80297 12.197 4.11785 12.1616V12.1621Z" fill="url(#paint2_linear_94_8114)"/>
<path d="M11.8996 6.80012C11.8996 7.70185 11.5413 8.56664 10.9037 9.20426C10.2661 9.84188 9.40131 10.2001 8.49958 10.2001C7.59785 10.2001 6.73306 9.84188 6.09544 9.20426C5.45782 8.56664 5.09961 7.70185 5.09961 6.80012C5.09961 5.89839 5.45782 5.03359 6.09544 4.39597C6.73306 3.75836 7.59785 3.40015 8.49958 3.40015C9.40131 3.40015 10.2661 3.75836 10.9037 4.39597C11.5413 5.03359 11.8996 5.89839 11.8996 6.80012Z" fill="url(#paint3_linear_94_8114)"/>
<path fill-rule="evenodd" clip-rule="evenodd" d="M8.49958 9.3501C9.17588 9.3501 9.82447 9.08144 10.3027 8.60322C10.7809 8.12501 11.0496 7.47641 11.0496 6.80012C11.0496 6.12382 10.7809 5.47522 10.3027 4.99701C9.82447 4.5188 9.17588 4.25014 8.49958 4.25014C7.82328 4.25014 7.17469 4.5188 6.69647 4.99701C6.21826 5.47522 5.9496 6.12382 5.9496 6.80012C5.9496 7.47641 6.21826 8.12501 6.69647 8.60322C7.17469 9.08144 7.82328 9.3501 8.49958 9.3501ZM8.49958 10.2001C9.40131 10.2001 10.2661 9.84188 10.9037 9.20426C11.5413 8.56664 11.8996 7.70185 11.8996 6.80012C11.8996 5.89839 11.5413 5.03359 10.9037 4.39597C10.2661 3.75836 9.40131 3.40015 8.49958 3.40015C7.59785 3.40015 6.73306 3.75836 6.09544 4.39597C5.45782 5.03359 5.09961 5.89839 5.09961 6.80012C5.09961 7.70185 5.45782 8.56664 6.09544 9.20426C6.73306 9.84188 7.59785 10.2001 8.49958 10.2001Z" fill="url(#paint4_linear_94_8114)"/>
<defs>
<linearGradient id="paint0_linear_94_8114" x1="14.0249" y1="2.12498" x2="2.33751" y2="15.0874" gradientUnits="userSpaceOnUse">
<stop stop-color="#B02CDF"/>
<stop offset="1" stop-color="#D054FB"/>
</linearGradient>
<linearGradient id="paint1_linear_94_8114" x1="11.8154" y1="12.8557" x2="9.88115" y2="18.0042" gradientUnits="userSpaceOnUse">
<stop stop-color="#B02CDF"/>
<stop offset="1" stop-color="#D054FB"/>
</linearGradient>
<linearGradient id="paint2_linear_94_8114" x1="12.0913" y1="12.5377" x2="9.59058" y2="18.5473" gradientUnits="userSpaceOnUse">
<stop stop-color="#B02CDF"/>
<stop offset="1" stop-color="#D054FB"/>
</linearGradient>
<linearGradient id="paint3_linear_94_8114" x1="10.7096" y1="4.25014" x2="6.03461" y2="9.43509" gradientUnits="userSpaceOnUse">
<stop stop-color="#B02CDF"/>
<stop offset="1" stop-color="#D054FB"/>
</linearGradient>
<linearGradient id="paint4_linear_94_8114" x1="10.7096" y1="4.25014" x2="6.03461" y2="9.43509" gradientUnits="userSpaceOnUse">
<stop stop-color="#B02CDF"/>
<stop offset="1" stop-color="#D054FB"/>
</linearGradient>
</defs>
</svg>
