<svg width="30" height="30" viewBox="0 0 30 30" fill="none" xmlns="http://www.w3.org/2000/svg">
<g filter="url(#filter0_d_0_1)">
<rect x="4.77783" y="3.77783" width="20.4444" height="20.4444" rx="10.2222" fill="#EAC3F8"/>
</g>
<circle cx="15" cy="14" r="11.75" stroke="url(#paint0_linear_0_1)" stroke-width="0.5"/>
<path fill-rule="evenodd" clip-rule="evenodd" d="M11.5 18.7186V11.125C11.5 10.8266 11.6229 10.5405 11.8417 10.3295C12.0605 10.1185 12.3572 10 12.6667 10H17.3333C17.6428 10 17.9395 10.1185 18.1583 10.3295C18.3771 10.5405 18.5 10.8266 18.5 11.125V18.7186C18.5 18.7674 18.4869 18.8154 18.4618 18.8578C18.4368 18.9003 18.4007 18.9357 18.3571 18.9606C18.3136 18.9856 18.264 18.9991 18.2134 19C18.1628 19.0008 18.1128 18.9889 18.0683 18.9655L15 17.3511L11.9317 18.9655C11.8872 18.9889 11.8372 19.0008 11.7866 19C11.736 18.9991 11.6864 18.9856 11.6429 18.9606C11.5993 18.9357 11.5632 18.9003 11.5382 18.8578C11.5131 18.8154 11.5 18.7674 11.5 18.7186ZM16.6648 13.2928C16.7196 13.24 16.7504 13.1684 16.7504 13.0937C16.7504 13.019 16.7196 12.9474 16.6648 12.8946C16.6101 12.8417 16.5358 12.8121 16.4583 12.8121C16.3809 12.8121 16.3066 12.8417 16.2518 12.8946L14.7083 14.3835L14.0398 13.7383C14.0127 13.7121 13.9805 13.6914 13.9451 13.6772C13.9097 13.6631 13.8717 13.6558 13.8333 13.6558C13.795 13.6558 13.757 13.6631 13.7216 13.6772C13.6861 13.6914 13.654 13.7121 13.6268 13.7383C13.5997 13.7644 13.5782 13.7955 13.5635 13.8296C13.5489 13.8638 13.5413 13.9004 13.5413 13.9374C13.5413 13.9744 13.5489 14.011 13.5635 14.0452C13.5782 14.0793 13.5997 14.1104 13.6268 14.1365L14.5018 14.9803C14.5289 15.0065 14.5611 15.0272 14.5965 15.0414C14.632 15.0556 14.67 15.0629 14.7083 15.0629C14.7467 15.0629 14.7847 15.0556 14.8201 15.0414C14.8556 15.0272 14.8877 15.0065 14.9148 14.9803L16.6648 13.2928Z" fill="url(#paint1_linear_0_1)"/>
<defs>
<filter id="filter0_d_0_1" x="0.777832" y="0.777832" width="28.4443" height="28.4443" filterUnits="userSpaceOnUse" color-interpolation-filters="sRGB">
<feFlood flood-opacity="0" result="BackgroundImageFix"/>
<feColorMatrix in="SourceAlpha" type="matrix" values="0 0 0 0 0 0 0 0 0 0 0 0 0 0 0 0 0 0 127 0" result="hardAlpha"/>
<feOffset dy="1"/>
<feGaussianBlur stdDeviation="2"/>
<feComposite in2="hardAlpha" operator="out"/>
<feColorMatrix type="matrix" values="0 0 0 0 0.917647 0 0 0 0 0.764706 0 0 0 0 0.972549 0 0 0 0.2 0"/>
<feBlend mode="normal" in2="BackgroundImageFix" result="effect1_dropShadow_0_1"/>
<feBlend mode="normal" in="SourceGraphic" in2="effect1_dropShadow_0_1" result="shape"/>
</filter>
<linearGradient id="paint0_linear_0_1" x1="4.42857" y1="19.4286" x2="23.2857" y2="4.85714" gradientUnits="userSpaceOnUse">
<stop stop-color="#D054FB"/>
<stop offset="1" stop-color="#B02CDF"/>
</linearGradient>
<linearGradient id="paint1_linear_0_1" x1="17.9167" y1="10.5625" x2="11.2084" y2="18.6786" gradientUnits="userSpaceOnUse">
<stop stop-color="#B02CDF"/>
<stop offset="1" stop-color="#D054FB"/>
</linearGradient>
</defs>
</svg>
