<svg width="20" height="18" viewBox="0 0 20 18" fill="none" xmlns="http://www.w3.org/2000/svg">
<path d="M9.99399 3.33301C9.99399 3.33301 4.26407 3.33302 2.82594 3.70671C2.05591 3.92186 1.42186 4.55593 1.2067 5.33728C0.833016 6.77541 0.833008 9.75367 0.833008 9.75367C0.833008 9.75367 0.833016 12.7433 1.2067 14.1588C1.42186 14.9401 2.04459 15.5628 2.82594 15.778C4.2754 16.163 9.99399 16.163 9.99399 16.163C9.99399 16.163 15.7353 16.163 17.1734 15.7893C17.9548 15.5742 18.5775 14.9628 18.7813 14.1701C19.1663 12.7433 19.1663 9.765 19.1663 9.765C19.1663 9.765 19.1777 6.77541 18.7813 5.33728C18.5775 4.55593 17.9548 3.9332 17.1734 3.72937C15.7353 3.33303 9.99399 3.33301 9.99399 3.33301ZM8.17082 7.00201L12.9383 9.75367L8.17082 12.494V7.00201Z" fill="white"/>
</svg>
