<svg width="18" height="16" viewBox="0 0 18 16" fill="none" xmlns="http://www.w3.org/2000/svg">
<g clip-path="url(#clip0_354_2087)">
<path d="M9.3517 3.24512C9.3517 3.24512 4.40191 3.24513 3.15959 3.56794C2.4944 3.7538 1.94667 4.30154 1.76081 4.97651C1.438 6.21883 1.43799 8.7916 1.43799 8.7916C1.43799 8.7916 1.438 11.3742 1.76081 12.5969C1.94667 13.2719 2.48462 13.8098 3.15959 13.9957C4.4117 14.3283 9.3517 14.3283 9.3517 14.3283C9.3517 14.3283 14.3113 14.3283 15.5536 14.0054C16.2286 13.8196 16.7665 13.2915 16.9426 12.6067C17.2752 11.3742 17.2752 8.80139 17.2752 8.80139C17.2752 8.80139 17.285 6.21883 16.9426 4.97651C16.7665 4.30154 16.2286 3.76359 15.5536 3.58751C14.3113 3.24513 9.3517 3.24512 9.3517 3.24512ZM7.77676 6.41458L11.8951 8.7916L7.77676 11.1588V6.41458Z" fill="#BBBBBB"/>
</g>
<defs>
<clipPath id="clip0_354_2087">
<rect width="17.277" height="15.5493" fill="white" transform="translate(0.718262 0.366211)"/>
</clipPath>
</defs>
</svg>
